G04 #@! TF.GenerationSoftware,KiCad,Pcbnew,(5.1.5)-3*
G04 #@! TF.CreationDate,2021-01-10T15:50:35-06:00*
G04 #@! TF.ProjectId,Power-SupplementalMonitoringPCB,506f7765-722d-4537-9570-706c656d656e,rev?*
G04 #@! TF.SameCoordinates,Original*
G04 #@! TF.FileFunction,Paste,Top*
G04 #@! TF.FilePolarity,Positive*
%FSLAX46Y46*%
G04 Gerber Fmt 4.6, Leading zero omitted, Abs format (unit mm)*
G04 Created by KiCad (PCBNEW (5.1.5)-3) date 2021-01-10 15:50:35*
%MOMM*%
%LPD*%
G04 APERTURE LIST*
%ADD10C,0.100000*%
%ADD11R,2.750000X1.000000*%
%ADD12R,1.500000X2.000000*%
%ADD13R,3.800000X2.000000*%
%ADD14R,1.950000X0.600000*%
%ADD15R,1.450000X0.450000*%
%ADD16R,2.400000X1.700000*%
%ADD17R,1.000000X0.700000*%
G04 APERTURE END LIST*
D10*
G36*
X145905142Y-70901174D02*
G01*
X145928803Y-70904684D01*
X145952007Y-70910496D01*
X145974529Y-70918554D01*
X145996153Y-70928782D01*
X146016670Y-70941079D01*
X146035883Y-70955329D01*
X146053607Y-70971393D01*
X146069671Y-70989117D01*
X146083921Y-71008330D01*
X146096218Y-71028847D01*
X146106446Y-71050471D01*
X146114504Y-71072993D01*
X146120316Y-71096197D01*
X146123826Y-71119858D01*
X146125000Y-71143750D01*
X146125000Y-72056250D01*
X146123826Y-72080142D01*
X146120316Y-72103803D01*
X146114504Y-72127007D01*
X146106446Y-72149529D01*
X146096218Y-72171153D01*
X146083921Y-72191670D01*
X146069671Y-72210883D01*
X146053607Y-72228607D01*
X146035883Y-72244671D01*
X146016670Y-72258921D01*
X145996153Y-72271218D01*
X145974529Y-72281446D01*
X145952007Y-72289504D01*
X145928803Y-72295316D01*
X145905142Y-72298826D01*
X145881250Y-72300000D01*
X145393750Y-72300000D01*
X145369858Y-72298826D01*
X145346197Y-72295316D01*
X145322993Y-72289504D01*
X145300471Y-72281446D01*
X145278847Y-72271218D01*
X145258330Y-72258921D01*
X145239117Y-72244671D01*
X145221393Y-72228607D01*
X145205329Y-72210883D01*
X145191079Y-72191670D01*
X145178782Y-72171153D01*
X145168554Y-72149529D01*
X145160496Y-72127007D01*
X145154684Y-72103803D01*
X145151174Y-72080142D01*
X145150000Y-72056250D01*
X145150000Y-71143750D01*
X145151174Y-71119858D01*
X145154684Y-71096197D01*
X145160496Y-71072993D01*
X145168554Y-71050471D01*
X145178782Y-71028847D01*
X145191079Y-71008330D01*
X145205329Y-70989117D01*
X145221393Y-70971393D01*
X145239117Y-70955329D01*
X145258330Y-70941079D01*
X145278847Y-70928782D01*
X145300471Y-70918554D01*
X145322993Y-70910496D01*
X145346197Y-70904684D01*
X145369858Y-70901174D01*
X145393750Y-70900000D01*
X145881250Y-70900000D01*
X145905142Y-70901174D01*
G37*
G36*
X144030142Y-70901174D02*
G01*
X144053803Y-70904684D01*
X144077007Y-70910496D01*
X144099529Y-70918554D01*
X144121153Y-70928782D01*
X144141670Y-70941079D01*
X144160883Y-70955329D01*
X144178607Y-70971393D01*
X144194671Y-70989117D01*
X144208921Y-71008330D01*
X144221218Y-71028847D01*
X144231446Y-71050471D01*
X144239504Y-71072993D01*
X144245316Y-71096197D01*
X144248826Y-71119858D01*
X144250000Y-71143750D01*
X144250000Y-72056250D01*
X144248826Y-72080142D01*
X144245316Y-72103803D01*
X144239504Y-72127007D01*
X144231446Y-72149529D01*
X144221218Y-72171153D01*
X144208921Y-72191670D01*
X144194671Y-72210883D01*
X144178607Y-72228607D01*
X144160883Y-72244671D01*
X144141670Y-72258921D01*
X144121153Y-72271218D01*
X144099529Y-72281446D01*
X144077007Y-72289504D01*
X144053803Y-72295316D01*
X144030142Y-72298826D01*
X144006250Y-72300000D01*
X143518750Y-72300000D01*
X143494858Y-72298826D01*
X143471197Y-72295316D01*
X143447993Y-72289504D01*
X143425471Y-72281446D01*
X143403847Y-72271218D01*
X143383330Y-72258921D01*
X143364117Y-72244671D01*
X143346393Y-72228607D01*
X143330329Y-72210883D01*
X143316079Y-72191670D01*
X143303782Y-72171153D01*
X143293554Y-72149529D01*
X143285496Y-72127007D01*
X143279684Y-72103803D01*
X143276174Y-72080142D01*
X143275000Y-72056250D01*
X143275000Y-71143750D01*
X143276174Y-71119858D01*
X143279684Y-71096197D01*
X143285496Y-71072993D01*
X143293554Y-71050471D01*
X143303782Y-71028847D01*
X143316079Y-71008330D01*
X143330329Y-70989117D01*
X143346393Y-70971393D01*
X143364117Y-70955329D01*
X143383330Y-70941079D01*
X143403847Y-70928782D01*
X143425471Y-70918554D01*
X143447993Y-70910496D01*
X143471197Y-70904684D01*
X143494858Y-70901174D01*
X143518750Y-70900000D01*
X144006250Y-70900000D01*
X144030142Y-70901174D01*
G37*
D11*
X151075000Y-81200000D03*
X145325000Y-81200000D03*
X145325000Y-85200000D03*
X151075000Y-85200000D03*
D12*
X100900000Y-84850000D03*
X105500000Y-84850000D03*
X103200000Y-84850000D03*
D13*
X103200000Y-78550000D03*
D10*
G36*
X114180142Y-87901174D02*
G01*
X114203803Y-87904684D01*
X114227007Y-87910496D01*
X114249529Y-87918554D01*
X114271153Y-87928782D01*
X114291670Y-87941079D01*
X114310883Y-87955329D01*
X114328607Y-87971393D01*
X114344671Y-87989117D01*
X114358921Y-88008330D01*
X114371218Y-88028847D01*
X114381446Y-88050471D01*
X114389504Y-88072993D01*
X114395316Y-88096197D01*
X114398826Y-88119858D01*
X114400000Y-88143750D01*
X114400000Y-89056250D01*
X114398826Y-89080142D01*
X114395316Y-89103803D01*
X114389504Y-89127007D01*
X114381446Y-89149529D01*
X114371218Y-89171153D01*
X114358921Y-89191670D01*
X114344671Y-89210883D01*
X114328607Y-89228607D01*
X114310883Y-89244671D01*
X114291670Y-89258921D01*
X114271153Y-89271218D01*
X114249529Y-89281446D01*
X114227007Y-89289504D01*
X114203803Y-89295316D01*
X114180142Y-89298826D01*
X114156250Y-89300000D01*
X113668750Y-89300000D01*
X113644858Y-89298826D01*
X113621197Y-89295316D01*
X113597993Y-89289504D01*
X113575471Y-89281446D01*
X113553847Y-89271218D01*
X113533330Y-89258921D01*
X113514117Y-89244671D01*
X113496393Y-89228607D01*
X113480329Y-89210883D01*
X113466079Y-89191670D01*
X113453782Y-89171153D01*
X113443554Y-89149529D01*
X113435496Y-89127007D01*
X113429684Y-89103803D01*
X113426174Y-89080142D01*
X113425000Y-89056250D01*
X113425000Y-88143750D01*
X113426174Y-88119858D01*
X113429684Y-88096197D01*
X113435496Y-88072993D01*
X113443554Y-88050471D01*
X113453782Y-88028847D01*
X113466079Y-88008330D01*
X113480329Y-87989117D01*
X113496393Y-87971393D01*
X113514117Y-87955329D01*
X113533330Y-87941079D01*
X113553847Y-87928782D01*
X113575471Y-87918554D01*
X113597993Y-87910496D01*
X113621197Y-87904684D01*
X113644858Y-87901174D01*
X113668750Y-87900000D01*
X114156250Y-87900000D01*
X114180142Y-87901174D01*
G37*
G36*
X116055142Y-87901174D02*
G01*
X116078803Y-87904684D01*
X116102007Y-87910496D01*
X116124529Y-87918554D01*
X116146153Y-87928782D01*
X116166670Y-87941079D01*
X116185883Y-87955329D01*
X116203607Y-87971393D01*
X116219671Y-87989117D01*
X116233921Y-88008330D01*
X116246218Y-88028847D01*
X116256446Y-88050471D01*
X116264504Y-88072993D01*
X116270316Y-88096197D01*
X116273826Y-88119858D01*
X116275000Y-88143750D01*
X116275000Y-89056250D01*
X116273826Y-89080142D01*
X116270316Y-89103803D01*
X116264504Y-89127007D01*
X116256446Y-89149529D01*
X116246218Y-89171153D01*
X116233921Y-89191670D01*
X116219671Y-89210883D01*
X116203607Y-89228607D01*
X116185883Y-89244671D01*
X116166670Y-89258921D01*
X116146153Y-89271218D01*
X116124529Y-89281446D01*
X116102007Y-89289504D01*
X116078803Y-89295316D01*
X116055142Y-89298826D01*
X116031250Y-89300000D01*
X115543750Y-89300000D01*
X115519858Y-89298826D01*
X115496197Y-89295316D01*
X115472993Y-89289504D01*
X115450471Y-89281446D01*
X115428847Y-89271218D01*
X115408330Y-89258921D01*
X115389117Y-89244671D01*
X115371393Y-89228607D01*
X115355329Y-89210883D01*
X115341079Y-89191670D01*
X115328782Y-89171153D01*
X115318554Y-89149529D01*
X115310496Y-89127007D01*
X115304684Y-89103803D01*
X115301174Y-89080142D01*
X115300000Y-89056250D01*
X115300000Y-88143750D01*
X115301174Y-88119858D01*
X115304684Y-88096197D01*
X115310496Y-88072993D01*
X115318554Y-88050471D01*
X115328782Y-88028847D01*
X115341079Y-88008330D01*
X115355329Y-87989117D01*
X115371393Y-87971393D01*
X115389117Y-87955329D01*
X115408330Y-87941079D01*
X115428847Y-87928782D01*
X115450471Y-87918554D01*
X115472993Y-87910496D01*
X115496197Y-87904684D01*
X115519858Y-87901174D01*
X115543750Y-87900000D01*
X116031250Y-87900000D01*
X116055142Y-87901174D01*
G37*
G36*
X111405142Y-87901174D02*
G01*
X111428803Y-87904684D01*
X111452007Y-87910496D01*
X111474529Y-87918554D01*
X111496153Y-87928782D01*
X111516670Y-87941079D01*
X111535883Y-87955329D01*
X111553607Y-87971393D01*
X111569671Y-87989117D01*
X111583921Y-88008330D01*
X111596218Y-88028847D01*
X111606446Y-88050471D01*
X111614504Y-88072993D01*
X111620316Y-88096197D01*
X111623826Y-88119858D01*
X111625000Y-88143750D01*
X111625000Y-89056250D01*
X111623826Y-89080142D01*
X111620316Y-89103803D01*
X111614504Y-89127007D01*
X111606446Y-89149529D01*
X111596218Y-89171153D01*
X111583921Y-89191670D01*
X111569671Y-89210883D01*
X111553607Y-89228607D01*
X111535883Y-89244671D01*
X111516670Y-89258921D01*
X111496153Y-89271218D01*
X111474529Y-89281446D01*
X111452007Y-89289504D01*
X111428803Y-89295316D01*
X111405142Y-89298826D01*
X111381250Y-89300000D01*
X110893750Y-89300000D01*
X110869858Y-89298826D01*
X110846197Y-89295316D01*
X110822993Y-89289504D01*
X110800471Y-89281446D01*
X110778847Y-89271218D01*
X110758330Y-89258921D01*
X110739117Y-89244671D01*
X110721393Y-89228607D01*
X110705329Y-89210883D01*
X110691079Y-89191670D01*
X110678782Y-89171153D01*
X110668554Y-89149529D01*
X110660496Y-89127007D01*
X110654684Y-89103803D01*
X110651174Y-89080142D01*
X110650000Y-89056250D01*
X110650000Y-88143750D01*
X110651174Y-88119858D01*
X110654684Y-88096197D01*
X110660496Y-88072993D01*
X110668554Y-88050471D01*
X110678782Y-88028847D01*
X110691079Y-88008330D01*
X110705329Y-87989117D01*
X110721393Y-87971393D01*
X110739117Y-87955329D01*
X110758330Y-87941079D01*
X110778847Y-87928782D01*
X110800471Y-87918554D01*
X110822993Y-87910496D01*
X110846197Y-87904684D01*
X110869858Y-87901174D01*
X110893750Y-87900000D01*
X111381250Y-87900000D01*
X111405142Y-87901174D01*
G37*
G36*
X109530142Y-87901174D02*
G01*
X109553803Y-87904684D01*
X109577007Y-87910496D01*
X109599529Y-87918554D01*
X109621153Y-87928782D01*
X109641670Y-87941079D01*
X109660883Y-87955329D01*
X109678607Y-87971393D01*
X109694671Y-87989117D01*
X109708921Y-88008330D01*
X109721218Y-88028847D01*
X109731446Y-88050471D01*
X109739504Y-88072993D01*
X109745316Y-88096197D01*
X109748826Y-88119858D01*
X109750000Y-88143750D01*
X109750000Y-89056250D01*
X109748826Y-89080142D01*
X109745316Y-89103803D01*
X109739504Y-89127007D01*
X109731446Y-89149529D01*
X109721218Y-89171153D01*
X109708921Y-89191670D01*
X109694671Y-89210883D01*
X109678607Y-89228607D01*
X109660883Y-89244671D01*
X109641670Y-89258921D01*
X109621153Y-89271218D01*
X109599529Y-89281446D01*
X109577007Y-89289504D01*
X109553803Y-89295316D01*
X109530142Y-89298826D01*
X109506250Y-89300000D01*
X109018750Y-89300000D01*
X108994858Y-89298826D01*
X108971197Y-89295316D01*
X108947993Y-89289504D01*
X108925471Y-89281446D01*
X108903847Y-89271218D01*
X108883330Y-89258921D01*
X108864117Y-89244671D01*
X108846393Y-89228607D01*
X108830329Y-89210883D01*
X108816079Y-89191670D01*
X108803782Y-89171153D01*
X108793554Y-89149529D01*
X108785496Y-89127007D01*
X108779684Y-89103803D01*
X108776174Y-89080142D01*
X108775000Y-89056250D01*
X108775000Y-88143750D01*
X108776174Y-88119858D01*
X108779684Y-88096197D01*
X108785496Y-88072993D01*
X108793554Y-88050471D01*
X108803782Y-88028847D01*
X108816079Y-88008330D01*
X108830329Y-87989117D01*
X108846393Y-87971393D01*
X108864117Y-87955329D01*
X108883330Y-87941079D01*
X108903847Y-87928782D01*
X108925471Y-87918554D01*
X108947993Y-87910496D01*
X108971197Y-87904684D01*
X108994858Y-87901174D01*
X109018750Y-87900000D01*
X109506250Y-87900000D01*
X109530142Y-87901174D01*
G37*
D14*
X135330000Y-88775000D03*
X135330000Y-90045000D03*
X135330000Y-91315000D03*
X135330000Y-92585000D03*
X135330000Y-93855000D03*
X135330000Y-95125000D03*
X135330000Y-96395000D03*
X135330000Y-97665000D03*
X135330000Y-98935000D03*
X135330000Y-100205000D03*
X125930000Y-100205000D03*
X125930000Y-98935000D03*
X125930000Y-97665000D03*
X125930000Y-96395000D03*
X125930000Y-95125000D03*
X125930000Y-93855000D03*
X125930000Y-92585000D03*
X125930000Y-91315000D03*
X125930000Y-90045000D03*
X125930000Y-88775000D03*
D15*
X152700000Y-74525000D03*
X152700000Y-75175000D03*
X152700000Y-75825000D03*
X152700000Y-76475000D03*
X148300000Y-76475000D03*
X148300000Y-75825000D03*
X148300000Y-75175000D03*
X148300000Y-74525000D03*
D16*
X140800000Y-77950000D03*
X140800000Y-81650000D03*
D17*
X155100000Y-97030000D03*
X152700000Y-97980000D03*
X152700000Y-96080000D03*
D10*
G36*
X134462351Y-83200361D02*
G01*
X134469632Y-83201441D01*
X134476771Y-83203229D01*
X134483701Y-83205709D01*
X134490355Y-83208856D01*
X134496668Y-83212640D01*
X134502579Y-83217024D01*
X134508033Y-83221967D01*
X134512976Y-83227421D01*
X134517360Y-83233332D01*
X134521144Y-83239645D01*
X134524291Y-83246299D01*
X134526771Y-83253229D01*
X134528559Y-83260368D01*
X134529639Y-83267649D01*
X134530000Y-83275000D01*
X134530000Y-84675000D01*
X134529639Y-84682351D01*
X134528559Y-84689632D01*
X134526771Y-84696771D01*
X134524291Y-84703701D01*
X134521144Y-84710355D01*
X134517360Y-84716668D01*
X134512976Y-84722579D01*
X134508033Y-84728033D01*
X134502579Y-84732976D01*
X134496668Y-84737360D01*
X134490355Y-84741144D01*
X134483701Y-84744291D01*
X134476771Y-84746771D01*
X134469632Y-84748559D01*
X134462351Y-84749639D01*
X134455000Y-84750000D01*
X134305000Y-84750000D01*
X134297649Y-84749639D01*
X134290368Y-84748559D01*
X134283229Y-84746771D01*
X134276299Y-84744291D01*
X134269645Y-84741144D01*
X134263332Y-84737360D01*
X134257421Y-84732976D01*
X134251967Y-84728033D01*
X134247024Y-84722579D01*
X134242640Y-84716668D01*
X134238856Y-84710355D01*
X134235709Y-84703701D01*
X134233229Y-84696771D01*
X134231441Y-84689632D01*
X134230361Y-84682351D01*
X134230000Y-84675000D01*
X134230000Y-83275000D01*
X134230361Y-83267649D01*
X134231441Y-83260368D01*
X134233229Y-83253229D01*
X134235709Y-83246299D01*
X134238856Y-83239645D01*
X134242640Y-83233332D01*
X134247024Y-83227421D01*
X134251967Y-83221967D01*
X134257421Y-83217024D01*
X134263332Y-83212640D01*
X134269645Y-83208856D01*
X134276299Y-83205709D01*
X134283229Y-83203229D01*
X134290368Y-83201441D01*
X134297649Y-83200361D01*
X134305000Y-83200000D01*
X134455000Y-83200000D01*
X134462351Y-83200361D01*
G37*
G36*
X133962351Y-83200361D02*
G01*
X133969632Y-83201441D01*
X133976771Y-83203229D01*
X133983701Y-83205709D01*
X133990355Y-83208856D01*
X133996668Y-83212640D01*
X134002579Y-83217024D01*
X134008033Y-83221967D01*
X134012976Y-83227421D01*
X134017360Y-83233332D01*
X134021144Y-83239645D01*
X134024291Y-83246299D01*
X134026771Y-83253229D01*
X134028559Y-83260368D01*
X134029639Y-83267649D01*
X134030000Y-83275000D01*
X134030000Y-84675000D01*
X134029639Y-84682351D01*
X134028559Y-84689632D01*
X134026771Y-84696771D01*
X134024291Y-84703701D01*
X134021144Y-84710355D01*
X134017360Y-84716668D01*
X134012976Y-84722579D01*
X134008033Y-84728033D01*
X134002579Y-84732976D01*
X133996668Y-84737360D01*
X133990355Y-84741144D01*
X133983701Y-84744291D01*
X133976771Y-84746771D01*
X133969632Y-84748559D01*
X133962351Y-84749639D01*
X133955000Y-84750000D01*
X133805000Y-84750000D01*
X133797649Y-84749639D01*
X133790368Y-84748559D01*
X133783229Y-84746771D01*
X133776299Y-84744291D01*
X133769645Y-84741144D01*
X133763332Y-84737360D01*
X133757421Y-84732976D01*
X133751967Y-84728033D01*
X133747024Y-84722579D01*
X133742640Y-84716668D01*
X133738856Y-84710355D01*
X133735709Y-84703701D01*
X133733229Y-84696771D01*
X133731441Y-84689632D01*
X133730361Y-84682351D01*
X133730000Y-84675000D01*
X133730000Y-83275000D01*
X133730361Y-83267649D01*
X133731441Y-83260368D01*
X133733229Y-83253229D01*
X133735709Y-83246299D01*
X133738856Y-83239645D01*
X133742640Y-83233332D01*
X133747024Y-83227421D01*
X133751967Y-83221967D01*
X133757421Y-83217024D01*
X133763332Y-83212640D01*
X133769645Y-83208856D01*
X133776299Y-83205709D01*
X133783229Y-83203229D01*
X133790368Y-83201441D01*
X133797649Y-83200361D01*
X133805000Y-83200000D01*
X133955000Y-83200000D01*
X133962351Y-83200361D01*
G37*
G36*
X133462351Y-83200361D02*
G01*
X133469632Y-83201441D01*
X133476771Y-83203229D01*
X133483701Y-83205709D01*
X133490355Y-83208856D01*
X133496668Y-83212640D01*
X133502579Y-83217024D01*
X133508033Y-83221967D01*
X133512976Y-83227421D01*
X133517360Y-83233332D01*
X133521144Y-83239645D01*
X133524291Y-83246299D01*
X133526771Y-83253229D01*
X133528559Y-83260368D01*
X133529639Y-83267649D01*
X133530000Y-83275000D01*
X133530000Y-84675000D01*
X133529639Y-84682351D01*
X133528559Y-84689632D01*
X133526771Y-84696771D01*
X133524291Y-84703701D01*
X133521144Y-84710355D01*
X133517360Y-84716668D01*
X133512976Y-84722579D01*
X133508033Y-84728033D01*
X133502579Y-84732976D01*
X133496668Y-84737360D01*
X133490355Y-84741144D01*
X133483701Y-84744291D01*
X133476771Y-84746771D01*
X133469632Y-84748559D01*
X133462351Y-84749639D01*
X133455000Y-84750000D01*
X133305000Y-84750000D01*
X133297649Y-84749639D01*
X133290368Y-84748559D01*
X133283229Y-84746771D01*
X133276299Y-84744291D01*
X133269645Y-84741144D01*
X133263332Y-84737360D01*
X133257421Y-84732976D01*
X133251967Y-84728033D01*
X133247024Y-84722579D01*
X133242640Y-84716668D01*
X133238856Y-84710355D01*
X133235709Y-84703701D01*
X133233229Y-84696771D01*
X133231441Y-84689632D01*
X133230361Y-84682351D01*
X133230000Y-84675000D01*
X133230000Y-83275000D01*
X133230361Y-83267649D01*
X133231441Y-83260368D01*
X133233229Y-83253229D01*
X133235709Y-83246299D01*
X133238856Y-83239645D01*
X133242640Y-83233332D01*
X133247024Y-83227421D01*
X133251967Y-83221967D01*
X133257421Y-83217024D01*
X133263332Y-83212640D01*
X133269645Y-83208856D01*
X133276299Y-83205709D01*
X133283229Y-83203229D01*
X133290368Y-83201441D01*
X133297649Y-83200361D01*
X133305000Y-83200000D01*
X133455000Y-83200000D01*
X133462351Y-83200361D01*
G37*
G36*
X132962351Y-83200361D02*
G01*
X132969632Y-83201441D01*
X132976771Y-83203229D01*
X132983701Y-83205709D01*
X132990355Y-83208856D01*
X132996668Y-83212640D01*
X133002579Y-83217024D01*
X133008033Y-83221967D01*
X133012976Y-83227421D01*
X133017360Y-83233332D01*
X133021144Y-83239645D01*
X133024291Y-83246299D01*
X133026771Y-83253229D01*
X133028559Y-83260368D01*
X133029639Y-83267649D01*
X133030000Y-83275000D01*
X133030000Y-84675000D01*
X133029639Y-84682351D01*
X133028559Y-84689632D01*
X133026771Y-84696771D01*
X133024291Y-84703701D01*
X133021144Y-84710355D01*
X133017360Y-84716668D01*
X133012976Y-84722579D01*
X133008033Y-84728033D01*
X133002579Y-84732976D01*
X132996668Y-84737360D01*
X132990355Y-84741144D01*
X132983701Y-84744291D01*
X132976771Y-84746771D01*
X132969632Y-84748559D01*
X132962351Y-84749639D01*
X132955000Y-84750000D01*
X132805000Y-84750000D01*
X132797649Y-84749639D01*
X132790368Y-84748559D01*
X132783229Y-84746771D01*
X132776299Y-84744291D01*
X132769645Y-84741144D01*
X132763332Y-84737360D01*
X132757421Y-84732976D01*
X132751967Y-84728033D01*
X132747024Y-84722579D01*
X132742640Y-84716668D01*
X132738856Y-84710355D01*
X132735709Y-84703701D01*
X132733229Y-84696771D01*
X132731441Y-84689632D01*
X132730361Y-84682351D01*
X132730000Y-84675000D01*
X132730000Y-83275000D01*
X132730361Y-83267649D01*
X132731441Y-83260368D01*
X132733229Y-83253229D01*
X132735709Y-83246299D01*
X132738856Y-83239645D01*
X132742640Y-83233332D01*
X132747024Y-83227421D01*
X132751967Y-83221967D01*
X132757421Y-83217024D01*
X132763332Y-83212640D01*
X132769645Y-83208856D01*
X132776299Y-83205709D01*
X132783229Y-83203229D01*
X132790368Y-83201441D01*
X132797649Y-83200361D01*
X132805000Y-83200000D01*
X132955000Y-83200000D01*
X132962351Y-83200361D01*
G37*
G36*
X132462351Y-83200361D02*
G01*
X132469632Y-83201441D01*
X132476771Y-83203229D01*
X132483701Y-83205709D01*
X132490355Y-83208856D01*
X132496668Y-83212640D01*
X132502579Y-83217024D01*
X132508033Y-83221967D01*
X132512976Y-83227421D01*
X132517360Y-83233332D01*
X132521144Y-83239645D01*
X132524291Y-83246299D01*
X132526771Y-83253229D01*
X132528559Y-83260368D01*
X132529639Y-83267649D01*
X132530000Y-83275000D01*
X132530000Y-84675000D01*
X132529639Y-84682351D01*
X132528559Y-84689632D01*
X132526771Y-84696771D01*
X132524291Y-84703701D01*
X132521144Y-84710355D01*
X132517360Y-84716668D01*
X132512976Y-84722579D01*
X132508033Y-84728033D01*
X132502579Y-84732976D01*
X132496668Y-84737360D01*
X132490355Y-84741144D01*
X132483701Y-84744291D01*
X132476771Y-84746771D01*
X132469632Y-84748559D01*
X132462351Y-84749639D01*
X132455000Y-84750000D01*
X132305000Y-84750000D01*
X132297649Y-84749639D01*
X132290368Y-84748559D01*
X132283229Y-84746771D01*
X132276299Y-84744291D01*
X132269645Y-84741144D01*
X132263332Y-84737360D01*
X132257421Y-84732976D01*
X132251967Y-84728033D01*
X132247024Y-84722579D01*
X132242640Y-84716668D01*
X132238856Y-84710355D01*
X132235709Y-84703701D01*
X132233229Y-84696771D01*
X132231441Y-84689632D01*
X132230361Y-84682351D01*
X132230000Y-84675000D01*
X132230000Y-83275000D01*
X132230361Y-83267649D01*
X132231441Y-83260368D01*
X132233229Y-83253229D01*
X132235709Y-83246299D01*
X132238856Y-83239645D01*
X132242640Y-83233332D01*
X132247024Y-83227421D01*
X132251967Y-83221967D01*
X132257421Y-83217024D01*
X132263332Y-83212640D01*
X132269645Y-83208856D01*
X132276299Y-83205709D01*
X132283229Y-83203229D01*
X132290368Y-83201441D01*
X132297649Y-83200361D01*
X132305000Y-83200000D01*
X132455000Y-83200000D01*
X132462351Y-83200361D01*
G37*
G36*
X131962351Y-83200361D02*
G01*
X131969632Y-83201441D01*
X131976771Y-83203229D01*
X131983701Y-83205709D01*
X131990355Y-83208856D01*
X131996668Y-83212640D01*
X132002579Y-83217024D01*
X132008033Y-83221967D01*
X132012976Y-83227421D01*
X132017360Y-83233332D01*
X132021144Y-83239645D01*
X132024291Y-83246299D01*
X132026771Y-83253229D01*
X132028559Y-83260368D01*
X132029639Y-83267649D01*
X132030000Y-83275000D01*
X132030000Y-84675000D01*
X132029639Y-84682351D01*
X132028559Y-84689632D01*
X132026771Y-84696771D01*
X132024291Y-84703701D01*
X132021144Y-84710355D01*
X132017360Y-84716668D01*
X132012976Y-84722579D01*
X132008033Y-84728033D01*
X132002579Y-84732976D01*
X131996668Y-84737360D01*
X131990355Y-84741144D01*
X131983701Y-84744291D01*
X131976771Y-84746771D01*
X131969632Y-84748559D01*
X131962351Y-84749639D01*
X131955000Y-84750000D01*
X131805000Y-84750000D01*
X131797649Y-84749639D01*
X131790368Y-84748559D01*
X131783229Y-84746771D01*
X131776299Y-84744291D01*
X131769645Y-84741144D01*
X131763332Y-84737360D01*
X131757421Y-84732976D01*
X131751967Y-84728033D01*
X131747024Y-84722579D01*
X131742640Y-84716668D01*
X131738856Y-84710355D01*
X131735709Y-84703701D01*
X131733229Y-84696771D01*
X131731441Y-84689632D01*
X131730361Y-84682351D01*
X131730000Y-84675000D01*
X131730000Y-83275000D01*
X131730361Y-83267649D01*
X131731441Y-83260368D01*
X131733229Y-83253229D01*
X131735709Y-83246299D01*
X131738856Y-83239645D01*
X131742640Y-83233332D01*
X131747024Y-83227421D01*
X131751967Y-83221967D01*
X131757421Y-83217024D01*
X131763332Y-83212640D01*
X131769645Y-83208856D01*
X131776299Y-83205709D01*
X131783229Y-83203229D01*
X131790368Y-83201441D01*
X131797649Y-83200361D01*
X131805000Y-83200000D01*
X131955000Y-83200000D01*
X131962351Y-83200361D01*
G37*
G36*
X131462351Y-83200361D02*
G01*
X131469632Y-83201441D01*
X131476771Y-83203229D01*
X131483701Y-83205709D01*
X131490355Y-83208856D01*
X131496668Y-83212640D01*
X131502579Y-83217024D01*
X131508033Y-83221967D01*
X131512976Y-83227421D01*
X131517360Y-83233332D01*
X131521144Y-83239645D01*
X131524291Y-83246299D01*
X131526771Y-83253229D01*
X131528559Y-83260368D01*
X131529639Y-83267649D01*
X131530000Y-83275000D01*
X131530000Y-84675000D01*
X131529639Y-84682351D01*
X131528559Y-84689632D01*
X131526771Y-84696771D01*
X131524291Y-84703701D01*
X131521144Y-84710355D01*
X131517360Y-84716668D01*
X131512976Y-84722579D01*
X131508033Y-84728033D01*
X131502579Y-84732976D01*
X131496668Y-84737360D01*
X131490355Y-84741144D01*
X131483701Y-84744291D01*
X131476771Y-84746771D01*
X131469632Y-84748559D01*
X131462351Y-84749639D01*
X131455000Y-84750000D01*
X131305000Y-84750000D01*
X131297649Y-84749639D01*
X131290368Y-84748559D01*
X131283229Y-84746771D01*
X131276299Y-84744291D01*
X131269645Y-84741144D01*
X131263332Y-84737360D01*
X131257421Y-84732976D01*
X131251967Y-84728033D01*
X131247024Y-84722579D01*
X131242640Y-84716668D01*
X131238856Y-84710355D01*
X131235709Y-84703701D01*
X131233229Y-84696771D01*
X131231441Y-84689632D01*
X131230361Y-84682351D01*
X131230000Y-84675000D01*
X131230000Y-83275000D01*
X131230361Y-83267649D01*
X131231441Y-83260368D01*
X131233229Y-83253229D01*
X131235709Y-83246299D01*
X131238856Y-83239645D01*
X131242640Y-83233332D01*
X131247024Y-83227421D01*
X131251967Y-83221967D01*
X131257421Y-83217024D01*
X131263332Y-83212640D01*
X131269645Y-83208856D01*
X131276299Y-83205709D01*
X131283229Y-83203229D01*
X131290368Y-83201441D01*
X131297649Y-83200361D01*
X131305000Y-83200000D01*
X131455000Y-83200000D01*
X131462351Y-83200361D01*
G37*
G36*
X130962351Y-83200361D02*
G01*
X130969632Y-83201441D01*
X130976771Y-83203229D01*
X130983701Y-83205709D01*
X130990355Y-83208856D01*
X130996668Y-83212640D01*
X131002579Y-83217024D01*
X131008033Y-83221967D01*
X131012976Y-83227421D01*
X131017360Y-83233332D01*
X131021144Y-83239645D01*
X131024291Y-83246299D01*
X131026771Y-83253229D01*
X131028559Y-83260368D01*
X131029639Y-83267649D01*
X131030000Y-83275000D01*
X131030000Y-84675000D01*
X131029639Y-84682351D01*
X131028559Y-84689632D01*
X131026771Y-84696771D01*
X131024291Y-84703701D01*
X131021144Y-84710355D01*
X131017360Y-84716668D01*
X131012976Y-84722579D01*
X131008033Y-84728033D01*
X131002579Y-84732976D01*
X130996668Y-84737360D01*
X130990355Y-84741144D01*
X130983701Y-84744291D01*
X130976771Y-84746771D01*
X130969632Y-84748559D01*
X130962351Y-84749639D01*
X130955000Y-84750000D01*
X130805000Y-84750000D01*
X130797649Y-84749639D01*
X130790368Y-84748559D01*
X130783229Y-84746771D01*
X130776299Y-84744291D01*
X130769645Y-84741144D01*
X130763332Y-84737360D01*
X130757421Y-84732976D01*
X130751967Y-84728033D01*
X130747024Y-84722579D01*
X130742640Y-84716668D01*
X130738856Y-84710355D01*
X130735709Y-84703701D01*
X130733229Y-84696771D01*
X130731441Y-84689632D01*
X130730361Y-84682351D01*
X130730000Y-84675000D01*
X130730000Y-83275000D01*
X130730361Y-83267649D01*
X130731441Y-83260368D01*
X130733229Y-83253229D01*
X130735709Y-83246299D01*
X130738856Y-83239645D01*
X130742640Y-83233332D01*
X130747024Y-83227421D01*
X130751967Y-83221967D01*
X130757421Y-83217024D01*
X130763332Y-83212640D01*
X130769645Y-83208856D01*
X130776299Y-83205709D01*
X130783229Y-83203229D01*
X130790368Y-83201441D01*
X130797649Y-83200361D01*
X130805000Y-83200000D01*
X130955000Y-83200000D01*
X130962351Y-83200361D01*
G37*
G36*
X130462351Y-83200361D02*
G01*
X130469632Y-83201441D01*
X130476771Y-83203229D01*
X130483701Y-83205709D01*
X130490355Y-83208856D01*
X130496668Y-83212640D01*
X130502579Y-83217024D01*
X130508033Y-83221967D01*
X130512976Y-83227421D01*
X130517360Y-83233332D01*
X130521144Y-83239645D01*
X130524291Y-83246299D01*
X130526771Y-83253229D01*
X130528559Y-83260368D01*
X130529639Y-83267649D01*
X130530000Y-83275000D01*
X130530000Y-84675000D01*
X130529639Y-84682351D01*
X130528559Y-84689632D01*
X130526771Y-84696771D01*
X130524291Y-84703701D01*
X130521144Y-84710355D01*
X130517360Y-84716668D01*
X130512976Y-84722579D01*
X130508033Y-84728033D01*
X130502579Y-84732976D01*
X130496668Y-84737360D01*
X130490355Y-84741144D01*
X130483701Y-84744291D01*
X130476771Y-84746771D01*
X130469632Y-84748559D01*
X130462351Y-84749639D01*
X130455000Y-84750000D01*
X130305000Y-84750000D01*
X130297649Y-84749639D01*
X130290368Y-84748559D01*
X130283229Y-84746771D01*
X130276299Y-84744291D01*
X130269645Y-84741144D01*
X130263332Y-84737360D01*
X130257421Y-84732976D01*
X130251967Y-84728033D01*
X130247024Y-84722579D01*
X130242640Y-84716668D01*
X130238856Y-84710355D01*
X130235709Y-84703701D01*
X130233229Y-84696771D01*
X130231441Y-84689632D01*
X130230361Y-84682351D01*
X130230000Y-84675000D01*
X130230000Y-83275000D01*
X130230361Y-83267649D01*
X130231441Y-83260368D01*
X130233229Y-83253229D01*
X130235709Y-83246299D01*
X130238856Y-83239645D01*
X130242640Y-83233332D01*
X130247024Y-83227421D01*
X130251967Y-83221967D01*
X130257421Y-83217024D01*
X130263332Y-83212640D01*
X130269645Y-83208856D01*
X130276299Y-83205709D01*
X130283229Y-83203229D01*
X130290368Y-83201441D01*
X130297649Y-83200361D01*
X130305000Y-83200000D01*
X130455000Y-83200000D01*
X130462351Y-83200361D01*
G37*
G36*
X129962351Y-83200361D02*
G01*
X129969632Y-83201441D01*
X129976771Y-83203229D01*
X129983701Y-83205709D01*
X129990355Y-83208856D01*
X129996668Y-83212640D01*
X130002579Y-83217024D01*
X130008033Y-83221967D01*
X130012976Y-83227421D01*
X130017360Y-83233332D01*
X130021144Y-83239645D01*
X130024291Y-83246299D01*
X130026771Y-83253229D01*
X130028559Y-83260368D01*
X130029639Y-83267649D01*
X130030000Y-83275000D01*
X130030000Y-84675000D01*
X130029639Y-84682351D01*
X130028559Y-84689632D01*
X130026771Y-84696771D01*
X130024291Y-84703701D01*
X130021144Y-84710355D01*
X130017360Y-84716668D01*
X130012976Y-84722579D01*
X130008033Y-84728033D01*
X130002579Y-84732976D01*
X129996668Y-84737360D01*
X129990355Y-84741144D01*
X129983701Y-84744291D01*
X129976771Y-84746771D01*
X129969632Y-84748559D01*
X129962351Y-84749639D01*
X129955000Y-84750000D01*
X129805000Y-84750000D01*
X129797649Y-84749639D01*
X129790368Y-84748559D01*
X129783229Y-84746771D01*
X129776299Y-84744291D01*
X129769645Y-84741144D01*
X129763332Y-84737360D01*
X129757421Y-84732976D01*
X129751967Y-84728033D01*
X129747024Y-84722579D01*
X129742640Y-84716668D01*
X129738856Y-84710355D01*
X129735709Y-84703701D01*
X129733229Y-84696771D01*
X129731441Y-84689632D01*
X129730361Y-84682351D01*
X129730000Y-84675000D01*
X129730000Y-83275000D01*
X129730361Y-83267649D01*
X129731441Y-83260368D01*
X129733229Y-83253229D01*
X129735709Y-83246299D01*
X129738856Y-83239645D01*
X129742640Y-83233332D01*
X129747024Y-83227421D01*
X129751967Y-83221967D01*
X129757421Y-83217024D01*
X129763332Y-83212640D01*
X129769645Y-83208856D01*
X129776299Y-83205709D01*
X129783229Y-83203229D01*
X129790368Y-83201441D01*
X129797649Y-83200361D01*
X129805000Y-83200000D01*
X129955000Y-83200000D01*
X129962351Y-83200361D01*
G37*
G36*
X129462351Y-83200361D02*
G01*
X129469632Y-83201441D01*
X129476771Y-83203229D01*
X129483701Y-83205709D01*
X129490355Y-83208856D01*
X129496668Y-83212640D01*
X129502579Y-83217024D01*
X129508033Y-83221967D01*
X129512976Y-83227421D01*
X129517360Y-83233332D01*
X129521144Y-83239645D01*
X129524291Y-83246299D01*
X129526771Y-83253229D01*
X129528559Y-83260368D01*
X129529639Y-83267649D01*
X129530000Y-83275000D01*
X129530000Y-84675000D01*
X129529639Y-84682351D01*
X129528559Y-84689632D01*
X129526771Y-84696771D01*
X129524291Y-84703701D01*
X129521144Y-84710355D01*
X129517360Y-84716668D01*
X129512976Y-84722579D01*
X129508033Y-84728033D01*
X129502579Y-84732976D01*
X129496668Y-84737360D01*
X129490355Y-84741144D01*
X129483701Y-84744291D01*
X129476771Y-84746771D01*
X129469632Y-84748559D01*
X129462351Y-84749639D01*
X129455000Y-84750000D01*
X129305000Y-84750000D01*
X129297649Y-84749639D01*
X129290368Y-84748559D01*
X129283229Y-84746771D01*
X129276299Y-84744291D01*
X129269645Y-84741144D01*
X129263332Y-84737360D01*
X129257421Y-84732976D01*
X129251967Y-84728033D01*
X129247024Y-84722579D01*
X129242640Y-84716668D01*
X129238856Y-84710355D01*
X129235709Y-84703701D01*
X129233229Y-84696771D01*
X129231441Y-84689632D01*
X129230361Y-84682351D01*
X129230000Y-84675000D01*
X129230000Y-83275000D01*
X129230361Y-83267649D01*
X129231441Y-83260368D01*
X129233229Y-83253229D01*
X129235709Y-83246299D01*
X129238856Y-83239645D01*
X129242640Y-83233332D01*
X129247024Y-83227421D01*
X129251967Y-83221967D01*
X129257421Y-83217024D01*
X129263332Y-83212640D01*
X129269645Y-83208856D01*
X129276299Y-83205709D01*
X129283229Y-83203229D01*
X129290368Y-83201441D01*
X129297649Y-83200361D01*
X129305000Y-83200000D01*
X129455000Y-83200000D01*
X129462351Y-83200361D01*
G37*
G36*
X128962351Y-83200361D02*
G01*
X128969632Y-83201441D01*
X128976771Y-83203229D01*
X128983701Y-83205709D01*
X128990355Y-83208856D01*
X128996668Y-83212640D01*
X129002579Y-83217024D01*
X129008033Y-83221967D01*
X129012976Y-83227421D01*
X129017360Y-83233332D01*
X129021144Y-83239645D01*
X129024291Y-83246299D01*
X129026771Y-83253229D01*
X129028559Y-83260368D01*
X129029639Y-83267649D01*
X129030000Y-83275000D01*
X129030000Y-84675000D01*
X129029639Y-84682351D01*
X129028559Y-84689632D01*
X129026771Y-84696771D01*
X129024291Y-84703701D01*
X129021144Y-84710355D01*
X129017360Y-84716668D01*
X129012976Y-84722579D01*
X129008033Y-84728033D01*
X129002579Y-84732976D01*
X128996668Y-84737360D01*
X128990355Y-84741144D01*
X128983701Y-84744291D01*
X128976771Y-84746771D01*
X128969632Y-84748559D01*
X128962351Y-84749639D01*
X128955000Y-84750000D01*
X128805000Y-84750000D01*
X128797649Y-84749639D01*
X128790368Y-84748559D01*
X128783229Y-84746771D01*
X128776299Y-84744291D01*
X128769645Y-84741144D01*
X128763332Y-84737360D01*
X128757421Y-84732976D01*
X128751967Y-84728033D01*
X128747024Y-84722579D01*
X128742640Y-84716668D01*
X128738856Y-84710355D01*
X128735709Y-84703701D01*
X128733229Y-84696771D01*
X128731441Y-84689632D01*
X128730361Y-84682351D01*
X128730000Y-84675000D01*
X128730000Y-83275000D01*
X128730361Y-83267649D01*
X128731441Y-83260368D01*
X128733229Y-83253229D01*
X128735709Y-83246299D01*
X128738856Y-83239645D01*
X128742640Y-83233332D01*
X128747024Y-83227421D01*
X128751967Y-83221967D01*
X128757421Y-83217024D01*
X128763332Y-83212640D01*
X128769645Y-83208856D01*
X128776299Y-83205709D01*
X128783229Y-83203229D01*
X128790368Y-83201441D01*
X128797649Y-83200361D01*
X128805000Y-83200000D01*
X128955000Y-83200000D01*
X128962351Y-83200361D01*
G37*
G36*
X128462351Y-83200361D02*
G01*
X128469632Y-83201441D01*
X128476771Y-83203229D01*
X128483701Y-83205709D01*
X128490355Y-83208856D01*
X128496668Y-83212640D01*
X128502579Y-83217024D01*
X128508033Y-83221967D01*
X128512976Y-83227421D01*
X128517360Y-83233332D01*
X128521144Y-83239645D01*
X128524291Y-83246299D01*
X128526771Y-83253229D01*
X128528559Y-83260368D01*
X128529639Y-83267649D01*
X128530000Y-83275000D01*
X128530000Y-84675000D01*
X128529639Y-84682351D01*
X128528559Y-84689632D01*
X128526771Y-84696771D01*
X128524291Y-84703701D01*
X128521144Y-84710355D01*
X128517360Y-84716668D01*
X128512976Y-84722579D01*
X128508033Y-84728033D01*
X128502579Y-84732976D01*
X128496668Y-84737360D01*
X128490355Y-84741144D01*
X128483701Y-84744291D01*
X128476771Y-84746771D01*
X128469632Y-84748559D01*
X128462351Y-84749639D01*
X128455000Y-84750000D01*
X128305000Y-84750000D01*
X128297649Y-84749639D01*
X128290368Y-84748559D01*
X128283229Y-84746771D01*
X128276299Y-84744291D01*
X128269645Y-84741144D01*
X128263332Y-84737360D01*
X128257421Y-84732976D01*
X128251967Y-84728033D01*
X128247024Y-84722579D01*
X128242640Y-84716668D01*
X128238856Y-84710355D01*
X128235709Y-84703701D01*
X128233229Y-84696771D01*
X128231441Y-84689632D01*
X128230361Y-84682351D01*
X128230000Y-84675000D01*
X128230000Y-83275000D01*
X128230361Y-83267649D01*
X128231441Y-83260368D01*
X128233229Y-83253229D01*
X128235709Y-83246299D01*
X128238856Y-83239645D01*
X128242640Y-83233332D01*
X128247024Y-83227421D01*
X128251967Y-83221967D01*
X128257421Y-83217024D01*
X128263332Y-83212640D01*
X128269645Y-83208856D01*
X128276299Y-83205709D01*
X128283229Y-83203229D01*
X128290368Y-83201441D01*
X128297649Y-83200361D01*
X128305000Y-83200000D01*
X128455000Y-83200000D01*
X128462351Y-83200361D01*
G37*
G36*
X127962351Y-83200361D02*
G01*
X127969632Y-83201441D01*
X127976771Y-83203229D01*
X127983701Y-83205709D01*
X127990355Y-83208856D01*
X127996668Y-83212640D01*
X128002579Y-83217024D01*
X128008033Y-83221967D01*
X128012976Y-83227421D01*
X128017360Y-83233332D01*
X128021144Y-83239645D01*
X128024291Y-83246299D01*
X128026771Y-83253229D01*
X128028559Y-83260368D01*
X128029639Y-83267649D01*
X128030000Y-83275000D01*
X128030000Y-84675000D01*
X128029639Y-84682351D01*
X128028559Y-84689632D01*
X128026771Y-84696771D01*
X128024291Y-84703701D01*
X128021144Y-84710355D01*
X128017360Y-84716668D01*
X128012976Y-84722579D01*
X128008033Y-84728033D01*
X128002579Y-84732976D01*
X127996668Y-84737360D01*
X127990355Y-84741144D01*
X127983701Y-84744291D01*
X127976771Y-84746771D01*
X127969632Y-84748559D01*
X127962351Y-84749639D01*
X127955000Y-84750000D01*
X127805000Y-84750000D01*
X127797649Y-84749639D01*
X127790368Y-84748559D01*
X127783229Y-84746771D01*
X127776299Y-84744291D01*
X127769645Y-84741144D01*
X127763332Y-84737360D01*
X127757421Y-84732976D01*
X127751967Y-84728033D01*
X127747024Y-84722579D01*
X127742640Y-84716668D01*
X127738856Y-84710355D01*
X127735709Y-84703701D01*
X127733229Y-84696771D01*
X127731441Y-84689632D01*
X127730361Y-84682351D01*
X127730000Y-84675000D01*
X127730000Y-83275000D01*
X127730361Y-83267649D01*
X127731441Y-83260368D01*
X127733229Y-83253229D01*
X127735709Y-83246299D01*
X127738856Y-83239645D01*
X127742640Y-83233332D01*
X127747024Y-83227421D01*
X127751967Y-83221967D01*
X127757421Y-83217024D01*
X127763332Y-83212640D01*
X127769645Y-83208856D01*
X127776299Y-83205709D01*
X127783229Y-83203229D01*
X127790368Y-83201441D01*
X127797649Y-83200361D01*
X127805000Y-83200000D01*
X127955000Y-83200000D01*
X127962351Y-83200361D01*
G37*
G36*
X127462351Y-83200361D02*
G01*
X127469632Y-83201441D01*
X127476771Y-83203229D01*
X127483701Y-83205709D01*
X127490355Y-83208856D01*
X127496668Y-83212640D01*
X127502579Y-83217024D01*
X127508033Y-83221967D01*
X127512976Y-83227421D01*
X127517360Y-83233332D01*
X127521144Y-83239645D01*
X127524291Y-83246299D01*
X127526771Y-83253229D01*
X127528559Y-83260368D01*
X127529639Y-83267649D01*
X127530000Y-83275000D01*
X127530000Y-84675000D01*
X127529639Y-84682351D01*
X127528559Y-84689632D01*
X127526771Y-84696771D01*
X127524291Y-84703701D01*
X127521144Y-84710355D01*
X127517360Y-84716668D01*
X127512976Y-84722579D01*
X127508033Y-84728033D01*
X127502579Y-84732976D01*
X127496668Y-84737360D01*
X127490355Y-84741144D01*
X127483701Y-84744291D01*
X127476771Y-84746771D01*
X127469632Y-84748559D01*
X127462351Y-84749639D01*
X127455000Y-84750000D01*
X127305000Y-84750000D01*
X127297649Y-84749639D01*
X127290368Y-84748559D01*
X127283229Y-84746771D01*
X127276299Y-84744291D01*
X127269645Y-84741144D01*
X127263332Y-84737360D01*
X127257421Y-84732976D01*
X127251967Y-84728033D01*
X127247024Y-84722579D01*
X127242640Y-84716668D01*
X127238856Y-84710355D01*
X127235709Y-84703701D01*
X127233229Y-84696771D01*
X127231441Y-84689632D01*
X127230361Y-84682351D01*
X127230000Y-84675000D01*
X127230000Y-83275000D01*
X127230361Y-83267649D01*
X127231441Y-83260368D01*
X127233229Y-83253229D01*
X127235709Y-83246299D01*
X127238856Y-83239645D01*
X127242640Y-83233332D01*
X127247024Y-83227421D01*
X127251967Y-83221967D01*
X127257421Y-83217024D01*
X127263332Y-83212640D01*
X127269645Y-83208856D01*
X127276299Y-83205709D01*
X127283229Y-83203229D01*
X127290368Y-83201441D01*
X127297649Y-83200361D01*
X127305000Y-83200000D01*
X127455000Y-83200000D01*
X127462351Y-83200361D01*
G37*
G36*
X126962351Y-83200361D02*
G01*
X126969632Y-83201441D01*
X126976771Y-83203229D01*
X126983701Y-83205709D01*
X126990355Y-83208856D01*
X126996668Y-83212640D01*
X127002579Y-83217024D01*
X127008033Y-83221967D01*
X127012976Y-83227421D01*
X127017360Y-83233332D01*
X127021144Y-83239645D01*
X127024291Y-83246299D01*
X127026771Y-83253229D01*
X127028559Y-83260368D01*
X127029639Y-83267649D01*
X127030000Y-83275000D01*
X127030000Y-84675000D01*
X127029639Y-84682351D01*
X127028559Y-84689632D01*
X127026771Y-84696771D01*
X127024291Y-84703701D01*
X127021144Y-84710355D01*
X127017360Y-84716668D01*
X127012976Y-84722579D01*
X127008033Y-84728033D01*
X127002579Y-84732976D01*
X126996668Y-84737360D01*
X126990355Y-84741144D01*
X126983701Y-84744291D01*
X126976771Y-84746771D01*
X126969632Y-84748559D01*
X126962351Y-84749639D01*
X126955000Y-84750000D01*
X126805000Y-84750000D01*
X126797649Y-84749639D01*
X126790368Y-84748559D01*
X126783229Y-84746771D01*
X126776299Y-84744291D01*
X126769645Y-84741144D01*
X126763332Y-84737360D01*
X126757421Y-84732976D01*
X126751967Y-84728033D01*
X126747024Y-84722579D01*
X126742640Y-84716668D01*
X126738856Y-84710355D01*
X126735709Y-84703701D01*
X126733229Y-84696771D01*
X126731441Y-84689632D01*
X126730361Y-84682351D01*
X126730000Y-84675000D01*
X126730000Y-83275000D01*
X126730361Y-83267649D01*
X126731441Y-83260368D01*
X126733229Y-83253229D01*
X126735709Y-83246299D01*
X126738856Y-83239645D01*
X126742640Y-83233332D01*
X126747024Y-83227421D01*
X126751967Y-83221967D01*
X126757421Y-83217024D01*
X126763332Y-83212640D01*
X126769645Y-83208856D01*
X126776299Y-83205709D01*
X126783229Y-83203229D01*
X126790368Y-83201441D01*
X126797649Y-83200361D01*
X126805000Y-83200000D01*
X126955000Y-83200000D01*
X126962351Y-83200361D01*
G37*
G36*
X125662351Y-81900361D02*
G01*
X125669632Y-81901441D01*
X125676771Y-81903229D01*
X125683701Y-81905709D01*
X125690355Y-81908856D01*
X125696668Y-81912640D01*
X125702579Y-81917024D01*
X125708033Y-81921967D01*
X125712976Y-81927421D01*
X125717360Y-81933332D01*
X125721144Y-81939645D01*
X125724291Y-81946299D01*
X125726771Y-81953229D01*
X125728559Y-81960368D01*
X125729639Y-81967649D01*
X125730000Y-81975000D01*
X125730000Y-82125000D01*
X125729639Y-82132351D01*
X125728559Y-82139632D01*
X125726771Y-82146771D01*
X125724291Y-82153701D01*
X125721144Y-82160355D01*
X125717360Y-82166668D01*
X125712976Y-82172579D01*
X125708033Y-82178033D01*
X125702579Y-82182976D01*
X125696668Y-82187360D01*
X125690355Y-82191144D01*
X125683701Y-82194291D01*
X125676771Y-82196771D01*
X125669632Y-82198559D01*
X125662351Y-82199639D01*
X125655000Y-82200000D01*
X124255000Y-82200000D01*
X124247649Y-82199639D01*
X124240368Y-82198559D01*
X124233229Y-82196771D01*
X124226299Y-82194291D01*
X124219645Y-82191144D01*
X124213332Y-82187360D01*
X124207421Y-82182976D01*
X124201967Y-82178033D01*
X124197024Y-82172579D01*
X124192640Y-82166668D01*
X124188856Y-82160355D01*
X124185709Y-82153701D01*
X124183229Y-82146771D01*
X124181441Y-82139632D01*
X124180361Y-82132351D01*
X124180000Y-82125000D01*
X124180000Y-81975000D01*
X124180361Y-81967649D01*
X124181441Y-81960368D01*
X124183229Y-81953229D01*
X124185709Y-81946299D01*
X124188856Y-81939645D01*
X124192640Y-81933332D01*
X124197024Y-81927421D01*
X124201967Y-81921967D01*
X124207421Y-81917024D01*
X124213332Y-81912640D01*
X124219645Y-81908856D01*
X124226299Y-81905709D01*
X124233229Y-81903229D01*
X124240368Y-81901441D01*
X124247649Y-81900361D01*
X124255000Y-81900000D01*
X125655000Y-81900000D01*
X125662351Y-81900361D01*
G37*
G36*
X125662351Y-81400361D02*
G01*
X125669632Y-81401441D01*
X125676771Y-81403229D01*
X125683701Y-81405709D01*
X125690355Y-81408856D01*
X125696668Y-81412640D01*
X125702579Y-81417024D01*
X125708033Y-81421967D01*
X125712976Y-81427421D01*
X125717360Y-81433332D01*
X125721144Y-81439645D01*
X125724291Y-81446299D01*
X125726771Y-81453229D01*
X125728559Y-81460368D01*
X125729639Y-81467649D01*
X125730000Y-81475000D01*
X125730000Y-81625000D01*
X125729639Y-81632351D01*
X125728559Y-81639632D01*
X125726771Y-81646771D01*
X125724291Y-81653701D01*
X125721144Y-81660355D01*
X125717360Y-81666668D01*
X125712976Y-81672579D01*
X125708033Y-81678033D01*
X125702579Y-81682976D01*
X125696668Y-81687360D01*
X125690355Y-81691144D01*
X125683701Y-81694291D01*
X125676771Y-81696771D01*
X125669632Y-81698559D01*
X125662351Y-81699639D01*
X125655000Y-81700000D01*
X124255000Y-81700000D01*
X124247649Y-81699639D01*
X124240368Y-81698559D01*
X124233229Y-81696771D01*
X124226299Y-81694291D01*
X124219645Y-81691144D01*
X124213332Y-81687360D01*
X124207421Y-81682976D01*
X124201967Y-81678033D01*
X124197024Y-81672579D01*
X124192640Y-81666668D01*
X124188856Y-81660355D01*
X124185709Y-81653701D01*
X124183229Y-81646771D01*
X124181441Y-81639632D01*
X124180361Y-81632351D01*
X124180000Y-81625000D01*
X124180000Y-81475000D01*
X124180361Y-81467649D01*
X124181441Y-81460368D01*
X124183229Y-81453229D01*
X124185709Y-81446299D01*
X124188856Y-81439645D01*
X124192640Y-81433332D01*
X124197024Y-81427421D01*
X124201967Y-81421967D01*
X124207421Y-81417024D01*
X124213332Y-81412640D01*
X124219645Y-81408856D01*
X124226299Y-81405709D01*
X124233229Y-81403229D01*
X124240368Y-81401441D01*
X124247649Y-81400361D01*
X124255000Y-81400000D01*
X125655000Y-81400000D01*
X125662351Y-81400361D01*
G37*
G36*
X125662351Y-80900361D02*
G01*
X125669632Y-80901441D01*
X125676771Y-80903229D01*
X125683701Y-80905709D01*
X125690355Y-80908856D01*
X125696668Y-80912640D01*
X125702579Y-80917024D01*
X125708033Y-80921967D01*
X125712976Y-80927421D01*
X125717360Y-80933332D01*
X125721144Y-80939645D01*
X125724291Y-80946299D01*
X125726771Y-80953229D01*
X125728559Y-80960368D01*
X125729639Y-80967649D01*
X125730000Y-80975000D01*
X125730000Y-81125000D01*
X125729639Y-81132351D01*
X125728559Y-81139632D01*
X125726771Y-81146771D01*
X125724291Y-81153701D01*
X125721144Y-81160355D01*
X125717360Y-81166668D01*
X125712976Y-81172579D01*
X125708033Y-81178033D01*
X125702579Y-81182976D01*
X125696668Y-81187360D01*
X125690355Y-81191144D01*
X125683701Y-81194291D01*
X125676771Y-81196771D01*
X125669632Y-81198559D01*
X125662351Y-81199639D01*
X125655000Y-81200000D01*
X124255000Y-81200000D01*
X124247649Y-81199639D01*
X124240368Y-81198559D01*
X124233229Y-81196771D01*
X124226299Y-81194291D01*
X124219645Y-81191144D01*
X124213332Y-81187360D01*
X124207421Y-81182976D01*
X124201967Y-81178033D01*
X124197024Y-81172579D01*
X124192640Y-81166668D01*
X124188856Y-81160355D01*
X124185709Y-81153701D01*
X124183229Y-81146771D01*
X124181441Y-81139632D01*
X124180361Y-81132351D01*
X124180000Y-81125000D01*
X124180000Y-80975000D01*
X124180361Y-80967649D01*
X124181441Y-80960368D01*
X124183229Y-80953229D01*
X124185709Y-80946299D01*
X124188856Y-80939645D01*
X124192640Y-80933332D01*
X124197024Y-80927421D01*
X124201967Y-80921967D01*
X124207421Y-80917024D01*
X124213332Y-80912640D01*
X124219645Y-80908856D01*
X124226299Y-80905709D01*
X124233229Y-80903229D01*
X124240368Y-80901441D01*
X124247649Y-80900361D01*
X124255000Y-80900000D01*
X125655000Y-80900000D01*
X125662351Y-80900361D01*
G37*
G36*
X125662351Y-80400361D02*
G01*
X125669632Y-80401441D01*
X125676771Y-80403229D01*
X125683701Y-80405709D01*
X125690355Y-80408856D01*
X125696668Y-80412640D01*
X125702579Y-80417024D01*
X125708033Y-80421967D01*
X125712976Y-80427421D01*
X125717360Y-80433332D01*
X125721144Y-80439645D01*
X125724291Y-80446299D01*
X125726771Y-80453229D01*
X125728559Y-80460368D01*
X125729639Y-80467649D01*
X125730000Y-80475000D01*
X125730000Y-80625000D01*
X125729639Y-80632351D01*
X125728559Y-80639632D01*
X125726771Y-80646771D01*
X125724291Y-80653701D01*
X125721144Y-80660355D01*
X125717360Y-80666668D01*
X125712976Y-80672579D01*
X125708033Y-80678033D01*
X125702579Y-80682976D01*
X125696668Y-80687360D01*
X125690355Y-80691144D01*
X125683701Y-80694291D01*
X125676771Y-80696771D01*
X125669632Y-80698559D01*
X125662351Y-80699639D01*
X125655000Y-80700000D01*
X124255000Y-80700000D01*
X124247649Y-80699639D01*
X124240368Y-80698559D01*
X124233229Y-80696771D01*
X124226299Y-80694291D01*
X124219645Y-80691144D01*
X124213332Y-80687360D01*
X124207421Y-80682976D01*
X124201967Y-80678033D01*
X124197024Y-80672579D01*
X124192640Y-80666668D01*
X124188856Y-80660355D01*
X124185709Y-80653701D01*
X124183229Y-80646771D01*
X124181441Y-80639632D01*
X124180361Y-80632351D01*
X124180000Y-80625000D01*
X124180000Y-80475000D01*
X124180361Y-80467649D01*
X124181441Y-80460368D01*
X124183229Y-80453229D01*
X124185709Y-80446299D01*
X124188856Y-80439645D01*
X124192640Y-80433332D01*
X124197024Y-80427421D01*
X124201967Y-80421967D01*
X124207421Y-80417024D01*
X124213332Y-80412640D01*
X124219645Y-80408856D01*
X124226299Y-80405709D01*
X124233229Y-80403229D01*
X124240368Y-80401441D01*
X124247649Y-80400361D01*
X124255000Y-80400000D01*
X125655000Y-80400000D01*
X125662351Y-80400361D01*
G37*
G36*
X125662351Y-79900361D02*
G01*
X125669632Y-79901441D01*
X125676771Y-79903229D01*
X125683701Y-79905709D01*
X125690355Y-79908856D01*
X125696668Y-79912640D01*
X125702579Y-79917024D01*
X125708033Y-79921967D01*
X125712976Y-79927421D01*
X125717360Y-79933332D01*
X125721144Y-79939645D01*
X125724291Y-79946299D01*
X125726771Y-79953229D01*
X125728559Y-79960368D01*
X125729639Y-79967649D01*
X125730000Y-79975000D01*
X125730000Y-80125000D01*
X125729639Y-80132351D01*
X125728559Y-80139632D01*
X125726771Y-80146771D01*
X125724291Y-80153701D01*
X125721144Y-80160355D01*
X125717360Y-80166668D01*
X125712976Y-80172579D01*
X125708033Y-80178033D01*
X125702579Y-80182976D01*
X125696668Y-80187360D01*
X125690355Y-80191144D01*
X125683701Y-80194291D01*
X125676771Y-80196771D01*
X125669632Y-80198559D01*
X125662351Y-80199639D01*
X125655000Y-80200000D01*
X124255000Y-80200000D01*
X124247649Y-80199639D01*
X124240368Y-80198559D01*
X124233229Y-80196771D01*
X124226299Y-80194291D01*
X124219645Y-80191144D01*
X124213332Y-80187360D01*
X124207421Y-80182976D01*
X124201967Y-80178033D01*
X124197024Y-80172579D01*
X124192640Y-80166668D01*
X124188856Y-80160355D01*
X124185709Y-80153701D01*
X124183229Y-80146771D01*
X124181441Y-80139632D01*
X124180361Y-80132351D01*
X124180000Y-80125000D01*
X124180000Y-79975000D01*
X124180361Y-79967649D01*
X124181441Y-79960368D01*
X124183229Y-79953229D01*
X124185709Y-79946299D01*
X124188856Y-79939645D01*
X124192640Y-79933332D01*
X124197024Y-79927421D01*
X124201967Y-79921967D01*
X124207421Y-79917024D01*
X124213332Y-79912640D01*
X124219645Y-79908856D01*
X124226299Y-79905709D01*
X124233229Y-79903229D01*
X124240368Y-79901441D01*
X124247649Y-79900361D01*
X124255000Y-79900000D01*
X125655000Y-79900000D01*
X125662351Y-79900361D01*
G37*
G36*
X125662351Y-79400361D02*
G01*
X125669632Y-79401441D01*
X125676771Y-79403229D01*
X125683701Y-79405709D01*
X125690355Y-79408856D01*
X125696668Y-79412640D01*
X125702579Y-79417024D01*
X125708033Y-79421967D01*
X125712976Y-79427421D01*
X125717360Y-79433332D01*
X125721144Y-79439645D01*
X125724291Y-79446299D01*
X125726771Y-79453229D01*
X125728559Y-79460368D01*
X125729639Y-79467649D01*
X125730000Y-79475000D01*
X125730000Y-79625000D01*
X125729639Y-79632351D01*
X125728559Y-79639632D01*
X125726771Y-79646771D01*
X125724291Y-79653701D01*
X125721144Y-79660355D01*
X125717360Y-79666668D01*
X125712976Y-79672579D01*
X125708033Y-79678033D01*
X125702579Y-79682976D01*
X125696668Y-79687360D01*
X125690355Y-79691144D01*
X125683701Y-79694291D01*
X125676771Y-79696771D01*
X125669632Y-79698559D01*
X125662351Y-79699639D01*
X125655000Y-79700000D01*
X124255000Y-79700000D01*
X124247649Y-79699639D01*
X124240368Y-79698559D01*
X124233229Y-79696771D01*
X124226299Y-79694291D01*
X124219645Y-79691144D01*
X124213332Y-79687360D01*
X124207421Y-79682976D01*
X124201967Y-79678033D01*
X124197024Y-79672579D01*
X124192640Y-79666668D01*
X124188856Y-79660355D01*
X124185709Y-79653701D01*
X124183229Y-79646771D01*
X124181441Y-79639632D01*
X124180361Y-79632351D01*
X124180000Y-79625000D01*
X124180000Y-79475000D01*
X124180361Y-79467649D01*
X124181441Y-79460368D01*
X124183229Y-79453229D01*
X124185709Y-79446299D01*
X124188856Y-79439645D01*
X124192640Y-79433332D01*
X124197024Y-79427421D01*
X124201967Y-79421967D01*
X124207421Y-79417024D01*
X124213332Y-79412640D01*
X124219645Y-79408856D01*
X124226299Y-79405709D01*
X124233229Y-79403229D01*
X124240368Y-79401441D01*
X124247649Y-79400361D01*
X124255000Y-79400000D01*
X125655000Y-79400000D01*
X125662351Y-79400361D01*
G37*
G36*
X125662351Y-78900361D02*
G01*
X125669632Y-78901441D01*
X125676771Y-78903229D01*
X125683701Y-78905709D01*
X125690355Y-78908856D01*
X125696668Y-78912640D01*
X125702579Y-78917024D01*
X125708033Y-78921967D01*
X125712976Y-78927421D01*
X125717360Y-78933332D01*
X125721144Y-78939645D01*
X125724291Y-78946299D01*
X125726771Y-78953229D01*
X125728559Y-78960368D01*
X125729639Y-78967649D01*
X125730000Y-78975000D01*
X125730000Y-79125000D01*
X125729639Y-79132351D01*
X125728559Y-79139632D01*
X125726771Y-79146771D01*
X125724291Y-79153701D01*
X125721144Y-79160355D01*
X125717360Y-79166668D01*
X125712976Y-79172579D01*
X125708033Y-79178033D01*
X125702579Y-79182976D01*
X125696668Y-79187360D01*
X125690355Y-79191144D01*
X125683701Y-79194291D01*
X125676771Y-79196771D01*
X125669632Y-79198559D01*
X125662351Y-79199639D01*
X125655000Y-79200000D01*
X124255000Y-79200000D01*
X124247649Y-79199639D01*
X124240368Y-79198559D01*
X124233229Y-79196771D01*
X124226299Y-79194291D01*
X124219645Y-79191144D01*
X124213332Y-79187360D01*
X124207421Y-79182976D01*
X124201967Y-79178033D01*
X124197024Y-79172579D01*
X124192640Y-79166668D01*
X124188856Y-79160355D01*
X124185709Y-79153701D01*
X124183229Y-79146771D01*
X124181441Y-79139632D01*
X124180361Y-79132351D01*
X124180000Y-79125000D01*
X124180000Y-78975000D01*
X124180361Y-78967649D01*
X124181441Y-78960368D01*
X124183229Y-78953229D01*
X124185709Y-78946299D01*
X124188856Y-78939645D01*
X124192640Y-78933332D01*
X124197024Y-78927421D01*
X124201967Y-78921967D01*
X124207421Y-78917024D01*
X124213332Y-78912640D01*
X124219645Y-78908856D01*
X124226299Y-78905709D01*
X124233229Y-78903229D01*
X124240368Y-78901441D01*
X124247649Y-78900361D01*
X124255000Y-78900000D01*
X125655000Y-78900000D01*
X125662351Y-78900361D01*
G37*
G36*
X125662351Y-78400361D02*
G01*
X125669632Y-78401441D01*
X125676771Y-78403229D01*
X125683701Y-78405709D01*
X125690355Y-78408856D01*
X125696668Y-78412640D01*
X125702579Y-78417024D01*
X125708033Y-78421967D01*
X125712976Y-78427421D01*
X125717360Y-78433332D01*
X125721144Y-78439645D01*
X125724291Y-78446299D01*
X125726771Y-78453229D01*
X125728559Y-78460368D01*
X125729639Y-78467649D01*
X125730000Y-78475000D01*
X125730000Y-78625000D01*
X125729639Y-78632351D01*
X125728559Y-78639632D01*
X125726771Y-78646771D01*
X125724291Y-78653701D01*
X125721144Y-78660355D01*
X125717360Y-78666668D01*
X125712976Y-78672579D01*
X125708033Y-78678033D01*
X125702579Y-78682976D01*
X125696668Y-78687360D01*
X125690355Y-78691144D01*
X125683701Y-78694291D01*
X125676771Y-78696771D01*
X125669632Y-78698559D01*
X125662351Y-78699639D01*
X125655000Y-78700000D01*
X124255000Y-78700000D01*
X124247649Y-78699639D01*
X124240368Y-78698559D01*
X124233229Y-78696771D01*
X124226299Y-78694291D01*
X124219645Y-78691144D01*
X124213332Y-78687360D01*
X124207421Y-78682976D01*
X124201967Y-78678033D01*
X124197024Y-78672579D01*
X124192640Y-78666668D01*
X124188856Y-78660355D01*
X124185709Y-78653701D01*
X124183229Y-78646771D01*
X124181441Y-78639632D01*
X124180361Y-78632351D01*
X124180000Y-78625000D01*
X124180000Y-78475000D01*
X124180361Y-78467649D01*
X124181441Y-78460368D01*
X124183229Y-78453229D01*
X124185709Y-78446299D01*
X124188856Y-78439645D01*
X124192640Y-78433332D01*
X124197024Y-78427421D01*
X124201967Y-78421967D01*
X124207421Y-78417024D01*
X124213332Y-78412640D01*
X124219645Y-78408856D01*
X124226299Y-78405709D01*
X124233229Y-78403229D01*
X124240368Y-78401441D01*
X124247649Y-78400361D01*
X124255000Y-78400000D01*
X125655000Y-78400000D01*
X125662351Y-78400361D01*
G37*
G36*
X125662351Y-77900361D02*
G01*
X125669632Y-77901441D01*
X125676771Y-77903229D01*
X125683701Y-77905709D01*
X125690355Y-77908856D01*
X125696668Y-77912640D01*
X125702579Y-77917024D01*
X125708033Y-77921967D01*
X125712976Y-77927421D01*
X125717360Y-77933332D01*
X125721144Y-77939645D01*
X125724291Y-77946299D01*
X125726771Y-77953229D01*
X125728559Y-77960368D01*
X125729639Y-77967649D01*
X125730000Y-77975000D01*
X125730000Y-78125000D01*
X125729639Y-78132351D01*
X125728559Y-78139632D01*
X125726771Y-78146771D01*
X125724291Y-78153701D01*
X125721144Y-78160355D01*
X125717360Y-78166668D01*
X125712976Y-78172579D01*
X125708033Y-78178033D01*
X125702579Y-78182976D01*
X125696668Y-78187360D01*
X125690355Y-78191144D01*
X125683701Y-78194291D01*
X125676771Y-78196771D01*
X125669632Y-78198559D01*
X125662351Y-78199639D01*
X125655000Y-78200000D01*
X124255000Y-78200000D01*
X124247649Y-78199639D01*
X124240368Y-78198559D01*
X124233229Y-78196771D01*
X124226299Y-78194291D01*
X124219645Y-78191144D01*
X124213332Y-78187360D01*
X124207421Y-78182976D01*
X124201967Y-78178033D01*
X124197024Y-78172579D01*
X124192640Y-78166668D01*
X124188856Y-78160355D01*
X124185709Y-78153701D01*
X124183229Y-78146771D01*
X124181441Y-78139632D01*
X124180361Y-78132351D01*
X124180000Y-78125000D01*
X124180000Y-77975000D01*
X124180361Y-77967649D01*
X124181441Y-77960368D01*
X124183229Y-77953229D01*
X124185709Y-77946299D01*
X124188856Y-77939645D01*
X124192640Y-77933332D01*
X124197024Y-77927421D01*
X124201967Y-77921967D01*
X124207421Y-77917024D01*
X124213332Y-77912640D01*
X124219645Y-77908856D01*
X124226299Y-77905709D01*
X124233229Y-77903229D01*
X124240368Y-77901441D01*
X124247649Y-77900361D01*
X124255000Y-77900000D01*
X125655000Y-77900000D01*
X125662351Y-77900361D01*
G37*
G36*
X125662351Y-77400361D02*
G01*
X125669632Y-77401441D01*
X125676771Y-77403229D01*
X125683701Y-77405709D01*
X125690355Y-77408856D01*
X125696668Y-77412640D01*
X125702579Y-77417024D01*
X125708033Y-77421967D01*
X125712976Y-77427421D01*
X125717360Y-77433332D01*
X125721144Y-77439645D01*
X125724291Y-77446299D01*
X125726771Y-77453229D01*
X125728559Y-77460368D01*
X125729639Y-77467649D01*
X125730000Y-77475000D01*
X125730000Y-77625000D01*
X125729639Y-77632351D01*
X125728559Y-77639632D01*
X125726771Y-77646771D01*
X125724291Y-77653701D01*
X125721144Y-77660355D01*
X125717360Y-77666668D01*
X125712976Y-77672579D01*
X125708033Y-77678033D01*
X125702579Y-77682976D01*
X125696668Y-77687360D01*
X125690355Y-77691144D01*
X125683701Y-77694291D01*
X125676771Y-77696771D01*
X125669632Y-77698559D01*
X125662351Y-77699639D01*
X125655000Y-77700000D01*
X124255000Y-77700000D01*
X124247649Y-77699639D01*
X124240368Y-77698559D01*
X124233229Y-77696771D01*
X124226299Y-77694291D01*
X124219645Y-77691144D01*
X124213332Y-77687360D01*
X124207421Y-77682976D01*
X124201967Y-77678033D01*
X124197024Y-77672579D01*
X124192640Y-77666668D01*
X124188856Y-77660355D01*
X124185709Y-77653701D01*
X124183229Y-77646771D01*
X124181441Y-77639632D01*
X124180361Y-77632351D01*
X124180000Y-77625000D01*
X124180000Y-77475000D01*
X124180361Y-77467649D01*
X124181441Y-77460368D01*
X124183229Y-77453229D01*
X124185709Y-77446299D01*
X124188856Y-77439645D01*
X124192640Y-77433332D01*
X124197024Y-77427421D01*
X124201967Y-77421967D01*
X124207421Y-77417024D01*
X124213332Y-77412640D01*
X124219645Y-77408856D01*
X124226299Y-77405709D01*
X124233229Y-77403229D01*
X124240368Y-77401441D01*
X124247649Y-77400361D01*
X124255000Y-77400000D01*
X125655000Y-77400000D01*
X125662351Y-77400361D01*
G37*
G36*
X125662351Y-76900361D02*
G01*
X125669632Y-76901441D01*
X125676771Y-76903229D01*
X125683701Y-76905709D01*
X125690355Y-76908856D01*
X125696668Y-76912640D01*
X125702579Y-76917024D01*
X125708033Y-76921967D01*
X125712976Y-76927421D01*
X125717360Y-76933332D01*
X125721144Y-76939645D01*
X125724291Y-76946299D01*
X125726771Y-76953229D01*
X125728559Y-76960368D01*
X125729639Y-76967649D01*
X125730000Y-76975000D01*
X125730000Y-77125000D01*
X125729639Y-77132351D01*
X125728559Y-77139632D01*
X125726771Y-77146771D01*
X125724291Y-77153701D01*
X125721144Y-77160355D01*
X125717360Y-77166668D01*
X125712976Y-77172579D01*
X125708033Y-77178033D01*
X125702579Y-77182976D01*
X125696668Y-77187360D01*
X125690355Y-77191144D01*
X125683701Y-77194291D01*
X125676771Y-77196771D01*
X125669632Y-77198559D01*
X125662351Y-77199639D01*
X125655000Y-77200000D01*
X124255000Y-77200000D01*
X124247649Y-77199639D01*
X124240368Y-77198559D01*
X124233229Y-77196771D01*
X124226299Y-77194291D01*
X124219645Y-77191144D01*
X124213332Y-77187360D01*
X124207421Y-77182976D01*
X124201967Y-77178033D01*
X124197024Y-77172579D01*
X124192640Y-77166668D01*
X124188856Y-77160355D01*
X124185709Y-77153701D01*
X124183229Y-77146771D01*
X124181441Y-77139632D01*
X124180361Y-77132351D01*
X124180000Y-77125000D01*
X124180000Y-76975000D01*
X124180361Y-76967649D01*
X124181441Y-76960368D01*
X124183229Y-76953229D01*
X124185709Y-76946299D01*
X124188856Y-76939645D01*
X124192640Y-76933332D01*
X124197024Y-76927421D01*
X124201967Y-76921967D01*
X124207421Y-76917024D01*
X124213332Y-76912640D01*
X124219645Y-76908856D01*
X124226299Y-76905709D01*
X124233229Y-76903229D01*
X124240368Y-76901441D01*
X124247649Y-76900361D01*
X124255000Y-76900000D01*
X125655000Y-76900000D01*
X125662351Y-76900361D01*
G37*
G36*
X125662351Y-76400361D02*
G01*
X125669632Y-76401441D01*
X125676771Y-76403229D01*
X125683701Y-76405709D01*
X125690355Y-76408856D01*
X125696668Y-76412640D01*
X125702579Y-76417024D01*
X125708033Y-76421967D01*
X125712976Y-76427421D01*
X125717360Y-76433332D01*
X125721144Y-76439645D01*
X125724291Y-76446299D01*
X125726771Y-76453229D01*
X125728559Y-76460368D01*
X125729639Y-76467649D01*
X125730000Y-76475000D01*
X125730000Y-76625000D01*
X125729639Y-76632351D01*
X125728559Y-76639632D01*
X125726771Y-76646771D01*
X125724291Y-76653701D01*
X125721144Y-76660355D01*
X125717360Y-76666668D01*
X125712976Y-76672579D01*
X125708033Y-76678033D01*
X125702579Y-76682976D01*
X125696668Y-76687360D01*
X125690355Y-76691144D01*
X125683701Y-76694291D01*
X125676771Y-76696771D01*
X125669632Y-76698559D01*
X125662351Y-76699639D01*
X125655000Y-76700000D01*
X124255000Y-76700000D01*
X124247649Y-76699639D01*
X124240368Y-76698559D01*
X124233229Y-76696771D01*
X124226299Y-76694291D01*
X124219645Y-76691144D01*
X124213332Y-76687360D01*
X124207421Y-76682976D01*
X124201967Y-76678033D01*
X124197024Y-76672579D01*
X124192640Y-76666668D01*
X124188856Y-76660355D01*
X124185709Y-76653701D01*
X124183229Y-76646771D01*
X124181441Y-76639632D01*
X124180361Y-76632351D01*
X124180000Y-76625000D01*
X124180000Y-76475000D01*
X124180361Y-76467649D01*
X124181441Y-76460368D01*
X124183229Y-76453229D01*
X124185709Y-76446299D01*
X124188856Y-76439645D01*
X124192640Y-76433332D01*
X124197024Y-76427421D01*
X124201967Y-76421967D01*
X124207421Y-76417024D01*
X124213332Y-76412640D01*
X124219645Y-76408856D01*
X124226299Y-76405709D01*
X124233229Y-76403229D01*
X124240368Y-76401441D01*
X124247649Y-76400361D01*
X124255000Y-76400000D01*
X125655000Y-76400000D01*
X125662351Y-76400361D01*
G37*
G36*
X125662351Y-75900361D02*
G01*
X125669632Y-75901441D01*
X125676771Y-75903229D01*
X125683701Y-75905709D01*
X125690355Y-75908856D01*
X125696668Y-75912640D01*
X125702579Y-75917024D01*
X125708033Y-75921967D01*
X125712976Y-75927421D01*
X125717360Y-75933332D01*
X125721144Y-75939645D01*
X125724291Y-75946299D01*
X125726771Y-75953229D01*
X125728559Y-75960368D01*
X125729639Y-75967649D01*
X125730000Y-75975000D01*
X125730000Y-76125000D01*
X125729639Y-76132351D01*
X125728559Y-76139632D01*
X125726771Y-76146771D01*
X125724291Y-76153701D01*
X125721144Y-76160355D01*
X125717360Y-76166668D01*
X125712976Y-76172579D01*
X125708033Y-76178033D01*
X125702579Y-76182976D01*
X125696668Y-76187360D01*
X125690355Y-76191144D01*
X125683701Y-76194291D01*
X125676771Y-76196771D01*
X125669632Y-76198559D01*
X125662351Y-76199639D01*
X125655000Y-76200000D01*
X124255000Y-76200000D01*
X124247649Y-76199639D01*
X124240368Y-76198559D01*
X124233229Y-76196771D01*
X124226299Y-76194291D01*
X124219645Y-76191144D01*
X124213332Y-76187360D01*
X124207421Y-76182976D01*
X124201967Y-76178033D01*
X124197024Y-76172579D01*
X124192640Y-76166668D01*
X124188856Y-76160355D01*
X124185709Y-76153701D01*
X124183229Y-76146771D01*
X124181441Y-76139632D01*
X124180361Y-76132351D01*
X124180000Y-76125000D01*
X124180000Y-75975000D01*
X124180361Y-75967649D01*
X124181441Y-75960368D01*
X124183229Y-75953229D01*
X124185709Y-75946299D01*
X124188856Y-75939645D01*
X124192640Y-75933332D01*
X124197024Y-75927421D01*
X124201967Y-75921967D01*
X124207421Y-75917024D01*
X124213332Y-75912640D01*
X124219645Y-75908856D01*
X124226299Y-75905709D01*
X124233229Y-75903229D01*
X124240368Y-75901441D01*
X124247649Y-75900361D01*
X124255000Y-75900000D01*
X125655000Y-75900000D01*
X125662351Y-75900361D01*
G37*
G36*
X125662351Y-75400361D02*
G01*
X125669632Y-75401441D01*
X125676771Y-75403229D01*
X125683701Y-75405709D01*
X125690355Y-75408856D01*
X125696668Y-75412640D01*
X125702579Y-75417024D01*
X125708033Y-75421967D01*
X125712976Y-75427421D01*
X125717360Y-75433332D01*
X125721144Y-75439645D01*
X125724291Y-75446299D01*
X125726771Y-75453229D01*
X125728559Y-75460368D01*
X125729639Y-75467649D01*
X125730000Y-75475000D01*
X125730000Y-75625000D01*
X125729639Y-75632351D01*
X125728559Y-75639632D01*
X125726771Y-75646771D01*
X125724291Y-75653701D01*
X125721144Y-75660355D01*
X125717360Y-75666668D01*
X125712976Y-75672579D01*
X125708033Y-75678033D01*
X125702579Y-75682976D01*
X125696668Y-75687360D01*
X125690355Y-75691144D01*
X125683701Y-75694291D01*
X125676771Y-75696771D01*
X125669632Y-75698559D01*
X125662351Y-75699639D01*
X125655000Y-75700000D01*
X124255000Y-75700000D01*
X124247649Y-75699639D01*
X124240368Y-75698559D01*
X124233229Y-75696771D01*
X124226299Y-75694291D01*
X124219645Y-75691144D01*
X124213332Y-75687360D01*
X124207421Y-75682976D01*
X124201967Y-75678033D01*
X124197024Y-75672579D01*
X124192640Y-75666668D01*
X124188856Y-75660355D01*
X124185709Y-75653701D01*
X124183229Y-75646771D01*
X124181441Y-75639632D01*
X124180361Y-75632351D01*
X124180000Y-75625000D01*
X124180000Y-75475000D01*
X124180361Y-75467649D01*
X124181441Y-75460368D01*
X124183229Y-75453229D01*
X124185709Y-75446299D01*
X124188856Y-75439645D01*
X124192640Y-75433332D01*
X124197024Y-75427421D01*
X124201967Y-75421967D01*
X124207421Y-75417024D01*
X124213332Y-75412640D01*
X124219645Y-75408856D01*
X124226299Y-75405709D01*
X124233229Y-75403229D01*
X124240368Y-75401441D01*
X124247649Y-75400361D01*
X124255000Y-75400000D01*
X125655000Y-75400000D01*
X125662351Y-75400361D01*
G37*
G36*
X125662351Y-74900361D02*
G01*
X125669632Y-74901441D01*
X125676771Y-74903229D01*
X125683701Y-74905709D01*
X125690355Y-74908856D01*
X125696668Y-74912640D01*
X125702579Y-74917024D01*
X125708033Y-74921967D01*
X125712976Y-74927421D01*
X125717360Y-74933332D01*
X125721144Y-74939645D01*
X125724291Y-74946299D01*
X125726771Y-74953229D01*
X125728559Y-74960368D01*
X125729639Y-74967649D01*
X125730000Y-74975000D01*
X125730000Y-75125000D01*
X125729639Y-75132351D01*
X125728559Y-75139632D01*
X125726771Y-75146771D01*
X125724291Y-75153701D01*
X125721144Y-75160355D01*
X125717360Y-75166668D01*
X125712976Y-75172579D01*
X125708033Y-75178033D01*
X125702579Y-75182976D01*
X125696668Y-75187360D01*
X125690355Y-75191144D01*
X125683701Y-75194291D01*
X125676771Y-75196771D01*
X125669632Y-75198559D01*
X125662351Y-75199639D01*
X125655000Y-75200000D01*
X124255000Y-75200000D01*
X124247649Y-75199639D01*
X124240368Y-75198559D01*
X124233229Y-75196771D01*
X124226299Y-75194291D01*
X124219645Y-75191144D01*
X124213332Y-75187360D01*
X124207421Y-75182976D01*
X124201967Y-75178033D01*
X124197024Y-75172579D01*
X124192640Y-75166668D01*
X124188856Y-75160355D01*
X124185709Y-75153701D01*
X124183229Y-75146771D01*
X124181441Y-75139632D01*
X124180361Y-75132351D01*
X124180000Y-75125000D01*
X124180000Y-74975000D01*
X124180361Y-74967649D01*
X124181441Y-74960368D01*
X124183229Y-74953229D01*
X124185709Y-74946299D01*
X124188856Y-74939645D01*
X124192640Y-74933332D01*
X124197024Y-74927421D01*
X124201967Y-74921967D01*
X124207421Y-74917024D01*
X124213332Y-74912640D01*
X124219645Y-74908856D01*
X124226299Y-74905709D01*
X124233229Y-74903229D01*
X124240368Y-74901441D01*
X124247649Y-74900361D01*
X124255000Y-74900000D01*
X125655000Y-74900000D01*
X125662351Y-74900361D01*
G37*
G36*
X125662351Y-74400361D02*
G01*
X125669632Y-74401441D01*
X125676771Y-74403229D01*
X125683701Y-74405709D01*
X125690355Y-74408856D01*
X125696668Y-74412640D01*
X125702579Y-74417024D01*
X125708033Y-74421967D01*
X125712976Y-74427421D01*
X125717360Y-74433332D01*
X125721144Y-74439645D01*
X125724291Y-74446299D01*
X125726771Y-74453229D01*
X125728559Y-74460368D01*
X125729639Y-74467649D01*
X125730000Y-74475000D01*
X125730000Y-74625000D01*
X125729639Y-74632351D01*
X125728559Y-74639632D01*
X125726771Y-74646771D01*
X125724291Y-74653701D01*
X125721144Y-74660355D01*
X125717360Y-74666668D01*
X125712976Y-74672579D01*
X125708033Y-74678033D01*
X125702579Y-74682976D01*
X125696668Y-74687360D01*
X125690355Y-74691144D01*
X125683701Y-74694291D01*
X125676771Y-74696771D01*
X125669632Y-74698559D01*
X125662351Y-74699639D01*
X125655000Y-74700000D01*
X124255000Y-74700000D01*
X124247649Y-74699639D01*
X124240368Y-74698559D01*
X124233229Y-74696771D01*
X124226299Y-74694291D01*
X124219645Y-74691144D01*
X124213332Y-74687360D01*
X124207421Y-74682976D01*
X124201967Y-74678033D01*
X124197024Y-74672579D01*
X124192640Y-74666668D01*
X124188856Y-74660355D01*
X124185709Y-74653701D01*
X124183229Y-74646771D01*
X124181441Y-74639632D01*
X124180361Y-74632351D01*
X124180000Y-74625000D01*
X124180000Y-74475000D01*
X124180361Y-74467649D01*
X124181441Y-74460368D01*
X124183229Y-74453229D01*
X124185709Y-74446299D01*
X124188856Y-74439645D01*
X124192640Y-74433332D01*
X124197024Y-74427421D01*
X124201967Y-74421967D01*
X124207421Y-74417024D01*
X124213332Y-74412640D01*
X124219645Y-74408856D01*
X124226299Y-74405709D01*
X124233229Y-74403229D01*
X124240368Y-74401441D01*
X124247649Y-74400361D01*
X124255000Y-74400000D01*
X125655000Y-74400000D01*
X125662351Y-74400361D01*
G37*
G36*
X126962351Y-71850361D02*
G01*
X126969632Y-71851441D01*
X126976771Y-71853229D01*
X126983701Y-71855709D01*
X126990355Y-71858856D01*
X126996668Y-71862640D01*
X127002579Y-71867024D01*
X127008033Y-71871967D01*
X127012976Y-71877421D01*
X127017360Y-71883332D01*
X127021144Y-71889645D01*
X127024291Y-71896299D01*
X127026771Y-71903229D01*
X127028559Y-71910368D01*
X127029639Y-71917649D01*
X127030000Y-71925000D01*
X127030000Y-73325000D01*
X127029639Y-73332351D01*
X127028559Y-73339632D01*
X127026771Y-73346771D01*
X127024291Y-73353701D01*
X127021144Y-73360355D01*
X127017360Y-73366668D01*
X127012976Y-73372579D01*
X127008033Y-73378033D01*
X127002579Y-73382976D01*
X126996668Y-73387360D01*
X126990355Y-73391144D01*
X126983701Y-73394291D01*
X126976771Y-73396771D01*
X126969632Y-73398559D01*
X126962351Y-73399639D01*
X126955000Y-73400000D01*
X126805000Y-73400000D01*
X126797649Y-73399639D01*
X126790368Y-73398559D01*
X126783229Y-73396771D01*
X126776299Y-73394291D01*
X126769645Y-73391144D01*
X126763332Y-73387360D01*
X126757421Y-73382976D01*
X126751967Y-73378033D01*
X126747024Y-73372579D01*
X126742640Y-73366668D01*
X126738856Y-73360355D01*
X126735709Y-73353701D01*
X126733229Y-73346771D01*
X126731441Y-73339632D01*
X126730361Y-73332351D01*
X126730000Y-73325000D01*
X126730000Y-71925000D01*
X126730361Y-71917649D01*
X126731441Y-71910368D01*
X126733229Y-71903229D01*
X126735709Y-71896299D01*
X126738856Y-71889645D01*
X126742640Y-71883332D01*
X126747024Y-71877421D01*
X126751967Y-71871967D01*
X126757421Y-71867024D01*
X126763332Y-71862640D01*
X126769645Y-71858856D01*
X126776299Y-71855709D01*
X126783229Y-71853229D01*
X126790368Y-71851441D01*
X126797649Y-71850361D01*
X126805000Y-71850000D01*
X126955000Y-71850000D01*
X126962351Y-71850361D01*
G37*
G36*
X127462351Y-71850361D02*
G01*
X127469632Y-71851441D01*
X127476771Y-71853229D01*
X127483701Y-71855709D01*
X127490355Y-71858856D01*
X127496668Y-71862640D01*
X127502579Y-71867024D01*
X127508033Y-71871967D01*
X127512976Y-71877421D01*
X127517360Y-71883332D01*
X127521144Y-71889645D01*
X127524291Y-71896299D01*
X127526771Y-71903229D01*
X127528559Y-71910368D01*
X127529639Y-71917649D01*
X127530000Y-71925000D01*
X127530000Y-73325000D01*
X127529639Y-73332351D01*
X127528559Y-73339632D01*
X127526771Y-73346771D01*
X127524291Y-73353701D01*
X127521144Y-73360355D01*
X127517360Y-73366668D01*
X127512976Y-73372579D01*
X127508033Y-73378033D01*
X127502579Y-73382976D01*
X127496668Y-73387360D01*
X127490355Y-73391144D01*
X127483701Y-73394291D01*
X127476771Y-73396771D01*
X127469632Y-73398559D01*
X127462351Y-73399639D01*
X127455000Y-73400000D01*
X127305000Y-73400000D01*
X127297649Y-73399639D01*
X127290368Y-73398559D01*
X127283229Y-73396771D01*
X127276299Y-73394291D01*
X127269645Y-73391144D01*
X127263332Y-73387360D01*
X127257421Y-73382976D01*
X127251967Y-73378033D01*
X127247024Y-73372579D01*
X127242640Y-73366668D01*
X127238856Y-73360355D01*
X127235709Y-73353701D01*
X127233229Y-73346771D01*
X127231441Y-73339632D01*
X127230361Y-73332351D01*
X127230000Y-73325000D01*
X127230000Y-71925000D01*
X127230361Y-71917649D01*
X127231441Y-71910368D01*
X127233229Y-71903229D01*
X127235709Y-71896299D01*
X127238856Y-71889645D01*
X127242640Y-71883332D01*
X127247024Y-71877421D01*
X127251967Y-71871967D01*
X127257421Y-71867024D01*
X127263332Y-71862640D01*
X127269645Y-71858856D01*
X127276299Y-71855709D01*
X127283229Y-71853229D01*
X127290368Y-71851441D01*
X127297649Y-71850361D01*
X127305000Y-71850000D01*
X127455000Y-71850000D01*
X127462351Y-71850361D01*
G37*
G36*
X127962351Y-71850361D02*
G01*
X127969632Y-71851441D01*
X127976771Y-71853229D01*
X127983701Y-71855709D01*
X127990355Y-71858856D01*
X127996668Y-71862640D01*
X128002579Y-71867024D01*
X128008033Y-71871967D01*
X128012976Y-71877421D01*
X128017360Y-71883332D01*
X128021144Y-71889645D01*
X128024291Y-71896299D01*
X128026771Y-71903229D01*
X128028559Y-71910368D01*
X128029639Y-71917649D01*
X128030000Y-71925000D01*
X128030000Y-73325000D01*
X128029639Y-73332351D01*
X128028559Y-73339632D01*
X128026771Y-73346771D01*
X128024291Y-73353701D01*
X128021144Y-73360355D01*
X128017360Y-73366668D01*
X128012976Y-73372579D01*
X128008033Y-73378033D01*
X128002579Y-73382976D01*
X127996668Y-73387360D01*
X127990355Y-73391144D01*
X127983701Y-73394291D01*
X127976771Y-73396771D01*
X127969632Y-73398559D01*
X127962351Y-73399639D01*
X127955000Y-73400000D01*
X127805000Y-73400000D01*
X127797649Y-73399639D01*
X127790368Y-73398559D01*
X127783229Y-73396771D01*
X127776299Y-73394291D01*
X127769645Y-73391144D01*
X127763332Y-73387360D01*
X127757421Y-73382976D01*
X127751967Y-73378033D01*
X127747024Y-73372579D01*
X127742640Y-73366668D01*
X127738856Y-73360355D01*
X127735709Y-73353701D01*
X127733229Y-73346771D01*
X127731441Y-73339632D01*
X127730361Y-73332351D01*
X127730000Y-73325000D01*
X127730000Y-71925000D01*
X127730361Y-71917649D01*
X127731441Y-71910368D01*
X127733229Y-71903229D01*
X127735709Y-71896299D01*
X127738856Y-71889645D01*
X127742640Y-71883332D01*
X127747024Y-71877421D01*
X127751967Y-71871967D01*
X127757421Y-71867024D01*
X127763332Y-71862640D01*
X127769645Y-71858856D01*
X127776299Y-71855709D01*
X127783229Y-71853229D01*
X127790368Y-71851441D01*
X127797649Y-71850361D01*
X127805000Y-71850000D01*
X127955000Y-71850000D01*
X127962351Y-71850361D01*
G37*
G36*
X128462351Y-71850361D02*
G01*
X128469632Y-71851441D01*
X128476771Y-71853229D01*
X128483701Y-71855709D01*
X128490355Y-71858856D01*
X128496668Y-71862640D01*
X128502579Y-71867024D01*
X128508033Y-71871967D01*
X128512976Y-71877421D01*
X128517360Y-71883332D01*
X128521144Y-71889645D01*
X128524291Y-71896299D01*
X128526771Y-71903229D01*
X128528559Y-71910368D01*
X128529639Y-71917649D01*
X128530000Y-71925000D01*
X128530000Y-73325000D01*
X128529639Y-73332351D01*
X128528559Y-73339632D01*
X128526771Y-73346771D01*
X128524291Y-73353701D01*
X128521144Y-73360355D01*
X128517360Y-73366668D01*
X128512976Y-73372579D01*
X128508033Y-73378033D01*
X128502579Y-73382976D01*
X128496668Y-73387360D01*
X128490355Y-73391144D01*
X128483701Y-73394291D01*
X128476771Y-73396771D01*
X128469632Y-73398559D01*
X128462351Y-73399639D01*
X128455000Y-73400000D01*
X128305000Y-73400000D01*
X128297649Y-73399639D01*
X128290368Y-73398559D01*
X128283229Y-73396771D01*
X128276299Y-73394291D01*
X128269645Y-73391144D01*
X128263332Y-73387360D01*
X128257421Y-73382976D01*
X128251967Y-73378033D01*
X128247024Y-73372579D01*
X128242640Y-73366668D01*
X128238856Y-73360355D01*
X128235709Y-73353701D01*
X128233229Y-73346771D01*
X128231441Y-73339632D01*
X128230361Y-73332351D01*
X128230000Y-73325000D01*
X128230000Y-71925000D01*
X128230361Y-71917649D01*
X128231441Y-71910368D01*
X128233229Y-71903229D01*
X128235709Y-71896299D01*
X128238856Y-71889645D01*
X128242640Y-71883332D01*
X128247024Y-71877421D01*
X128251967Y-71871967D01*
X128257421Y-71867024D01*
X128263332Y-71862640D01*
X128269645Y-71858856D01*
X128276299Y-71855709D01*
X128283229Y-71853229D01*
X128290368Y-71851441D01*
X128297649Y-71850361D01*
X128305000Y-71850000D01*
X128455000Y-71850000D01*
X128462351Y-71850361D01*
G37*
G36*
X128962351Y-71850361D02*
G01*
X128969632Y-71851441D01*
X128976771Y-71853229D01*
X128983701Y-71855709D01*
X128990355Y-71858856D01*
X128996668Y-71862640D01*
X129002579Y-71867024D01*
X129008033Y-71871967D01*
X129012976Y-71877421D01*
X129017360Y-71883332D01*
X129021144Y-71889645D01*
X129024291Y-71896299D01*
X129026771Y-71903229D01*
X129028559Y-71910368D01*
X129029639Y-71917649D01*
X129030000Y-71925000D01*
X129030000Y-73325000D01*
X129029639Y-73332351D01*
X129028559Y-73339632D01*
X129026771Y-73346771D01*
X129024291Y-73353701D01*
X129021144Y-73360355D01*
X129017360Y-73366668D01*
X129012976Y-73372579D01*
X129008033Y-73378033D01*
X129002579Y-73382976D01*
X128996668Y-73387360D01*
X128990355Y-73391144D01*
X128983701Y-73394291D01*
X128976771Y-73396771D01*
X128969632Y-73398559D01*
X128962351Y-73399639D01*
X128955000Y-73400000D01*
X128805000Y-73400000D01*
X128797649Y-73399639D01*
X128790368Y-73398559D01*
X128783229Y-73396771D01*
X128776299Y-73394291D01*
X128769645Y-73391144D01*
X128763332Y-73387360D01*
X128757421Y-73382976D01*
X128751967Y-73378033D01*
X128747024Y-73372579D01*
X128742640Y-73366668D01*
X128738856Y-73360355D01*
X128735709Y-73353701D01*
X128733229Y-73346771D01*
X128731441Y-73339632D01*
X128730361Y-73332351D01*
X128730000Y-73325000D01*
X128730000Y-71925000D01*
X128730361Y-71917649D01*
X128731441Y-71910368D01*
X128733229Y-71903229D01*
X128735709Y-71896299D01*
X128738856Y-71889645D01*
X128742640Y-71883332D01*
X128747024Y-71877421D01*
X128751967Y-71871967D01*
X128757421Y-71867024D01*
X128763332Y-71862640D01*
X128769645Y-71858856D01*
X128776299Y-71855709D01*
X128783229Y-71853229D01*
X128790368Y-71851441D01*
X128797649Y-71850361D01*
X128805000Y-71850000D01*
X128955000Y-71850000D01*
X128962351Y-71850361D01*
G37*
G36*
X129462351Y-71850361D02*
G01*
X129469632Y-71851441D01*
X129476771Y-71853229D01*
X129483701Y-71855709D01*
X129490355Y-71858856D01*
X129496668Y-71862640D01*
X129502579Y-71867024D01*
X129508033Y-71871967D01*
X129512976Y-71877421D01*
X129517360Y-71883332D01*
X129521144Y-71889645D01*
X129524291Y-71896299D01*
X129526771Y-71903229D01*
X129528559Y-71910368D01*
X129529639Y-71917649D01*
X129530000Y-71925000D01*
X129530000Y-73325000D01*
X129529639Y-73332351D01*
X129528559Y-73339632D01*
X129526771Y-73346771D01*
X129524291Y-73353701D01*
X129521144Y-73360355D01*
X129517360Y-73366668D01*
X129512976Y-73372579D01*
X129508033Y-73378033D01*
X129502579Y-73382976D01*
X129496668Y-73387360D01*
X129490355Y-73391144D01*
X129483701Y-73394291D01*
X129476771Y-73396771D01*
X129469632Y-73398559D01*
X129462351Y-73399639D01*
X129455000Y-73400000D01*
X129305000Y-73400000D01*
X129297649Y-73399639D01*
X129290368Y-73398559D01*
X129283229Y-73396771D01*
X129276299Y-73394291D01*
X129269645Y-73391144D01*
X129263332Y-73387360D01*
X129257421Y-73382976D01*
X129251967Y-73378033D01*
X129247024Y-73372579D01*
X129242640Y-73366668D01*
X129238856Y-73360355D01*
X129235709Y-73353701D01*
X129233229Y-73346771D01*
X129231441Y-73339632D01*
X129230361Y-73332351D01*
X129230000Y-73325000D01*
X129230000Y-71925000D01*
X129230361Y-71917649D01*
X129231441Y-71910368D01*
X129233229Y-71903229D01*
X129235709Y-71896299D01*
X129238856Y-71889645D01*
X129242640Y-71883332D01*
X129247024Y-71877421D01*
X129251967Y-71871967D01*
X129257421Y-71867024D01*
X129263332Y-71862640D01*
X129269645Y-71858856D01*
X129276299Y-71855709D01*
X129283229Y-71853229D01*
X129290368Y-71851441D01*
X129297649Y-71850361D01*
X129305000Y-71850000D01*
X129455000Y-71850000D01*
X129462351Y-71850361D01*
G37*
G36*
X129962351Y-71850361D02*
G01*
X129969632Y-71851441D01*
X129976771Y-71853229D01*
X129983701Y-71855709D01*
X129990355Y-71858856D01*
X129996668Y-71862640D01*
X130002579Y-71867024D01*
X130008033Y-71871967D01*
X130012976Y-71877421D01*
X130017360Y-71883332D01*
X130021144Y-71889645D01*
X130024291Y-71896299D01*
X130026771Y-71903229D01*
X130028559Y-71910368D01*
X130029639Y-71917649D01*
X130030000Y-71925000D01*
X130030000Y-73325000D01*
X130029639Y-73332351D01*
X130028559Y-73339632D01*
X130026771Y-73346771D01*
X130024291Y-73353701D01*
X130021144Y-73360355D01*
X130017360Y-73366668D01*
X130012976Y-73372579D01*
X130008033Y-73378033D01*
X130002579Y-73382976D01*
X129996668Y-73387360D01*
X129990355Y-73391144D01*
X129983701Y-73394291D01*
X129976771Y-73396771D01*
X129969632Y-73398559D01*
X129962351Y-73399639D01*
X129955000Y-73400000D01*
X129805000Y-73400000D01*
X129797649Y-73399639D01*
X129790368Y-73398559D01*
X129783229Y-73396771D01*
X129776299Y-73394291D01*
X129769645Y-73391144D01*
X129763332Y-73387360D01*
X129757421Y-73382976D01*
X129751967Y-73378033D01*
X129747024Y-73372579D01*
X129742640Y-73366668D01*
X129738856Y-73360355D01*
X129735709Y-73353701D01*
X129733229Y-73346771D01*
X129731441Y-73339632D01*
X129730361Y-73332351D01*
X129730000Y-73325000D01*
X129730000Y-71925000D01*
X129730361Y-71917649D01*
X129731441Y-71910368D01*
X129733229Y-71903229D01*
X129735709Y-71896299D01*
X129738856Y-71889645D01*
X129742640Y-71883332D01*
X129747024Y-71877421D01*
X129751967Y-71871967D01*
X129757421Y-71867024D01*
X129763332Y-71862640D01*
X129769645Y-71858856D01*
X129776299Y-71855709D01*
X129783229Y-71853229D01*
X129790368Y-71851441D01*
X129797649Y-71850361D01*
X129805000Y-71850000D01*
X129955000Y-71850000D01*
X129962351Y-71850361D01*
G37*
G36*
X130462351Y-71850361D02*
G01*
X130469632Y-71851441D01*
X130476771Y-71853229D01*
X130483701Y-71855709D01*
X130490355Y-71858856D01*
X130496668Y-71862640D01*
X130502579Y-71867024D01*
X130508033Y-71871967D01*
X130512976Y-71877421D01*
X130517360Y-71883332D01*
X130521144Y-71889645D01*
X130524291Y-71896299D01*
X130526771Y-71903229D01*
X130528559Y-71910368D01*
X130529639Y-71917649D01*
X130530000Y-71925000D01*
X130530000Y-73325000D01*
X130529639Y-73332351D01*
X130528559Y-73339632D01*
X130526771Y-73346771D01*
X130524291Y-73353701D01*
X130521144Y-73360355D01*
X130517360Y-73366668D01*
X130512976Y-73372579D01*
X130508033Y-73378033D01*
X130502579Y-73382976D01*
X130496668Y-73387360D01*
X130490355Y-73391144D01*
X130483701Y-73394291D01*
X130476771Y-73396771D01*
X130469632Y-73398559D01*
X130462351Y-73399639D01*
X130455000Y-73400000D01*
X130305000Y-73400000D01*
X130297649Y-73399639D01*
X130290368Y-73398559D01*
X130283229Y-73396771D01*
X130276299Y-73394291D01*
X130269645Y-73391144D01*
X130263332Y-73387360D01*
X130257421Y-73382976D01*
X130251967Y-73378033D01*
X130247024Y-73372579D01*
X130242640Y-73366668D01*
X130238856Y-73360355D01*
X130235709Y-73353701D01*
X130233229Y-73346771D01*
X130231441Y-73339632D01*
X130230361Y-73332351D01*
X130230000Y-73325000D01*
X130230000Y-71925000D01*
X130230361Y-71917649D01*
X130231441Y-71910368D01*
X130233229Y-71903229D01*
X130235709Y-71896299D01*
X130238856Y-71889645D01*
X130242640Y-71883332D01*
X130247024Y-71877421D01*
X130251967Y-71871967D01*
X130257421Y-71867024D01*
X130263332Y-71862640D01*
X130269645Y-71858856D01*
X130276299Y-71855709D01*
X130283229Y-71853229D01*
X130290368Y-71851441D01*
X130297649Y-71850361D01*
X130305000Y-71850000D01*
X130455000Y-71850000D01*
X130462351Y-71850361D01*
G37*
G36*
X130962351Y-71850361D02*
G01*
X130969632Y-71851441D01*
X130976771Y-71853229D01*
X130983701Y-71855709D01*
X130990355Y-71858856D01*
X130996668Y-71862640D01*
X131002579Y-71867024D01*
X131008033Y-71871967D01*
X131012976Y-71877421D01*
X131017360Y-71883332D01*
X131021144Y-71889645D01*
X131024291Y-71896299D01*
X131026771Y-71903229D01*
X131028559Y-71910368D01*
X131029639Y-71917649D01*
X131030000Y-71925000D01*
X131030000Y-73325000D01*
X131029639Y-73332351D01*
X131028559Y-73339632D01*
X131026771Y-73346771D01*
X131024291Y-73353701D01*
X131021144Y-73360355D01*
X131017360Y-73366668D01*
X131012976Y-73372579D01*
X131008033Y-73378033D01*
X131002579Y-73382976D01*
X130996668Y-73387360D01*
X130990355Y-73391144D01*
X130983701Y-73394291D01*
X130976771Y-73396771D01*
X130969632Y-73398559D01*
X130962351Y-73399639D01*
X130955000Y-73400000D01*
X130805000Y-73400000D01*
X130797649Y-73399639D01*
X130790368Y-73398559D01*
X130783229Y-73396771D01*
X130776299Y-73394291D01*
X130769645Y-73391144D01*
X130763332Y-73387360D01*
X130757421Y-73382976D01*
X130751967Y-73378033D01*
X130747024Y-73372579D01*
X130742640Y-73366668D01*
X130738856Y-73360355D01*
X130735709Y-73353701D01*
X130733229Y-73346771D01*
X130731441Y-73339632D01*
X130730361Y-73332351D01*
X130730000Y-73325000D01*
X130730000Y-71925000D01*
X130730361Y-71917649D01*
X130731441Y-71910368D01*
X130733229Y-71903229D01*
X130735709Y-71896299D01*
X130738856Y-71889645D01*
X130742640Y-71883332D01*
X130747024Y-71877421D01*
X130751967Y-71871967D01*
X130757421Y-71867024D01*
X130763332Y-71862640D01*
X130769645Y-71858856D01*
X130776299Y-71855709D01*
X130783229Y-71853229D01*
X130790368Y-71851441D01*
X130797649Y-71850361D01*
X130805000Y-71850000D01*
X130955000Y-71850000D01*
X130962351Y-71850361D01*
G37*
G36*
X131462351Y-71850361D02*
G01*
X131469632Y-71851441D01*
X131476771Y-71853229D01*
X131483701Y-71855709D01*
X131490355Y-71858856D01*
X131496668Y-71862640D01*
X131502579Y-71867024D01*
X131508033Y-71871967D01*
X131512976Y-71877421D01*
X131517360Y-71883332D01*
X131521144Y-71889645D01*
X131524291Y-71896299D01*
X131526771Y-71903229D01*
X131528559Y-71910368D01*
X131529639Y-71917649D01*
X131530000Y-71925000D01*
X131530000Y-73325000D01*
X131529639Y-73332351D01*
X131528559Y-73339632D01*
X131526771Y-73346771D01*
X131524291Y-73353701D01*
X131521144Y-73360355D01*
X131517360Y-73366668D01*
X131512976Y-73372579D01*
X131508033Y-73378033D01*
X131502579Y-73382976D01*
X131496668Y-73387360D01*
X131490355Y-73391144D01*
X131483701Y-73394291D01*
X131476771Y-73396771D01*
X131469632Y-73398559D01*
X131462351Y-73399639D01*
X131455000Y-73400000D01*
X131305000Y-73400000D01*
X131297649Y-73399639D01*
X131290368Y-73398559D01*
X131283229Y-73396771D01*
X131276299Y-73394291D01*
X131269645Y-73391144D01*
X131263332Y-73387360D01*
X131257421Y-73382976D01*
X131251967Y-73378033D01*
X131247024Y-73372579D01*
X131242640Y-73366668D01*
X131238856Y-73360355D01*
X131235709Y-73353701D01*
X131233229Y-73346771D01*
X131231441Y-73339632D01*
X131230361Y-73332351D01*
X131230000Y-73325000D01*
X131230000Y-71925000D01*
X131230361Y-71917649D01*
X131231441Y-71910368D01*
X131233229Y-71903229D01*
X131235709Y-71896299D01*
X131238856Y-71889645D01*
X131242640Y-71883332D01*
X131247024Y-71877421D01*
X131251967Y-71871967D01*
X131257421Y-71867024D01*
X131263332Y-71862640D01*
X131269645Y-71858856D01*
X131276299Y-71855709D01*
X131283229Y-71853229D01*
X131290368Y-71851441D01*
X131297649Y-71850361D01*
X131305000Y-71850000D01*
X131455000Y-71850000D01*
X131462351Y-71850361D01*
G37*
G36*
X131962351Y-71850361D02*
G01*
X131969632Y-71851441D01*
X131976771Y-71853229D01*
X131983701Y-71855709D01*
X131990355Y-71858856D01*
X131996668Y-71862640D01*
X132002579Y-71867024D01*
X132008033Y-71871967D01*
X132012976Y-71877421D01*
X132017360Y-71883332D01*
X132021144Y-71889645D01*
X132024291Y-71896299D01*
X132026771Y-71903229D01*
X132028559Y-71910368D01*
X132029639Y-71917649D01*
X132030000Y-71925000D01*
X132030000Y-73325000D01*
X132029639Y-73332351D01*
X132028559Y-73339632D01*
X132026771Y-73346771D01*
X132024291Y-73353701D01*
X132021144Y-73360355D01*
X132017360Y-73366668D01*
X132012976Y-73372579D01*
X132008033Y-73378033D01*
X132002579Y-73382976D01*
X131996668Y-73387360D01*
X131990355Y-73391144D01*
X131983701Y-73394291D01*
X131976771Y-73396771D01*
X131969632Y-73398559D01*
X131962351Y-73399639D01*
X131955000Y-73400000D01*
X131805000Y-73400000D01*
X131797649Y-73399639D01*
X131790368Y-73398559D01*
X131783229Y-73396771D01*
X131776299Y-73394291D01*
X131769645Y-73391144D01*
X131763332Y-73387360D01*
X131757421Y-73382976D01*
X131751967Y-73378033D01*
X131747024Y-73372579D01*
X131742640Y-73366668D01*
X131738856Y-73360355D01*
X131735709Y-73353701D01*
X131733229Y-73346771D01*
X131731441Y-73339632D01*
X131730361Y-73332351D01*
X131730000Y-73325000D01*
X131730000Y-71925000D01*
X131730361Y-71917649D01*
X131731441Y-71910368D01*
X131733229Y-71903229D01*
X131735709Y-71896299D01*
X131738856Y-71889645D01*
X131742640Y-71883332D01*
X131747024Y-71877421D01*
X131751967Y-71871967D01*
X131757421Y-71867024D01*
X131763332Y-71862640D01*
X131769645Y-71858856D01*
X131776299Y-71855709D01*
X131783229Y-71853229D01*
X131790368Y-71851441D01*
X131797649Y-71850361D01*
X131805000Y-71850000D01*
X131955000Y-71850000D01*
X131962351Y-71850361D01*
G37*
G36*
X132462351Y-71850361D02*
G01*
X132469632Y-71851441D01*
X132476771Y-71853229D01*
X132483701Y-71855709D01*
X132490355Y-71858856D01*
X132496668Y-71862640D01*
X132502579Y-71867024D01*
X132508033Y-71871967D01*
X132512976Y-71877421D01*
X132517360Y-71883332D01*
X132521144Y-71889645D01*
X132524291Y-71896299D01*
X132526771Y-71903229D01*
X132528559Y-71910368D01*
X132529639Y-71917649D01*
X132530000Y-71925000D01*
X132530000Y-73325000D01*
X132529639Y-73332351D01*
X132528559Y-73339632D01*
X132526771Y-73346771D01*
X132524291Y-73353701D01*
X132521144Y-73360355D01*
X132517360Y-73366668D01*
X132512976Y-73372579D01*
X132508033Y-73378033D01*
X132502579Y-73382976D01*
X132496668Y-73387360D01*
X132490355Y-73391144D01*
X132483701Y-73394291D01*
X132476771Y-73396771D01*
X132469632Y-73398559D01*
X132462351Y-73399639D01*
X132455000Y-73400000D01*
X132305000Y-73400000D01*
X132297649Y-73399639D01*
X132290368Y-73398559D01*
X132283229Y-73396771D01*
X132276299Y-73394291D01*
X132269645Y-73391144D01*
X132263332Y-73387360D01*
X132257421Y-73382976D01*
X132251967Y-73378033D01*
X132247024Y-73372579D01*
X132242640Y-73366668D01*
X132238856Y-73360355D01*
X132235709Y-73353701D01*
X132233229Y-73346771D01*
X132231441Y-73339632D01*
X132230361Y-73332351D01*
X132230000Y-73325000D01*
X132230000Y-71925000D01*
X132230361Y-71917649D01*
X132231441Y-71910368D01*
X132233229Y-71903229D01*
X132235709Y-71896299D01*
X132238856Y-71889645D01*
X132242640Y-71883332D01*
X132247024Y-71877421D01*
X132251967Y-71871967D01*
X132257421Y-71867024D01*
X132263332Y-71862640D01*
X132269645Y-71858856D01*
X132276299Y-71855709D01*
X132283229Y-71853229D01*
X132290368Y-71851441D01*
X132297649Y-71850361D01*
X132305000Y-71850000D01*
X132455000Y-71850000D01*
X132462351Y-71850361D01*
G37*
G36*
X132962351Y-71850361D02*
G01*
X132969632Y-71851441D01*
X132976771Y-71853229D01*
X132983701Y-71855709D01*
X132990355Y-71858856D01*
X132996668Y-71862640D01*
X133002579Y-71867024D01*
X133008033Y-71871967D01*
X133012976Y-71877421D01*
X133017360Y-71883332D01*
X133021144Y-71889645D01*
X133024291Y-71896299D01*
X133026771Y-71903229D01*
X133028559Y-71910368D01*
X133029639Y-71917649D01*
X133030000Y-71925000D01*
X133030000Y-73325000D01*
X133029639Y-73332351D01*
X133028559Y-73339632D01*
X133026771Y-73346771D01*
X133024291Y-73353701D01*
X133021144Y-73360355D01*
X133017360Y-73366668D01*
X133012976Y-73372579D01*
X133008033Y-73378033D01*
X133002579Y-73382976D01*
X132996668Y-73387360D01*
X132990355Y-73391144D01*
X132983701Y-73394291D01*
X132976771Y-73396771D01*
X132969632Y-73398559D01*
X132962351Y-73399639D01*
X132955000Y-73400000D01*
X132805000Y-73400000D01*
X132797649Y-73399639D01*
X132790368Y-73398559D01*
X132783229Y-73396771D01*
X132776299Y-73394291D01*
X132769645Y-73391144D01*
X132763332Y-73387360D01*
X132757421Y-73382976D01*
X132751967Y-73378033D01*
X132747024Y-73372579D01*
X132742640Y-73366668D01*
X132738856Y-73360355D01*
X132735709Y-73353701D01*
X132733229Y-73346771D01*
X132731441Y-73339632D01*
X132730361Y-73332351D01*
X132730000Y-73325000D01*
X132730000Y-71925000D01*
X132730361Y-71917649D01*
X132731441Y-71910368D01*
X132733229Y-71903229D01*
X132735709Y-71896299D01*
X132738856Y-71889645D01*
X132742640Y-71883332D01*
X132747024Y-71877421D01*
X132751967Y-71871967D01*
X132757421Y-71867024D01*
X132763332Y-71862640D01*
X132769645Y-71858856D01*
X132776299Y-71855709D01*
X132783229Y-71853229D01*
X132790368Y-71851441D01*
X132797649Y-71850361D01*
X132805000Y-71850000D01*
X132955000Y-71850000D01*
X132962351Y-71850361D01*
G37*
G36*
X133462351Y-71850361D02*
G01*
X133469632Y-71851441D01*
X133476771Y-71853229D01*
X133483701Y-71855709D01*
X133490355Y-71858856D01*
X133496668Y-71862640D01*
X133502579Y-71867024D01*
X133508033Y-71871967D01*
X133512976Y-71877421D01*
X133517360Y-71883332D01*
X133521144Y-71889645D01*
X133524291Y-71896299D01*
X133526771Y-71903229D01*
X133528559Y-71910368D01*
X133529639Y-71917649D01*
X133530000Y-71925000D01*
X133530000Y-73325000D01*
X133529639Y-73332351D01*
X133528559Y-73339632D01*
X133526771Y-73346771D01*
X133524291Y-73353701D01*
X133521144Y-73360355D01*
X133517360Y-73366668D01*
X133512976Y-73372579D01*
X133508033Y-73378033D01*
X133502579Y-73382976D01*
X133496668Y-73387360D01*
X133490355Y-73391144D01*
X133483701Y-73394291D01*
X133476771Y-73396771D01*
X133469632Y-73398559D01*
X133462351Y-73399639D01*
X133455000Y-73400000D01*
X133305000Y-73400000D01*
X133297649Y-73399639D01*
X133290368Y-73398559D01*
X133283229Y-73396771D01*
X133276299Y-73394291D01*
X133269645Y-73391144D01*
X133263332Y-73387360D01*
X133257421Y-73382976D01*
X133251967Y-73378033D01*
X133247024Y-73372579D01*
X133242640Y-73366668D01*
X133238856Y-73360355D01*
X133235709Y-73353701D01*
X133233229Y-73346771D01*
X133231441Y-73339632D01*
X133230361Y-73332351D01*
X133230000Y-73325000D01*
X133230000Y-71925000D01*
X133230361Y-71917649D01*
X133231441Y-71910368D01*
X133233229Y-71903229D01*
X133235709Y-71896299D01*
X133238856Y-71889645D01*
X133242640Y-71883332D01*
X133247024Y-71877421D01*
X133251967Y-71871967D01*
X133257421Y-71867024D01*
X133263332Y-71862640D01*
X133269645Y-71858856D01*
X133276299Y-71855709D01*
X133283229Y-71853229D01*
X133290368Y-71851441D01*
X133297649Y-71850361D01*
X133305000Y-71850000D01*
X133455000Y-71850000D01*
X133462351Y-71850361D01*
G37*
G36*
X133962351Y-71850361D02*
G01*
X133969632Y-71851441D01*
X133976771Y-71853229D01*
X133983701Y-71855709D01*
X133990355Y-71858856D01*
X133996668Y-71862640D01*
X134002579Y-71867024D01*
X134008033Y-71871967D01*
X134012976Y-71877421D01*
X134017360Y-71883332D01*
X134021144Y-71889645D01*
X134024291Y-71896299D01*
X134026771Y-71903229D01*
X134028559Y-71910368D01*
X134029639Y-71917649D01*
X134030000Y-71925000D01*
X134030000Y-73325000D01*
X134029639Y-73332351D01*
X134028559Y-73339632D01*
X134026771Y-73346771D01*
X134024291Y-73353701D01*
X134021144Y-73360355D01*
X134017360Y-73366668D01*
X134012976Y-73372579D01*
X134008033Y-73378033D01*
X134002579Y-73382976D01*
X133996668Y-73387360D01*
X133990355Y-73391144D01*
X133983701Y-73394291D01*
X133976771Y-73396771D01*
X133969632Y-73398559D01*
X133962351Y-73399639D01*
X133955000Y-73400000D01*
X133805000Y-73400000D01*
X133797649Y-73399639D01*
X133790368Y-73398559D01*
X133783229Y-73396771D01*
X133776299Y-73394291D01*
X133769645Y-73391144D01*
X133763332Y-73387360D01*
X133757421Y-73382976D01*
X133751967Y-73378033D01*
X133747024Y-73372579D01*
X133742640Y-73366668D01*
X133738856Y-73360355D01*
X133735709Y-73353701D01*
X133733229Y-73346771D01*
X133731441Y-73339632D01*
X133730361Y-73332351D01*
X133730000Y-73325000D01*
X133730000Y-71925000D01*
X133730361Y-71917649D01*
X133731441Y-71910368D01*
X133733229Y-71903229D01*
X133735709Y-71896299D01*
X133738856Y-71889645D01*
X133742640Y-71883332D01*
X133747024Y-71877421D01*
X133751967Y-71871967D01*
X133757421Y-71867024D01*
X133763332Y-71862640D01*
X133769645Y-71858856D01*
X133776299Y-71855709D01*
X133783229Y-71853229D01*
X133790368Y-71851441D01*
X133797649Y-71850361D01*
X133805000Y-71850000D01*
X133955000Y-71850000D01*
X133962351Y-71850361D01*
G37*
G36*
X134462351Y-71850361D02*
G01*
X134469632Y-71851441D01*
X134476771Y-71853229D01*
X134483701Y-71855709D01*
X134490355Y-71858856D01*
X134496668Y-71862640D01*
X134502579Y-71867024D01*
X134508033Y-71871967D01*
X134512976Y-71877421D01*
X134517360Y-71883332D01*
X134521144Y-71889645D01*
X134524291Y-71896299D01*
X134526771Y-71903229D01*
X134528559Y-71910368D01*
X134529639Y-71917649D01*
X134530000Y-71925000D01*
X134530000Y-73325000D01*
X134529639Y-73332351D01*
X134528559Y-73339632D01*
X134526771Y-73346771D01*
X134524291Y-73353701D01*
X134521144Y-73360355D01*
X134517360Y-73366668D01*
X134512976Y-73372579D01*
X134508033Y-73378033D01*
X134502579Y-73382976D01*
X134496668Y-73387360D01*
X134490355Y-73391144D01*
X134483701Y-73394291D01*
X134476771Y-73396771D01*
X134469632Y-73398559D01*
X134462351Y-73399639D01*
X134455000Y-73400000D01*
X134305000Y-73400000D01*
X134297649Y-73399639D01*
X134290368Y-73398559D01*
X134283229Y-73396771D01*
X134276299Y-73394291D01*
X134269645Y-73391144D01*
X134263332Y-73387360D01*
X134257421Y-73382976D01*
X134251967Y-73378033D01*
X134247024Y-73372579D01*
X134242640Y-73366668D01*
X134238856Y-73360355D01*
X134235709Y-73353701D01*
X134233229Y-73346771D01*
X134231441Y-73339632D01*
X134230361Y-73332351D01*
X134230000Y-73325000D01*
X134230000Y-71925000D01*
X134230361Y-71917649D01*
X134231441Y-71910368D01*
X134233229Y-71903229D01*
X134235709Y-71896299D01*
X134238856Y-71889645D01*
X134242640Y-71883332D01*
X134247024Y-71877421D01*
X134251967Y-71871967D01*
X134257421Y-71867024D01*
X134263332Y-71862640D01*
X134269645Y-71858856D01*
X134276299Y-71855709D01*
X134283229Y-71853229D01*
X134290368Y-71851441D01*
X134297649Y-71850361D01*
X134305000Y-71850000D01*
X134455000Y-71850000D01*
X134462351Y-71850361D01*
G37*
G36*
X137012351Y-74400361D02*
G01*
X137019632Y-74401441D01*
X137026771Y-74403229D01*
X137033701Y-74405709D01*
X137040355Y-74408856D01*
X137046668Y-74412640D01*
X137052579Y-74417024D01*
X137058033Y-74421967D01*
X137062976Y-74427421D01*
X137067360Y-74433332D01*
X137071144Y-74439645D01*
X137074291Y-74446299D01*
X137076771Y-74453229D01*
X137078559Y-74460368D01*
X137079639Y-74467649D01*
X137080000Y-74475000D01*
X137080000Y-74625000D01*
X137079639Y-74632351D01*
X137078559Y-74639632D01*
X137076771Y-74646771D01*
X137074291Y-74653701D01*
X137071144Y-74660355D01*
X137067360Y-74666668D01*
X137062976Y-74672579D01*
X137058033Y-74678033D01*
X137052579Y-74682976D01*
X137046668Y-74687360D01*
X137040355Y-74691144D01*
X137033701Y-74694291D01*
X137026771Y-74696771D01*
X137019632Y-74698559D01*
X137012351Y-74699639D01*
X137005000Y-74700000D01*
X135605000Y-74700000D01*
X135597649Y-74699639D01*
X135590368Y-74698559D01*
X135583229Y-74696771D01*
X135576299Y-74694291D01*
X135569645Y-74691144D01*
X135563332Y-74687360D01*
X135557421Y-74682976D01*
X135551967Y-74678033D01*
X135547024Y-74672579D01*
X135542640Y-74666668D01*
X135538856Y-74660355D01*
X135535709Y-74653701D01*
X135533229Y-74646771D01*
X135531441Y-74639632D01*
X135530361Y-74632351D01*
X135530000Y-74625000D01*
X135530000Y-74475000D01*
X135530361Y-74467649D01*
X135531441Y-74460368D01*
X135533229Y-74453229D01*
X135535709Y-74446299D01*
X135538856Y-74439645D01*
X135542640Y-74433332D01*
X135547024Y-74427421D01*
X135551967Y-74421967D01*
X135557421Y-74417024D01*
X135563332Y-74412640D01*
X135569645Y-74408856D01*
X135576299Y-74405709D01*
X135583229Y-74403229D01*
X135590368Y-74401441D01*
X135597649Y-74400361D01*
X135605000Y-74400000D01*
X137005000Y-74400000D01*
X137012351Y-74400361D01*
G37*
G36*
X137012351Y-74900361D02*
G01*
X137019632Y-74901441D01*
X137026771Y-74903229D01*
X137033701Y-74905709D01*
X137040355Y-74908856D01*
X137046668Y-74912640D01*
X137052579Y-74917024D01*
X137058033Y-74921967D01*
X137062976Y-74927421D01*
X137067360Y-74933332D01*
X137071144Y-74939645D01*
X137074291Y-74946299D01*
X137076771Y-74953229D01*
X137078559Y-74960368D01*
X137079639Y-74967649D01*
X137080000Y-74975000D01*
X137080000Y-75125000D01*
X137079639Y-75132351D01*
X137078559Y-75139632D01*
X137076771Y-75146771D01*
X137074291Y-75153701D01*
X137071144Y-75160355D01*
X137067360Y-75166668D01*
X137062976Y-75172579D01*
X137058033Y-75178033D01*
X137052579Y-75182976D01*
X137046668Y-75187360D01*
X137040355Y-75191144D01*
X137033701Y-75194291D01*
X137026771Y-75196771D01*
X137019632Y-75198559D01*
X137012351Y-75199639D01*
X137005000Y-75200000D01*
X135605000Y-75200000D01*
X135597649Y-75199639D01*
X135590368Y-75198559D01*
X135583229Y-75196771D01*
X135576299Y-75194291D01*
X135569645Y-75191144D01*
X135563332Y-75187360D01*
X135557421Y-75182976D01*
X135551967Y-75178033D01*
X135547024Y-75172579D01*
X135542640Y-75166668D01*
X135538856Y-75160355D01*
X135535709Y-75153701D01*
X135533229Y-75146771D01*
X135531441Y-75139632D01*
X135530361Y-75132351D01*
X135530000Y-75125000D01*
X135530000Y-74975000D01*
X135530361Y-74967649D01*
X135531441Y-74960368D01*
X135533229Y-74953229D01*
X135535709Y-74946299D01*
X135538856Y-74939645D01*
X135542640Y-74933332D01*
X135547024Y-74927421D01*
X135551967Y-74921967D01*
X135557421Y-74917024D01*
X135563332Y-74912640D01*
X135569645Y-74908856D01*
X135576299Y-74905709D01*
X135583229Y-74903229D01*
X135590368Y-74901441D01*
X135597649Y-74900361D01*
X135605000Y-74900000D01*
X137005000Y-74900000D01*
X137012351Y-74900361D01*
G37*
G36*
X137012351Y-75400361D02*
G01*
X137019632Y-75401441D01*
X137026771Y-75403229D01*
X137033701Y-75405709D01*
X137040355Y-75408856D01*
X137046668Y-75412640D01*
X137052579Y-75417024D01*
X137058033Y-75421967D01*
X137062976Y-75427421D01*
X137067360Y-75433332D01*
X137071144Y-75439645D01*
X137074291Y-75446299D01*
X137076771Y-75453229D01*
X137078559Y-75460368D01*
X137079639Y-75467649D01*
X137080000Y-75475000D01*
X137080000Y-75625000D01*
X137079639Y-75632351D01*
X137078559Y-75639632D01*
X137076771Y-75646771D01*
X137074291Y-75653701D01*
X137071144Y-75660355D01*
X137067360Y-75666668D01*
X137062976Y-75672579D01*
X137058033Y-75678033D01*
X137052579Y-75682976D01*
X137046668Y-75687360D01*
X137040355Y-75691144D01*
X137033701Y-75694291D01*
X137026771Y-75696771D01*
X137019632Y-75698559D01*
X137012351Y-75699639D01*
X137005000Y-75700000D01*
X135605000Y-75700000D01*
X135597649Y-75699639D01*
X135590368Y-75698559D01*
X135583229Y-75696771D01*
X135576299Y-75694291D01*
X135569645Y-75691144D01*
X135563332Y-75687360D01*
X135557421Y-75682976D01*
X135551967Y-75678033D01*
X135547024Y-75672579D01*
X135542640Y-75666668D01*
X135538856Y-75660355D01*
X135535709Y-75653701D01*
X135533229Y-75646771D01*
X135531441Y-75639632D01*
X135530361Y-75632351D01*
X135530000Y-75625000D01*
X135530000Y-75475000D01*
X135530361Y-75467649D01*
X135531441Y-75460368D01*
X135533229Y-75453229D01*
X135535709Y-75446299D01*
X135538856Y-75439645D01*
X135542640Y-75433332D01*
X135547024Y-75427421D01*
X135551967Y-75421967D01*
X135557421Y-75417024D01*
X135563332Y-75412640D01*
X135569645Y-75408856D01*
X135576299Y-75405709D01*
X135583229Y-75403229D01*
X135590368Y-75401441D01*
X135597649Y-75400361D01*
X135605000Y-75400000D01*
X137005000Y-75400000D01*
X137012351Y-75400361D01*
G37*
G36*
X137012351Y-75900361D02*
G01*
X137019632Y-75901441D01*
X137026771Y-75903229D01*
X137033701Y-75905709D01*
X137040355Y-75908856D01*
X137046668Y-75912640D01*
X137052579Y-75917024D01*
X137058033Y-75921967D01*
X137062976Y-75927421D01*
X137067360Y-75933332D01*
X137071144Y-75939645D01*
X137074291Y-75946299D01*
X137076771Y-75953229D01*
X137078559Y-75960368D01*
X137079639Y-75967649D01*
X137080000Y-75975000D01*
X137080000Y-76125000D01*
X137079639Y-76132351D01*
X137078559Y-76139632D01*
X137076771Y-76146771D01*
X137074291Y-76153701D01*
X137071144Y-76160355D01*
X137067360Y-76166668D01*
X137062976Y-76172579D01*
X137058033Y-76178033D01*
X137052579Y-76182976D01*
X137046668Y-76187360D01*
X137040355Y-76191144D01*
X137033701Y-76194291D01*
X137026771Y-76196771D01*
X137019632Y-76198559D01*
X137012351Y-76199639D01*
X137005000Y-76200000D01*
X135605000Y-76200000D01*
X135597649Y-76199639D01*
X135590368Y-76198559D01*
X135583229Y-76196771D01*
X135576299Y-76194291D01*
X135569645Y-76191144D01*
X135563332Y-76187360D01*
X135557421Y-76182976D01*
X135551967Y-76178033D01*
X135547024Y-76172579D01*
X135542640Y-76166668D01*
X135538856Y-76160355D01*
X135535709Y-76153701D01*
X135533229Y-76146771D01*
X135531441Y-76139632D01*
X135530361Y-76132351D01*
X135530000Y-76125000D01*
X135530000Y-75975000D01*
X135530361Y-75967649D01*
X135531441Y-75960368D01*
X135533229Y-75953229D01*
X135535709Y-75946299D01*
X135538856Y-75939645D01*
X135542640Y-75933332D01*
X135547024Y-75927421D01*
X135551967Y-75921967D01*
X135557421Y-75917024D01*
X135563332Y-75912640D01*
X135569645Y-75908856D01*
X135576299Y-75905709D01*
X135583229Y-75903229D01*
X135590368Y-75901441D01*
X135597649Y-75900361D01*
X135605000Y-75900000D01*
X137005000Y-75900000D01*
X137012351Y-75900361D01*
G37*
G36*
X137012351Y-76400361D02*
G01*
X137019632Y-76401441D01*
X137026771Y-76403229D01*
X137033701Y-76405709D01*
X137040355Y-76408856D01*
X137046668Y-76412640D01*
X137052579Y-76417024D01*
X137058033Y-76421967D01*
X137062976Y-76427421D01*
X137067360Y-76433332D01*
X137071144Y-76439645D01*
X137074291Y-76446299D01*
X137076771Y-76453229D01*
X137078559Y-76460368D01*
X137079639Y-76467649D01*
X137080000Y-76475000D01*
X137080000Y-76625000D01*
X137079639Y-76632351D01*
X137078559Y-76639632D01*
X137076771Y-76646771D01*
X137074291Y-76653701D01*
X137071144Y-76660355D01*
X137067360Y-76666668D01*
X137062976Y-76672579D01*
X137058033Y-76678033D01*
X137052579Y-76682976D01*
X137046668Y-76687360D01*
X137040355Y-76691144D01*
X137033701Y-76694291D01*
X137026771Y-76696771D01*
X137019632Y-76698559D01*
X137012351Y-76699639D01*
X137005000Y-76700000D01*
X135605000Y-76700000D01*
X135597649Y-76699639D01*
X135590368Y-76698559D01*
X135583229Y-76696771D01*
X135576299Y-76694291D01*
X135569645Y-76691144D01*
X135563332Y-76687360D01*
X135557421Y-76682976D01*
X135551967Y-76678033D01*
X135547024Y-76672579D01*
X135542640Y-76666668D01*
X135538856Y-76660355D01*
X135535709Y-76653701D01*
X135533229Y-76646771D01*
X135531441Y-76639632D01*
X135530361Y-76632351D01*
X135530000Y-76625000D01*
X135530000Y-76475000D01*
X135530361Y-76467649D01*
X135531441Y-76460368D01*
X135533229Y-76453229D01*
X135535709Y-76446299D01*
X135538856Y-76439645D01*
X135542640Y-76433332D01*
X135547024Y-76427421D01*
X135551967Y-76421967D01*
X135557421Y-76417024D01*
X135563332Y-76412640D01*
X135569645Y-76408856D01*
X135576299Y-76405709D01*
X135583229Y-76403229D01*
X135590368Y-76401441D01*
X135597649Y-76400361D01*
X135605000Y-76400000D01*
X137005000Y-76400000D01*
X137012351Y-76400361D01*
G37*
G36*
X137012351Y-76900361D02*
G01*
X137019632Y-76901441D01*
X137026771Y-76903229D01*
X137033701Y-76905709D01*
X137040355Y-76908856D01*
X137046668Y-76912640D01*
X137052579Y-76917024D01*
X137058033Y-76921967D01*
X137062976Y-76927421D01*
X137067360Y-76933332D01*
X137071144Y-76939645D01*
X137074291Y-76946299D01*
X137076771Y-76953229D01*
X137078559Y-76960368D01*
X137079639Y-76967649D01*
X137080000Y-76975000D01*
X137080000Y-77125000D01*
X137079639Y-77132351D01*
X137078559Y-77139632D01*
X137076771Y-77146771D01*
X137074291Y-77153701D01*
X137071144Y-77160355D01*
X137067360Y-77166668D01*
X137062976Y-77172579D01*
X137058033Y-77178033D01*
X137052579Y-77182976D01*
X137046668Y-77187360D01*
X137040355Y-77191144D01*
X137033701Y-77194291D01*
X137026771Y-77196771D01*
X137019632Y-77198559D01*
X137012351Y-77199639D01*
X137005000Y-77200000D01*
X135605000Y-77200000D01*
X135597649Y-77199639D01*
X135590368Y-77198559D01*
X135583229Y-77196771D01*
X135576299Y-77194291D01*
X135569645Y-77191144D01*
X135563332Y-77187360D01*
X135557421Y-77182976D01*
X135551967Y-77178033D01*
X135547024Y-77172579D01*
X135542640Y-77166668D01*
X135538856Y-77160355D01*
X135535709Y-77153701D01*
X135533229Y-77146771D01*
X135531441Y-77139632D01*
X135530361Y-77132351D01*
X135530000Y-77125000D01*
X135530000Y-76975000D01*
X135530361Y-76967649D01*
X135531441Y-76960368D01*
X135533229Y-76953229D01*
X135535709Y-76946299D01*
X135538856Y-76939645D01*
X135542640Y-76933332D01*
X135547024Y-76927421D01*
X135551967Y-76921967D01*
X135557421Y-76917024D01*
X135563332Y-76912640D01*
X135569645Y-76908856D01*
X135576299Y-76905709D01*
X135583229Y-76903229D01*
X135590368Y-76901441D01*
X135597649Y-76900361D01*
X135605000Y-76900000D01*
X137005000Y-76900000D01*
X137012351Y-76900361D01*
G37*
G36*
X137012351Y-77400361D02*
G01*
X137019632Y-77401441D01*
X137026771Y-77403229D01*
X137033701Y-77405709D01*
X137040355Y-77408856D01*
X137046668Y-77412640D01*
X137052579Y-77417024D01*
X137058033Y-77421967D01*
X137062976Y-77427421D01*
X137067360Y-77433332D01*
X137071144Y-77439645D01*
X137074291Y-77446299D01*
X137076771Y-77453229D01*
X137078559Y-77460368D01*
X137079639Y-77467649D01*
X137080000Y-77475000D01*
X137080000Y-77625000D01*
X137079639Y-77632351D01*
X137078559Y-77639632D01*
X137076771Y-77646771D01*
X137074291Y-77653701D01*
X137071144Y-77660355D01*
X137067360Y-77666668D01*
X137062976Y-77672579D01*
X137058033Y-77678033D01*
X137052579Y-77682976D01*
X137046668Y-77687360D01*
X137040355Y-77691144D01*
X137033701Y-77694291D01*
X137026771Y-77696771D01*
X137019632Y-77698559D01*
X137012351Y-77699639D01*
X137005000Y-77700000D01*
X135605000Y-77700000D01*
X135597649Y-77699639D01*
X135590368Y-77698559D01*
X135583229Y-77696771D01*
X135576299Y-77694291D01*
X135569645Y-77691144D01*
X135563332Y-77687360D01*
X135557421Y-77682976D01*
X135551967Y-77678033D01*
X135547024Y-77672579D01*
X135542640Y-77666668D01*
X135538856Y-77660355D01*
X135535709Y-77653701D01*
X135533229Y-77646771D01*
X135531441Y-77639632D01*
X135530361Y-77632351D01*
X135530000Y-77625000D01*
X135530000Y-77475000D01*
X135530361Y-77467649D01*
X135531441Y-77460368D01*
X135533229Y-77453229D01*
X135535709Y-77446299D01*
X135538856Y-77439645D01*
X135542640Y-77433332D01*
X135547024Y-77427421D01*
X135551967Y-77421967D01*
X135557421Y-77417024D01*
X135563332Y-77412640D01*
X135569645Y-77408856D01*
X135576299Y-77405709D01*
X135583229Y-77403229D01*
X135590368Y-77401441D01*
X135597649Y-77400361D01*
X135605000Y-77400000D01*
X137005000Y-77400000D01*
X137012351Y-77400361D01*
G37*
G36*
X137012351Y-77900361D02*
G01*
X137019632Y-77901441D01*
X137026771Y-77903229D01*
X137033701Y-77905709D01*
X137040355Y-77908856D01*
X137046668Y-77912640D01*
X137052579Y-77917024D01*
X137058033Y-77921967D01*
X137062976Y-77927421D01*
X137067360Y-77933332D01*
X137071144Y-77939645D01*
X137074291Y-77946299D01*
X137076771Y-77953229D01*
X137078559Y-77960368D01*
X137079639Y-77967649D01*
X137080000Y-77975000D01*
X137080000Y-78125000D01*
X137079639Y-78132351D01*
X137078559Y-78139632D01*
X137076771Y-78146771D01*
X137074291Y-78153701D01*
X137071144Y-78160355D01*
X137067360Y-78166668D01*
X137062976Y-78172579D01*
X137058033Y-78178033D01*
X137052579Y-78182976D01*
X137046668Y-78187360D01*
X137040355Y-78191144D01*
X137033701Y-78194291D01*
X137026771Y-78196771D01*
X137019632Y-78198559D01*
X137012351Y-78199639D01*
X137005000Y-78200000D01*
X135605000Y-78200000D01*
X135597649Y-78199639D01*
X135590368Y-78198559D01*
X135583229Y-78196771D01*
X135576299Y-78194291D01*
X135569645Y-78191144D01*
X135563332Y-78187360D01*
X135557421Y-78182976D01*
X135551967Y-78178033D01*
X135547024Y-78172579D01*
X135542640Y-78166668D01*
X135538856Y-78160355D01*
X135535709Y-78153701D01*
X135533229Y-78146771D01*
X135531441Y-78139632D01*
X135530361Y-78132351D01*
X135530000Y-78125000D01*
X135530000Y-77975000D01*
X135530361Y-77967649D01*
X135531441Y-77960368D01*
X135533229Y-77953229D01*
X135535709Y-77946299D01*
X135538856Y-77939645D01*
X135542640Y-77933332D01*
X135547024Y-77927421D01*
X135551967Y-77921967D01*
X135557421Y-77917024D01*
X135563332Y-77912640D01*
X135569645Y-77908856D01*
X135576299Y-77905709D01*
X135583229Y-77903229D01*
X135590368Y-77901441D01*
X135597649Y-77900361D01*
X135605000Y-77900000D01*
X137005000Y-77900000D01*
X137012351Y-77900361D01*
G37*
G36*
X137012351Y-78400361D02*
G01*
X137019632Y-78401441D01*
X137026771Y-78403229D01*
X137033701Y-78405709D01*
X137040355Y-78408856D01*
X137046668Y-78412640D01*
X137052579Y-78417024D01*
X137058033Y-78421967D01*
X137062976Y-78427421D01*
X137067360Y-78433332D01*
X137071144Y-78439645D01*
X137074291Y-78446299D01*
X137076771Y-78453229D01*
X137078559Y-78460368D01*
X137079639Y-78467649D01*
X137080000Y-78475000D01*
X137080000Y-78625000D01*
X137079639Y-78632351D01*
X137078559Y-78639632D01*
X137076771Y-78646771D01*
X137074291Y-78653701D01*
X137071144Y-78660355D01*
X137067360Y-78666668D01*
X137062976Y-78672579D01*
X137058033Y-78678033D01*
X137052579Y-78682976D01*
X137046668Y-78687360D01*
X137040355Y-78691144D01*
X137033701Y-78694291D01*
X137026771Y-78696771D01*
X137019632Y-78698559D01*
X137012351Y-78699639D01*
X137005000Y-78700000D01*
X135605000Y-78700000D01*
X135597649Y-78699639D01*
X135590368Y-78698559D01*
X135583229Y-78696771D01*
X135576299Y-78694291D01*
X135569645Y-78691144D01*
X135563332Y-78687360D01*
X135557421Y-78682976D01*
X135551967Y-78678033D01*
X135547024Y-78672579D01*
X135542640Y-78666668D01*
X135538856Y-78660355D01*
X135535709Y-78653701D01*
X135533229Y-78646771D01*
X135531441Y-78639632D01*
X135530361Y-78632351D01*
X135530000Y-78625000D01*
X135530000Y-78475000D01*
X135530361Y-78467649D01*
X135531441Y-78460368D01*
X135533229Y-78453229D01*
X135535709Y-78446299D01*
X135538856Y-78439645D01*
X135542640Y-78433332D01*
X135547024Y-78427421D01*
X135551967Y-78421967D01*
X135557421Y-78417024D01*
X135563332Y-78412640D01*
X135569645Y-78408856D01*
X135576299Y-78405709D01*
X135583229Y-78403229D01*
X135590368Y-78401441D01*
X135597649Y-78400361D01*
X135605000Y-78400000D01*
X137005000Y-78400000D01*
X137012351Y-78400361D01*
G37*
G36*
X137012351Y-78900361D02*
G01*
X137019632Y-78901441D01*
X137026771Y-78903229D01*
X137033701Y-78905709D01*
X137040355Y-78908856D01*
X137046668Y-78912640D01*
X137052579Y-78917024D01*
X137058033Y-78921967D01*
X137062976Y-78927421D01*
X137067360Y-78933332D01*
X137071144Y-78939645D01*
X137074291Y-78946299D01*
X137076771Y-78953229D01*
X137078559Y-78960368D01*
X137079639Y-78967649D01*
X137080000Y-78975000D01*
X137080000Y-79125000D01*
X137079639Y-79132351D01*
X137078559Y-79139632D01*
X137076771Y-79146771D01*
X137074291Y-79153701D01*
X137071144Y-79160355D01*
X137067360Y-79166668D01*
X137062976Y-79172579D01*
X137058033Y-79178033D01*
X137052579Y-79182976D01*
X137046668Y-79187360D01*
X137040355Y-79191144D01*
X137033701Y-79194291D01*
X137026771Y-79196771D01*
X137019632Y-79198559D01*
X137012351Y-79199639D01*
X137005000Y-79200000D01*
X135605000Y-79200000D01*
X135597649Y-79199639D01*
X135590368Y-79198559D01*
X135583229Y-79196771D01*
X135576299Y-79194291D01*
X135569645Y-79191144D01*
X135563332Y-79187360D01*
X135557421Y-79182976D01*
X135551967Y-79178033D01*
X135547024Y-79172579D01*
X135542640Y-79166668D01*
X135538856Y-79160355D01*
X135535709Y-79153701D01*
X135533229Y-79146771D01*
X135531441Y-79139632D01*
X135530361Y-79132351D01*
X135530000Y-79125000D01*
X135530000Y-78975000D01*
X135530361Y-78967649D01*
X135531441Y-78960368D01*
X135533229Y-78953229D01*
X135535709Y-78946299D01*
X135538856Y-78939645D01*
X135542640Y-78933332D01*
X135547024Y-78927421D01*
X135551967Y-78921967D01*
X135557421Y-78917024D01*
X135563332Y-78912640D01*
X135569645Y-78908856D01*
X135576299Y-78905709D01*
X135583229Y-78903229D01*
X135590368Y-78901441D01*
X135597649Y-78900361D01*
X135605000Y-78900000D01*
X137005000Y-78900000D01*
X137012351Y-78900361D01*
G37*
G36*
X137012351Y-79400361D02*
G01*
X137019632Y-79401441D01*
X137026771Y-79403229D01*
X137033701Y-79405709D01*
X137040355Y-79408856D01*
X137046668Y-79412640D01*
X137052579Y-79417024D01*
X137058033Y-79421967D01*
X137062976Y-79427421D01*
X137067360Y-79433332D01*
X137071144Y-79439645D01*
X137074291Y-79446299D01*
X137076771Y-79453229D01*
X137078559Y-79460368D01*
X137079639Y-79467649D01*
X137080000Y-79475000D01*
X137080000Y-79625000D01*
X137079639Y-79632351D01*
X137078559Y-79639632D01*
X137076771Y-79646771D01*
X137074291Y-79653701D01*
X137071144Y-79660355D01*
X137067360Y-79666668D01*
X137062976Y-79672579D01*
X137058033Y-79678033D01*
X137052579Y-79682976D01*
X137046668Y-79687360D01*
X137040355Y-79691144D01*
X137033701Y-79694291D01*
X137026771Y-79696771D01*
X137019632Y-79698559D01*
X137012351Y-79699639D01*
X137005000Y-79700000D01*
X135605000Y-79700000D01*
X135597649Y-79699639D01*
X135590368Y-79698559D01*
X135583229Y-79696771D01*
X135576299Y-79694291D01*
X135569645Y-79691144D01*
X135563332Y-79687360D01*
X135557421Y-79682976D01*
X135551967Y-79678033D01*
X135547024Y-79672579D01*
X135542640Y-79666668D01*
X135538856Y-79660355D01*
X135535709Y-79653701D01*
X135533229Y-79646771D01*
X135531441Y-79639632D01*
X135530361Y-79632351D01*
X135530000Y-79625000D01*
X135530000Y-79475000D01*
X135530361Y-79467649D01*
X135531441Y-79460368D01*
X135533229Y-79453229D01*
X135535709Y-79446299D01*
X135538856Y-79439645D01*
X135542640Y-79433332D01*
X135547024Y-79427421D01*
X135551967Y-79421967D01*
X135557421Y-79417024D01*
X135563332Y-79412640D01*
X135569645Y-79408856D01*
X135576299Y-79405709D01*
X135583229Y-79403229D01*
X135590368Y-79401441D01*
X135597649Y-79400361D01*
X135605000Y-79400000D01*
X137005000Y-79400000D01*
X137012351Y-79400361D01*
G37*
G36*
X137012351Y-79900361D02*
G01*
X137019632Y-79901441D01*
X137026771Y-79903229D01*
X137033701Y-79905709D01*
X137040355Y-79908856D01*
X137046668Y-79912640D01*
X137052579Y-79917024D01*
X137058033Y-79921967D01*
X137062976Y-79927421D01*
X137067360Y-79933332D01*
X137071144Y-79939645D01*
X137074291Y-79946299D01*
X137076771Y-79953229D01*
X137078559Y-79960368D01*
X137079639Y-79967649D01*
X137080000Y-79975000D01*
X137080000Y-80125000D01*
X137079639Y-80132351D01*
X137078559Y-80139632D01*
X137076771Y-80146771D01*
X137074291Y-80153701D01*
X137071144Y-80160355D01*
X137067360Y-80166668D01*
X137062976Y-80172579D01*
X137058033Y-80178033D01*
X137052579Y-80182976D01*
X137046668Y-80187360D01*
X137040355Y-80191144D01*
X137033701Y-80194291D01*
X137026771Y-80196771D01*
X137019632Y-80198559D01*
X137012351Y-80199639D01*
X137005000Y-80200000D01*
X135605000Y-80200000D01*
X135597649Y-80199639D01*
X135590368Y-80198559D01*
X135583229Y-80196771D01*
X135576299Y-80194291D01*
X135569645Y-80191144D01*
X135563332Y-80187360D01*
X135557421Y-80182976D01*
X135551967Y-80178033D01*
X135547024Y-80172579D01*
X135542640Y-80166668D01*
X135538856Y-80160355D01*
X135535709Y-80153701D01*
X135533229Y-80146771D01*
X135531441Y-80139632D01*
X135530361Y-80132351D01*
X135530000Y-80125000D01*
X135530000Y-79975000D01*
X135530361Y-79967649D01*
X135531441Y-79960368D01*
X135533229Y-79953229D01*
X135535709Y-79946299D01*
X135538856Y-79939645D01*
X135542640Y-79933332D01*
X135547024Y-79927421D01*
X135551967Y-79921967D01*
X135557421Y-79917024D01*
X135563332Y-79912640D01*
X135569645Y-79908856D01*
X135576299Y-79905709D01*
X135583229Y-79903229D01*
X135590368Y-79901441D01*
X135597649Y-79900361D01*
X135605000Y-79900000D01*
X137005000Y-79900000D01*
X137012351Y-79900361D01*
G37*
G36*
X137012351Y-80400361D02*
G01*
X137019632Y-80401441D01*
X137026771Y-80403229D01*
X137033701Y-80405709D01*
X137040355Y-80408856D01*
X137046668Y-80412640D01*
X137052579Y-80417024D01*
X137058033Y-80421967D01*
X137062976Y-80427421D01*
X137067360Y-80433332D01*
X137071144Y-80439645D01*
X137074291Y-80446299D01*
X137076771Y-80453229D01*
X137078559Y-80460368D01*
X137079639Y-80467649D01*
X137080000Y-80475000D01*
X137080000Y-80625000D01*
X137079639Y-80632351D01*
X137078559Y-80639632D01*
X137076771Y-80646771D01*
X137074291Y-80653701D01*
X137071144Y-80660355D01*
X137067360Y-80666668D01*
X137062976Y-80672579D01*
X137058033Y-80678033D01*
X137052579Y-80682976D01*
X137046668Y-80687360D01*
X137040355Y-80691144D01*
X137033701Y-80694291D01*
X137026771Y-80696771D01*
X137019632Y-80698559D01*
X137012351Y-80699639D01*
X137005000Y-80700000D01*
X135605000Y-80700000D01*
X135597649Y-80699639D01*
X135590368Y-80698559D01*
X135583229Y-80696771D01*
X135576299Y-80694291D01*
X135569645Y-80691144D01*
X135563332Y-80687360D01*
X135557421Y-80682976D01*
X135551967Y-80678033D01*
X135547024Y-80672579D01*
X135542640Y-80666668D01*
X135538856Y-80660355D01*
X135535709Y-80653701D01*
X135533229Y-80646771D01*
X135531441Y-80639632D01*
X135530361Y-80632351D01*
X135530000Y-80625000D01*
X135530000Y-80475000D01*
X135530361Y-80467649D01*
X135531441Y-80460368D01*
X135533229Y-80453229D01*
X135535709Y-80446299D01*
X135538856Y-80439645D01*
X135542640Y-80433332D01*
X135547024Y-80427421D01*
X135551967Y-80421967D01*
X135557421Y-80417024D01*
X135563332Y-80412640D01*
X135569645Y-80408856D01*
X135576299Y-80405709D01*
X135583229Y-80403229D01*
X135590368Y-80401441D01*
X135597649Y-80400361D01*
X135605000Y-80400000D01*
X137005000Y-80400000D01*
X137012351Y-80400361D01*
G37*
G36*
X137012351Y-80900361D02*
G01*
X137019632Y-80901441D01*
X137026771Y-80903229D01*
X137033701Y-80905709D01*
X137040355Y-80908856D01*
X137046668Y-80912640D01*
X137052579Y-80917024D01*
X137058033Y-80921967D01*
X137062976Y-80927421D01*
X137067360Y-80933332D01*
X137071144Y-80939645D01*
X137074291Y-80946299D01*
X137076771Y-80953229D01*
X137078559Y-80960368D01*
X137079639Y-80967649D01*
X137080000Y-80975000D01*
X137080000Y-81125000D01*
X137079639Y-81132351D01*
X137078559Y-81139632D01*
X137076771Y-81146771D01*
X137074291Y-81153701D01*
X137071144Y-81160355D01*
X137067360Y-81166668D01*
X137062976Y-81172579D01*
X137058033Y-81178033D01*
X137052579Y-81182976D01*
X137046668Y-81187360D01*
X137040355Y-81191144D01*
X137033701Y-81194291D01*
X137026771Y-81196771D01*
X137019632Y-81198559D01*
X137012351Y-81199639D01*
X137005000Y-81200000D01*
X135605000Y-81200000D01*
X135597649Y-81199639D01*
X135590368Y-81198559D01*
X135583229Y-81196771D01*
X135576299Y-81194291D01*
X135569645Y-81191144D01*
X135563332Y-81187360D01*
X135557421Y-81182976D01*
X135551967Y-81178033D01*
X135547024Y-81172579D01*
X135542640Y-81166668D01*
X135538856Y-81160355D01*
X135535709Y-81153701D01*
X135533229Y-81146771D01*
X135531441Y-81139632D01*
X135530361Y-81132351D01*
X135530000Y-81125000D01*
X135530000Y-80975000D01*
X135530361Y-80967649D01*
X135531441Y-80960368D01*
X135533229Y-80953229D01*
X135535709Y-80946299D01*
X135538856Y-80939645D01*
X135542640Y-80933332D01*
X135547024Y-80927421D01*
X135551967Y-80921967D01*
X135557421Y-80917024D01*
X135563332Y-80912640D01*
X135569645Y-80908856D01*
X135576299Y-80905709D01*
X135583229Y-80903229D01*
X135590368Y-80901441D01*
X135597649Y-80900361D01*
X135605000Y-80900000D01*
X137005000Y-80900000D01*
X137012351Y-80900361D01*
G37*
G36*
X137012351Y-81400361D02*
G01*
X137019632Y-81401441D01*
X137026771Y-81403229D01*
X137033701Y-81405709D01*
X137040355Y-81408856D01*
X137046668Y-81412640D01*
X137052579Y-81417024D01*
X137058033Y-81421967D01*
X137062976Y-81427421D01*
X137067360Y-81433332D01*
X137071144Y-81439645D01*
X137074291Y-81446299D01*
X137076771Y-81453229D01*
X137078559Y-81460368D01*
X137079639Y-81467649D01*
X137080000Y-81475000D01*
X137080000Y-81625000D01*
X137079639Y-81632351D01*
X137078559Y-81639632D01*
X137076771Y-81646771D01*
X137074291Y-81653701D01*
X137071144Y-81660355D01*
X137067360Y-81666668D01*
X137062976Y-81672579D01*
X137058033Y-81678033D01*
X137052579Y-81682976D01*
X137046668Y-81687360D01*
X137040355Y-81691144D01*
X137033701Y-81694291D01*
X137026771Y-81696771D01*
X137019632Y-81698559D01*
X137012351Y-81699639D01*
X137005000Y-81700000D01*
X135605000Y-81700000D01*
X135597649Y-81699639D01*
X135590368Y-81698559D01*
X135583229Y-81696771D01*
X135576299Y-81694291D01*
X135569645Y-81691144D01*
X135563332Y-81687360D01*
X135557421Y-81682976D01*
X135551967Y-81678033D01*
X135547024Y-81672579D01*
X135542640Y-81666668D01*
X135538856Y-81660355D01*
X135535709Y-81653701D01*
X135533229Y-81646771D01*
X135531441Y-81639632D01*
X135530361Y-81632351D01*
X135530000Y-81625000D01*
X135530000Y-81475000D01*
X135530361Y-81467649D01*
X135531441Y-81460368D01*
X135533229Y-81453229D01*
X135535709Y-81446299D01*
X135538856Y-81439645D01*
X135542640Y-81433332D01*
X135547024Y-81427421D01*
X135551967Y-81421967D01*
X135557421Y-81417024D01*
X135563332Y-81412640D01*
X135569645Y-81408856D01*
X135576299Y-81405709D01*
X135583229Y-81403229D01*
X135590368Y-81401441D01*
X135597649Y-81400361D01*
X135605000Y-81400000D01*
X137005000Y-81400000D01*
X137012351Y-81400361D01*
G37*
G36*
X137012351Y-81900361D02*
G01*
X137019632Y-81901441D01*
X137026771Y-81903229D01*
X137033701Y-81905709D01*
X137040355Y-81908856D01*
X137046668Y-81912640D01*
X137052579Y-81917024D01*
X137058033Y-81921967D01*
X137062976Y-81927421D01*
X137067360Y-81933332D01*
X137071144Y-81939645D01*
X137074291Y-81946299D01*
X137076771Y-81953229D01*
X137078559Y-81960368D01*
X137079639Y-81967649D01*
X137080000Y-81975000D01*
X137080000Y-82125000D01*
X137079639Y-82132351D01*
X137078559Y-82139632D01*
X137076771Y-82146771D01*
X137074291Y-82153701D01*
X137071144Y-82160355D01*
X137067360Y-82166668D01*
X137062976Y-82172579D01*
X137058033Y-82178033D01*
X137052579Y-82182976D01*
X137046668Y-82187360D01*
X137040355Y-82191144D01*
X137033701Y-82194291D01*
X137026771Y-82196771D01*
X137019632Y-82198559D01*
X137012351Y-82199639D01*
X137005000Y-82200000D01*
X135605000Y-82200000D01*
X135597649Y-82199639D01*
X135590368Y-82198559D01*
X135583229Y-82196771D01*
X135576299Y-82194291D01*
X135569645Y-82191144D01*
X135563332Y-82187360D01*
X135557421Y-82182976D01*
X135551967Y-82178033D01*
X135547024Y-82172579D01*
X135542640Y-82166668D01*
X135538856Y-82160355D01*
X135535709Y-82153701D01*
X135533229Y-82146771D01*
X135531441Y-82139632D01*
X135530361Y-82132351D01*
X135530000Y-82125000D01*
X135530000Y-81975000D01*
X135530361Y-81967649D01*
X135531441Y-81960368D01*
X135533229Y-81953229D01*
X135535709Y-81946299D01*
X135538856Y-81939645D01*
X135542640Y-81933332D01*
X135547024Y-81927421D01*
X135551967Y-81921967D01*
X135557421Y-81917024D01*
X135563332Y-81912640D01*
X135569645Y-81908856D01*
X135576299Y-81905709D01*
X135583229Y-81903229D01*
X135590368Y-81901441D01*
X135597649Y-81900361D01*
X135605000Y-81900000D01*
X137005000Y-81900000D01*
X137012351Y-81900361D01*
G37*
G36*
X104880142Y-87901174D02*
G01*
X104903803Y-87904684D01*
X104927007Y-87910496D01*
X104949529Y-87918554D01*
X104971153Y-87928782D01*
X104991670Y-87941079D01*
X105010883Y-87955329D01*
X105028607Y-87971393D01*
X105044671Y-87989117D01*
X105058921Y-88008330D01*
X105071218Y-88028847D01*
X105081446Y-88050471D01*
X105089504Y-88072993D01*
X105095316Y-88096197D01*
X105098826Y-88119858D01*
X105100000Y-88143750D01*
X105100000Y-89056250D01*
X105098826Y-89080142D01*
X105095316Y-89103803D01*
X105089504Y-89127007D01*
X105081446Y-89149529D01*
X105071218Y-89171153D01*
X105058921Y-89191670D01*
X105044671Y-89210883D01*
X105028607Y-89228607D01*
X105010883Y-89244671D01*
X104991670Y-89258921D01*
X104971153Y-89271218D01*
X104949529Y-89281446D01*
X104927007Y-89289504D01*
X104903803Y-89295316D01*
X104880142Y-89298826D01*
X104856250Y-89300000D01*
X104368750Y-89300000D01*
X104344858Y-89298826D01*
X104321197Y-89295316D01*
X104297993Y-89289504D01*
X104275471Y-89281446D01*
X104253847Y-89271218D01*
X104233330Y-89258921D01*
X104214117Y-89244671D01*
X104196393Y-89228607D01*
X104180329Y-89210883D01*
X104166079Y-89191670D01*
X104153782Y-89171153D01*
X104143554Y-89149529D01*
X104135496Y-89127007D01*
X104129684Y-89103803D01*
X104126174Y-89080142D01*
X104125000Y-89056250D01*
X104125000Y-88143750D01*
X104126174Y-88119858D01*
X104129684Y-88096197D01*
X104135496Y-88072993D01*
X104143554Y-88050471D01*
X104153782Y-88028847D01*
X104166079Y-88008330D01*
X104180329Y-87989117D01*
X104196393Y-87971393D01*
X104214117Y-87955329D01*
X104233330Y-87941079D01*
X104253847Y-87928782D01*
X104275471Y-87918554D01*
X104297993Y-87910496D01*
X104321197Y-87904684D01*
X104344858Y-87901174D01*
X104368750Y-87900000D01*
X104856250Y-87900000D01*
X104880142Y-87901174D01*
G37*
G36*
X106755142Y-87901174D02*
G01*
X106778803Y-87904684D01*
X106802007Y-87910496D01*
X106824529Y-87918554D01*
X106846153Y-87928782D01*
X106866670Y-87941079D01*
X106885883Y-87955329D01*
X106903607Y-87971393D01*
X106919671Y-87989117D01*
X106933921Y-88008330D01*
X106946218Y-88028847D01*
X106956446Y-88050471D01*
X106964504Y-88072993D01*
X106970316Y-88096197D01*
X106973826Y-88119858D01*
X106975000Y-88143750D01*
X106975000Y-89056250D01*
X106973826Y-89080142D01*
X106970316Y-89103803D01*
X106964504Y-89127007D01*
X106956446Y-89149529D01*
X106946218Y-89171153D01*
X106933921Y-89191670D01*
X106919671Y-89210883D01*
X106903607Y-89228607D01*
X106885883Y-89244671D01*
X106866670Y-89258921D01*
X106846153Y-89271218D01*
X106824529Y-89281446D01*
X106802007Y-89289504D01*
X106778803Y-89295316D01*
X106755142Y-89298826D01*
X106731250Y-89300000D01*
X106243750Y-89300000D01*
X106219858Y-89298826D01*
X106196197Y-89295316D01*
X106172993Y-89289504D01*
X106150471Y-89281446D01*
X106128847Y-89271218D01*
X106108330Y-89258921D01*
X106089117Y-89244671D01*
X106071393Y-89228607D01*
X106055329Y-89210883D01*
X106041079Y-89191670D01*
X106028782Y-89171153D01*
X106018554Y-89149529D01*
X106010496Y-89127007D01*
X106004684Y-89103803D01*
X106001174Y-89080142D01*
X106000000Y-89056250D01*
X106000000Y-88143750D01*
X106001174Y-88119858D01*
X106004684Y-88096197D01*
X106010496Y-88072993D01*
X106018554Y-88050471D01*
X106028782Y-88028847D01*
X106041079Y-88008330D01*
X106055329Y-87989117D01*
X106071393Y-87971393D01*
X106089117Y-87955329D01*
X106108330Y-87941079D01*
X106128847Y-87928782D01*
X106150471Y-87918554D01*
X106172993Y-87910496D01*
X106196197Y-87904684D01*
X106219858Y-87901174D01*
X106243750Y-87900000D01*
X106731250Y-87900000D01*
X106755142Y-87901174D01*
G37*
G36*
X149680142Y-95606174D02*
G01*
X149703803Y-95609684D01*
X149727007Y-95615496D01*
X149749529Y-95623554D01*
X149771153Y-95633782D01*
X149791670Y-95646079D01*
X149810883Y-95660329D01*
X149828607Y-95676393D01*
X149844671Y-95694117D01*
X149858921Y-95713330D01*
X149871218Y-95733847D01*
X149881446Y-95755471D01*
X149889504Y-95777993D01*
X149895316Y-95801197D01*
X149898826Y-95824858D01*
X149900000Y-95848750D01*
X149900000Y-96336250D01*
X149898826Y-96360142D01*
X149895316Y-96383803D01*
X149889504Y-96407007D01*
X149881446Y-96429529D01*
X149871218Y-96451153D01*
X149858921Y-96471670D01*
X149844671Y-96490883D01*
X149828607Y-96508607D01*
X149810883Y-96524671D01*
X149791670Y-96538921D01*
X149771153Y-96551218D01*
X149749529Y-96561446D01*
X149727007Y-96569504D01*
X149703803Y-96575316D01*
X149680142Y-96578826D01*
X149656250Y-96580000D01*
X148743750Y-96580000D01*
X148719858Y-96578826D01*
X148696197Y-96575316D01*
X148672993Y-96569504D01*
X148650471Y-96561446D01*
X148628847Y-96551218D01*
X148608330Y-96538921D01*
X148589117Y-96524671D01*
X148571393Y-96508607D01*
X148555329Y-96490883D01*
X148541079Y-96471670D01*
X148528782Y-96451153D01*
X148518554Y-96429529D01*
X148510496Y-96407007D01*
X148504684Y-96383803D01*
X148501174Y-96360142D01*
X148500000Y-96336250D01*
X148500000Y-95848750D01*
X148501174Y-95824858D01*
X148504684Y-95801197D01*
X148510496Y-95777993D01*
X148518554Y-95755471D01*
X148528782Y-95733847D01*
X148541079Y-95713330D01*
X148555329Y-95694117D01*
X148571393Y-95676393D01*
X148589117Y-95660329D01*
X148608330Y-95646079D01*
X148628847Y-95633782D01*
X148650471Y-95623554D01*
X148672993Y-95615496D01*
X148696197Y-95609684D01*
X148719858Y-95606174D01*
X148743750Y-95605000D01*
X149656250Y-95605000D01*
X149680142Y-95606174D01*
G37*
G36*
X149680142Y-97481174D02*
G01*
X149703803Y-97484684D01*
X149727007Y-97490496D01*
X149749529Y-97498554D01*
X149771153Y-97508782D01*
X149791670Y-97521079D01*
X149810883Y-97535329D01*
X149828607Y-97551393D01*
X149844671Y-97569117D01*
X149858921Y-97588330D01*
X149871218Y-97608847D01*
X149881446Y-97630471D01*
X149889504Y-97652993D01*
X149895316Y-97676197D01*
X149898826Y-97699858D01*
X149900000Y-97723750D01*
X149900000Y-98211250D01*
X149898826Y-98235142D01*
X149895316Y-98258803D01*
X149889504Y-98282007D01*
X149881446Y-98304529D01*
X149871218Y-98326153D01*
X149858921Y-98346670D01*
X149844671Y-98365883D01*
X149828607Y-98383607D01*
X149810883Y-98399671D01*
X149791670Y-98413921D01*
X149771153Y-98426218D01*
X149749529Y-98436446D01*
X149727007Y-98444504D01*
X149703803Y-98450316D01*
X149680142Y-98453826D01*
X149656250Y-98455000D01*
X148743750Y-98455000D01*
X148719858Y-98453826D01*
X148696197Y-98450316D01*
X148672993Y-98444504D01*
X148650471Y-98436446D01*
X148628847Y-98426218D01*
X148608330Y-98413921D01*
X148589117Y-98399671D01*
X148571393Y-98383607D01*
X148555329Y-98365883D01*
X148541079Y-98346670D01*
X148528782Y-98326153D01*
X148518554Y-98304529D01*
X148510496Y-98282007D01*
X148504684Y-98258803D01*
X148501174Y-98235142D01*
X148500000Y-98211250D01*
X148500000Y-97723750D01*
X148501174Y-97699858D01*
X148504684Y-97676197D01*
X148510496Y-97652993D01*
X148518554Y-97630471D01*
X148528782Y-97608847D01*
X148541079Y-97588330D01*
X148555329Y-97569117D01*
X148571393Y-97551393D01*
X148589117Y-97535329D01*
X148608330Y-97521079D01*
X148628847Y-97508782D01*
X148650471Y-97498554D01*
X148672993Y-97490496D01*
X148696197Y-97484684D01*
X148719858Y-97481174D01*
X148743750Y-97480000D01*
X149656250Y-97480000D01*
X149680142Y-97481174D01*
G37*
G36*
X139680142Y-100021174D02*
G01*
X139703803Y-100024684D01*
X139727007Y-100030496D01*
X139749529Y-100038554D01*
X139771153Y-100048782D01*
X139791670Y-100061079D01*
X139810883Y-100075329D01*
X139828607Y-100091393D01*
X139844671Y-100109117D01*
X139858921Y-100128330D01*
X139871218Y-100148847D01*
X139881446Y-100170471D01*
X139889504Y-100192993D01*
X139895316Y-100216197D01*
X139898826Y-100239858D01*
X139900000Y-100263750D01*
X139900000Y-100751250D01*
X139898826Y-100775142D01*
X139895316Y-100798803D01*
X139889504Y-100822007D01*
X139881446Y-100844529D01*
X139871218Y-100866153D01*
X139858921Y-100886670D01*
X139844671Y-100905883D01*
X139828607Y-100923607D01*
X139810883Y-100939671D01*
X139791670Y-100953921D01*
X139771153Y-100966218D01*
X139749529Y-100976446D01*
X139727007Y-100984504D01*
X139703803Y-100990316D01*
X139680142Y-100993826D01*
X139656250Y-100995000D01*
X138743750Y-100995000D01*
X138719858Y-100993826D01*
X138696197Y-100990316D01*
X138672993Y-100984504D01*
X138650471Y-100976446D01*
X138628847Y-100966218D01*
X138608330Y-100953921D01*
X138589117Y-100939671D01*
X138571393Y-100923607D01*
X138555329Y-100905883D01*
X138541079Y-100886670D01*
X138528782Y-100866153D01*
X138518554Y-100844529D01*
X138510496Y-100822007D01*
X138504684Y-100798803D01*
X138501174Y-100775142D01*
X138500000Y-100751250D01*
X138500000Y-100263750D01*
X138501174Y-100239858D01*
X138504684Y-100216197D01*
X138510496Y-100192993D01*
X138518554Y-100170471D01*
X138528782Y-100148847D01*
X138541079Y-100128330D01*
X138555329Y-100109117D01*
X138571393Y-100091393D01*
X138589117Y-100075329D01*
X138608330Y-100061079D01*
X138628847Y-100048782D01*
X138650471Y-100038554D01*
X138672993Y-100030496D01*
X138696197Y-100024684D01*
X138719858Y-100021174D01*
X138743750Y-100020000D01*
X139656250Y-100020000D01*
X139680142Y-100021174D01*
G37*
G36*
X139680142Y-98146174D02*
G01*
X139703803Y-98149684D01*
X139727007Y-98155496D01*
X139749529Y-98163554D01*
X139771153Y-98173782D01*
X139791670Y-98186079D01*
X139810883Y-98200329D01*
X139828607Y-98216393D01*
X139844671Y-98234117D01*
X139858921Y-98253330D01*
X139871218Y-98273847D01*
X139881446Y-98295471D01*
X139889504Y-98317993D01*
X139895316Y-98341197D01*
X139898826Y-98364858D01*
X139900000Y-98388750D01*
X139900000Y-98876250D01*
X139898826Y-98900142D01*
X139895316Y-98923803D01*
X139889504Y-98947007D01*
X139881446Y-98969529D01*
X139871218Y-98991153D01*
X139858921Y-99011670D01*
X139844671Y-99030883D01*
X139828607Y-99048607D01*
X139810883Y-99064671D01*
X139791670Y-99078921D01*
X139771153Y-99091218D01*
X139749529Y-99101446D01*
X139727007Y-99109504D01*
X139703803Y-99115316D01*
X139680142Y-99118826D01*
X139656250Y-99120000D01*
X138743750Y-99120000D01*
X138719858Y-99118826D01*
X138696197Y-99115316D01*
X138672993Y-99109504D01*
X138650471Y-99101446D01*
X138628847Y-99091218D01*
X138608330Y-99078921D01*
X138589117Y-99064671D01*
X138571393Y-99048607D01*
X138555329Y-99030883D01*
X138541079Y-99011670D01*
X138528782Y-98991153D01*
X138518554Y-98969529D01*
X138510496Y-98947007D01*
X138504684Y-98923803D01*
X138501174Y-98900142D01*
X138500000Y-98876250D01*
X138500000Y-98388750D01*
X138501174Y-98364858D01*
X138504684Y-98341197D01*
X138510496Y-98317993D01*
X138518554Y-98295471D01*
X138528782Y-98273847D01*
X138541079Y-98253330D01*
X138555329Y-98234117D01*
X138571393Y-98216393D01*
X138589117Y-98200329D01*
X138608330Y-98186079D01*
X138628847Y-98173782D01*
X138650471Y-98163554D01*
X138672993Y-98155496D01*
X138696197Y-98149684D01*
X138719858Y-98146174D01*
X138743750Y-98145000D01*
X139656250Y-98145000D01*
X139680142Y-98146174D01*
G37*
G36*
X141730142Y-91101174D02*
G01*
X141753803Y-91104684D01*
X141777007Y-91110496D01*
X141799529Y-91118554D01*
X141821153Y-91128782D01*
X141841670Y-91141079D01*
X141860883Y-91155329D01*
X141878607Y-91171393D01*
X141894671Y-91189117D01*
X141908921Y-91208330D01*
X141921218Y-91228847D01*
X141931446Y-91250471D01*
X141939504Y-91272993D01*
X141945316Y-91296197D01*
X141948826Y-91319858D01*
X141950000Y-91343750D01*
X141950000Y-92256250D01*
X141948826Y-92280142D01*
X141945316Y-92303803D01*
X141939504Y-92327007D01*
X141931446Y-92349529D01*
X141921218Y-92371153D01*
X141908921Y-92391670D01*
X141894671Y-92410883D01*
X141878607Y-92428607D01*
X141860883Y-92444671D01*
X141841670Y-92458921D01*
X141821153Y-92471218D01*
X141799529Y-92481446D01*
X141777007Y-92489504D01*
X141753803Y-92495316D01*
X141730142Y-92498826D01*
X141706250Y-92500000D01*
X141218750Y-92500000D01*
X141194858Y-92498826D01*
X141171197Y-92495316D01*
X141147993Y-92489504D01*
X141125471Y-92481446D01*
X141103847Y-92471218D01*
X141083330Y-92458921D01*
X141064117Y-92444671D01*
X141046393Y-92428607D01*
X141030329Y-92410883D01*
X141016079Y-92391670D01*
X141003782Y-92371153D01*
X140993554Y-92349529D01*
X140985496Y-92327007D01*
X140979684Y-92303803D01*
X140976174Y-92280142D01*
X140975000Y-92256250D01*
X140975000Y-91343750D01*
X140976174Y-91319858D01*
X140979684Y-91296197D01*
X140985496Y-91272993D01*
X140993554Y-91250471D01*
X141003782Y-91228847D01*
X141016079Y-91208330D01*
X141030329Y-91189117D01*
X141046393Y-91171393D01*
X141064117Y-91155329D01*
X141083330Y-91141079D01*
X141103847Y-91128782D01*
X141125471Y-91118554D01*
X141147993Y-91110496D01*
X141171197Y-91104684D01*
X141194858Y-91101174D01*
X141218750Y-91100000D01*
X141706250Y-91100000D01*
X141730142Y-91101174D01*
G37*
G36*
X143605142Y-91101174D02*
G01*
X143628803Y-91104684D01*
X143652007Y-91110496D01*
X143674529Y-91118554D01*
X143696153Y-91128782D01*
X143716670Y-91141079D01*
X143735883Y-91155329D01*
X143753607Y-91171393D01*
X143769671Y-91189117D01*
X143783921Y-91208330D01*
X143796218Y-91228847D01*
X143806446Y-91250471D01*
X143814504Y-91272993D01*
X143820316Y-91296197D01*
X143823826Y-91319858D01*
X143825000Y-91343750D01*
X143825000Y-92256250D01*
X143823826Y-92280142D01*
X143820316Y-92303803D01*
X143814504Y-92327007D01*
X143806446Y-92349529D01*
X143796218Y-92371153D01*
X143783921Y-92391670D01*
X143769671Y-92410883D01*
X143753607Y-92428607D01*
X143735883Y-92444671D01*
X143716670Y-92458921D01*
X143696153Y-92471218D01*
X143674529Y-92481446D01*
X143652007Y-92489504D01*
X143628803Y-92495316D01*
X143605142Y-92498826D01*
X143581250Y-92500000D01*
X143093750Y-92500000D01*
X143069858Y-92498826D01*
X143046197Y-92495316D01*
X143022993Y-92489504D01*
X143000471Y-92481446D01*
X142978847Y-92471218D01*
X142958330Y-92458921D01*
X142939117Y-92444671D01*
X142921393Y-92428607D01*
X142905329Y-92410883D01*
X142891079Y-92391670D01*
X142878782Y-92371153D01*
X142868554Y-92349529D01*
X142860496Y-92327007D01*
X142854684Y-92303803D01*
X142851174Y-92280142D01*
X142850000Y-92256250D01*
X142850000Y-91343750D01*
X142851174Y-91319858D01*
X142854684Y-91296197D01*
X142860496Y-91272993D01*
X142868554Y-91250471D01*
X142878782Y-91228847D01*
X142891079Y-91208330D01*
X142905329Y-91189117D01*
X142921393Y-91171393D01*
X142939117Y-91155329D01*
X142958330Y-91141079D01*
X142978847Y-91128782D01*
X143000471Y-91118554D01*
X143022993Y-91110496D01*
X143046197Y-91104684D01*
X143069858Y-91101174D01*
X143093750Y-91100000D01*
X143581250Y-91100000D01*
X143605142Y-91101174D01*
G37*
G36*
X141730142Y-88901174D02*
G01*
X141753803Y-88904684D01*
X141777007Y-88910496D01*
X141799529Y-88918554D01*
X141821153Y-88928782D01*
X141841670Y-88941079D01*
X141860883Y-88955329D01*
X141878607Y-88971393D01*
X141894671Y-88989117D01*
X141908921Y-89008330D01*
X141921218Y-89028847D01*
X141931446Y-89050471D01*
X141939504Y-89072993D01*
X141945316Y-89096197D01*
X141948826Y-89119858D01*
X141950000Y-89143750D01*
X141950000Y-90056250D01*
X141948826Y-90080142D01*
X141945316Y-90103803D01*
X141939504Y-90127007D01*
X141931446Y-90149529D01*
X141921218Y-90171153D01*
X141908921Y-90191670D01*
X141894671Y-90210883D01*
X141878607Y-90228607D01*
X141860883Y-90244671D01*
X141841670Y-90258921D01*
X141821153Y-90271218D01*
X141799529Y-90281446D01*
X141777007Y-90289504D01*
X141753803Y-90295316D01*
X141730142Y-90298826D01*
X141706250Y-90300000D01*
X141218750Y-90300000D01*
X141194858Y-90298826D01*
X141171197Y-90295316D01*
X141147993Y-90289504D01*
X141125471Y-90281446D01*
X141103847Y-90271218D01*
X141083330Y-90258921D01*
X141064117Y-90244671D01*
X141046393Y-90228607D01*
X141030329Y-90210883D01*
X141016079Y-90191670D01*
X141003782Y-90171153D01*
X140993554Y-90149529D01*
X140985496Y-90127007D01*
X140979684Y-90103803D01*
X140976174Y-90080142D01*
X140975000Y-90056250D01*
X140975000Y-89143750D01*
X140976174Y-89119858D01*
X140979684Y-89096197D01*
X140985496Y-89072993D01*
X140993554Y-89050471D01*
X141003782Y-89028847D01*
X141016079Y-89008330D01*
X141030329Y-88989117D01*
X141046393Y-88971393D01*
X141064117Y-88955329D01*
X141083330Y-88941079D01*
X141103847Y-88928782D01*
X141125471Y-88918554D01*
X141147993Y-88910496D01*
X141171197Y-88904684D01*
X141194858Y-88901174D01*
X141218750Y-88900000D01*
X141706250Y-88900000D01*
X141730142Y-88901174D01*
G37*
G36*
X143605142Y-88901174D02*
G01*
X143628803Y-88904684D01*
X143652007Y-88910496D01*
X143674529Y-88918554D01*
X143696153Y-88928782D01*
X143716670Y-88941079D01*
X143735883Y-88955329D01*
X143753607Y-88971393D01*
X143769671Y-88989117D01*
X143783921Y-89008330D01*
X143796218Y-89028847D01*
X143806446Y-89050471D01*
X143814504Y-89072993D01*
X143820316Y-89096197D01*
X143823826Y-89119858D01*
X143825000Y-89143750D01*
X143825000Y-90056250D01*
X143823826Y-90080142D01*
X143820316Y-90103803D01*
X143814504Y-90127007D01*
X143806446Y-90149529D01*
X143796218Y-90171153D01*
X143783921Y-90191670D01*
X143769671Y-90210883D01*
X143753607Y-90228607D01*
X143735883Y-90244671D01*
X143716670Y-90258921D01*
X143696153Y-90271218D01*
X143674529Y-90281446D01*
X143652007Y-90289504D01*
X143628803Y-90295316D01*
X143605142Y-90298826D01*
X143581250Y-90300000D01*
X143093750Y-90300000D01*
X143069858Y-90298826D01*
X143046197Y-90295316D01*
X143022993Y-90289504D01*
X143000471Y-90281446D01*
X142978847Y-90271218D01*
X142958330Y-90258921D01*
X142939117Y-90244671D01*
X142921393Y-90228607D01*
X142905329Y-90210883D01*
X142891079Y-90191670D01*
X142878782Y-90171153D01*
X142868554Y-90149529D01*
X142860496Y-90127007D01*
X142854684Y-90103803D01*
X142851174Y-90080142D01*
X142850000Y-90056250D01*
X142850000Y-89143750D01*
X142851174Y-89119858D01*
X142854684Y-89096197D01*
X142860496Y-89072993D01*
X142868554Y-89050471D01*
X142878782Y-89028847D01*
X142891079Y-89008330D01*
X142905329Y-88989117D01*
X142921393Y-88971393D01*
X142939117Y-88955329D01*
X142958330Y-88941079D01*
X142978847Y-88928782D01*
X143000471Y-88918554D01*
X143022993Y-88910496D01*
X143046197Y-88904684D01*
X143069858Y-88901174D01*
X143093750Y-88900000D01*
X143581250Y-88900000D01*
X143605142Y-88901174D01*
G37*
G36*
X102105142Y-87901174D02*
G01*
X102128803Y-87904684D01*
X102152007Y-87910496D01*
X102174529Y-87918554D01*
X102196153Y-87928782D01*
X102216670Y-87941079D01*
X102235883Y-87955329D01*
X102253607Y-87971393D01*
X102269671Y-87989117D01*
X102283921Y-88008330D01*
X102296218Y-88028847D01*
X102306446Y-88050471D01*
X102314504Y-88072993D01*
X102320316Y-88096197D01*
X102323826Y-88119858D01*
X102325000Y-88143750D01*
X102325000Y-89056250D01*
X102323826Y-89080142D01*
X102320316Y-89103803D01*
X102314504Y-89127007D01*
X102306446Y-89149529D01*
X102296218Y-89171153D01*
X102283921Y-89191670D01*
X102269671Y-89210883D01*
X102253607Y-89228607D01*
X102235883Y-89244671D01*
X102216670Y-89258921D01*
X102196153Y-89271218D01*
X102174529Y-89281446D01*
X102152007Y-89289504D01*
X102128803Y-89295316D01*
X102105142Y-89298826D01*
X102081250Y-89300000D01*
X101593750Y-89300000D01*
X101569858Y-89298826D01*
X101546197Y-89295316D01*
X101522993Y-89289504D01*
X101500471Y-89281446D01*
X101478847Y-89271218D01*
X101458330Y-89258921D01*
X101439117Y-89244671D01*
X101421393Y-89228607D01*
X101405329Y-89210883D01*
X101391079Y-89191670D01*
X101378782Y-89171153D01*
X101368554Y-89149529D01*
X101360496Y-89127007D01*
X101354684Y-89103803D01*
X101351174Y-89080142D01*
X101350000Y-89056250D01*
X101350000Y-88143750D01*
X101351174Y-88119858D01*
X101354684Y-88096197D01*
X101360496Y-88072993D01*
X101368554Y-88050471D01*
X101378782Y-88028847D01*
X101391079Y-88008330D01*
X101405329Y-87989117D01*
X101421393Y-87971393D01*
X101439117Y-87955329D01*
X101458330Y-87941079D01*
X101478847Y-87928782D01*
X101500471Y-87918554D01*
X101522993Y-87910496D01*
X101546197Y-87904684D01*
X101569858Y-87901174D01*
X101593750Y-87900000D01*
X102081250Y-87900000D01*
X102105142Y-87901174D01*
G37*
G36*
X100230142Y-87901174D02*
G01*
X100253803Y-87904684D01*
X100277007Y-87910496D01*
X100299529Y-87918554D01*
X100321153Y-87928782D01*
X100341670Y-87941079D01*
X100360883Y-87955329D01*
X100378607Y-87971393D01*
X100394671Y-87989117D01*
X100408921Y-88008330D01*
X100421218Y-88028847D01*
X100431446Y-88050471D01*
X100439504Y-88072993D01*
X100445316Y-88096197D01*
X100448826Y-88119858D01*
X100450000Y-88143750D01*
X100450000Y-89056250D01*
X100448826Y-89080142D01*
X100445316Y-89103803D01*
X100439504Y-89127007D01*
X100431446Y-89149529D01*
X100421218Y-89171153D01*
X100408921Y-89191670D01*
X100394671Y-89210883D01*
X100378607Y-89228607D01*
X100360883Y-89244671D01*
X100341670Y-89258921D01*
X100321153Y-89271218D01*
X100299529Y-89281446D01*
X100277007Y-89289504D01*
X100253803Y-89295316D01*
X100230142Y-89298826D01*
X100206250Y-89300000D01*
X99718750Y-89300000D01*
X99694858Y-89298826D01*
X99671197Y-89295316D01*
X99647993Y-89289504D01*
X99625471Y-89281446D01*
X99603847Y-89271218D01*
X99583330Y-89258921D01*
X99564117Y-89244671D01*
X99546393Y-89228607D01*
X99530329Y-89210883D01*
X99516079Y-89191670D01*
X99503782Y-89171153D01*
X99493554Y-89149529D01*
X99485496Y-89127007D01*
X99479684Y-89103803D01*
X99476174Y-89080142D01*
X99475000Y-89056250D01*
X99475000Y-88143750D01*
X99476174Y-88119858D01*
X99479684Y-88096197D01*
X99485496Y-88072993D01*
X99493554Y-88050471D01*
X99503782Y-88028847D01*
X99516079Y-88008330D01*
X99530329Y-87989117D01*
X99546393Y-87971393D01*
X99564117Y-87955329D01*
X99583330Y-87941079D01*
X99603847Y-87928782D01*
X99625471Y-87918554D01*
X99647993Y-87910496D01*
X99671197Y-87904684D01*
X99694858Y-87901174D01*
X99718750Y-87900000D01*
X100206250Y-87900000D01*
X100230142Y-87901174D01*
G37*
G36*
X145955142Y-94941174D02*
G01*
X145978803Y-94944684D01*
X146002007Y-94950496D01*
X146024529Y-94958554D01*
X146046153Y-94968782D01*
X146066670Y-94981079D01*
X146085883Y-94995329D01*
X146103607Y-95011393D01*
X146119671Y-95029117D01*
X146133921Y-95048330D01*
X146146218Y-95068847D01*
X146156446Y-95090471D01*
X146164504Y-95112993D01*
X146170316Y-95136197D01*
X146173826Y-95159858D01*
X146175000Y-95183750D01*
X146175000Y-95671250D01*
X146173826Y-95695142D01*
X146170316Y-95718803D01*
X146164504Y-95742007D01*
X146156446Y-95764529D01*
X146146218Y-95786153D01*
X146133921Y-95806670D01*
X146119671Y-95825883D01*
X146103607Y-95843607D01*
X146085883Y-95859671D01*
X146066670Y-95873921D01*
X146046153Y-95886218D01*
X146024529Y-95896446D01*
X146002007Y-95904504D01*
X145978803Y-95910316D01*
X145955142Y-95913826D01*
X145931250Y-95915000D01*
X145018750Y-95915000D01*
X144994858Y-95913826D01*
X144971197Y-95910316D01*
X144947993Y-95904504D01*
X144925471Y-95896446D01*
X144903847Y-95886218D01*
X144883330Y-95873921D01*
X144864117Y-95859671D01*
X144846393Y-95843607D01*
X144830329Y-95825883D01*
X144816079Y-95806670D01*
X144803782Y-95786153D01*
X144793554Y-95764529D01*
X144785496Y-95742007D01*
X144779684Y-95718803D01*
X144776174Y-95695142D01*
X144775000Y-95671250D01*
X144775000Y-95183750D01*
X144776174Y-95159858D01*
X144779684Y-95136197D01*
X144785496Y-95112993D01*
X144793554Y-95090471D01*
X144803782Y-95068847D01*
X144816079Y-95048330D01*
X144830329Y-95029117D01*
X144846393Y-95011393D01*
X144864117Y-94995329D01*
X144883330Y-94981079D01*
X144903847Y-94968782D01*
X144925471Y-94958554D01*
X144947993Y-94950496D01*
X144971197Y-94944684D01*
X144994858Y-94941174D01*
X145018750Y-94940000D01*
X145931250Y-94940000D01*
X145955142Y-94941174D01*
G37*
G36*
X145955142Y-93066174D02*
G01*
X145978803Y-93069684D01*
X146002007Y-93075496D01*
X146024529Y-93083554D01*
X146046153Y-93093782D01*
X146066670Y-93106079D01*
X146085883Y-93120329D01*
X146103607Y-93136393D01*
X146119671Y-93154117D01*
X146133921Y-93173330D01*
X146146218Y-93193847D01*
X146156446Y-93215471D01*
X146164504Y-93237993D01*
X146170316Y-93261197D01*
X146173826Y-93284858D01*
X146175000Y-93308750D01*
X146175000Y-93796250D01*
X146173826Y-93820142D01*
X146170316Y-93843803D01*
X146164504Y-93867007D01*
X146156446Y-93889529D01*
X146146218Y-93911153D01*
X146133921Y-93931670D01*
X146119671Y-93950883D01*
X146103607Y-93968607D01*
X146085883Y-93984671D01*
X146066670Y-93998921D01*
X146046153Y-94011218D01*
X146024529Y-94021446D01*
X146002007Y-94029504D01*
X145978803Y-94035316D01*
X145955142Y-94038826D01*
X145931250Y-94040000D01*
X145018750Y-94040000D01*
X144994858Y-94038826D01*
X144971197Y-94035316D01*
X144947993Y-94029504D01*
X144925471Y-94021446D01*
X144903847Y-94011218D01*
X144883330Y-93998921D01*
X144864117Y-93984671D01*
X144846393Y-93968607D01*
X144830329Y-93950883D01*
X144816079Y-93931670D01*
X144803782Y-93911153D01*
X144793554Y-93889529D01*
X144785496Y-93867007D01*
X144779684Y-93843803D01*
X144776174Y-93820142D01*
X144775000Y-93796250D01*
X144775000Y-93308750D01*
X144776174Y-93284858D01*
X144779684Y-93261197D01*
X144785496Y-93237993D01*
X144793554Y-93215471D01*
X144803782Y-93193847D01*
X144816079Y-93173330D01*
X144830329Y-93154117D01*
X144846393Y-93136393D01*
X144864117Y-93120329D01*
X144883330Y-93106079D01*
X144903847Y-93093782D01*
X144925471Y-93083554D01*
X144947993Y-93075496D01*
X144971197Y-93069684D01*
X144994858Y-93066174D01*
X145018750Y-93065000D01*
X145931250Y-93065000D01*
X145955142Y-93066174D01*
G37*
G36*
X145955142Y-91131174D02*
G01*
X145978803Y-91134684D01*
X146002007Y-91140496D01*
X146024529Y-91148554D01*
X146046153Y-91158782D01*
X146066670Y-91171079D01*
X146085883Y-91185329D01*
X146103607Y-91201393D01*
X146119671Y-91219117D01*
X146133921Y-91238330D01*
X146146218Y-91258847D01*
X146156446Y-91280471D01*
X146164504Y-91302993D01*
X146170316Y-91326197D01*
X146173826Y-91349858D01*
X146175000Y-91373750D01*
X146175000Y-91861250D01*
X146173826Y-91885142D01*
X146170316Y-91908803D01*
X146164504Y-91932007D01*
X146156446Y-91954529D01*
X146146218Y-91976153D01*
X146133921Y-91996670D01*
X146119671Y-92015883D01*
X146103607Y-92033607D01*
X146085883Y-92049671D01*
X146066670Y-92063921D01*
X146046153Y-92076218D01*
X146024529Y-92086446D01*
X146002007Y-92094504D01*
X145978803Y-92100316D01*
X145955142Y-92103826D01*
X145931250Y-92105000D01*
X145018750Y-92105000D01*
X144994858Y-92103826D01*
X144971197Y-92100316D01*
X144947993Y-92094504D01*
X144925471Y-92086446D01*
X144903847Y-92076218D01*
X144883330Y-92063921D01*
X144864117Y-92049671D01*
X144846393Y-92033607D01*
X144830329Y-92015883D01*
X144816079Y-91996670D01*
X144803782Y-91976153D01*
X144793554Y-91954529D01*
X144785496Y-91932007D01*
X144779684Y-91908803D01*
X144776174Y-91885142D01*
X144775000Y-91861250D01*
X144775000Y-91373750D01*
X144776174Y-91349858D01*
X144779684Y-91326197D01*
X144785496Y-91302993D01*
X144793554Y-91280471D01*
X144803782Y-91258847D01*
X144816079Y-91238330D01*
X144830329Y-91219117D01*
X144846393Y-91201393D01*
X144864117Y-91185329D01*
X144883330Y-91171079D01*
X144903847Y-91158782D01*
X144925471Y-91148554D01*
X144947993Y-91140496D01*
X144971197Y-91134684D01*
X144994858Y-91131174D01*
X145018750Y-91130000D01*
X145931250Y-91130000D01*
X145955142Y-91131174D01*
G37*
G36*
X145955142Y-89256174D02*
G01*
X145978803Y-89259684D01*
X146002007Y-89265496D01*
X146024529Y-89273554D01*
X146046153Y-89283782D01*
X146066670Y-89296079D01*
X146085883Y-89310329D01*
X146103607Y-89326393D01*
X146119671Y-89344117D01*
X146133921Y-89363330D01*
X146146218Y-89383847D01*
X146156446Y-89405471D01*
X146164504Y-89427993D01*
X146170316Y-89451197D01*
X146173826Y-89474858D01*
X146175000Y-89498750D01*
X146175000Y-89986250D01*
X146173826Y-90010142D01*
X146170316Y-90033803D01*
X146164504Y-90057007D01*
X146156446Y-90079529D01*
X146146218Y-90101153D01*
X146133921Y-90121670D01*
X146119671Y-90140883D01*
X146103607Y-90158607D01*
X146085883Y-90174671D01*
X146066670Y-90188921D01*
X146046153Y-90201218D01*
X146024529Y-90211446D01*
X146002007Y-90219504D01*
X145978803Y-90225316D01*
X145955142Y-90228826D01*
X145931250Y-90230000D01*
X145018750Y-90230000D01*
X144994858Y-90228826D01*
X144971197Y-90225316D01*
X144947993Y-90219504D01*
X144925471Y-90211446D01*
X144903847Y-90201218D01*
X144883330Y-90188921D01*
X144864117Y-90174671D01*
X144846393Y-90158607D01*
X144830329Y-90140883D01*
X144816079Y-90121670D01*
X144803782Y-90101153D01*
X144793554Y-90079529D01*
X144785496Y-90057007D01*
X144779684Y-90033803D01*
X144776174Y-90010142D01*
X144775000Y-89986250D01*
X144775000Y-89498750D01*
X144776174Y-89474858D01*
X144779684Y-89451197D01*
X144785496Y-89427993D01*
X144793554Y-89405471D01*
X144803782Y-89383847D01*
X144816079Y-89363330D01*
X144830329Y-89344117D01*
X144846393Y-89326393D01*
X144864117Y-89310329D01*
X144883330Y-89296079D01*
X144903847Y-89283782D01*
X144925471Y-89273554D01*
X144947993Y-89265496D01*
X144971197Y-89259684D01*
X144994858Y-89256174D01*
X145018750Y-89255000D01*
X145931250Y-89255000D01*
X145955142Y-89256174D01*
G37*
G36*
X139680142Y-94941174D02*
G01*
X139703803Y-94944684D01*
X139727007Y-94950496D01*
X139749529Y-94958554D01*
X139771153Y-94968782D01*
X139791670Y-94981079D01*
X139810883Y-94995329D01*
X139828607Y-95011393D01*
X139844671Y-95029117D01*
X139858921Y-95048330D01*
X139871218Y-95068847D01*
X139881446Y-95090471D01*
X139889504Y-95112993D01*
X139895316Y-95136197D01*
X139898826Y-95159858D01*
X139900000Y-95183750D01*
X139900000Y-95671250D01*
X139898826Y-95695142D01*
X139895316Y-95718803D01*
X139889504Y-95742007D01*
X139881446Y-95764529D01*
X139871218Y-95786153D01*
X139858921Y-95806670D01*
X139844671Y-95825883D01*
X139828607Y-95843607D01*
X139810883Y-95859671D01*
X139791670Y-95873921D01*
X139771153Y-95886218D01*
X139749529Y-95896446D01*
X139727007Y-95904504D01*
X139703803Y-95910316D01*
X139680142Y-95913826D01*
X139656250Y-95915000D01*
X138743750Y-95915000D01*
X138719858Y-95913826D01*
X138696197Y-95910316D01*
X138672993Y-95904504D01*
X138650471Y-95896446D01*
X138628847Y-95886218D01*
X138608330Y-95873921D01*
X138589117Y-95859671D01*
X138571393Y-95843607D01*
X138555329Y-95825883D01*
X138541079Y-95806670D01*
X138528782Y-95786153D01*
X138518554Y-95764529D01*
X138510496Y-95742007D01*
X138504684Y-95718803D01*
X138501174Y-95695142D01*
X138500000Y-95671250D01*
X138500000Y-95183750D01*
X138501174Y-95159858D01*
X138504684Y-95136197D01*
X138510496Y-95112993D01*
X138518554Y-95090471D01*
X138528782Y-95068847D01*
X138541079Y-95048330D01*
X138555329Y-95029117D01*
X138571393Y-95011393D01*
X138589117Y-94995329D01*
X138608330Y-94981079D01*
X138628847Y-94968782D01*
X138650471Y-94958554D01*
X138672993Y-94950496D01*
X138696197Y-94944684D01*
X138719858Y-94941174D01*
X138743750Y-94940000D01*
X139656250Y-94940000D01*
X139680142Y-94941174D01*
G37*
G36*
X139680142Y-93066174D02*
G01*
X139703803Y-93069684D01*
X139727007Y-93075496D01*
X139749529Y-93083554D01*
X139771153Y-93093782D01*
X139791670Y-93106079D01*
X139810883Y-93120329D01*
X139828607Y-93136393D01*
X139844671Y-93154117D01*
X139858921Y-93173330D01*
X139871218Y-93193847D01*
X139881446Y-93215471D01*
X139889504Y-93237993D01*
X139895316Y-93261197D01*
X139898826Y-93284858D01*
X139900000Y-93308750D01*
X139900000Y-93796250D01*
X139898826Y-93820142D01*
X139895316Y-93843803D01*
X139889504Y-93867007D01*
X139881446Y-93889529D01*
X139871218Y-93911153D01*
X139858921Y-93931670D01*
X139844671Y-93950883D01*
X139828607Y-93968607D01*
X139810883Y-93984671D01*
X139791670Y-93998921D01*
X139771153Y-94011218D01*
X139749529Y-94021446D01*
X139727007Y-94029504D01*
X139703803Y-94035316D01*
X139680142Y-94038826D01*
X139656250Y-94040000D01*
X138743750Y-94040000D01*
X138719858Y-94038826D01*
X138696197Y-94035316D01*
X138672993Y-94029504D01*
X138650471Y-94021446D01*
X138628847Y-94011218D01*
X138608330Y-93998921D01*
X138589117Y-93984671D01*
X138571393Y-93968607D01*
X138555329Y-93950883D01*
X138541079Y-93931670D01*
X138528782Y-93911153D01*
X138518554Y-93889529D01*
X138510496Y-93867007D01*
X138504684Y-93843803D01*
X138501174Y-93820142D01*
X138500000Y-93796250D01*
X138500000Y-93308750D01*
X138501174Y-93284858D01*
X138504684Y-93261197D01*
X138510496Y-93237993D01*
X138518554Y-93215471D01*
X138528782Y-93193847D01*
X138541079Y-93173330D01*
X138555329Y-93154117D01*
X138571393Y-93136393D01*
X138589117Y-93120329D01*
X138608330Y-93106079D01*
X138628847Y-93093782D01*
X138650471Y-93083554D01*
X138672993Y-93075496D01*
X138696197Y-93069684D01*
X138719858Y-93066174D01*
X138743750Y-93065000D01*
X139656250Y-93065000D01*
X139680142Y-93066174D01*
G37*
G36*
X139680142Y-91131174D02*
G01*
X139703803Y-91134684D01*
X139727007Y-91140496D01*
X139749529Y-91148554D01*
X139771153Y-91158782D01*
X139791670Y-91171079D01*
X139810883Y-91185329D01*
X139828607Y-91201393D01*
X139844671Y-91219117D01*
X139858921Y-91238330D01*
X139871218Y-91258847D01*
X139881446Y-91280471D01*
X139889504Y-91302993D01*
X139895316Y-91326197D01*
X139898826Y-91349858D01*
X139900000Y-91373750D01*
X139900000Y-91861250D01*
X139898826Y-91885142D01*
X139895316Y-91908803D01*
X139889504Y-91932007D01*
X139881446Y-91954529D01*
X139871218Y-91976153D01*
X139858921Y-91996670D01*
X139844671Y-92015883D01*
X139828607Y-92033607D01*
X139810883Y-92049671D01*
X139791670Y-92063921D01*
X139771153Y-92076218D01*
X139749529Y-92086446D01*
X139727007Y-92094504D01*
X139703803Y-92100316D01*
X139680142Y-92103826D01*
X139656250Y-92105000D01*
X138743750Y-92105000D01*
X138719858Y-92103826D01*
X138696197Y-92100316D01*
X138672993Y-92094504D01*
X138650471Y-92086446D01*
X138628847Y-92076218D01*
X138608330Y-92063921D01*
X138589117Y-92049671D01*
X138571393Y-92033607D01*
X138555329Y-92015883D01*
X138541079Y-91996670D01*
X138528782Y-91976153D01*
X138518554Y-91954529D01*
X138510496Y-91932007D01*
X138504684Y-91908803D01*
X138501174Y-91885142D01*
X138500000Y-91861250D01*
X138500000Y-91373750D01*
X138501174Y-91349858D01*
X138504684Y-91326197D01*
X138510496Y-91302993D01*
X138518554Y-91280471D01*
X138528782Y-91258847D01*
X138541079Y-91238330D01*
X138555329Y-91219117D01*
X138571393Y-91201393D01*
X138589117Y-91185329D01*
X138608330Y-91171079D01*
X138628847Y-91158782D01*
X138650471Y-91148554D01*
X138672993Y-91140496D01*
X138696197Y-91134684D01*
X138719858Y-91131174D01*
X138743750Y-91130000D01*
X139656250Y-91130000D01*
X139680142Y-91131174D01*
G37*
G36*
X139680142Y-89256174D02*
G01*
X139703803Y-89259684D01*
X139727007Y-89265496D01*
X139749529Y-89273554D01*
X139771153Y-89283782D01*
X139791670Y-89296079D01*
X139810883Y-89310329D01*
X139828607Y-89326393D01*
X139844671Y-89344117D01*
X139858921Y-89363330D01*
X139871218Y-89383847D01*
X139881446Y-89405471D01*
X139889504Y-89427993D01*
X139895316Y-89451197D01*
X139898826Y-89474858D01*
X139900000Y-89498750D01*
X139900000Y-89986250D01*
X139898826Y-90010142D01*
X139895316Y-90033803D01*
X139889504Y-90057007D01*
X139881446Y-90079529D01*
X139871218Y-90101153D01*
X139858921Y-90121670D01*
X139844671Y-90140883D01*
X139828607Y-90158607D01*
X139810883Y-90174671D01*
X139791670Y-90188921D01*
X139771153Y-90201218D01*
X139749529Y-90211446D01*
X139727007Y-90219504D01*
X139703803Y-90225316D01*
X139680142Y-90228826D01*
X139656250Y-90230000D01*
X138743750Y-90230000D01*
X138719858Y-90228826D01*
X138696197Y-90225316D01*
X138672993Y-90219504D01*
X138650471Y-90211446D01*
X138628847Y-90201218D01*
X138608330Y-90188921D01*
X138589117Y-90174671D01*
X138571393Y-90158607D01*
X138555329Y-90140883D01*
X138541079Y-90121670D01*
X138528782Y-90101153D01*
X138518554Y-90079529D01*
X138510496Y-90057007D01*
X138504684Y-90033803D01*
X138501174Y-90010142D01*
X138500000Y-89986250D01*
X138500000Y-89498750D01*
X138501174Y-89474858D01*
X138504684Y-89451197D01*
X138510496Y-89427993D01*
X138518554Y-89405471D01*
X138528782Y-89383847D01*
X138541079Y-89363330D01*
X138555329Y-89344117D01*
X138571393Y-89326393D01*
X138589117Y-89310329D01*
X138608330Y-89296079D01*
X138628847Y-89283782D01*
X138650471Y-89273554D01*
X138672993Y-89265496D01*
X138696197Y-89259684D01*
X138719858Y-89256174D01*
X138743750Y-89255000D01*
X139656250Y-89255000D01*
X139680142Y-89256174D01*
G37*
G36*
X122580142Y-93973674D02*
G01*
X122603803Y-93977184D01*
X122627007Y-93982996D01*
X122649529Y-93991054D01*
X122671153Y-94001282D01*
X122691670Y-94013579D01*
X122710883Y-94027829D01*
X122728607Y-94043893D01*
X122744671Y-94061617D01*
X122758921Y-94080830D01*
X122771218Y-94101347D01*
X122781446Y-94122971D01*
X122789504Y-94145493D01*
X122795316Y-94168697D01*
X122798826Y-94192358D01*
X122800000Y-94216250D01*
X122800000Y-94703750D01*
X122798826Y-94727642D01*
X122795316Y-94751303D01*
X122789504Y-94774507D01*
X122781446Y-94797029D01*
X122771218Y-94818653D01*
X122758921Y-94839170D01*
X122744671Y-94858383D01*
X122728607Y-94876107D01*
X122710883Y-94892171D01*
X122691670Y-94906421D01*
X122671153Y-94918718D01*
X122649529Y-94928946D01*
X122627007Y-94937004D01*
X122603803Y-94942816D01*
X122580142Y-94946326D01*
X122556250Y-94947500D01*
X121643750Y-94947500D01*
X121619858Y-94946326D01*
X121596197Y-94942816D01*
X121572993Y-94937004D01*
X121550471Y-94928946D01*
X121528847Y-94918718D01*
X121508330Y-94906421D01*
X121489117Y-94892171D01*
X121471393Y-94876107D01*
X121455329Y-94858383D01*
X121441079Y-94839170D01*
X121428782Y-94818653D01*
X121418554Y-94797029D01*
X121410496Y-94774507D01*
X121404684Y-94751303D01*
X121401174Y-94727642D01*
X121400000Y-94703750D01*
X121400000Y-94216250D01*
X121401174Y-94192358D01*
X121404684Y-94168697D01*
X121410496Y-94145493D01*
X121418554Y-94122971D01*
X121428782Y-94101347D01*
X121441079Y-94080830D01*
X121455329Y-94061617D01*
X121471393Y-94043893D01*
X121489117Y-94027829D01*
X121508330Y-94013579D01*
X121528847Y-94001282D01*
X121550471Y-93991054D01*
X121572993Y-93982996D01*
X121596197Y-93977184D01*
X121619858Y-93973674D01*
X121643750Y-93972500D01*
X122556250Y-93972500D01*
X122580142Y-93973674D01*
G37*
G36*
X122580142Y-92098674D02*
G01*
X122603803Y-92102184D01*
X122627007Y-92107996D01*
X122649529Y-92116054D01*
X122671153Y-92126282D01*
X122691670Y-92138579D01*
X122710883Y-92152829D01*
X122728607Y-92168893D01*
X122744671Y-92186617D01*
X122758921Y-92205830D01*
X122771218Y-92226347D01*
X122781446Y-92247971D01*
X122789504Y-92270493D01*
X122795316Y-92293697D01*
X122798826Y-92317358D01*
X122800000Y-92341250D01*
X122800000Y-92828750D01*
X122798826Y-92852642D01*
X122795316Y-92876303D01*
X122789504Y-92899507D01*
X122781446Y-92922029D01*
X122771218Y-92943653D01*
X122758921Y-92964170D01*
X122744671Y-92983383D01*
X122728607Y-93001107D01*
X122710883Y-93017171D01*
X122691670Y-93031421D01*
X122671153Y-93043718D01*
X122649529Y-93053946D01*
X122627007Y-93062004D01*
X122603803Y-93067816D01*
X122580142Y-93071326D01*
X122556250Y-93072500D01*
X121643750Y-93072500D01*
X121619858Y-93071326D01*
X121596197Y-93067816D01*
X121572993Y-93062004D01*
X121550471Y-93053946D01*
X121528847Y-93043718D01*
X121508330Y-93031421D01*
X121489117Y-93017171D01*
X121471393Y-93001107D01*
X121455329Y-92983383D01*
X121441079Y-92964170D01*
X121428782Y-92943653D01*
X121418554Y-92922029D01*
X121410496Y-92899507D01*
X121404684Y-92876303D01*
X121401174Y-92852642D01*
X121400000Y-92828750D01*
X121400000Y-92341250D01*
X121401174Y-92317358D01*
X121404684Y-92293697D01*
X121410496Y-92270493D01*
X121418554Y-92247971D01*
X121428782Y-92226347D01*
X121441079Y-92205830D01*
X121455329Y-92186617D01*
X121471393Y-92168893D01*
X121489117Y-92152829D01*
X121508330Y-92138579D01*
X121528847Y-92126282D01*
X121550471Y-92116054D01*
X121572993Y-92107996D01*
X121596197Y-92102184D01*
X121619858Y-92098674D01*
X121643750Y-92097500D01*
X122556250Y-92097500D01*
X122580142Y-92098674D01*
G37*
G36*
X119080142Y-93973674D02*
G01*
X119103803Y-93977184D01*
X119127007Y-93982996D01*
X119149529Y-93991054D01*
X119171153Y-94001282D01*
X119191670Y-94013579D01*
X119210883Y-94027829D01*
X119228607Y-94043893D01*
X119244671Y-94061617D01*
X119258921Y-94080830D01*
X119271218Y-94101347D01*
X119281446Y-94122971D01*
X119289504Y-94145493D01*
X119295316Y-94168697D01*
X119298826Y-94192358D01*
X119300000Y-94216250D01*
X119300000Y-94703750D01*
X119298826Y-94727642D01*
X119295316Y-94751303D01*
X119289504Y-94774507D01*
X119281446Y-94797029D01*
X119271218Y-94818653D01*
X119258921Y-94839170D01*
X119244671Y-94858383D01*
X119228607Y-94876107D01*
X119210883Y-94892171D01*
X119191670Y-94906421D01*
X119171153Y-94918718D01*
X119149529Y-94928946D01*
X119127007Y-94937004D01*
X119103803Y-94942816D01*
X119080142Y-94946326D01*
X119056250Y-94947500D01*
X118143750Y-94947500D01*
X118119858Y-94946326D01*
X118096197Y-94942816D01*
X118072993Y-94937004D01*
X118050471Y-94928946D01*
X118028847Y-94918718D01*
X118008330Y-94906421D01*
X117989117Y-94892171D01*
X117971393Y-94876107D01*
X117955329Y-94858383D01*
X117941079Y-94839170D01*
X117928782Y-94818653D01*
X117918554Y-94797029D01*
X117910496Y-94774507D01*
X117904684Y-94751303D01*
X117901174Y-94727642D01*
X117900000Y-94703750D01*
X117900000Y-94216250D01*
X117901174Y-94192358D01*
X117904684Y-94168697D01*
X117910496Y-94145493D01*
X117918554Y-94122971D01*
X117928782Y-94101347D01*
X117941079Y-94080830D01*
X117955329Y-94061617D01*
X117971393Y-94043893D01*
X117989117Y-94027829D01*
X118008330Y-94013579D01*
X118028847Y-94001282D01*
X118050471Y-93991054D01*
X118072993Y-93982996D01*
X118096197Y-93977184D01*
X118119858Y-93973674D01*
X118143750Y-93972500D01*
X119056250Y-93972500D01*
X119080142Y-93973674D01*
G37*
G36*
X119080142Y-92098674D02*
G01*
X119103803Y-92102184D01*
X119127007Y-92107996D01*
X119149529Y-92116054D01*
X119171153Y-92126282D01*
X119191670Y-92138579D01*
X119210883Y-92152829D01*
X119228607Y-92168893D01*
X119244671Y-92186617D01*
X119258921Y-92205830D01*
X119271218Y-92226347D01*
X119281446Y-92247971D01*
X119289504Y-92270493D01*
X119295316Y-92293697D01*
X119298826Y-92317358D01*
X119300000Y-92341250D01*
X119300000Y-92828750D01*
X119298826Y-92852642D01*
X119295316Y-92876303D01*
X119289504Y-92899507D01*
X119281446Y-92922029D01*
X119271218Y-92943653D01*
X119258921Y-92964170D01*
X119244671Y-92983383D01*
X119228607Y-93001107D01*
X119210883Y-93017171D01*
X119191670Y-93031421D01*
X119171153Y-93043718D01*
X119149529Y-93053946D01*
X119127007Y-93062004D01*
X119103803Y-93067816D01*
X119080142Y-93071326D01*
X119056250Y-93072500D01*
X118143750Y-93072500D01*
X118119858Y-93071326D01*
X118096197Y-93067816D01*
X118072993Y-93062004D01*
X118050471Y-93053946D01*
X118028847Y-93043718D01*
X118008330Y-93031421D01*
X117989117Y-93017171D01*
X117971393Y-93001107D01*
X117955329Y-92983383D01*
X117941079Y-92964170D01*
X117928782Y-92943653D01*
X117918554Y-92922029D01*
X117910496Y-92899507D01*
X117904684Y-92876303D01*
X117901174Y-92852642D01*
X117900000Y-92828750D01*
X117900000Y-92341250D01*
X117901174Y-92317358D01*
X117904684Y-92293697D01*
X117910496Y-92270493D01*
X117918554Y-92247971D01*
X117928782Y-92226347D01*
X117941079Y-92205830D01*
X117955329Y-92186617D01*
X117971393Y-92168893D01*
X117989117Y-92152829D01*
X118008330Y-92138579D01*
X118028847Y-92126282D01*
X118050471Y-92116054D01*
X118072993Y-92107996D01*
X118096197Y-92102184D01*
X118119858Y-92098674D01*
X118143750Y-92097500D01*
X119056250Y-92097500D01*
X119080142Y-92098674D01*
G37*
G36*
X122580142Y-88276174D02*
G01*
X122603803Y-88279684D01*
X122627007Y-88285496D01*
X122649529Y-88293554D01*
X122671153Y-88303782D01*
X122691670Y-88316079D01*
X122710883Y-88330329D01*
X122728607Y-88346393D01*
X122744671Y-88364117D01*
X122758921Y-88383330D01*
X122771218Y-88403847D01*
X122781446Y-88425471D01*
X122789504Y-88447993D01*
X122795316Y-88471197D01*
X122798826Y-88494858D01*
X122800000Y-88518750D01*
X122800000Y-89006250D01*
X122798826Y-89030142D01*
X122795316Y-89053803D01*
X122789504Y-89077007D01*
X122781446Y-89099529D01*
X122771218Y-89121153D01*
X122758921Y-89141670D01*
X122744671Y-89160883D01*
X122728607Y-89178607D01*
X122710883Y-89194671D01*
X122691670Y-89208921D01*
X122671153Y-89221218D01*
X122649529Y-89231446D01*
X122627007Y-89239504D01*
X122603803Y-89245316D01*
X122580142Y-89248826D01*
X122556250Y-89250000D01*
X121643750Y-89250000D01*
X121619858Y-89248826D01*
X121596197Y-89245316D01*
X121572993Y-89239504D01*
X121550471Y-89231446D01*
X121528847Y-89221218D01*
X121508330Y-89208921D01*
X121489117Y-89194671D01*
X121471393Y-89178607D01*
X121455329Y-89160883D01*
X121441079Y-89141670D01*
X121428782Y-89121153D01*
X121418554Y-89099529D01*
X121410496Y-89077007D01*
X121404684Y-89053803D01*
X121401174Y-89030142D01*
X121400000Y-89006250D01*
X121400000Y-88518750D01*
X121401174Y-88494858D01*
X121404684Y-88471197D01*
X121410496Y-88447993D01*
X121418554Y-88425471D01*
X121428782Y-88403847D01*
X121441079Y-88383330D01*
X121455329Y-88364117D01*
X121471393Y-88346393D01*
X121489117Y-88330329D01*
X121508330Y-88316079D01*
X121528847Y-88303782D01*
X121550471Y-88293554D01*
X121572993Y-88285496D01*
X121596197Y-88279684D01*
X121619858Y-88276174D01*
X121643750Y-88275000D01*
X122556250Y-88275000D01*
X122580142Y-88276174D01*
G37*
G36*
X122580142Y-90151174D02*
G01*
X122603803Y-90154684D01*
X122627007Y-90160496D01*
X122649529Y-90168554D01*
X122671153Y-90178782D01*
X122691670Y-90191079D01*
X122710883Y-90205329D01*
X122728607Y-90221393D01*
X122744671Y-90239117D01*
X122758921Y-90258330D01*
X122771218Y-90278847D01*
X122781446Y-90300471D01*
X122789504Y-90322993D01*
X122795316Y-90346197D01*
X122798826Y-90369858D01*
X122800000Y-90393750D01*
X122800000Y-90881250D01*
X122798826Y-90905142D01*
X122795316Y-90928803D01*
X122789504Y-90952007D01*
X122781446Y-90974529D01*
X122771218Y-90996153D01*
X122758921Y-91016670D01*
X122744671Y-91035883D01*
X122728607Y-91053607D01*
X122710883Y-91069671D01*
X122691670Y-91083921D01*
X122671153Y-91096218D01*
X122649529Y-91106446D01*
X122627007Y-91114504D01*
X122603803Y-91120316D01*
X122580142Y-91123826D01*
X122556250Y-91125000D01*
X121643750Y-91125000D01*
X121619858Y-91123826D01*
X121596197Y-91120316D01*
X121572993Y-91114504D01*
X121550471Y-91106446D01*
X121528847Y-91096218D01*
X121508330Y-91083921D01*
X121489117Y-91069671D01*
X121471393Y-91053607D01*
X121455329Y-91035883D01*
X121441079Y-91016670D01*
X121428782Y-90996153D01*
X121418554Y-90974529D01*
X121410496Y-90952007D01*
X121404684Y-90928803D01*
X121401174Y-90905142D01*
X121400000Y-90881250D01*
X121400000Y-90393750D01*
X121401174Y-90369858D01*
X121404684Y-90346197D01*
X121410496Y-90322993D01*
X121418554Y-90300471D01*
X121428782Y-90278847D01*
X121441079Y-90258330D01*
X121455329Y-90239117D01*
X121471393Y-90221393D01*
X121489117Y-90205329D01*
X121508330Y-90191079D01*
X121528847Y-90178782D01*
X121550471Y-90168554D01*
X121572993Y-90160496D01*
X121596197Y-90154684D01*
X121619858Y-90151174D01*
X121643750Y-90150000D01*
X122556250Y-90150000D01*
X122580142Y-90151174D01*
G37*
G36*
X119080142Y-88276174D02*
G01*
X119103803Y-88279684D01*
X119127007Y-88285496D01*
X119149529Y-88293554D01*
X119171153Y-88303782D01*
X119191670Y-88316079D01*
X119210883Y-88330329D01*
X119228607Y-88346393D01*
X119244671Y-88364117D01*
X119258921Y-88383330D01*
X119271218Y-88403847D01*
X119281446Y-88425471D01*
X119289504Y-88447993D01*
X119295316Y-88471197D01*
X119298826Y-88494858D01*
X119300000Y-88518750D01*
X119300000Y-89006250D01*
X119298826Y-89030142D01*
X119295316Y-89053803D01*
X119289504Y-89077007D01*
X119281446Y-89099529D01*
X119271218Y-89121153D01*
X119258921Y-89141670D01*
X119244671Y-89160883D01*
X119228607Y-89178607D01*
X119210883Y-89194671D01*
X119191670Y-89208921D01*
X119171153Y-89221218D01*
X119149529Y-89231446D01*
X119127007Y-89239504D01*
X119103803Y-89245316D01*
X119080142Y-89248826D01*
X119056250Y-89250000D01*
X118143750Y-89250000D01*
X118119858Y-89248826D01*
X118096197Y-89245316D01*
X118072993Y-89239504D01*
X118050471Y-89231446D01*
X118028847Y-89221218D01*
X118008330Y-89208921D01*
X117989117Y-89194671D01*
X117971393Y-89178607D01*
X117955329Y-89160883D01*
X117941079Y-89141670D01*
X117928782Y-89121153D01*
X117918554Y-89099529D01*
X117910496Y-89077007D01*
X117904684Y-89053803D01*
X117901174Y-89030142D01*
X117900000Y-89006250D01*
X117900000Y-88518750D01*
X117901174Y-88494858D01*
X117904684Y-88471197D01*
X117910496Y-88447993D01*
X117918554Y-88425471D01*
X117928782Y-88403847D01*
X117941079Y-88383330D01*
X117955329Y-88364117D01*
X117971393Y-88346393D01*
X117989117Y-88330329D01*
X118008330Y-88316079D01*
X118028847Y-88303782D01*
X118050471Y-88293554D01*
X118072993Y-88285496D01*
X118096197Y-88279684D01*
X118119858Y-88276174D01*
X118143750Y-88275000D01*
X119056250Y-88275000D01*
X119080142Y-88276174D01*
G37*
G36*
X119080142Y-90151174D02*
G01*
X119103803Y-90154684D01*
X119127007Y-90160496D01*
X119149529Y-90168554D01*
X119171153Y-90178782D01*
X119191670Y-90191079D01*
X119210883Y-90205329D01*
X119228607Y-90221393D01*
X119244671Y-90239117D01*
X119258921Y-90258330D01*
X119271218Y-90278847D01*
X119281446Y-90300471D01*
X119289504Y-90322993D01*
X119295316Y-90346197D01*
X119298826Y-90369858D01*
X119300000Y-90393750D01*
X119300000Y-90881250D01*
X119298826Y-90905142D01*
X119295316Y-90928803D01*
X119289504Y-90952007D01*
X119281446Y-90974529D01*
X119271218Y-90996153D01*
X119258921Y-91016670D01*
X119244671Y-91035883D01*
X119228607Y-91053607D01*
X119210883Y-91069671D01*
X119191670Y-91083921D01*
X119171153Y-91096218D01*
X119149529Y-91106446D01*
X119127007Y-91114504D01*
X119103803Y-91120316D01*
X119080142Y-91123826D01*
X119056250Y-91125000D01*
X118143750Y-91125000D01*
X118119858Y-91123826D01*
X118096197Y-91120316D01*
X118072993Y-91114504D01*
X118050471Y-91106446D01*
X118028847Y-91096218D01*
X118008330Y-91083921D01*
X117989117Y-91069671D01*
X117971393Y-91053607D01*
X117955329Y-91035883D01*
X117941079Y-91016670D01*
X117928782Y-90996153D01*
X117918554Y-90974529D01*
X117910496Y-90952007D01*
X117904684Y-90928803D01*
X117901174Y-90905142D01*
X117900000Y-90881250D01*
X117900000Y-90393750D01*
X117901174Y-90369858D01*
X117904684Y-90346197D01*
X117910496Y-90322993D01*
X117918554Y-90300471D01*
X117928782Y-90278847D01*
X117941079Y-90258330D01*
X117955329Y-90239117D01*
X117971393Y-90221393D01*
X117989117Y-90205329D01*
X118008330Y-90191079D01*
X118028847Y-90178782D01*
X118050471Y-90168554D01*
X118072993Y-90160496D01*
X118096197Y-90154684D01*
X118119858Y-90151174D01*
X118143750Y-90150000D01*
X119056250Y-90150000D01*
X119080142Y-90151174D01*
G37*
G36*
X142005142Y-74601174D02*
G01*
X142028803Y-74604684D01*
X142052007Y-74610496D01*
X142074529Y-74618554D01*
X142096153Y-74628782D01*
X142116670Y-74641079D01*
X142135883Y-74655329D01*
X142153607Y-74671393D01*
X142169671Y-74689117D01*
X142183921Y-74708330D01*
X142196218Y-74728847D01*
X142206446Y-74750471D01*
X142214504Y-74772993D01*
X142220316Y-74796197D01*
X142223826Y-74819858D01*
X142225000Y-74843750D01*
X142225000Y-75756250D01*
X142223826Y-75780142D01*
X142220316Y-75803803D01*
X142214504Y-75827007D01*
X142206446Y-75849529D01*
X142196218Y-75871153D01*
X142183921Y-75891670D01*
X142169671Y-75910883D01*
X142153607Y-75928607D01*
X142135883Y-75944671D01*
X142116670Y-75958921D01*
X142096153Y-75971218D01*
X142074529Y-75981446D01*
X142052007Y-75989504D01*
X142028803Y-75995316D01*
X142005142Y-75998826D01*
X141981250Y-76000000D01*
X141493750Y-76000000D01*
X141469858Y-75998826D01*
X141446197Y-75995316D01*
X141422993Y-75989504D01*
X141400471Y-75981446D01*
X141378847Y-75971218D01*
X141358330Y-75958921D01*
X141339117Y-75944671D01*
X141321393Y-75928607D01*
X141305329Y-75910883D01*
X141291079Y-75891670D01*
X141278782Y-75871153D01*
X141268554Y-75849529D01*
X141260496Y-75827007D01*
X141254684Y-75803803D01*
X141251174Y-75780142D01*
X141250000Y-75756250D01*
X141250000Y-74843750D01*
X141251174Y-74819858D01*
X141254684Y-74796197D01*
X141260496Y-74772993D01*
X141268554Y-74750471D01*
X141278782Y-74728847D01*
X141291079Y-74708330D01*
X141305329Y-74689117D01*
X141321393Y-74671393D01*
X141339117Y-74655329D01*
X141358330Y-74641079D01*
X141378847Y-74628782D01*
X141400471Y-74618554D01*
X141422993Y-74610496D01*
X141446197Y-74604684D01*
X141469858Y-74601174D01*
X141493750Y-74600000D01*
X141981250Y-74600000D01*
X142005142Y-74601174D01*
G37*
G36*
X140130142Y-74601174D02*
G01*
X140153803Y-74604684D01*
X140177007Y-74610496D01*
X140199529Y-74618554D01*
X140221153Y-74628782D01*
X140241670Y-74641079D01*
X140260883Y-74655329D01*
X140278607Y-74671393D01*
X140294671Y-74689117D01*
X140308921Y-74708330D01*
X140321218Y-74728847D01*
X140331446Y-74750471D01*
X140339504Y-74772993D01*
X140345316Y-74796197D01*
X140348826Y-74819858D01*
X140350000Y-74843750D01*
X140350000Y-75756250D01*
X140348826Y-75780142D01*
X140345316Y-75803803D01*
X140339504Y-75827007D01*
X140331446Y-75849529D01*
X140321218Y-75871153D01*
X140308921Y-75891670D01*
X140294671Y-75910883D01*
X140278607Y-75928607D01*
X140260883Y-75944671D01*
X140241670Y-75958921D01*
X140221153Y-75971218D01*
X140199529Y-75981446D01*
X140177007Y-75989504D01*
X140153803Y-75995316D01*
X140130142Y-75998826D01*
X140106250Y-76000000D01*
X139618750Y-76000000D01*
X139594858Y-75998826D01*
X139571197Y-75995316D01*
X139547993Y-75989504D01*
X139525471Y-75981446D01*
X139503847Y-75971218D01*
X139483330Y-75958921D01*
X139464117Y-75944671D01*
X139446393Y-75928607D01*
X139430329Y-75910883D01*
X139416079Y-75891670D01*
X139403782Y-75871153D01*
X139393554Y-75849529D01*
X139385496Y-75827007D01*
X139379684Y-75803803D01*
X139376174Y-75780142D01*
X139375000Y-75756250D01*
X139375000Y-74843750D01*
X139376174Y-74819858D01*
X139379684Y-74796197D01*
X139385496Y-74772993D01*
X139393554Y-74750471D01*
X139403782Y-74728847D01*
X139416079Y-74708330D01*
X139430329Y-74689117D01*
X139446393Y-74671393D01*
X139464117Y-74655329D01*
X139483330Y-74641079D01*
X139503847Y-74628782D01*
X139525471Y-74618554D01*
X139547993Y-74610496D01*
X139571197Y-74604684D01*
X139594858Y-74601174D01*
X139618750Y-74600000D01*
X140106250Y-74600000D01*
X140130142Y-74601174D01*
G37*
G36*
X142005142Y-83601174D02*
G01*
X142028803Y-83604684D01*
X142052007Y-83610496D01*
X142074529Y-83618554D01*
X142096153Y-83628782D01*
X142116670Y-83641079D01*
X142135883Y-83655329D01*
X142153607Y-83671393D01*
X142169671Y-83689117D01*
X142183921Y-83708330D01*
X142196218Y-83728847D01*
X142206446Y-83750471D01*
X142214504Y-83772993D01*
X142220316Y-83796197D01*
X142223826Y-83819858D01*
X142225000Y-83843750D01*
X142225000Y-84756250D01*
X142223826Y-84780142D01*
X142220316Y-84803803D01*
X142214504Y-84827007D01*
X142206446Y-84849529D01*
X142196218Y-84871153D01*
X142183921Y-84891670D01*
X142169671Y-84910883D01*
X142153607Y-84928607D01*
X142135883Y-84944671D01*
X142116670Y-84958921D01*
X142096153Y-84971218D01*
X142074529Y-84981446D01*
X142052007Y-84989504D01*
X142028803Y-84995316D01*
X142005142Y-84998826D01*
X141981250Y-85000000D01*
X141493750Y-85000000D01*
X141469858Y-84998826D01*
X141446197Y-84995316D01*
X141422993Y-84989504D01*
X141400471Y-84981446D01*
X141378847Y-84971218D01*
X141358330Y-84958921D01*
X141339117Y-84944671D01*
X141321393Y-84928607D01*
X141305329Y-84910883D01*
X141291079Y-84891670D01*
X141278782Y-84871153D01*
X141268554Y-84849529D01*
X141260496Y-84827007D01*
X141254684Y-84803803D01*
X141251174Y-84780142D01*
X141250000Y-84756250D01*
X141250000Y-83843750D01*
X141251174Y-83819858D01*
X141254684Y-83796197D01*
X141260496Y-83772993D01*
X141268554Y-83750471D01*
X141278782Y-83728847D01*
X141291079Y-83708330D01*
X141305329Y-83689117D01*
X141321393Y-83671393D01*
X141339117Y-83655329D01*
X141358330Y-83641079D01*
X141378847Y-83628782D01*
X141400471Y-83618554D01*
X141422993Y-83610496D01*
X141446197Y-83604684D01*
X141469858Y-83601174D01*
X141493750Y-83600000D01*
X141981250Y-83600000D01*
X142005142Y-83601174D01*
G37*
G36*
X140130142Y-83601174D02*
G01*
X140153803Y-83604684D01*
X140177007Y-83610496D01*
X140199529Y-83618554D01*
X140221153Y-83628782D01*
X140241670Y-83641079D01*
X140260883Y-83655329D01*
X140278607Y-83671393D01*
X140294671Y-83689117D01*
X140308921Y-83708330D01*
X140321218Y-83728847D01*
X140331446Y-83750471D01*
X140339504Y-83772993D01*
X140345316Y-83796197D01*
X140348826Y-83819858D01*
X140350000Y-83843750D01*
X140350000Y-84756250D01*
X140348826Y-84780142D01*
X140345316Y-84803803D01*
X140339504Y-84827007D01*
X140331446Y-84849529D01*
X140321218Y-84871153D01*
X140308921Y-84891670D01*
X140294671Y-84910883D01*
X140278607Y-84928607D01*
X140260883Y-84944671D01*
X140241670Y-84958921D01*
X140221153Y-84971218D01*
X140199529Y-84981446D01*
X140177007Y-84989504D01*
X140153803Y-84995316D01*
X140130142Y-84998826D01*
X140106250Y-85000000D01*
X139618750Y-85000000D01*
X139594858Y-84998826D01*
X139571197Y-84995316D01*
X139547993Y-84989504D01*
X139525471Y-84981446D01*
X139503847Y-84971218D01*
X139483330Y-84958921D01*
X139464117Y-84944671D01*
X139446393Y-84928607D01*
X139430329Y-84910883D01*
X139416079Y-84891670D01*
X139403782Y-84871153D01*
X139393554Y-84849529D01*
X139385496Y-84827007D01*
X139379684Y-84803803D01*
X139376174Y-84780142D01*
X139375000Y-84756250D01*
X139375000Y-83843750D01*
X139376174Y-83819858D01*
X139379684Y-83796197D01*
X139385496Y-83772993D01*
X139393554Y-83750471D01*
X139403782Y-83728847D01*
X139416079Y-83708330D01*
X139430329Y-83689117D01*
X139446393Y-83671393D01*
X139464117Y-83655329D01*
X139483330Y-83641079D01*
X139503847Y-83628782D01*
X139525471Y-83618554D01*
X139547993Y-83610496D01*
X139571197Y-83604684D01*
X139594858Y-83601174D01*
X139618750Y-83600000D01*
X140106250Y-83600000D01*
X140130142Y-83601174D01*
G37*
M02*
