G04 #@! TF.GenerationSoftware,KiCad,Pcbnew,(5.1.5)-3*
G04 #@! TF.CreationDate,2021-01-10T15:50:35-06:00*
G04 #@! TF.ProjectId,Power-SupplementalMonitoringPCB,506f7765-722d-4537-9570-706c656d656e,rev?*
G04 #@! TF.SameCoordinates,Original*
G04 #@! TF.FileFunction,Soldermask,Bot*
G04 #@! TF.FilePolarity,Negative*
%FSLAX46Y46*%
G04 Gerber Fmt 4.6, Leading zero omitted, Abs format (unit mm)*
G04 Created by KiCad (PCBNEW (5.1.5)-3) date 2021-01-10 15:50:35*
%MOMM*%
%LPD*%
G04 APERTURE LIST*
%ADD10C,0.100000*%
G04 APERTURE END LIST*
D10*
G36*
X109501531Y-110801544D02*
G01*
X109662812Y-110833624D01*
X109826784Y-110901544D01*
X109974354Y-111000147D01*
X110099853Y-111125646D01*
X110198456Y-111273216D01*
X110266376Y-111437188D01*
X110301000Y-111611259D01*
X110301000Y-111788741D01*
X110266376Y-111962812D01*
X110198456Y-112126784D01*
X110099853Y-112274354D01*
X109974354Y-112399853D01*
X109826784Y-112498456D01*
X109662812Y-112566376D01*
X109513512Y-112596073D01*
X109488742Y-112601000D01*
X109311258Y-112601000D01*
X109286488Y-112596073D01*
X109137188Y-112566376D01*
X108973216Y-112498456D01*
X108825646Y-112399853D01*
X108700147Y-112274354D01*
X108601544Y-112126784D01*
X108533624Y-111962812D01*
X108499000Y-111788741D01*
X108499000Y-111611259D01*
X108533624Y-111437188D01*
X108601544Y-111273216D01*
X108700147Y-111125646D01*
X108825646Y-111000147D01*
X108973216Y-110901544D01*
X109137188Y-110833624D01*
X109298469Y-110801544D01*
X109311258Y-110799000D01*
X109488742Y-110799000D01*
X109501531Y-110801544D01*
G37*
G36*
X106501531Y-110801544D02*
G01*
X106662812Y-110833624D01*
X106826784Y-110901544D01*
X106974354Y-111000147D01*
X107099853Y-111125646D01*
X107198456Y-111273216D01*
X107266376Y-111437188D01*
X107301000Y-111611259D01*
X107301000Y-111788741D01*
X107266376Y-111962812D01*
X107198456Y-112126784D01*
X107099853Y-112274354D01*
X106974354Y-112399853D01*
X106826784Y-112498456D01*
X106662812Y-112566376D01*
X106513512Y-112596073D01*
X106488742Y-112601000D01*
X106311258Y-112601000D01*
X106286488Y-112596073D01*
X106137188Y-112566376D01*
X105973216Y-112498456D01*
X105825646Y-112399853D01*
X105700147Y-112274354D01*
X105601544Y-112126784D01*
X105533624Y-111962812D01*
X105499000Y-111788741D01*
X105499000Y-111611259D01*
X105533624Y-111437188D01*
X105601544Y-111273216D01*
X105700147Y-111125646D01*
X105825646Y-111000147D01*
X105973216Y-110901544D01*
X106137188Y-110833624D01*
X106298469Y-110801544D01*
X106311258Y-110799000D01*
X106488742Y-110799000D01*
X106501531Y-110801544D01*
G37*
G36*
X97302585Y-109478802D02*
G01*
X97452410Y-109508604D01*
X97734674Y-109625521D01*
X97988705Y-109795259D01*
X98204741Y-110011295D01*
X98374479Y-110265326D01*
X98491396Y-110547590D01*
X98491396Y-110547591D01*
X98541405Y-110799000D01*
X98551000Y-110847240D01*
X98551000Y-111152760D01*
X98491396Y-111452410D01*
X98374479Y-111734674D01*
X98204741Y-111988705D01*
X97988705Y-112204741D01*
X97734674Y-112374479D01*
X97452410Y-112491396D01*
X97404127Y-112501000D01*
X97152761Y-112551000D01*
X96847239Y-112551000D01*
X96595873Y-112501000D01*
X96547590Y-112491396D01*
X96265326Y-112374479D01*
X96011295Y-112204741D01*
X95795259Y-111988705D01*
X95625521Y-111734674D01*
X95508604Y-111452410D01*
X95449000Y-111152760D01*
X95449000Y-110847240D01*
X95458596Y-110799000D01*
X95508604Y-110547591D01*
X95508604Y-110547590D01*
X95625521Y-110265326D01*
X95795259Y-110011295D01*
X96011295Y-109795259D01*
X96265326Y-109625521D01*
X96547590Y-109508604D01*
X96697415Y-109478802D01*
X96847239Y-109449000D01*
X97152761Y-109449000D01*
X97302585Y-109478802D01*
G37*
G36*
X158702585Y-109478802D02*
G01*
X158852410Y-109508604D01*
X159134674Y-109625521D01*
X159388705Y-109795259D01*
X159604741Y-110011295D01*
X159774479Y-110265326D01*
X159891396Y-110547590D01*
X159891396Y-110547591D01*
X159941405Y-110799000D01*
X159951000Y-110847240D01*
X159951000Y-111152760D01*
X159891396Y-111452410D01*
X159774479Y-111734674D01*
X159604741Y-111988705D01*
X159388705Y-112204741D01*
X159134674Y-112374479D01*
X158852410Y-112491396D01*
X158804127Y-112501000D01*
X158552761Y-112551000D01*
X158247239Y-112551000D01*
X157995873Y-112501000D01*
X157947590Y-112491396D01*
X157665326Y-112374479D01*
X157411295Y-112204741D01*
X157195259Y-111988705D01*
X157025521Y-111734674D01*
X156908604Y-111452410D01*
X156849000Y-111152760D01*
X156849000Y-110847240D01*
X156858596Y-110799000D01*
X156908604Y-110547591D01*
X156908604Y-110547590D01*
X157025521Y-110265326D01*
X157195259Y-110011295D01*
X157411295Y-109795259D01*
X157665326Y-109625521D01*
X157947590Y-109508604D01*
X158097415Y-109478802D01*
X158247239Y-109449000D01*
X158552761Y-109449000D01*
X158702585Y-109478802D01*
G37*
G36*
X150213512Y-110703927D02*
G01*
X150362812Y-110733624D01*
X150526784Y-110801544D01*
X150674354Y-110900147D01*
X150799853Y-111025646D01*
X150898456Y-111173216D01*
X150966376Y-111337188D01*
X151001000Y-111511259D01*
X151001000Y-111688741D01*
X150966376Y-111862812D01*
X150898456Y-112026784D01*
X150799853Y-112174354D01*
X150674354Y-112299853D01*
X150526784Y-112398456D01*
X150362812Y-112466376D01*
X150213512Y-112496073D01*
X150188742Y-112501000D01*
X150011258Y-112501000D01*
X149986488Y-112496073D01*
X149837188Y-112466376D01*
X149673216Y-112398456D01*
X149525646Y-112299853D01*
X149400147Y-112174354D01*
X149301544Y-112026784D01*
X149233624Y-111862812D01*
X149199000Y-111688741D01*
X149199000Y-111511259D01*
X149233624Y-111337188D01*
X149301544Y-111173216D01*
X149400147Y-111025646D01*
X149525646Y-110900147D01*
X149673216Y-110801544D01*
X149837188Y-110733624D01*
X149986488Y-110703927D01*
X150011258Y-110699000D01*
X150188742Y-110699000D01*
X150213512Y-110703927D01*
G37*
G36*
X141213512Y-110703927D02*
G01*
X141362812Y-110733624D01*
X141526784Y-110801544D01*
X141674354Y-110900147D01*
X141799853Y-111025646D01*
X141898456Y-111173216D01*
X141966376Y-111337188D01*
X142001000Y-111511259D01*
X142001000Y-111688741D01*
X141966376Y-111862812D01*
X141898456Y-112026784D01*
X141799853Y-112174354D01*
X141674354Y-112299853D01*
X141526784Y-112398456D01*
X141362812Y-112466376D01*
X141213512Y-112496073D01*
X141188742Y-112501000D01*
X141011258Y-112501000D01*
X140986488Y-112496073D01*
X140837188Y-112466376D01*
X140673216Y-112398456D01*
X140525646Y-112299853D01*
X140400147Y-112174354D01*
X140301544Y-112026784D01*
X140233624Y-111862812D01*
X140199000Y-111688741D01*
X140199000Y-111511259D01*
X140233624Y-111337188D01*
X140301544Y-111173216D01*
X140400147Y-111025646D01*
X140525646Y-110900147D01*
X140673216Y-110801544D01*
X140837188Y-110733624D01*
X140986488Y-110703927D01*
X141011258Y-110699000D01*
X141188742Y-110699000D01*
X141213512Y-110703927D01*
G37*
G36*
X144213512Y-110703927D02*
G01*
X144362812Y-110733624D01*
X144526784Y-110801544D01*
X144674354Y-110900147D01*
X144799853Y-111025646D01*
X144898456Y-111173216D01*
X144966376Y-111337188D01*
X145001000Y-111511259D01*
X145001000Y-111688741D01*
X144966376Y-111862812D01*
X144898456Y-112026784D01*
X144799853Y-112174354D01*
X144674354Y-112299853D01*
X144526784Y-112398456D01*
X144362812Y-112466376D01*
X144213512Y-112496073D01*
X144188742Y-112501000D01*
X144011258Y-112501000D01*
X143986488Y-112496073D01*
X143837188Y-112466376D01*
X143673216Y-112398456D01*
X143525646Y-112299853D01*
X143400147Y-112174354D01*
X143301544Y-112026784D01*
X143233624Y-111862812D01*
X143199000Y-111688741D01*
X143199000Y-111511259D01*
X143233624Y-111337188D01*
X143301544Y-111173216D01*
X143400147Y-111025646D01*
X143525646Y-110900147D01*
X143673216Y-110801544D01*
X143837188Y-110733624D01*
X143986488Y-110703927D01*
X144011258Y-110699000D01*
X144188742Y-110699000D01*
X144213512Y-110703927D01*
G37*
G36*
X147213512Y-110703927D02*
G01*
X147362812Y-110733624D01*
X147526784Y-110801544D01*
X147674354Y-110900147D01*
X147799853Y-111025646D01*
X147898456Y-111173216D01*
X147966376Y-111337188D01*
X148001000Y-111511259D01*
X148001000Y-111688741D01*
X147966376Y-111862812D01*
X147898456Y-112026784D01*
X147799853Y-112174354D01*
X147674354Y-112299853D01*
X147526784Y-112398456D01*
X147362812Y-112466376D01*
X147213512Y-112496073D01*
X147188742Y-112501000D01*
X147011258Y-112501000D01*
X146986488Y-112496073D01*
X146837188Y-112466376D01*
X146673216Y-112398456D01*
X146525646Y-112299853D01*
X146400147Y-112174354D01*
X146301544Y-112026784D01*
X146233624Y-111862812D01*
X146199000Y-111688741D01*
X146199000Y-111511259D01*
X146233624Y-111337188D01*
X146301544Y-111173216D01*
X146400147Y-111025646D01*
X146525646Y-110900147D01*
X146673216Y-110801544D01*
X146837188Y-110733624D01*
X146986488Y-110703927D01*
X147011258Y-110699000D01*
X147188742Y-110699000D01*
X147213512Y-110703927D01*
G37*
G36*
X126813512Y-110703927D02*
G01*
X126962812Y-110733624D01*
X127126784Y-110801544D01*
X127274354Y-110900147D01*
X127399853Y-111025646D01*
X127498456Y-111173216D01*
X127566376Y-111337188D01*
X127601000Y-111511259D01*
X127601000Y-111688741D01*
X127566376Y-111862812D01*
X127498456Y-112026784D01*
X127399853Y-112174354D01*
X127274354Y-112299853D01*
X127126784Y-112398456D01*
X126962812Y-112466376D01*
X126813512Y-112496073D01*
X126788742Y-112501000D01*
X126611258Y-112501000D01*
X126586488Y-112496073D01*
X126437188Y-112466376D01*
X126273216Y-112398456D01*
X126125646Y-112299853D01*
X126000147Y-112174354D01*
X125901544Y-112026784D01*
X125833624Y-111862812D01*
X125799000Y-111688741D01*
X125799000Y-111511259D01*
X125833624Y-111337188D01*
X125901544Y-111173216D01*
X126000147Y-111025646D01*
X126125646Y-110900147D01*
X126273216Y-110801544D01*
X126437188Y-110733624D01*
X126586488Y-110703927D01*
X126611258Y-110699000D01*
X126788742Y-110699000D01*
X126813512Y-110703927D01*
G37*
G36*
X123813512Y-110703927D02*
G01*
X123962812Y-110733624D01*
X124126784Y-110801544D01*
X124274354Y-110900147D01*
X124399853Y-111025646D01*
X124498456Y-111173216D01*
X124566376Y-111337188D01*
X124601000Y-111511259D01*
X124601000Y-111688741D01*
X124566376Y-111862812D01*
X124498456Y-112026784D01*
X124399853Y-112174354D01*
X124274354Y-112299853D01*
X124126784Y-112398456D01*
X123962812Y-112466376D01*
X123813512Y-112496073D01*
X123788742Y-112501000D01*
X123611258Y-112501000D01*
X123586488Y-112496073D01*
X123437188Y-112466376D01*
X123273216Y-112398456D01*
X123125646Y-112299853D01*
X123000147Y-112174354D01*
X122901544Y-112026784D01*
X122833624Y-111862812D01*
X122799000Y-111688741D01*
X122799000Y-111511259D01*
X122833624Y-111337188D01*
X122901544Y-111173216D01*
X123000147Y-111025646D01*
X123125646Y-110900147D01*
X123273216Y-110801544D01*
X123437188Y-110733624D01*
X123586488Y-110703927D01*
X123611258Y-110699000D01*
X123788742Y-110699000D01*
X123813512Y-110703927D01*
G37*
G36*
X129813512Y-110703927D02*
G01*
X129962812Y-110733624D01*
X130126784Y-110801544D01*
X130274354Y-110900147D01*
X130399853Y-111025646D01*
X130498456Y-111173216D01*
X130566376Y-111337188D01*
X130601000Y-111511259D01*
X130601000Y-111688741D01*
X130566376Y-111862812D01*
X130498456Y-112026784D01*
X130399853Y-112174354D01*
X130274354Y-112299853D01*
X130126784Y-112398456D01*
X129962812Y-112466376D01*
X129813512Y-112496073D01*
X129788742Y-112501000D01*
X129611258Y-112501000D01*
X129586488Y-112496073D01*
X129437188Y-112466376D01*
X129273216Y-112398456D01*
X129125646Y-112299853D01*
X129000147Y-112174354D01*
X128901544Y-112026784D01*
X128833624Y-111862812D01*
X128799000Y-111688741D01*
X128799000Y-111511259D01*
X128833624Y-111337188D01*
X128901544Y-111173216D01*
X129000147Y-111025646D01*
X129125646Y-110900147D01*
X129273216Y-110801544D01*
X129437188Y-110733624D01*
X129586488Y-110703927D01*
X129611258Y-110699000D01*
X129788742Y-110699000D01*
X129813512Y-110703927D01*
G37*
G36*
X120813512Y-110703927D02*
G01*
X120962812Y-110733624D01*
X121126784Y-110801544D01*
X121274354Y-110900147D01*
X121399853Y-111025646D01*
X121498456Y-111173216D01*
X121566376Y-111337188D01*
X121601000Y-111511259D01*
X121601000Y-111688741D01*
X121566376Y-111862812D01*
X121498456Y-112026784D01*
X121399853Y-112174354D01*
X121274354Y-112299853D01*
X121126784Y-112398456D01*
X120962812Y-112466376D01*
X120813512Y-112496073D01*
X120788742Y-112501000D01*
X120611258Y-112501000D01*
X120586488Y-112496073D01*
X120437188Y-112466376D01*
X120273216Y-112398456D01*
X120125646Y-112299853D01*
X120000147Y-112174354D01*
X119901544Y-112026784D01*
X119833624Y-111862812D01*
X119799000Y-111688741D01*
X119799000Y-111511259D01*
X119833624Y-111337188D01*
X119901544Y-111173216D01*
X120000147Y-111025646D01*
X120125646Y-110900147D01*
X120273216Y-110801544D01*
X120437188Y-110733624D01*
X120586488Y-110703927D01*
X120611258Y-110699000D01*
X120788742Y-110699000D01*
X120813512Y-110703927D01*
G37*
G36*
X112600098Y-109080362D02*
G01*
X112724941Y-109132074D01*
X112724943Y-109132075D01*
X112830642Y-109202701D01*
X112837299Y-109207149D01*
X112932851Y-109302701D01*
X113007926Y-109415059D01*
X113059638Y-109539902D01*
X113086000Y-109672434D01*
X113086000Y-109807566D01*
X113059638Y-109940098D01*
X113007926Y-110064941D01*
X113007925Y-110064943D01*
X112932851Y-110177299D01*
X112837299Y-110272851D01*
X112724943Y-110347925D01*
X112724942Y-110347926D01*
X112724941Y-110347926D01*
X112600098Y-110399638D01*
X112467566Y-110426000D01*
X112332434Y-110426000D01*
X112199902Y-110399638D01*
X112075059Y-110347926D01*
X112075058Y-110347926D01*
X112075057Y-110347925D01*
X111962701Y-110272851D01*
X111867149Y-110177299D01*
X111792075Y-110064943D01*
X111792074Y-110064941D01*
X111740362Y-109940098D01*
X111714000Y-109807566D01*
X111714000Y-109672434D01*
X111740362Y-109539902D01*
X111792074Y-109415059D01*
X111867149Y-109302701D01*
X111962701Y-109207149D01*
X111969358Y-109202701D01*
X112075057Y-109132075D01*
X112075059Y-109132074D01*
X112199902Y-109080362D01*
X112332434Y-109054000D01*
X112467566Y-109054000D01*
X112600098Y-109080362D01*
G37*
G36*
X103600098Y-109080362D02*
G01*
X103724941Y-109132074D01*
X103724943Y-109132075D01*
X103830642Y-109202701D01*
X103837299Y-109207149D01*
X103932851Y-109302701D01*
X104007926Y-109415059D01*
X104059638Y-109539902D01*
X104086000Y-109672434D01*
X104086000Y-109807566D01*
X104059638Y-109940098D01*
X104007926Y-110064941D01*
X104007925Y-110064943D01*
X103932851Y-110177299D01*
X103837299Y-110272851D01*
X103724943Y-110347925D01*
X103724942Y-110347926D01*
X103724941Y-110347926D01*
X103600098Y-110399638D01*
X103467566Y-110426000D01*
X103332434Y-110426000D01*
X103199902Y-110399638D01*
X103075059Y-110347926D01*
X103075058Y-110347926D01*
X103075057Y-110347925D01*
X102962701Y-110272851D01*
X102867149Y-110177299D01*
X102792075Y-110064943D01*
X102792074Y-110064941D01*
X102740362Y-109940098D01*
X102714000Y-109807566D01*
X102714000Y-109672434D01*
X102740362Y-109539902D01*
X102792074Y-109415059D01*
X102867149Y-109302701D01*
X102962701Y-109207149D01*
X102969358Y-109202701D01*
X103075057Y-109132075D01*
X103075059Y-109132074D01*
X103199902Y-109080362D01*
X103332434Y-109054000D01*
X103467566Y-109054000D01*
X103600098Y-109080362D01*
G37*
G36*
X153300098Y-108980362D02*
G01*
X153424941Y-109032074D01*
X153424943Y-109032075D01*
X153457756Y-109054000D01*
X153537299Y-109107149D01*
X153632851Y-109202701D01*
X153707926Y-109315059D01*
X153759638Y-109439902D01*
X153786000Y-109572434D01*
X153786000Y-109707566D01*
X153759638Y-109840098D01*
X153718216Y-109940098D01*
X153707925Y-109964943D01*
X153632851Y-110077299D01*
X153537299Y-110172851D01*
X153424943Y-110247925D01*
X153424942Y-110247926D01*
X153424941Y-110247926D01*
X153300098Y-110299638D01*
X153167566Y-110326000D01*
X153032434Y-110326000D01*
X152899902Y-110299638D01*
X152775059Y-110247926D01*
X152775058Y-110247926D01*
X152775057Y-110247925D01*
X152662701Y-110172851D01*
X152567149Y-110077299D01*
X152492075Y-109964943D01*
X152481784Y-109940098D01*
X152440362Y-109840098D01*
X152414000Y-109707566D01*
X152414000Y-109572434D01*
X152440362Y-109439902D01*
X152492074Y-109315059D01*
X152567149Y-109202701D01*
X152662701Y-109107149D01*
X152742244Y-109054000D01*
X152775057Y-109032075D01*
X152775059Y-109032074D01*
X152899902Y-108980362D01*
X153032434Y-108954000D01*
X153167566Y-108954000D01*
X153300098Y-108980362D01*
G37*
G36*
X117900098Y-108980362D02*
G01*
X118024941Y-109032074D01*
X118024943Y-109032075D01*
X118057756Y-109054000D01*
X118137299Y-109107149D01*
X118232851Y-109202701D01*
X118307926Y-109315059D01*
X118359638Y-109439902D01*
X118386000Y-109572434D01*
X118386000Y-109707566D01*
X118359638Y-109840098D01*
X118318216Y-109940098D01*
X118307925Y-109964943D01*
X118232851Y-110077299D01*
X118137299Y-110172851D01*
X118024943Y-110247925D01*
X118024942Y-110247926D01*
X118024941Y-110247926D01*
X117900098Y-110299638D01*
X117767566Y-110326000D01*
X117632434Y-110326000D01*
X117499902Y-110299638D01*
X117375059Y-110247926D01*
X117375058Y-110247926D01*
X117375057Y-110247925D01*
X117262701Y-110172851D01*
X117167149Y-110077299D01*
X117092075Y-109964943D01*
X117081784Y-109940098D01*
X117040362Y-109840098D01*
X117014000Y-109707566D01*
X117014000Y-109572434D01*
X117040362Y-109439902D01*
X117092074Y-109315059D01*
X117167149Y-109202701D01*
X117262701Y-109107149D01*
X117342244Y-109054000D01*
X117375057Y-109032075D01*
X117375059Y-109032074D01*
X117499902Y-108980362D01*
X117632434Y-108954000D01*
X117767566Y-108954000D01*
X117900098Y-108980362D01*
G37*
G36*
X138300098Y-108980362D02*
G01*
X138424941Y-109032074D01*
X138424943Y-109032075D01*
X138457756Y-109054000D01*
X138537299Y-109107149D01*
X138632851Y-109202701D01*
X138707926Y-109315059D01*
X138759638Y-109439902D01*
X138786000Y-109572434D01*
X138786000Y-109707566D01*
X138759638Y-109840098D01*
X138718216Y-109940098D01*
X138707925Y-109964943D01*
X138632851Y-110077299D01*
X138537299Y-110172851D01*
X138424943Y-110247925D01*
X138424942Y-110247926D01*
X138424941Y-110247926D01*
X138300098Y-110299638D01*
X138167566Y-110326000D01*
X138032434Y-110326000D01*
X137899902Y-110299638D01*
X137775059Y-110247926D01*
X137775058Y-110247926D01*
X137775057Y-110247925D01*
X137662701Y-110172851D01*
X137567149Y-110077299D01*
X137492075Y-109964943D01*
X137481784Y-109940098D01*
X137440362Y-109840098D01*
X137414000Y-109707566D01*
X137414000Y-109572434D01*
X137440362Y-109439902D01*
X137492074Y-109315059D01*
X137567149Y-109202701D01*
X137662701Y-109107149D01*
X137742244Y-109054000D01*
X137775057Y-109032075D01*
X137775059Y-109032074D01*
X137899902Y-108980362D01*
X138032434Y-108954000D01*
X138167566Y-108954000D01*
X138300098Y-108980362D01*
G37*
G36*
X132900098Y-108980362D02*
G01*
X133024941Y-109032074D01*
X133024943Y-109032075D01*
X133057756Y-109054000D01*
X133137299Y-109107149D01*
X133232851Y-109202701D01*
X133307926Y-109315059D01*
X133359638Y-109439902D01*
X133386000Y-109572434D01*
X133386000Y-109707566D01*
X133359638Y-109840098D01*
X133318216Y-109940098D01*
X133307925Y-109964943D01*
X133232851Y-110077299D01*
X133137299Y-110172851D01*
X133024943Y-110247925D01*
X133024942Y-110247926D01*
X133024941Y-110247926D01*
X132900098Y-110299638D01*
X132767566Y-110326000D01*
X132632434Y-110326000D01*
X132499902Y-110299638D01*
X132375059Y-110247926D01*
X132375058Y-110247926D01*
X132375057Y-110247925D01*
X132262701Y-110172851D01*
X132167149Y-110077299D01*
X132092075Y-109964943D01*
X132081784Y-109940098D01*
X132040362Y-109840098D01*
X132014000Y-109707566D01*
X132014000Y-109572434D01*
X132040362Y-109439902D01*
X132092074Y-109315059D01*
X132167149Y-109202701D01*
X132262701Y-109107149D01*
X132342244Y-109054000D01*
X132375057Y-109032075D01*
X132375059Y-109032074D01*
X132499902Y-108980362D01*
X132632434Y-108954000D01*
X132767566Y-108954000D01*
X132900098Y-108980362D01*
G37*
G36*
X112023241Y-103504760D02*
G01*
X112287305Y-103614139D01*
X112524958Y-103772934D01*
X112727066Y-103975042D01*
X112885861Y-104212695D01*
X112995240Y-104476759D01*
X113051000Y-104757088D01*
X113051000Y-105042912D01*
X112995240Y-105323241D01*
X112885861Y-105587305D01*
X112727066Y-105824958D01*
X112524958Y-106027066D01*
X112287305Y-106185861D01*
X112023241Y-106295240D01*
X111742912Y-106351000D01*
X111457088Y-106351000D01*
X111176759Y-106295240D01*
X110912695Y-106185861D01*
X110675042Y-106027066D01*
X110472934Y-105824958D01*
X110314139Y-105587305D01*
X110204760Y-105323241D01*
X110149000Y-105042912D01*
X110149000Y-104757088D01*
X110204760Y-104476759D01*
X110314139Y-104212695D01*
X110472934Y-103975042D01*
X110675042Y-103772934D01*
X110912695Y-103614139D01*
X111176759Y-103504760D01*
X111457088Y-103449000D01*
X111742912Y-103449000D01*
X112023241Y-103504760D01*
G37*
G36*
X104623241Y-103504760D02*
G01*
X104887305Y-103614139D01*
X105124958Y-103772934D01*
X105327066Y-103975042D01*
X105485861Y-104212695D01*
X105595240Y-104476759D01*
X105651000Y-104757088D01*
X105651000Y-105042912D01*
X105595240Y-105323241D01*
X105485861Y-105587305D01*
X105327066Y-105824958D01*
X105124958Y-106027066D01*
X104887305Y-106185861D01*
X104623241Y-106295240D01*
X104342912Y-106351000D01*
X104057088Y-106351000D01*
X103776759Y-106295240D01*
X103512695Y-106185861D01*
X103275042Y-106027066D01*
X103072934Y-105824958D01*
X102914139Y-105587305D01*
X102804760Y-105323241D01*
X102749000Y-105042912D01*
X102749000Y-104757088D01*
X102804760Y-104476759D01*
X102914139Y-104212695D01*
X103072934Y-103975042D01*
X103275042Y-103772934D01*
X103512695Y-103614139D01*
X103776759Y-103504760D01*
X104057088Y-103449000D01*
X104342912Y-103449000D01*
X104623241Y-103504760D01*
G37*
G36*
X146523241Y-101004760D02*
G01*
X146787305Y-101114139D01*
X147024958Y-101272934D01*
X147227066Y-101475042D01*
X147385861Y-101712695D01*
X147495240Y-101976759D01*
X147551000Y-102257088D01*
X147551000Y-102542912D01*
X147495240Y-102823241D01*
X147385861Y-103087305D01*
X147227066Y-103324958D01*
X147024958Y-103527066D01*
X146787305Y-103685861D01*
X146523241Y-103795240D01*
X146242912Y-103851000D01*
X145957088Y-103851000D01*
X145676759Y-103795240D01*
X145412695Y-103685861D01*
X145175042Y-103527066D01*
X144972934Y-103324958D01*
X144814139Y-103087305D01*
X144704760Y-102823241D01*
X144649000Y-102542912D01*
X144649000Y-102257088D01*
X144704760Y-101976759D01*
X144814139Y-101712695D01*
X144972934Y-101475042D01*
X145175042Y-101272934D01*
X145412695Y-101114139D01*
X145676759Y-101004760D01*
X145957088Y-100949000D01*
X146242912Y-100949000D01*
X146523241Y-101004760D01*
G37*
G36*
X151623241Y-101004760D02*
G01*
X151887305Y-101114139D01*
X152124958Y-101272934D01*
X152327066Y-101475042D01*
X152485861Y-101712695D01*
X152595240Y-101976759D01*
X152651000Y-102257088D01*
X152651000Y-102542912D01*
X152595240Y-102823241D01*
X152485861Y-103087305D01*
X152327066Y-103324958D01*
X152124958Y-103527066D01*
X151887305Y-103685861D01*
X151623241Y-103795240D01*
X151342912Y-103851000D01*
X151057088Y-103851000D01*
X150776759Y-103795240D01*
X150512695Y-103685861D01*
X150275042Y-103527066D01*
X150072934Y-103324958D01*
X149914139Y-103087305D01*
X149804760Y-102823241D01*
X149749000Y-102542912D01*
X149749000Y-102257088D01*
X149804760Y-101976759D01*
X149914139Y-101712695D01*
X150072934Y-101475042D01*
X150275042Y-101272934D01*
X150512695Y-101114139D01*
X150776759Y-101004760D01*
X151057088Y-100949000D01*
X151342912Y-100949000D01*
X151623241Y-101004760D01*
G37*
G36*
X121623241Y-99204760D02*
G01*
X121887305Y-99314139D01*
X122124958Y-99472934D01*
X122327066Y-99675042D01*
X122485861Y-99912695D01*
X122595240Y-100176759D01*
X122651000Y-100457088D01*
X122651000Y-100742912D01*
X122595240Y-101023241D01*
X122485861Y-101287305D01*
X122327066Y-101524958D01*
X122124958Y-101727066D01*
X121887305Y-101885861D01*
X121623241Y-101995240D01*
X121342912Y-102051000D01*
X121057088Y-102051000D01*
X120776759Y-101995240D01*
X120512695Y-101885861D01*
X120275042Y-101727066D01*
X120072934Y-101524958D01*
X119914139Y-101287305D01*
X119804760Y-101023241D01*
X119749000Y-100742912D01*
X119749000Y-100457088D01*
X119804760Y-100176759D01*
X119914139Y-99912695D01*
X120072934Y-99675042D01*
X120275042Y-99472934D01*
X120512695Y-99314139D01*
X120776759Y-99204760D01*
X121057088Y-99149000D01*
X121342912Y-99149000D01*
X121623241Y-99204760D01*
G37*
G36*
X113356100Y-101954600D02*
G01*
X107843900Y-101954600D01*
X107843900Y-101293800D01*
X113356100Y-101293800D01*
X113356100Y-101954600D01*
G37*
G36*
X104056100Y-101854600D02*
G01*
X98543900Y-101854600D01*
X98543900Y-101193800D01*
X104056100Y-101193800D01*
X104056100Y-101854600D01*
G37*
G36*
X106208015Y-99266973D02*
G01*
X106311879Y-99298479D01*
X106339055Y-99313005D01*
X106407600Y-99349643D01*
X106491501Y-99418499D01*
X106560357Y-99502400D01*
X106596995Y-99570945D01*
X106611521Y-99598121D01*
X106643027Y-99701985D01*
X106653666Y-99810000D01*
X106643027Y-99918015D01*
X106611521Y-100021879D01*
X106611519Y-100021882D01*
X106560357Y-100117600D01*
X106491501Y-100201501D01*
X106407600Y-100270357D01*
X106339055Y-100306995D01*
X106311879Y-100321521D01*
X106208015Y-100353027D01*
X106127067Y-100361000D01*
X105272933Y-100361000D01*
X105191985Y-100353027D01*
X105088121Y-100321521D01*
X105060945Y-100306995D01*
X104992400Y-100270357D01*
X104908499Y-100201501D01*
X104839643Y-100117600D01*
X104788481Y-100021882D01*
X104788479Y-100021879D01*
X104756973Y-99918015D01*
X104746334Y-99810000D01*
X104756973Y-99701985D01*
X104788479Y-99598121D01*
X104803005Y-99570945D01*
X104839643Y-99502400D01*
X104908499Y-99418499D01*
X104992400Y-99349643D01*
X105060945Y-99313005D01*
X105088121Y-99298479D01*
X105191985Y-99266973D01*
X105272933Y-99259000D01*
X106127067Y-99259000D01*
X106208015Y-99266973D01*
G37*
G36*
X115508015Y-99266973D02*
G01*
X115611879Y-99298479D01*
X115639055Y-99313005D01*
X115707600Y-99349643D01*
X115791501Y-99418499D01*
X115860357Y-99502400D01*
X115896995Y-99570945D01*
X115911521Y-99598121D01*
X115943027Y-99701985D01*
X115953666Y-99810000D01*
X115943027Y-99918015D01*
X115911521Y-100021879D01*
X115911519Y-100021882D01*
X115860357Y-100117600D01*
X115791501Y-100201501D01*
X115707600Y-100270357D01*
X115639055Y-100306995D01*
X115611879Y-100321521D01*
X115508015Y-100353027D01*
X115427067Y-100361000D01*
X114572933Y-100361000D01*
X114491985Y-100353027D01*
X114388121Y-100321521D01*
X114360945Y-100306995D01*
X114292400Y-100270357D01*
X114208499Y-100201501D01*
X114139643Y-100117600D01*
X114088481Y-100021882D01*
X114088479Y-100021879D01*
X114056973Y-99918015D01*
X114046334Y-99810000D01*
X114056973Y-99701985D01*
X114088479Y-99598121D01*
X114103005Y-99570945D01*
X114139643Y-99502400D01*
X114208499Y-99418499D01*
X114292400Y-99349643D01*
X114360945Y-99313005D01*
X114388121Y-99298479D01*
X114491985Y-99266973D01*
X114572933Y-99259000D01*
X115427067Y-99259000D01*
X115508015Y-99266973D01*
G37*
G36*
X106208015Y-96726973D02*
G01*
X106311879Y-96758479D01*
X106339055Y-96773005D01*
X106407600Y-96809643D01*
X106491501Y-96878499D01*
X106560357Y-96962400D01*
X106596995Y-97030945D01*
X106611521Y-97058121D01*
X106643027Y-97161985D01*
X106653666Y-97270000D01*
X106643027Y-97378015D01*
X106611521Y-97481879D01*
X106611519Y-97481882D01*
X106560357Y-97577600D01*
X106491501Y-97661501D01*
X106407600Y-97730357D01*
X106339055Y-97766995D01*
X106311879Y-97781521D01*
X106208015Y-97813027D01*
X106127067Y-97821000D01*
X105272933Y-97821000D01*
X105191985Y-97813027D01*
X105088121Y-97781521D01*
X105060945Y-97766995D01*
X104992400Y-97730357D01*
X104908499Y-97661501D01*
X104839643Y-97577600D01*
X104788481Y-97481882D01*
X104788479Y-97481879D01*
X104756973Y-97378015D01*
X104746334Y-97270000D01*
X104756973Y-97161985D01*
X104788479Y-97058121D01*
X104803005Y-97030945D01*
X104839643Y-96962400D01*
X104908499Y-96878499D01*
X104992400Y-96809643D01*
X105060945Y-96773005D01*
X105088121Y-96758479D01*
X105191985Y-96726973D01*
X105272933Y-96719000D01*
X106127067Y-96719000D01*
X106208015Y-96726973D01*
G37*
G36*
X115508015Y-96726973D02*
G01*
X115611879Y-96758479D01*
X115639055Y-96773005D01*
X115707600Y-96809643D01*
X115791501Y-96878499D01*
X115860357Y-96962400D01*
X115896995Y-97030945D01*
X115911521Y-97058121D01*
X115943027Y-97161985D01*
X115953666Y-97270000D01*
X115943027Y-97378015D01*
X115911521Y-97481879D01*
X115911519Y-97481882D01*
X115860357Y-97577600D01*
X115791501Y-97661501D01*
X115707600Y-97730357D01*
X115639055Y-97766995D01*
X115611879Y-97781521D01*
X115508015Y-97813027D01*
X115427067Y-97821000D01*
X114572933Y-97821000D01*
X114491985Y-97813027D01*
X114388121Y-97781521D01*
X114360945Y-97766995D01*
X114292400Y-97730357D01*
X114208499Y-97661501D01*
X114139643Y-97577600D01*
X114088481Y-97481882D01*
X114088479Y-97481879D01*
X114056973Y-97378015D01*
X114046334Y-97270000D01*
X114056973Y-97161985D01*
X114088479Y-97058121D01*
X114103005Y-97030945D01*
X114139643Y-96962400D01*
X114208499Y-96878499D01*
X114292400Y-96809643D01*
X114360945Y-96773005D01*
X114388121Y-96758479D01*
X114491985Y-96726973D01*
X114572933Y-96719000D01*
X115427067Y-96719000D01*
X115508015Y-96726973D01*
G37*
G36*
X113356100Y-95706200D02*
G01*
X107843900Y-95706200D01*
X107843900Y-95045400D01*
X113356100Y-95045400D01*
X113356100Y-95706200D01*
G37*
G36*
X104056100Y-95606200D02*
G01*
X98543900Y-95606200D01*
X98543900Y-94945400D01*
X104056100Y-94945400D01*
X104056100Y-95606200D01*
G37*
G36*
X115508015Y-94186973D02*
G01*
X115611879Y-94218479D01*
X115639055Y-94233005D01*
X115707600Y-94269643D01*
X115791501Y-94338499D01*
X115860357Y-94422400D01*
X115896995Y-94490945D01*
X115911521Y-94518121D01*
X115943027Y-94621985D01*
X115953666Y-94730000D01*
X115943027Y-94838015D01*
X115911521Y-94941879D01*
X115911519Y-94941882D01*
X115860357Y-95037600D01*
X115791501Y-95121501D01*
X115707600Y-95190357D01*
X115639055Y-95226995D01*
X115611879Y-95241521D01*
X115508015Y-95273027D01*
X115427067Y-95281000D01*
X114572933Y-95281000D01*
X114491985Y-95273027D01*
X114388121Y-95241521D01*
X114360945Y-95226995D01*
X114292400Y-95190357D01*
X114208499Y-95121501D01*
X114139643Y-95037600D01*
X114088481Y-94941882D01*
X114088479Y-94941879D01*
X114056973Y-94838015D01*
X114046334Y-94730000D01*
X114056973Y-94621985D01*
X114088479Y-94518121D01*
X114103005Y-94490945D01*
X114139643Y-94422400D01*
X114208499Y-94338499D01*
X114292400Y-94269643D01*
X114360945Y-94233005D01*
X114388121Y-94218479D01*
X114491985Y-94186973D01*
X114572933Y-94179000D01*
X115427067Y-94179000D01*
X115508015Y-94186973D01*
G37*
G36*
X106208015Y-94186973D02*
G01*
X106311879Y-94218479D01*
X106339055Y-94233005D01*
X106407600Y-94269643D01*
X106491501Y-94338499D01*
X106560357Y-94422400D01*
X106596995Y-94490945D01*
X106611521Y-94518121D01*
X106643027Y-94621985D01*
X106653666Y-94730000D01*
X106643027Y-94838015D01*
X106611521Y-94941879D01*
X106611519Y-94941882D01*
X106560357Y-95037600D01*
X106491501Y-95121501D01*
X106407600Y-95190357D01*
X106339055Y-95226995D01*
X106311879Y-95241521D01*
X106208015Y-95273027D01*
X106127067Y-95281000D01*
X105272933Y-95281000D01*
X105191985Y-95273027D01*
X105088121Y-95241521D01*
X105060945Y-95226995D01*
X104992400Y-95190357D01*
X104908499Y-95121501D01*
X104839643Y-95037600D01*
X104788481Y-94941882D01*
X104788479Y-94941879D01*
X104756973Y-94838015D01*
X104746334Y-94730000D01*
X104756973Y-94621985D01*
X104788479Y-94518121D01*
X104803005Y-94490945D01*
X104839643Y-94422400D01*
X104908499Y-94338499D01*
X104992400Y-94269643D01*
X105060945Y-94233005D01*
X105088121Y-94218479D01*
X105191985Y-94186973D01*
X105272933Y-94179000D01*
X106127067Y-94179000D01*
X106208015Y-94186973D01*
G37*
G36*
X151623241Y-90804760D02*
G01*
X151887305Y-90914139D01*
X152124958Y-91072934D01*
X152327066Y-91275042D01*
X152485861Y-91512695D01*
X152595240Y-91776759D01*
X152651000Y-92057088D01*
X152651000Y-92342912D01*
X152595240Y-92623241D01*
X152485861Y-92887305D01*
X152327066Y-93124958D01*
X152124958Y-93327066D01*
X151887305Y-93485861D01*
X151623241Y-93595240D01*
X151342912Y-93651000D01*
X151057088Y-93651000D01*
X150776759Y-93595240D01*
X150512695Y-93485861D01*
X150275042Y-93327066D01*
X150072934Y-93124958D01*
X149914139Y-92887305D01*
X149804760Y-92623241D01*
X149749000Y-92342912D01*
X149749000Y-92057088D01*
X149804760Y-91776759D01*
X149914139Y-91512695D01*
X150072934Y-91275042D01*
X150275042Y-91072934D01*
X150512695Y-90914139D01*
X150776759Y-90804760D01*
X151057088Y-90749000D01*
X151342912Y-90749000D01*
X151623241Y-90804760D01*
G37*
G36*
X102609468Y-91453565D02*
G01*
X102648138Y-91465296D01*
X102683777Y-91484346D01*
X102715017Y-91509983D01*
X102740654Y-91541223D01*
X102759704Y-91576862D01*
X102771435Y-91615532D01*
X102776000Y-91661888D01*
X102776000Y-92738112D01*
X102771435Y-92784468D01*
X102759704Y-92823138D01*
X102740654Y-92858777D01*
X102715017Y-92890017D01*
X102683777Y-92915654D01*
X102648138Y-92934704D01*
X102609468Y-92946435D01*
X102563112Y-92951000D01*
X101911888Y-92951000D01*
X101865532Y-92946435D01*
X101826862Y-92934704D01*
X101791223Y-92915654D01*
X101759983Y-92890017D01*
X101734346Y-92858777D01*
X101715296Y-92823138D01*
X101703565Y-92784468D01*
X101699000Y-92738112D01*
X101699000Y-91661888D01*
X101703565Y-91615532D01*
X101715296Y-91576862D01*
X101734346Y-91541223D01*
X101759983Y-91509983D01*
X101791223Y-91484346D01*
X101826862Y-91465296D01*
X101865532Y-91453565D01*
X101911888Y-91449000D01*
X102563112Y-91449000D01*
X102609468Y-91453565D01*
G37*
G36*
X100734468Y-91453565D02*
G01*
X100773138Y-91465296D01*
X100808777Y-91484346D01*
X100840017Y-91509983D01*
X100865654Y-91541223D01*
X100884704Y-91576862D01*
X100896435Y-91615532D01*
X100901000Y-91661888D01*
X100901000Y-92738112D01*
X100896435Y-92784468D01*
X100884704Y-92823138D01*
X100865654Y-92858777D01*
X100840017Y-92890017D01*
X100808777Y-92915654D01*
X100773138Y-92934704D01*
X100734468Y-92946435D01*
X100688112Y-92951000D01*
X100036888Y-92951000D01*
X99990532Y-92946435D01*
X99951862Y-92934704D01*
X99916223Y-92915654D01*
X99884983Y-92890017D01*
X99859346Y-92858777D01*
X99840296Y-92823138D01*
X99828565Y-92784468D01*
X99824000Y-92738112D01*
X99824000Y-91661888D01*
X99828565Y-91615532D01*
X99840296Y-91576862D01*
X99859346Y-91541223D01*
X99884983Y-91509983D01*
X99916223Y-91484346D01*
X99951862Y-91465296D01*
X99990532Y-91453565D01*
X100036888Y-91449000D01*
X100688112Y-91449000D01*
X100734468Y-91453565D01*
G37*
G36*
X106208015Y-91646973D02*
G01*
X106311879Y-91678479D01*
X106339055Y-91693005D01*
X106407600Y-91729643D01*
X106491501Y-91798499D01*
X106560357Y-91882400D01*
X106596995Y-91950945D01*
X106611521Y-91978121D01*
X106643027Y-92081985D01*
X106653666Y-92190000D01*
X106643027Y-92298015D01*
X106611521Y-92401879D01*
X106611519Y-92401882D01*
X106560357Y-92497600D01*
X106491501Y-92581501D01*
X106407600Y-92650357D01*
X106348867Y-92681750D01*
X106311879Y-92701521D01*
X106208015Y-92733027D01*
X106127067Y-92741000D01*
X105272933Y-92741000D01*
X105191985Y-92733027D01*
X105088121Y-92701521D01*
X105051133Y-92681750D01*
X104992400Y-92650357D01*
X104908499Y-92581501D01*
X104839643Y-92497600D01*
X104788481Y-92401882D01*
X104788479Y-92401879D01*
X104756973Y-92298015D01*
X104746334Y-92190000D01*
X104756973Y-92081985D01*
X104788479Y-91978121D01*
X104803005Y-91950945D01*
X104839643Y-91882400D01*
X104908499Y-91798499D01*
X104992400Y-91729643D01*
X105060945Y-91693005D01*
X105088121Y-91678479D01*
X105191985Y-91646973D01*
X105272933Y-91639000D01*
X106127067Y-91639000D01*
X106208015Y-91646973D01*
G37*
G36*
X115508015Y-91646973D02*
G01*
X115611879Y-91678479D01*
X115639055Y-91693005D01*
X115707600Y-91729643D01*
X115791501Y-91798499D01*
X115860357Y-91882400D01*
X115896995Y-91950945D01*
X115911521Y-91978121D01*
X115943027Y-92081985D01*
X115953666Y-92190000D01*
X115943027Y-92298015D01*
X115911521Y-92401879D01*
X115911519Y-92401882D01*
X115860357Y-92497600D01*
X115791501Y-92581501D01*
X115707600Y-92650357D01*
X115648867Y-92681750D01*
X115611879Y-92701521D01*
X115508015Y-92733027D01*
X115427067Y-92741000D01*
X114572933Y-92741000D01*
X114491985Y-92733027D01*
X114388121Y-92701521D01*
X114351133Y-92681750D01*
X114292400Y-92650357D01*
X114208499Y-92581501D01*
X114139643Y-92497600D01*
X114088481Y-92401882D01*
X114088479Y-92401879D01*
X114056973Y-92298015D01*
X114046334Y-92190000D01*
X114056973Y-92081985D01*
X114088479Y-91978121D01*
X114103005Y-91950945D01*
X114139643Y-91882400D01*
X114208499Y-91798499D01*
X114292400Y-91729643D01*
X114360945Y-91693005D01*
X114388121Y-91678479D01*
X114491985Y-91646973D01*
X114572933Y-91639000D01*
X115427067Y-91639000D01*
X115508015Y-91646973D01*
G37*
G36*
X157215098Y-86240362D02*
G01*
X157339941Y-86292074D01*
X157339943Y-86292075D01*
X157452299Y-86367149D01*
X157547851Y-86462701D01*
X157622926Y-86575059D01*
X157674638Y-86699902D01*
X157701000Y-86832434D01*
X157701000Y-86967566D01*
X157674638Y-87100098D01*
X157622926Y-87224941D01*
X157622925Y-87224943D01*
X157547851Y-87337299D01*
X157452299Y-87432851D01*
X157339943Y-87507925D01*
X157339942Y-87507926D01*
X157339941Y-87507926D01*
X157215098Y-87559638D01*
X157082566Y-87586000D01*
X156947434Y-87586000D01*
X156814902Y-87559638D01*
X156690059Y-87507926D01*
X156690058Y-87507926D01*
X156690057Y-87507925D01*
X156577701Y-87432851D01*
X156482149Y-87337299D01*
X156407075Y-87224943D01*
X156407074Y-87224941D01*
X156355362Y-87100098D01*
X156329000Y-86967566D01*
X156329000Y-86832434D01*
X156355362Y-86699902D01*
X156407074Y-86575059D01*
X156482149Y-86462701D01*
X156577701Y-86367149D01*
X156690057Y-86292075D01*
X156690059Y-86292074D01*
X156814902Y-86240362D01*
X156947434Y-86214000D01*
X157082566Y-86214000D01*
X157215098Y-86240362D01*
G37*
G36*
X115323241Y-82104760D02*
G01*
X115587305Y-82214139D01*
X115824958Y-82372934D01*
X116027066Y-82575042D01*
X116185861Y-82812695D01*
X116295240Y-83076759D01*
X116351000Y-83357088D01*
X116351000Y-83642912D01*
X116295240Y-83923241D01*
X116185861Y-84187305D01*
X116027066Y-84424958D01*
X115824958Y-84627066D01*
X115587305Y-84785861D01*
X115323241Y-84895240D01*
X115042912Y-84951000D01*
X114757088Y-84951000D01*
X114476759Y-84895240D01*
X114212695Y-84785861D01*
X113975042Y-84627066D01*
X113772934Y-84424958D01*
X113614139Y-84187305D01*
X113504760Y-83923241D01*
X113449000Y-83642912D01*
X113449000Y-83357088D01*
X113504760Y-83076759D01*
X113614139Y-82812695D01*
X113772934Y-82575042D01*
X113975042Y-82372934D01*
X114212695Y-82214139D01*
X114476759Y-82104760D01*
X114757088Y-82049000D01*
X115042912Y-82049000D01*
X115323241Y-82104760D01*
G37*
G36*
X110623241Y-82104760D02*
G01*
X110887305Y-82214139D01*
X111124958Y-82372934D01*
X111327066Y-82575042D01*
X111485861Y-82812695D01*
X111595240Y-83076759D01*
X111651000Y-83357088D01*
X111651000Y-83642912D01*
X111595240Y-83923241D01*
X111485861Y-84187305D01*
X111327066Y-84424958D01*
X111124958Y-84627066D01*
X110887305Y-84785861D01*
X110623241Y-84895240D01*
X110342912Y-84951000D01*
X110057088Y-84951000D01*
X109776759Y-84895240D01*
X109512695Y-84785861D01*
X109275042Y-84627066D01*
X109072934Y-84424958D01*
X108914139Y-84187305D01*
X108804760Y-83923241D01*
X108749000Y-83642912D01*
X108749000Y-83357088D01*
X108804760Y-83076759D01*
X108914139Y-82812695D01*
X109072934Y-82575042D01*
X109275042Y-82372934D01*
X109512695Y-82214139D01*
X109776759Y-82104760D01*
X110057088Y-82049000D01*
X110342912Y-82049000D01*
X110623241Y-82104760D01*
G37*
G36*
X159088512Y-83003927D02*
G01*
X159237812Y-83033624D01*
X159401784Y-83101544D01*
X159549354Y-83200147D01*
X159674853Y-83325646D01*
X159773456Y-83473216D01*
X159841376Y-83637188D01*
X159876000Y-83811259D01*
X159876000Y-83988741D01*
X159841376Y-84162812D01*
X159773456Y-84326784D01*
X159674853Y-84474354D01*
X159549354Y-84599853D01*
X159401784Y-84698456D01*
X159237812Y-84766376D01*
X159088512Y-84796073D01*
X159063742Y-84801000D01*
X158886258Y-84801000D01*
X158861488Y-84796073D01*
X158712188Y-84766376D01*
X158548216Y-84698456D01*
X158400646Y-84599853D01*
X158275147Y-84474354D01*
X158176544Y-84326784D01*
X158108624Y-84162812D01*
X158074000Y-83988741D01*
X158074000Y-83811259D01*
X158108624Y-83637188D01*
X158176544Y-83473216D01*
X158275147Y-83325646D01*
X158400646Y-83200147D01*
X158548216Y-83101544D01*
X158712188Y-83033624D01*
X158861488Y-83003927D01*
X158886258Y-82999000D01*
X159063742Y-82999000D01*
X159088512Y-83003927D01*
G37*
G36*
X148784468Y-83603565D02*
G01*
X148823138Y-83615296D01*
X148858777Y-83634346D01*
X148890017Y-83659983D01*
X148915654Y-83691223D01*
X148934704Y-83726862D01*
X148946435Y-83765532D01*
X148951000Y-83811888D01*
X148951000Y-84463112D01*
X148946435Y-84509468D01*
X148934704Y-84548138D01*
X148915654Y-84583777D01*
X148890017Y-84615017D01*
X148858777Y-84640654D01*
X148823138Y-84659704D01*
X148784468Y-84671435D01*
X148738112Y-84676000D01*
X147661888Y-84676000D01*
X147615532Y-84671435D01*
X147576862Y-84659704D01*
X147541223Y-84640654D01*
X147509983Y-84615017D01*
X147484346Y-84583777D01*
X147465296Y-84548138D01*
X147453565Y-84509468D01*
X147449000Y-84463112D01*
X147449000Y-83811888D01*
X147453565Y-83765532D01*
X147465296Y-83726862D01*
X147484346Y-83691223D01*
X147509983Y-83659983D01*
X147541223Y-83634346D01*
X147576862Y-83615296D01*
X147615532Y-83603565D01*
X147661888Y-83599000D01*
X148738112Y-83599000D01*
X148784468Y-83603565D01*
G37*
G36*
X103609468Y-81353565D02*
G01*
X103648138Y-81365296D01*
X103683777Y-81384346D01*
X103715017Y-81409983D01*
X103740654Y-81441223D01*
X103759704Y-81476862D01*
X103771435Y-81515532D01*
X103776000Y-81561888D01*
X103776000Y-82638112D01*
X103771435Y-82684468D01*
X103759704Y-82723138D01*
X103740654Y-82758777D01*
X103715017Y-82790017D01*
X103683777Y-82815654D01*
X103648138Y-82834704D01*
X103609468Y-82846435D01*
X103563112Y-82851000D01*
X102911888Y-82851000D01*
X102865532Y-82846435D01*
X102826862Y-82834704D01*
X102791223Y-82815654D01*
X102759983Y-82790017D01*
X102734346Y-82758777D01*
X102715296Y-82723138D01*
X102703565Y-82684468D01*
X102699000Y-82638112D01*
X102699000Y-81561888D01*
X102703565Y-81515532D01*
X102715296Y-81476862D01*
X102734346Y-81441223D01*
X102759983Y-81409983D01*
X102791223Y-81384346D01*
X102826862Y-81365296D01*
X102865532Y-81353565D01*
X102911888Y-81349000D01*
X103563112Y-81349000D01*
X103609468Y-81353565D01*
G37*
G36*
X101734468Y-81353565D02*
G01*
X101773138Y-81365296D01*
X101808777Y-81384346D01*
X101840017Y-81409983D01*
X101865654Y-81441223D01*
X101884704Y-81476862D01*
X101896435Y-81515532D01*
X101901000Y-81561888D01*
X101901000Y-82638112D01*
X101896435Y-82684468D01*
X101884704Y-82723138D01*
X101865654Y-82758777D01*
X101840017Y-82790017D01*
X101808777Y-82815654D01*
X101773138Y-82834704D01*
X101734468Y-82846435D01*
X101688112Y-82851000D01*
X101036888Y-82851000D01*
X100990532Y-82846435D01*
X100951862Y-82834704D01*
X100916223Y-82815654D01*
X100884983Y-82790017D01*
X100859346Y-82758777D01*
X100840296Y-82723138D01*
X100828565Y-82684468D01*
X100824000Y-82638112D01*
X100824000Y-81561888D01*
X100828565Y-81515532D01*
X100840296Y-81476862D01*
X100859346Y-81441223D01*
X100884983Y-81409983D01*
X100916223Y-81384346D01*
X100951862Y-81365296D01*
X100990532Y-81353565D01*
X101036888Y-81349000D01*
X101688112Y-81349000D01*
X101734468Y-81353565D01*
G37*
G36*
X148784468Y-81728565D02*
G01*
X148823138Y-81740296D01*
X148858777Y-81759346D01*
X148890017Y-81784983D01*
X148915654Y-81816223D01*
X148934704Y-81851862D01*
X148946435Y-81890532D01*
X148951000Y-81936888D01*
X148951000Y-82588112D01*
X148946435Y-82634468D01*
X148934704Y-82673138D01*
X148915654Y-82708777D01*
X148890017Y-82740017D01*
X148858777Y-82765654D01*
X148823138Y-82784704D01*
X148784468Y-82796435D01*
X148738112Y-82801000D01*
X147661888Y-82801000D01*
X147615532Y-82796435D01*
X147576862Y-82784704D01*
X147541223Y-82765654D01*
X147509983Y-82740017D01*
X147484346Y-82708777D01*
X147465296Y-82673138D01*
X147453565Y-82634468D01*
X147449000Y-82588112D01*
X147449000Y-81936888D01*
X147453565Y-81890532D01*
X147465296Y-81851862D01*
X147484346Y-81816223D01*
X147509983Y-81784983D01*
X147541223Y-81759346D01*
X147576862Y-81740296D01*
X147615532Y-81728565D01*
X147661888Y-81724000D01*
X148738112Y-81724000D01*
X148784468Y-81728565D01*
G37*
G36*
X124684468Y-81703565D02*
G01*
X124723138Y-81715296D01*
X124758777Y-81734346D01*
X124790017Y-81759983D01*
X124815654Y-81791223D01*
X124834704Y-81826862D01*
X124846435Y-81865532D01*
X124851000Y-81911888D01*
X124851000Y-82563112D01*
X124846435Y-82609468D01*
X124834704Y-82648138D01*
X124815654Y-82683777D01*
X124790017Y-82715017D01*
X124758777Y-82740654D01*
X124723138Y-82759704D01*
X124684468Y-82771435D01*
X124638112Y-82776000D01*
X123561888Y-82776000D01*
X123515532Y-82771435D01*
X123476862Y-82759704D01*
X123441223Y-82740654D01*
X123409983Y-82715017D01*
X123384346Y-82683777D01*
X123365296Y-82648138D01*
X123353565Y-82609468D01*
X123349000Y-82563112D01*
X123349000Y-81911888D01*
X123353565Y-81865532D01*
X123365296Y-81826862D01*
X123384346Y-81791223D01*
X123409983Y-81759983D01*
X123441223Y-81734346D01*
X123476862Y-81715296D01*
X123515532Y-81703565D01*
X123561888Y-81699000D01*
X124638112Y-81699000D01*
X124684468Y-81703565D01*
G37*
G36*
X127984468Y-81703565D02*
G01*
X128023138Y-81715296D01*
X128058777Y-81734346D01*
X128090017Y-81759983D01*
X128115654Y-81791223D01*
X128134704Y-81826862D01*
X128146435Y-81865532D01*
X128151000Y-81911888D01*
X128151000Y-82563112D01*
X128146435Y-82609468D01*
X128134704Y-82648138D01*
X128115654Y-82683777D01*
X128090017Y-82715017D01*
X128058777Y-82740654D01*
X128023138Y-82759704D01*
X127984468Y-82771435D01*
X127938112Y-82776000D01*
X126861888Y-82776000D01*
X126815532Y-82771435D01*
X126776862Y-82759704D01*
X126741223Y-82740654D01*
X126709983Y-82715017D01*
X126684346Y-82683777D01*
X126665296Y-82648138D01*
X126653565Y-82609468D01*
X126649000Y-82563112D01*
X126649000Y-81911888D01*
X126653565Y-81865532D01*
X126665296Y-81826862D01*
X126684346Y-81791223D01*
X126709983Y-81759983D01*
X126741223Y-81734346D01*
X126776862Y-81715296D01*
X126815532Y-81703565D01*
X126861888Y-81699000D01*
X127938112Y-81699000D01*
X127984468Y-81703565D01*
G37*
G36*
X132534468Y-80553565D02*
G01*
X132573138Y-80565296D01*
X132608777Y-80584346D01*
X132640017Y-80609983D01*
X132665654Y-80641223D01*
X132684704Y-80676862D01*
X132696435Y-80715532D01*
X132701000Y-80761888D01*
X132701000Y-81838112D01*
X132696435Y-81884468D01*
X132684704Y-81923138D01*
X132665654Y-81958777D01*
X132640017Y-81990017D01*
X132608777Y-82015654D01*
X132573138Y-82034704D01*
X132534468Y-82046435D01*
X132488112Y-82051000D01*
X131836888Y-82051000D01*
X131790532Y-82046435D01*
X131751862Y-82034704D01*
X131716223Y-82015654D01*
X131684983Y-81990017D01*
X131659346Y-81958777D01*
X131640296Y-81923138D01*
X131628565Y-81884468D01*
X131624000Y-81838112D01*
X131624000Y-80761888D01*
X131628565Y-80715532D01*
X131640296Y-80676862D01*
X131659346Y-80641223D01*
X131684983Y-80609983D01*
X131716223Y-80584346D01*
X131751862Y-80565296D01*
X131790532Y-80553565D01*
X131836888Y-80549000D01*
X132488112Y-80549000D01*
X132534468Y-80553565D01*
G37*
G36*
X134409468Y-80553565D02*
G01*
X134448138Y-80565296D01*
X134483777Y-80584346D01*
X134515017Y-80609983D01*
X134540654Y-80641223D01*
X134559704Y-80676862D01*
X134571435Y-80715532D01*
X134576000Y-80761888D01*
X134576000Y-81838112D01*
X134571435Y-81884468D01*
X134559704Y-81923138D01*
X134540654Y-81958777D01*
X134515017Y-81990017D01*
X134483777Y-82015654D01*
X134448138Y-82034704D01*
X134409468Y-82046435D01*
X134363112Y-82051000D01*
X133711888Y-82051000D01*
X133665532Y-82046435D01*
X133626862Y-82034704D01*
X133591223Y-82015654D01*
X133559983Y-81990017D01*
X133534346Y-81958777D01*
X133515296Y-81923138D01*
X133503565Y-81884468D01*
X133499000Y-81838112D01*
X133499000Y-80761888D01*
X133503565Y-80715532D01*
X133515296Y-80676862D01*
X133534346Y-80641223D01*
X133559983Y-80609983D01*
X133591223Y-80584346D01*
X133626862Y-80565296D01*
X133665532Y-80553565D01*
X133711888Y-80549000D01*
X134363112Y-80549000D01*
X134409468Y-80553565D01*
G37*
G36*
X159088512Y-80003927D02*
G01*
X159237812Y-80033624D01*
X159401784Y-80101544D01*
X159549354Y-80200147D01*
X159674853Y-80325646D01*
X159773456Y-80473216D01*
X159841376Y-80637188D01*
X159876000Y-80811259D01*
X159876000Y-80988741D01*
X159841376Y-81162812D01*
X159773456Y-81326784D01*
X159674853Y-81474354D01*
X159549354Y-81599853D01*
X159401784Y-81698456D01*
X159237812Y-81766376D01*
X159088512Y-81796073D01*
X159063742Y-81801000D01*
X158886258Y-81801000D01*
X158861488Y-81796073D01*
X158712188Y-81766376D01*
X158548216Y-81698456D01*
X158400646Y-81599853D01*
X158275147Y-81474354D01*
X158176544Y-81326784D01*
X158108624Y-81162812D01*
X158074000Y-80988741D01*
X158074000Y-80811259D01*
X158108624Y-80637188D01*
X158176544Y-80473216D01*
X158275147Y-80325646D01*
X158400646Y-80200147D01*
X158548216Y-80101544D01*
X158712188Y-80033624D01*
X158861488Y-80003927D01*
X158886258Y-79999000D01*
X159063742Y-79999000D01*
X159088512Y-80003927D01*
G37*
G36*
X127984468Y-79828565D02*
G01*
X128023138Y-79840296D01*
X128058777Y-79859346D01*
X128090017Y-79884983D01*
X128115654Y-79916223D01*
X128134704Y-79951862D01*
X128146435Y-79990532D01*
X128151000Y-80036888D01*
X128151000Y-80688112D01*
X128146435Y-80734468D01*
X128134704Y-80773138D01*
X128115654Y-80808777D01*
X128090017Y-80840017D01*
X128058777Y-80865654D01*
X128023138Y-80884704D01*
X127984468Y-80896435D01*
X127938112Y-80901000D01*
X126861888Y-80901000D01*
X126815532Y-80896435D01*
X126776862Y-80884704D01*
X126741223Y-80865654D01*
X126709983Y-80840017D01*
X126684346Y-80808777D01*
X126665296Y-80773138D01*
X126653565Y-80734468D01*
X126649000Y-80688112D01*
X126649000Y-80036888D01*
X126653565Y-79990532D01*
X126665296Y-79951862D01*
X126684346Y-79916223D01*
X126709983Y-79884983D01*
X126741223Y-79859346D01*
X126776862Y-79840296D01*
X126815532Y-79828565D01*
X126861888Y-79824000D01*
X127938112Y-79824000D01*
X127984468Y-79828565D01*
G37*
G36*
X124684468Y-79828565D02*
G01*
X124723138Y-79840296D01*
X124758777Y-79859346D01*
X124790017Y-79884983D01*
X124815654Y-79916223D01*
X124834704Y-79951862D01*
X124846435Y-79990532D01*
X124851000Y-80036888D01*
X124851000Y-80688112D01*
X124846435Y-80734468D01*
X124834704Y-80773138D01*
X124815654Y-80808777D01*
X124790017Y-80840017D01*
X124758777Y-80865654D01*
X124723138Y-80884704D01*
X124684468Y-80896435D01*
X124638112Y-80901000D01*
X123561888Y-80901000D01*
X123515532Y-80896435D01*
X123476862Y-80884704D01*
X123441223Y-80865654D01*
X123409983Y-80840017D01*
X123384346Y-80808777D01*
X123365296Y-80773138D01*
X123353565Y-80734468D01*
X123349000Y-80688112D01*
X123349000Y-80036888D01*
X123353565Y-79990532D01*
X123365296Y-79951862D01*
X123384346Y-79916223D01*
X123409983Y-79884983D01*
X123441223Y-79859346D01*
X123476862Y-79840296D01*
X123515532Y-79828565D01*
X123561888Y-79824000D01*
X124638112Y-79824000D01*
X124684468Y-79828565D01*
G37*
G36*
X147509468Y-78253565D02*
G01*
X147548138Y-78265296D01*
X147583777Y-78284346D01*
X147615017Y-78309983D01*
X147640654Y-78341223D01*
X147659704Y-78376862D01*
X147671435Y-78415532D01*
X147676000Y-78461888D01*
X147676000Y-79538112D01*
X147671435Y-79584468D01*
X147659704Y-79623138D01*
X147640654Y-79658777D01*
X147615017Y-79690017D01*
X147583777Y-79715654D01*
X147548138Y-79734704D01*
X147509468Y-79746435D01*
X147463112Y-79751000D01*
X146811888Y-79751000D01*
X146765532Y-79746435D01*
X146726862Y-79734704D01*
X146691223Y-79715654D01*
X146659983Y-79690017D01*
X146634346Y-79658777D01*
X146615296Y-79623138D01*
X146603565Y-79584468D01*
X146599000Y-79538112D01*
X146599000Y-78461888D01*
X146603565Y-78415532D01*
X146615296Y-78376862D01*
X146634346Y-78341223D01*
X146659983Y-78309983D01*
X146691223Y-78284346D01*
X146726862Y-78265296D01*
X146765532Y-78253565D01*
X146811888Y-78249000D01*
X147463112Y-78249000D01*
X147509468Y-78253565D01*
G37*
G36*
X145634468Y-78253565D02*
G01*
X145673138Y-78265296D01*
X145708777Y-78284346D01*
X145740017Y-78309983D01*
X145765654Y-78341223D01*
X145784704Y-78376862D01*
X145796435Y-78415532D01*
X145801000Y-78461888D01*
X145801000Y-79538112D01*
X145796435Y-79584468D01*
X145784704Y-79623138D01*
X145765654Y-79658777D01*
X145740017Y-79690017D01*
X145708777Y-79715654D01*
X145673138Y-79734704D01*
X145634468Y-79746435D01*
X145588112Y-79751000D01*
X144936888Y-79751000D01*
X144890532Y-79746435D01*
X144851862Y-79734704D01*
X144816223Y-79715654D01*
X144784983Y-79690017D01*
X144759346Y-79658777D01*
X144740296Y-79623138D01*
X144728565Y-79584468D01*
X144724000Y-79538112D01*
X144724000Y-78461888D01*
X144728565Y-78415532D01*
X144740296Y-78376862D01*
X144759346Y-78341223D01*
X144784983Y-78309983D01*
X144816223Y-78284346D01*
X144851862Y-78265296D01*
X144890532Y-78253565D01*
X144936888Y-78249000D01*
X145588112Y-78249000D01*
X145634468Y-78253565D01*
G37*
G36*
X150671968Y-78253565D02*
G01*
X150710638Y-78265296D01*
X150746277Y-78284346D01*
X150777517Y-78309983D01*
X150803154Y-78341223D01*
X150822204Y-78376862D01*
X150833935Y-78415532D01*
X150838500Y-78461888D01*
X150838500Y-79538112D01*
X150833935Y-79584468D01*
X150822204Y-79623138D01*
X150803154Y-79658777D01*
X150777517Y-79690017D01*
X150746277Y-79715654D01*
X150710638Y-79734704D01*
X150671968Y-79746435D01*
X150625612Y-79751000D01*
X149974388Y-79751000D01*
X149928032Y-79746435D01*
X149889362Y-79734704D01*
X149853723Y-79715654D01*
X149822483Y-79690017D01*
X149796846Y-79658777D01*
X149777796Y-79623138D01*
X149766065Y-79584468D01*
X149761500Y-79538112D01*
X149761500Y-78461888D01*
X149766065Y-78415532D01*
X149777796Y-78376862D01*
X149796846Y-78341223D01*
X149822483Y-78309983D01*
X149853723Y-78284346D01*
X149889362Y-78265296D01*
X149928032Y-78253565D01*
X149974388Y-78249000D01*
X150625612Y-78249000D01*
X150671968Y-78253565D01*
G37*
G36*
X152546968Y-78253565D02*
G01*
X152585638Y-78265296D01*
X152621277Y-78284346D01*
X152652517Y-78309983D01*
X152678154Y-78341223D01*
X152697204Y-78376862D01*
X152708935Y-78415532D01*
X152713500Y-78461888D01*
X152713500Y-79538112D01*
X152708935Y-79584468D01*
X152697204Y-79623138D01*
X152678154Y-79658777D01*
X152652517Y-79690017D01*
X152621277Y-79715654D01*
X152585638Y-79734704D01*
X152546968Y-79746435D01*
X152500612Y-79751000D01*
X151849388Y-79751000D01*
X151803032Y-79746435D01*
X151764362Y-79734704D01*
X151728723Y-79715654D01*
X151697483Y-79690017D01*
X151671846Y-79658777D01*
X151652796Y-79623138D01*
X151641065Y-79584468D01*
X151636500Y-79538112D01*
X151636500Y-78461888D01*
X151641065Y-78415532D01*
X151652796Y-78376862D01*
X151671846Y-78341223D01*
X151697483Y-78309983D01*
X151728723Y-78284346D01*
X151764362Y-78265296D01*
X151803032Y-78253565D01*
X151849388Y-78249000D01*
X152500612Y-78249000D01*
X152546968Y-78253565D01*
G37*
G36*
X134409468Y-77353565D02*
G01*
X134448138Y-77365296D01*
X134483777Y-77384346D01*
X134515017Y-77409983D01*
X134540654Y-77441223D01*
X134559704Y-77476862D01*
X134571435Y-77515532D01*
X134576000Y-77561888D01*
X134576000Y-78638112D01*
X134571435Y-78684468D01*
X134559704Y-78723138D01*
X134540654Y-78758777D01*
X134515017Y-78790017D01*
X134483777Y-78815654D01*
X134448138Y-78834704D01*
X134409468Y-78846435D01*
X134363112Y-78851000D01*
X133711888Y-78851000D01*
X133665532Y-78846435D01*
X133626862Y-78834704D01*
X133591223Y-78815654D01*
X133559983Y-78790017D01*
X133534346Y-78758777D01*
X133515296Y-78723138D01*
X133503565Y-78684468D01*
X133499000Y-78638112D01*
X133499000Y-77561888D01*
X133503565Y-77515532D01*
X133515296Y-77476862D01*
X133534346Y-77441223D01*
X133559983Y-77409983D01*
X133591223Y-77384346D01*
X133626862Y-77365296D01*
X133665532Y-77353565D01*
X133711888Y-77349000D01*
X134363112Y-77349000D01*
X134409468Y-77353565D01*
G37*
G36*
X132534468Y-77353565D02*
G01*
X132573138Y-77365296D01*
X132608777Y-77384346D01*
X132640017Y-77409983D01*
X132665654Y-77441223D01*
X132684704Y-77476862D01*
X132696435Y-77515532D01*
X132701000Y-77561888D01*
X132701000Y-78638112D01*
X132696435Y-78684468D01*
X132684704Y-78723138D01*
X132665654Y-78758777D01*
X132640017Y-78790017D01*
X132608777Y-78815654D01*
X132573138Y-78834704D01*
X132534468Y-78846435D01*
X132488112Y-78851000D01*
X131836888Y-78851000D01*
X131790532Y-78846435D01*
X131751862Y-78834704D01*
X131716223Y-78815654D01*
X131684983Y-78790017D01*
X131659346Y-78758777D01*
X131640296Y-78723138D01*
X131628565Y-78684468D01*
X131624000Y-78638112D01*
X131624000Y-77561888D01*
X131628565Y-77515532D01*
X131640296Y-77476862D01*
X131659346Y-77441223D01*
X131684983Y-77409983D01*
X131716223Y-77384346D01*
X131751862Y-77365296D01*
X131790532Y-77353565D01*
X131836888Y-77349000D01*
X132488112Y-77349000D01*
X132534468Y-77353565D01*
G37*
G36*
X116433512Y-76903927D02*
G01*
X116582812Y-76933624D01*
X116746784Y-77001544D01*
X116894354Y-77100147D01*
X117019853Y-77225646D01*
X117118456Y-77373216D01*
X117186376Y-77537188D01*
X117221000Y-77711259D01*
X117221000Y-77888741D01*
X117186376Y-78062812D01*
X117118456Y-78226784D01*
X117019853Y-78374354D01*
X116894354Y-78499853D01*
X116746784Y-78598456D01*
X116582812Y-78666376D01*
X116433512Y-78696073D01*
X116408742Y-78701000D01*
X116231258Y-78701000D01*
X116206488Y-78696073D01*
X116057188Y-78666376D01*
X115893216Y-78598456D01*
X115745646Y-78499853D01*
X115620147Y-78374354D01*
X115521544Y-78226784D01*
X115453624Y-78062812D01*
X115419000Y-77888741D01*
X115419000Y-77711259D01*
X115453624Y-77537188D01*
X115521544Y-77373216D01*
X115620147Y-77225646D01*
X115745646Y-77100147D01*
X115893216Y-77001544D01*
X116057188Y-76933624D01*
X116206488Y-76903927D01*
X116231258Y-76899000D01*
X116408742Y-76899000D01*
X116433512Y-76903927D01*
G37*
G36*
X109601000Y-78701000D02*
G01*
X107799000Y-78701000D01*
X107799000Y-76899000D01*
X109601000Y-76899000D01*
X109601000Y-78701000D01*
G37*
G36*
X113893512Y-76903927D02*
G01*
X114042812Y-76933624D01*
X114206784Y-77001544D01*
X114354354Y-77100147D01*
X114479853Y-77225646D01*
X114578456Y-77373216D01*
X114646376Y-77537188D01*
X114681000Y-77711259D01*
X114681000Y-77888741D01*
X114646376Y-78062812D01*
X114578456Y-78226784D01*
X114479853Y-78374354D01*
X114354354Y-78499853D01*
X114206784Y-78598456D01*
X114042812Y-78666376D01*
X113893512Y-78696073D01*
X113868742Y-78701000D01*
X113691258Y-78701000D01*
X113666488Y-78696073D01*
X113517188Y-78666376D01*
X113353216Y-78598456D01*
X113205646Y-78499853D01*
X113080147Y-78374354D01*
X112981544Y-78226784D01*
X112913624Y-78062812D01*
X112879000Y-77888741D01*
X112879000Y-77711259D01*
X112913624Y-77537188D01*
X112981544Y-77373216D01*
X113080147Y-77225646D01*
X113205646Y-77100147D01*
X113353216Y-77001544D01*
X113517188Y-76933624D01*
X113666488Y-76903927D01*
X113691258Y-76899000D01*
X113868742Y-76899000D01*
X113893512Y-76903927D01*
G37*
G36*
X111353512Y-76903927D02*
G01*
X111502812Y-76933624D01*
X111666784Y-77001544D01*
X111814354Y-77100147D01*
X111939853Y-77225646D01*
X112038456Y-77373216D01*
X112106376Y-77537188D01*
X112141000Y-77711259D01*
X112141000Y-77888741D01*
X112106376Y-78062812D01*
X112038456Y-78226784D01*
X111939853Y-78374354D01*
X111814354Y-78499853D01*
X111666784Y-78598456D01*
X111502812Y-78666376D01*
X111353512Y-78696073D01*
X111328742Y-78701000D01*
X111151258Y-78701000D01*
X111126488Y-78696073D01*
X110977188Y-78666376D01*
X110813216Y-78598456D01*
X110665646Y-78499853D01*
X110540147Y-78374354D01*
X110441544Y-78226784D01*
X110373624Y-78062812D01*
X110339000Y-77888741D01*
X110339000Y-77711259D01*
X110373624Y-77537188D01*
X110441544Y-77373216D01*
X110540147Y-77225646D01*
X110665646Y-77100147D01*
X110813216Y-77001544D01*
X110977188Y-76933624D01*
X111126488Y-76903927D01*
X111151258Y-76899000D01*
X111328742Y-76899000D01*
X111353512Y-76903927D01*
G37*
G36*
X157215098Y-77240362D02*
G01*
X157339941Y-77292074D01*
X157339943Y-77292075D01*
X157452299Y-77367149D01*
X157547851Y-77462701D01*
X157616688Y-77565722D01*
X157622926Y-77575059D01*
X157674638Y-77699902D01*
X157701000Y-77832434D01*
X157701000Y-77967566D01*
X157674638Y-78100098D01*
X157622926Y-78224941D01*
X157622925Y-78224943D01*
X157547851Y-78337299D01*
X157452299Y-78432851D01*
X157339943Y-78507925D01*
X157339942Y-78507926D01*
X157339941Y-78507926D01*
X157215098Y-78559638D01*
X157082566Y-78586000D01*
X156947434Y-78586000D01*
X156814902Y-78559638D01*
X156690059Y-78507926D01*
X156690058Y-78507926D01*
X156690057Y-78507925D01*
X156577701Y-78432851D01*
X156482149Y-78337299D01*
X156407075Y-78224943D01*
X156407074Y-78224941D01*
X156355362Y-78100098D01*
X156329000Y-77967566D01*
X156329000Y-77832434D01*
X156355362Y-77699902D01*
X156407074Y-77575059D01*
X156413313Y-77565722D01*
X156482149Y-77462701D01*
X156577701Y-77367149D01*
X156690057Y-77292075D01*
X156690059Y-77292074D01*
X156814902Y-77240362D01*
X156947434Y-77214000D01*
X157082566Y-77214000D01*
X157215098Y-77240362D01*
G37*
G36*
X151084468Y-76003565D02*
G01*
X151123138Y-76015296D01*
X151158777Y-76034346D01*
X151190017Y-76059983D01*
X151215654Y-76091223D01*
X151234704Y-76126862D01*
X151246435Y-76165532D01*
X151251000Y-76211888D01*
X151251000Y-76863112D01*
X151246435Y-76909468D01*
X151234704Y-76948138D01*
X151215654Y-76983777D01*
X151190017Y-77015017D01*
X151158777Y-77040654D01*
X151123138Y-77059704D01*
X151084468Y-77071435D01*
X151038112Y-77076000D01*
X149961888Y-77076000D01*
X149915532Y-77071435D01*
X149876862Y-77059704D01*
X149841223Y-77040654D01*
X149809983Y-77015017D01*
X149784346Y-76983777D01*
X149765296Y-76948138D01*
X149753565Y-76909468D01*
X149749000Y-76863112D01*
X149749000Y-76211888D01*
X149753565Y-76165532D01*
X149765296Y-76126862D01*
X149784346Y-76091223D01*
X149809983Y-76059983D01*
X149841223Y-76034346D01*
X149876862Y-76015296D01*
X149915532Y-76003565D01*
X149961888Y-75999000D01*
X151038112Y-75999000D01*
X151084468Y-76003565D01*
G37*
G36*
X147484468Y-76003565D02*
G01*
X147523138Y-76015296D01*
X147558777Y-76034346D01*
X147590017Y-76059983D01*
X147615654Y-76091223D01*
X147634704Y-76126862D01*
X147646435Y-76165532D01*
X147651000Y-76211888D01*
X147651000Y-76863112D01*
X147646435Y-76909468D01*
X147634704Y-76948138D01*
X147615654Y-76983777D01*
X147590017Y-77015017D01*
X147558777Y-77040654D01*
X147523138Y-77059704D01*
X147484468Y-77071435D01*
X147438112Y-77076000D01*
X146361888Y-77076000D01*
X146315532Y-77071435D01*
X146276862Y-77059704D01*
X146241223Y-77040654D01*
X146209983Y-77015017D01*
X146184346Y-76983777D01*
X146165296Y-76948138D01*
X146153565Y-76909468D01*
X146149000Y-76863112D01*
X146149000Y-76211888D01*
X146153565Y-76165532D01*
X146165296Y-76126862D01*
X146184346Y-76091223D01*
X146209983Y-76059983D01*
X146241223Y-76034346D01*
X146276862Y-76015296D01*
X146315532Y-76003565D01*
X146361888Y-75999000D01*
X147438112Y-75999000D01*
X147484468Y-76003565D01*
G37*
G36*
X134409468Y-74153565D02*
G01*
X134448138Y-74165296D01*
X134483777Y-74184346D01*
X134515017Y-74209983D01*
X134540654Y-74241223D01*
X134559704Y-74276862D01*
X134571435Y-74315532D01*
X134576000Y-74361888D01*
X134576000Y-75438112D01*
X134571435Y-75484468D01*
X134559704Y-75523138D01*
X134540654Y-75558777D01*
X134515017Y-75590017D01*
X134483777Y-75615654D01*
X134448138Y-75634704D01*
X134409468Y-75646435D01*
X134363112Y-75651000D01*
X133711888Y-75651000D01*
X133665532Y-75646435D01*
X133626862Y-75634704D01*
X133591223Y-75615654D01*
X133559983Y-75590017D01*
X133534346Y-75558777D01*
X133515296Y-75523138D01*
X133503565Y-75484468D01*
X133499000Y-75438112D01*
X133499000Y-74361888D01*
X133503565Y-74315532D01*
X133515296Y-74276862D01*
X133534346Y-74241223D01*
X133559983Y-74209983D01*
X133591223Y-74184346D01*
X133626862Y-74165296D01*
X133665532Y-74153565D01*
X133711888Y-74149000D01*
X134363112Y-74149000D01*
X134409468Y-74153565D01*
G37*
G36*
X132534468Y-74153565D02*
G01*
X132573138Y-74165296D01*
X132608777Y-74184346D01*
X132640017Y-74209983D01*
X132665654Y-74241223D01*
X132684704Y-74276862D01*
X132696435Y-74315532D01*
X132701000Y-74361888D01*
X132701000Y-75438112D01*
X132696435Y-75484468D01*
X132684704Y-75523138D01*
X132665654Y-75558777D01*
X132640017Y-75590017D01*
X132608777Y-75615654D01*
X132573138Y-75634704D01*
X132534468Y-75646435D01*
X132488112Y-75651000D01*
X131836888Y-75651000D01*
X131790532Y-75646435D01*
X131751862Y-75634704D01*
X131716223Y-75615654D01*
X131684983Y-75590017D01*
X131659346Y-75558777D01*
X131640296Y-75523138D01*
X131628565Y-75484468D01*
X131624000Y-75438112D01*
X131624000Y-74361888D01*
X131628565Y-74315532D01*
X131640296Y-74276862D01*
X131659346Y-74241223D01*
X131684983Y-74209983D01*
X131716223Y-74184346D01*
X131751862Y-74165296D01*
X131790532Y-74153565D01*
X131836888Y-74149000D01*
X132488112Y-74149000D01*
X132534468Y-74153565D01*
G37*
G36*
X127234468Y-74153565D02*
G01*
X127273138Y-74165296D01*
X127308777Y-74184346D01*
X127340017Y-74209983D01*
X127365654Y-74241223D01*
X127384704Y-74276862D01*
X127396435Y-74315532D01*
X127401000Y-74361888D01*
X127401000Y-75438112D01*
X127396435Y-75484468D01*
X127384704Y-75523138D01*
X127365654Y-75558777D01*
X127340017Y-75590017D01*
X127308777Y-75615654D01*
X127273138Y-75634704D01*
X127234468Y-75646435D01*
X127188112Y-75651000D01*
X126536888Y-75651000D01*
X126490532Y-75646435D01*
X126451862Y-75634704D01*
X126416223Y-75615654D01*
X126384983Y-75590017D01*
X126359346Y-75558777D01*
X126340296Y-75523138D01*
X126328565Y-75484468D01*
X126324000Y-75438112D01*
X126324000Y-74361888D01*
X126328565Y-74315532D01*
X126340296Y-74276862D01*
X126359346Y-74241223D01*
X126384983Y-74209983D01*
X126416223Y-74184346D01*
X126451862Y-74165296D01*
X126490532Y-74153565D01*
X126536888Y-74149000D01*
X127188112Y-74149000D01*
X127234468Y-74153565D01*
G37*
G36*
X129109468Y-74153565D02*
G01*
X129148138Y-74165296D01*
X129183777Y-74184346D01*
X129215017Y-74209983D01*
X129240654Y-74241223D01*
X129259704Y-74276862D01*
X129271435Y-74315532D01*
X129276000Y-74361888D01*
X129276000Y-75438112D01*
X129271435Y-75484468D01*
X129259704Y-75523138D01*
X129240654Y-75558777D01*
X129215017Y-75590017D01*
X129183777Y-75615654D01*
X129148138Y-75634704D01*
X129109468Y-75646435D01*
X129063112Y-75651000D01*
X128411888Y-75651000D01*
X128365532Y-75646435D01*
X128326862Y-75634704D01*
X128291223Y-75615654D01*
X128259983Y-75590017D01*
X128234346Y-75558777D01*
X128215296Y-75523138D01*
X128203565Y-75484468D01*
X128199000Y-75438112D01*
X128199000Y-74361888D01*
X128203565Y-74315532D01*
X128215296Y-74276862D01*
X128234346Y-74241223D01*
X128259983Y-74209983D01*
X128291223Y-74184346D01*
X128326862Y-74165296D01*
X128365532Y-74153565D01*
X128411888Y-74149000D01*
X129063112Y-74149000D01*
X129109468Y-74153565D01*
G37*
G36*
X151084468Y-74128565D02*
G01*
X151123138Y-74140296D01*
X151158777Y-74159346D01*
X151190017Y-74184983D01*
X151215654Y-74216223D01*
X151234704Y-74251862D01*
X151246435Y-74290532D01*
X151251000Y-74336888D01*
X151251000Y-74988112D01*
X151246435Y-75034468D01*
X151234704Y-75073138D01*
X151215654Y-75108777D01*
X151190017Y-75140017D01*
X151158777Y-75165654D01*
X151123138Y-75184704D01*
X151084468Y-75196435D01*
X151038112Y-75201000D01*
X149961888Y-75201000D01*
X149915532Y-75196435D01*
X149876862Y-75184704D01*
X149841223Y-75165654D01*
X149809983Y-75140017D01*
X149784346Y-75108777D01*
X149765296Y-75073138D01*
X149753565Y-75034468D01*
X149749000Y-74988112D01*
X149749000Y-74336888D01*
X149753565Y-74290532D01*
X149765296Y-74251862D01*
X149784346Y-74216223D01*
X149809983Y-74184983D01*
X149841223Y-74159346D01*
X149876862Y-74140296D01*
X149915532Y-74128565D01*
X149961888Y-74124000D01*
X151038112Y-74124000D01*
X151084468Y-74128565D01*
G37*
G36*
X147484468Y-74128565D02*
G01*
X147523138Y-74140296D01*
X147558777Y-74159346D01*
X147590017Y-74184983D01*
X147615654Y-74216223D01*
X147634704Y-74251862D01*
X147646435Y-74290532D01*
X147651000Y-74336888D01*
X147651000Y-74988112D01*
X147646435Y-75034468D01*
X147634704Y-75073138D01*
X147615654Y-75108777D01*
X147590017Y-75140017D01*
X147558777Y-75165654D01*
X147523138Y-75184704D01*
X147484468Y-75196435D01*
X147438112Y-75201000D01*
X146361888Y-75201000D01*
X146315532Y-75196435D01*
X146276862Y-75184704D01*
X146241223Y-75165654D01*
X146209983Y-75140017D01*
X146184346Y-75108777D01*
X146165296Y-75073138D01*
X146153565Y-75034468D01*
X146149000Y-74988112D01*
X146149000Y-74336888D01*
X146153565Y-74290532D01*
X146165296Y-74251862D01*
X146184346Y-74216223D01*
X146209983Y-74184983D01*
X146241223Y-74159346D01*
X146276862Y-74140296D01*
X146315532Y-74128565D01*
X146361888Y-74124000D01*
X147438112Y-74124000D01*
X147484468Y-74128565D01*
G37*
G36*
X158702585Y-70978802D02*
G01*
X158852410Y-71008604D01*
X159134674Y-71125521D01*
X159388705Y-71295259D01*
X159604741Y-71511295D01*
X159774479Y-71765326D01*
X159891396Y-72047590D01*
X159891396Y-72047591D01*
X159928531Y-72234278D01*
X159951000Y-72347240D01*
X159951000Y-72652760D01*
X159891396Y-72952410D01*
X159774479Y-73234674D01*
X159604741Y-73488705D01*
X159388705Y-73704741D01*
X159134674Y-73874479D01*
X158852410Y-73991396D01*
X158702585Y-74021198D01*
X158552761Y-74051000D01*
X158247239Y-74051000D01*
X158097415Y-74021198D01*
X157947590Y-73991396D01*
X157665326Y-73874479D01*
X157411295Y-73704741D01*
X157195259Y-73488705D01*
X157025521Y-73234674D01*
X156908604Y-72952410D01*
X156849000Y-72652760D01*
X156849000Y-72347240D01*
X156871470Y-72234278D01*
X156908604Y-72047591D01*
X156908604Y-72047590D01*
X157025521Y-71765326D01*
X157195259Y-71511295D01*
X157411295Y-71295259D01*
X157665326Y-71125521D01*
X157947590Y-71008604D01*
X158097415Y-70978802D01*
X158247239Y-70949000D01*
X158552761Y-70949000D01*
X158702585Y-70978802D01*
G37*
G36*
X97302585Y-70978802D02*
G01*
X97452410Y-71008604D01*
X97734674Y-71125521D01*
X97988705Y-71295259D01*
X98204741Y-71511295D01*
X98374479Y-71765326D01*
X98491396Y-72047590D01*
X98491396Y-72047591D01*
X98528531Y-72234278D01*
X98551000Y-72347240D01*
X98551000Y-72652760D01*
X98491396Y-72952410D01*
X98374479Y-73234674D01*
X98204741Y-73488705D01*
X97988705Y-73704741D01*
X97734674Y-73874479D01*
X97452410Y-73991396D01*
X97302585Y-74021198D01*
X97152761Y-74051000D01*
X96847239Y-74051000D01*
X96697415Y-74021198D01*
X96547590Y-73991396D01*
X96265326Y-73874479D01*
X96011295Y-73704741D01*
X95795259Y-73488705D01*
X95625521Y-73234674D01*
X95508604Y-72952410D01*
X95449000Y-72652760D01*
X95449000Y-72347240D01*
X95471470Y-72234278D01*
X95508604Y-72047591D01*
X95508604Y-72047590D01*
X95625521Y-71765326D01*
X95795259Y-71511295D01*
X96011295Y-71295259D01*
X96265326Y-71125521D01*
X96547590Y-71008604D01*
X96697415Y-70978802D01*
X96847239Y-70949000D01*
X97152761Y-70949000D01*
X97302585Y-70978802D01*
G37*
G36*
X134409468Y-70953565D02*
G01*
X134448138Y-70965296D01*
X134483777Y-70984346D01*
X134515017Y-71009983D01*
X134540654Y-71041223D01*
X134559704Y-71076862D01*
X134571435Y-71115532D01*
X134576000Y-71161888D01*
X134576000Y-72238112D01*
X134571435Y-72284468D01*
X134559704Y-72323138D01*
X134540654Y-72358777D01*
X134515017Y-72390017D01*
X134483777Y-72415654D01*
X134448138Y-72434704D01*
X134409468Y-72446435D01*
X134363112Y-72451000D01*
X133711888Y-72451000D01*
X133665532Y-72446435D01*
X133626862Y-72434704D01*
X133591223Y-72415654D01*
X133559983Y-72390017D01*
X133534346Y-72358777D01*
X133515296Y-72323138D01*
X133503565Y-72284468D01*
X133499000Y-72238112D01*
X133499000Y-71161888D01*
X133503565Y-71115532D01*
X133515296Y-71076862D01*
X133534346Y-71041223D01*
X133559983Y-71009983D01*
X133591223Y-70984346D01*
X133626862Y-70965296D01*
X133665532Y-70953565D01*
X133711888Y-70949000D01*
X134363112Y-70949000D01*
X134409468Y-70953565D01*
G37*
G36*
X132534468Y-70953565D02*
G01*
X132573138Y-70965296D01*
X132608777Y-70984346D01*
X132640017Y-71009983D01*
X132665654Y-71041223D01*
X132684704Y-71076862D01*
X132696435Y-71115532D01*
X132701000Y-71161888D01*
X132701000Y-72238112D01*
X132696435Y-72284468D01*
X132684704Y-72323138D01*
X132665654Y-72358777D01*
X132640017Y-72390017D01*
X132608777Y-72415654D01*
X132573138Y-72434704D01*
X132534468Y-72446435D01*
X132488112Y-72451000D01*
X131836888Y-72451000D01*
X131790532Y-72446435D01*
X131751862Y-72434704D01*
X131716223Y-72415654D01*
X131684983Y-72390017D01*
X131659346Y-72358777D01*
X131640296Y-72323138D01*
X131628565Y-72284468D01*
X131624000Y-72238112D01*
X131624000Y-71161888D01*
X131628565Y-71115532D01*
X131640296Y-71076862D01*
X131659346Y-71041223D01*
X131684983Y-71009983D01*
X131716223Y-70984346D01*
X131751862Y-70965296D01*
X131790532Y-70953565D01*
X131836888Y-70949000D01*
X132488112Y-70949000D01*
X132534468Y-70953565D01*
G37*
G36*
X129109468Y-70953565D02*
G01*
X129148138Y-70965296D01*
X129183777Y-70984346D01*
X129215017Y-71009983D01*
X129240654Y-71041223D01*
X129259704Y-71076862D01*
X129271435Y-71115532D01*
X129276000Y-71161888D01*
X129276000Y-72238112D01*
X129271435Y-72284468D01*
X129259704Y-72323138D01*
X129240654Y-72358777D01*
X129215017Y-72390017D01*
X129183777Y-72415654D01*
X129148138Y-72434704D01*
X129109468Y-72446435D01*
X129063112Y-72451000D01*
X128411888Y-72451000D01*
X128365532Y-72446435D01*
X128326862Y-72434704D01*
X128291223Y-72415654D01*
X128259983Y-72390017D01*
X128234346Y-72358777D01*
X128215296Y-72323138D01*
X128203565Y-72284468D01*
X128199000Y-72238112D01*
X128199000Y-71161888D01*
X128203565Y-71115532D01*
X128215296Y-71076862D01*
X128234346Y-71041223D01*
X128259983Y-71009983D01*
X128291223Y-70984346D01*
X128326862Y-70965296D01*
X128365532Y-70953565D01*
X128411888Y-70949000D01*
X129063112Y-70949000D01*
X129109468Y-70953565D01*
G37*
G36*
X127234468Y-70953565D02*
G01*
X127273138Y-70965296D01*
X127308777Y-70984346D01*
X127340017Y-71009983D01*
X127365654Y-71041223D01*
X127384704Y-71076862D01*
X127396435Y-71115532D01*
X127401000Y-71161888D01*
X127401000Y-72238112D01*
X127396435Y-72284468D01*
X127384704Y-72323138D01*
X127365654Y-72358777D01*
X127340017Y-72390017D01*
X127308777Y-72415654D01*
X127273138Y-72434704D01*
X127234468Y-72446435D01*
X127188112Y-72451000D01*
X126536888Y-72451000D01*
X126490532Y-72446435D01*
X126451862Y-72434704D01*
X126416223Y-72415654D01*
X126384983Y-72390017D01*
X126359346Y-72358777D01*
X126340296Y-72323138D01*
X126328565Y-72284468D01*
X126324000Y-72238112D01*
X126324000Y-71161888D01*
X126328565Y-71115532D01*
X126340296Y-71076862D01*
X126359346Y-71041223D01*
X126384983Y-71009983D01*
X126416223Y-70984346D01*
X126451862Y-70965296D01*
X126490532Y-70953565D01*
X126536888Y-70949000D01*
X127188112Y-70949000D01*
X127234468Y-70953565D01*
G37*
M02*
