M48
; DRILL file {KiCad (5.1.5)-3} date 1/10/2021 3:50:38 PM
; FORMAT={-:-/ absolute / inch / decimal}
; #@! TF.CreationDate,2021-01-10T15:50:38-06:00
; #@! TF.GenerationSoftware,Kicad,Pcbnew,(5.1.5)-3
FMAT,2
INCH
T1C0.0157
T2C0.0335
T3C0.0394
T4C0.0402
T5C0.0630
T6C0.0500
T7C0.1181
%
G90
G05
T1
X3.9764Y-3.8307
X3.9906Y-3.2323
X4.063Y-3.2323
X4.1924Y-3.4218
X4.3516Y-3.8295
X4.5231Y-3.4218
X4.6693Y-3.7756
X4.8785Y-3.6451
X4.936Y-2.8197
X4.9946Y-2.9488
X5.0157Y-3.1639
X5.0157Y-3.2377
X5.0684Y-2.9488
X5.2032Y-2.9488
X5.2032Y-3.0748
X5.2771Y-2.9488
X5.2771Y-3.0748
X5.2771Y-3.2008
X5.4049Y-3.5951
X5.4055Y-3.4961
X5.4803Y-3.757
X5.4803Y-3.957
X5.5797Y-3.3169
X5.5807Y-2.9646
X5.6024Y-3.6811
X5.6939Y-2.9646
X5.7215Y-3.1978
X5.7274Y-3.5332
X5.7274Y-3.6832
X5.7333Y-2.9646
X5.7913Y-3.6063
X5.7913Y-3.7559
X5.7928Y-3.1102
X5.8346Y-3.2387
X5.8346Y-3.3125
X5.874Y-3.7844
X5.874Y-3.857
X5.9252Y-2.9395
X5.9252Y-3.0133
X6.1063Y-3.8201
T2
X4.1614Y-3.6295
X4.1614Y-3.7295
X4.1614Y-3.8295
X4.1614Y-3.9295
X4.5276Y-3.6295
X4.5276Y-3.7295
X4.5276Y-3.8295
X4.5276Y-3.9295
T3
X4.2795Y-3.063
X4.3795Y-3.063
X4.4795Y-3.063
X4.5795Y-3.063
T4
X4.189Y-4.3976
X4.3071Y-4.3976
X4.752Y-4.3937
X4.8701Y-4.3937
X4.9882Y-4.3937
X5.1063Y-4.3937
X5.5551Y-4.3937
X5.6732Y-4.3937
X5.7913Y-4.3937
X5.9094Y-4.3937
X6.2589Y-3.185
X6.2589Y-3.3031
T5
X4.3937Y-4.1299
X4.7717Y-3.9606
X4.5236Y-3.2874
X5.9528Y-3.6299
X4.3386Y-3.2874
X5.752Y-4.0315
X5.9528Y-4.0315
X4.1024Y-4.1299
T6
X6.1817Y-3.0669
X6.1817Y-3.4213
X4.0709Y-4.3205
X4.4252Y-4.3205
X4.6339Y-4.3165
X5.2244Y-4.3165
X5.437Y-4.3165
X6.0276Y-4.3165
T7
X6.2362Y-2.8543
X3.8189Y-2.8543
X3.8189Y-4.3701
X6.2362Y-4.3701
T0
M30
