G04 #@! TF.GenerationSoftware,KiCad,Pcbnew,(5.1.5)-3*
G04 #@! TF.CreationDate,2021-01-10T15:50:35-06:00*
G04 #@! TF.ProjectId,Power-SupplementalMonitoringPCB,506f7765-722d-4537-9570-706c656d656e,rev?*
G04 #@! TF.SameCoordinates,Original*
G04 #@! TF.FileFunction,Soldermask,Top*
G04 #@! TF.FilePolarity,Negative*
%FSLAX46Y46*%
G04 Gerber Fmt 4.6, Leading zero omitted, Abs format (unit mm)*
G04 Created by KiCad (PCBNEW (5.1.5)-3) date 2021-01-10 15:50:35*
%MOMM*%
%LPD*%
G04 APERTURE LIST*
%ADD10C,0.100000*%
G04 APERTURE END LIST*
D10*
G36*
X109501531Y-110801544D02*
G01*
X109662812Y-110833624D01*
X109826784Y-110901544D01*
X109974354Y-111000147D01*
X110099853Y-111125646D01*
X110198456Y-111273216D01*
X110266376Y-111437188D01*
X110301000Y-111611259D01*
X110301000Y-111788741D01*
X110266376Y-111962812D01*
X110198456Y-112126784D01*
X110099853Y-112274354D01*
X109974354Y-112399853D01*
X109826784Y-112498456D01*
X109662812Y-112566376D01*
X109513512Y-112596073D01*
X109488742Y-112601000D01*
X109311258Y-112601000D01*
X109286488Y-112596073D01*
X109137188Y-112566376D01*
X108973216Y-112498456D01*
X108825646Y-112399853D01*
X108700147Y-112274354D01*
X108601544Y-112126784D01*
X108533624Y-111962812D01*
X108499000Y-111788741D01*
X108499000Y-111611259D01*
X108533624Y-111437188D01*
X108601544Y-111273216D01*
X108700147Y-111125646D01*
X108825646Y-111000147D01*
X108973216Y-110901544D01*
X109137188Y-110833624D01*
X109298469Y-110801544D01*
X109311258Y-110799000D01*
X109488742Y-110799000D01*
X109501531Y-110801544D01*
G37*
G36*
X106501531Y-110801544D02*
G01*
X106662812Y-110833624D01*
X106826784Y-110901544D01*
X106974354Y-111000147D01*
X107099853Y-111125646D01*
X107198456Y-111273216D01*
X107266376Y-111437188D01*
X107301000Y-111611259D01*
X107301000Y-111788741D01*
X107266376Y-111962812D01*
X107198456Y-112126784D01*
X107099853Y-112274354D01*
X106974354Y-112399853D01*
X106826784Y-112498456D01*
X106662812Y-112566376D01*
X106513512Y-112596073D01*
X106488742Y-112601000D01*
X106311258Y-112601000D01*
X106286488Y-112596073D01*
X106137188Y-112566376D01*
X105973216Y-112498456D01*
X105825646Y-112399853D01*
X105700147Y-112274354D01*
X105601544Y-112126784D01*
X105533624Y-111962812D01*
X105499000Y-111788741D01*
X105499000Y-111611259D01*
X105533624Y-111437188D01*
X105601544Y-111273216D01*
X105700147Y-111125646D01*
X105825646Y-111000147D01*
X105973216Y-110901544D01*
X106137188Y-110833624D01*
X106298469Y-110801544D01*
X106311258Y-110799000D01*
X106488742Y-110799000D01*
X106501531Y-110801544D01*
G37*
G36*
X158702585Y-109478802D02*
G01*
X158852410Y-109508604D01*
X159134674Y-109625521D01*
X159388705Y-109795259D01*
X159604741Y-110011295D01*
X159774479Y-110265326D01*
X159891396Y-110547590D01*
X159891396Y-110547591D01*
X159941405Y-110799000D01*
X159951000Y-110847240D01*
X159951000Y-111152760D01*
X159891396Y-111452410D01*
X159774479Y-111734674D01*
X159604741Y-111988705D01*
X159388705Y-112204741D01*
X159134674Y-112374479D01*
X158852410Y-112491396D01*
X158804127Y-112501000D01*
X158552761Y-112551000D01*
X158247239Y-112551000D01*
X157995873Y-112501000D01*
X157947590Y-112491396D01*
X157665326Y-112374479D01*
X157411295Y-112204741D01*
X157195259Y-111988705D01*
X157025521Y-111734674D01*
X156908604Y-111452410D01*
X156849000Y-111152760D01*
X156849000Y-110847240D01*
X156858596Y-110799000D01*
X156908604Y-110547591D01*
X156908604Y-110547590D01*
X157025521Y-110265326D01*
X157195259Y-110011295D01*
X157411295Y-109795259D01*
X157665326Y-109625521D01*
X157947590Y-109508604D01*
X158097415Y-109478802D01*
X158247239Y-109449000D01*
X158552761Y-109449000D01*
X158702585Y-109478802D01*
G37*
G36*
X97302585Y-109478802D02*
G01*
X97452410Y-109508604D01*
X97734674Y-109625521D01*
X97988705Y-109795259D01*
X98204741Y-110011295D01*
X98374479Y-110265326D01*
X98491396Y-110547590D01*
X98491396Y-110547591D01*
X98541405Y-110799000D01*
X98551000Y-110847240D01*
X98551000Y-111152760D01*
X98491396Y-111452410D01*
X98374479Y-111734674D01*
X98204741Y-111988705D01*
X97988705Y-112204741D01*
X97734674Y-112374479D01*
X97452410Y-112491396D01*
X97404127Y-112501000D01*
X97152761Y-112551000D01*
X96847239Y-112551000D01*
X96595873Y-112501000D01*
X96547590Y-112491396D01*
X96265326Y-112374479D01*
X96011295Y-112204741D01*
X95795259Y-111988705D01*
X95625521Y-111734674D01*
X95508604Y-111452410D01*
X95449000Y-111152760D01*
X95449000Y-110847240D01*
X95458596Y-110799000D01*
X95508604Y-110547591D01*
X95508604Y-110547590D01*
X95625521Y-110265326D01*
X95795259Y-110011295D01*
X96011295Y-109795259D01*
X96265326Y-109625521D01*
X96547590Y-109508604D01*
X96697415Y-109478802D01*
X96847239Y-109449000D01*
X97152761Y-109449000D01*
X97302585Y-109478802D01*
G37*
G36*
X129813512Y-110703927D02*
G01*
X129962812Y-110733624D01*
X130126784Y-110801544D01*
X130274354Y-110900147D01*
X130399853Y-111025646D01*
X130498456Y-111173216D01*
X130566376Y-111337188D01*
X130601000Y-111511259D01*
X130601000Y-111688741D01*
X130566376Y-111862812D01*
X130498456Y-112026784D01*
X130399853Y-112174354D01*
X130274354Y-112299853D01*
X130126784Y-112398456D01*
X129962812Y-112466376D01*
X129813512Y-112496073D01*
X129788742Y-112501000D01*
X129611258Y-112501000D01*
X129586488Y-112496073D01*
X129437188Y-112466376D01*
X129273216Y-112398456D01*
X129125646Y-112299853D01*
X129000147Y-112174354D01*
X128901544Y-112026784D01*
X128833624Y-111862812D01*
X128799000Y-111688741D01*
X128799000Y-111511259D01*
X128833624Y-111337188D01*
X128901544Y-111173216D01*
X129000147Y-111025646D01*
X129125646Y-110900147D01*
X129273216Y-110801544D01*
X129437188Y-110733624D01*
X129586488Y-110703927D01*
X129611258Y-110699000D01*
X129788742Y-110699000D01*
X129813512Y-110703927D01*
G37*
G36*
X147213512Y-110703927D02*
G01*
X147362812Y-110733624D01*
X147526784Y-110801544D01*
X147674354Y-110900147D01*
X147799853Y-111025646D01*
X147898456Y-111173216D01*
X147966376Y-111337188D01*
X148001000Y-111511259D01*
X148001000Y-111688741D01*
X147966376Y-111862812D01*
X147898456Y-112026784D01*
X147799853Y-112174354D01*
X147674354Y-112299853D01*
X147526784Y-112398456D01*
X147362812Y-112466376D01*
X147213512Y-112496073D01*
X147188742Y-112501000D01*
X147011258Y-112501000D01*
X146986488Y-112496073D01*
X146837188Y-112466376D01*
X146673216Y-112398456D01*
X146525646Y-112299853D01*
X146400147Y-112174354D01*
X146301544Y-112026784D01*
X146233624Y-111862812D01*
X146199000Y-111688741D01*
X146199000Y-111511259D01*
X146233624Y-111337188D01*
X146301544Y-111173216D01*
X146400147Y-111025646D01*
X146525646Y-110900147D01*
X146673216Y-110801544D01*
X146837188Y-110733624D01*
X146986488Y-110703927D01*
X147011258Y-110699000D01*
X147188742Y-110699000D01*
X147213512Y-110703927D01*
G37*
G36*
X141213512Y-110703927D02*
G01*
X141362812Y-110733624D01*
X141526784Y-110801544D01*
X141674354Y-110900147D01*
X141799853Y-111025646D01*
X141898456Y-111173216D01*
X141966376Y-111337188D01*
X142001000Y-111511259D01*
X142001000Y-111688741D01*
X141966376Y-111862812D01*
X141898456Y-112026784D01*
X141799853Y-112174354D01*
X141674354Y-112299853D01*
X141526784Y-112398456D01*
X141362812Y-112466376D01*
X141213512Y-112496073D01*
X141188742Y-112501000D01*
X141011258Y-112501000D01*
X140986488Y-112496073D01*
X140837188Y-112466376D01*
X140673216Y-112398456D01*
X140525646Y-112299853D01*
X140400147Y-112174354D01*
X140301544Y-112026784D01*
X140233624Y-111862812D01*
X140199000Y-111688741D01*
X140199000Y-111511259D01*
X140233624Y-111337188D01*
X140301544Y-111173216D01*
X140400147Y-111025646D01*
X140525646Y-110900147D01*
X140673216Y-110801544D01*
X140837188Y-110733624D01*
X140986488Y-110703927D01*
X141011258Y-110699000D01*
X141188742Y-110699000D01*
X141213512Y-110703927D01*
G37*
G36*
X144213512Y-110703927D02*
G01*
X144362812Y-110733624D01*
X144526784Y-110801544D01*
X144674354Y-110900147D01*
X144799853Y-111025646D01*
X144898456Y-111173216D01*
X144966376Y-111337188D01*
X145001000Y-111511259D01*
X145001000Y-111688741D01*
X144966376Y-111862812D01*
X144898456Y-112026784D01*
X144799853Y-112174354D01*
X144674354Y-112299853D01*
X144526784Y-112398456D01*
X144362812Y-112466376D01*
X144213512Y-112496073D01*
X144188742Y-112501000D01*
X144011258Y-112501000D01*
X143986488Y-112496073D01*
X143837188Y-112466376D01*
X143673216Y-112398456D01*
X143525646Y-112299853D01*
X143400147Y-112174354D01*
X143301544Y-112026784D01*
X143233624Y-111862812D01*
X143199000Y-111688741D01*
X143199000Y-111511259D01*
X143233624Y-111337188D01*
X143301544Y-111173216D01*
X143400147Y-111025646D01*
X143525646Y-110900147D01*
X143673216Y-110801544D01*
X143837188Y-110733624D01*
X143986488Y-110703927D01*
X144011258Y-110699000D01*
X144188742Y-110699000D01*
X144213512Y-110703927D01*
G37*
G36*
X150213512Y-110703927D02*
G01*
X150362812Y-110733624D01*
X150526784Y-110801544D01*
X150674354Y-110900147D01*
X150799853Y-111025646D01*
X150898456Y-111173216D01*
X150966376Y-111337188D01*
X151001000Y-111511259D01*
X151001000Y-111688741D01*
X150966376Y-111862812D01*
X150898456Y-112026784D01*
X150799853Y-112174354D01*
X150674354Y-112299853D01*
X150526784Y-112398456D01*
X150362812Y-112466376D01*
X150213512Y-112496073D01*
X150188742Y-112501000D01*
X150011258Y-112501000D01*
X149986488Y-112496073D01*
X149837188Y-112466376D01*
X149673216Y-112398456D01*
X149525646Y-112299853D01*
X149400147Y-112174354D01*
X149301544Y-112026784D01*
X149233624Y-111862812D01*
X149199000Y-111688741D01*
X149199000Y-111511259D01*
X149233624Y-111337188D01*
X149301544Y-111173216D01*
X149400147Y-111025646D01*
X149525646Y-110900147D01*
X149673216Y-110801544D01*
X149837188Y-110733624D01*
X149986488Y-110703927D01*
X150011258Y-110699000D01*
X150188742Y-110699000D01*
X150213512Y-110703927D01*
G37*
G36*
X126813512Y-110703927D02*
G01*
X126962812Y-110733624D01*
X127126784Y-110801544D01*
X127274354Y-110900147D01*
X127399853Y-111025646D01*
X127498456Y-111173216D01*
X127566376Y-111337188D01*
X127601000Y-111511259D01*
X127601000Y-111688741D01*
X127566376Y-111862812D01*
X127498456Y-112026784D01*
X127399853Y-112174354D01*
X127274354Y-112299853D01*
X127126784Y-112398456D01*
X126962812Y-112466376D01*
X126813512Y-112496073D01*
X126788742Y-112501000D01*
X126611258Y-112501000D01*
X126586488Y-112496073D01*
X126437188Y-112466376D01*
X126273216Y-112398456D01*
X126125646Y-112299853D01*
X126000147Y-112174354D01*
X125901544Y-112026784D01*
X125833624Y-111862812D01*
X125799000Y-111688741D01*
X125799000Y-111511259D01*
X125833624Y-111337188D01*
X125901544Y-111173216D01*
X126000147Y-111025646D01*
X126125646Y-110900147D01*
X126273216Y-110801544D01*
X126437188Y-110733624D01*
X126586488Y-110703927D01*
X126611258Y-110699000D01*
X126788742Y-110699000D01*
X126813512Y-110703927D01*
G37*
G36*
X123813512Y-110703927D02*
G01*
X123962812Y-110733624D01*
X124126784Y-110801544D01*
X124274354Y-110900147D01*
X124399853Y-111025646D01*
X124498456Y-111173216D01*
X124566376Y-111337188D01*
X124601000Y-111511259D01*
X124601000Y-111688741D01*
X124566376Y-111862812D01*
X124498456Y-112026784D01*
X124399853Y-112174354D01*
X124274354Y-112299853D01*
X124126784Y-112398456D01*
X123962812Y-112466376D01*
X123813512Y-112496073D01*
X123788742Y-112501000D01*
X123611258Y-112501000D01*
X123586488Y-112496073D01*
X123437188Y-112466376D01*
X123273216Y-112398456D01*
X123125646Y-112299853D01*
X123000147Y-112174354D01*
X122901544Y-112026784D01*
X122833624Y-111862812D01*
X122799000Y-111688741D01*
X122799000Y-111511259D01*
X122833624Y-111337188D01*
X122901544Y-111173216D01*
X123000147Y-111025646D01*
X123125646Y-110900147D01*
X123273216Y-110801544D01*
X123437188Y-110733624D01*
X123586488Y-110703927D01*
X123611258Y-110699000D01*
X123788742Y-110699000D01*
X123813512Y-110703927D01*
G37*
G36*
X120813512Y-110703927D02*
G01*
X120962812Y-110733624D01*
X121126784Y-110801544D01*
X121274354Y-110900147D01*
X121399853Y-111025646D01*
X121498456Y-111173216D01*
X121566376Y-111337188D01*
X121601000Y-111511259D01*
X121601000Y-111688741D01*
X121566376Y-111862812D01*
X121498456Y-112026784D01*
X121399853Y-112174354D01*
X121274354Y-112299853D01*
X121126784Y-112398456D01*
X120962812Y-112466376D01*
X120813512Y-112496073D01*
X120788742Y-112501000D01*
X120611258Y-112501000D01*
X120586488Y-112496073D01*
X120437188Y-112466376D01*
X120273216Y-112398456D01*
X120125646Y-112299853D01*
X120000147Y-112174354D01*
X119901544Y-112026784D01*
X119833624Y-111862812D01*
X119799000Y-111688741D01*
X119799000Y-111511259D01*
X119833624Y-111337188D01*
X119901544Y-111173216D01*
X120000147Y-111025646D01*
X120125646Y-110900147D01*
X120273216Y-110801544D01*
X120437188Y-110733624D01*
X120586488Y-110703927D01*
X120611258Y-110699000D01*
X120788742Y-110699000D01*
X120813512Y-110703927D01*
G37*
G36*
X103600098Y-109080362D02*
G01*
X103724941Y-109132074D01*
X103724943Y-109132075D01*
X103830642Y-109202701D01*
X103837299Y-109207149D01*
X103932851Y-109302701D01*
X104007926Y-109415059D01*
X104059638Y-109539902D01*
X104086000Y-109672434D01*
X104086000Y-109807566D01*
X104059638Y-109940098D01*
X104007926Y-110064941D01*
X104007925Y-110064943D01*
X103932851Y-110177299D01*
X103837299Y-110272851D01*
X103724943Y-110347925D01*
X103724942Y-110347926D01*
X103724941Y-110347926D01*
X103600098Y-110399638D01*
X103467566Y-110426000D01*
X103332434Y-110426000D01*
X103199902Y-110399638D01*
X103075059Y-110347926D01*
X103075058Y-110347926D01*
X103075057Y-110347925D01*
X102962701Y-110272851D01*
X102867149Y-110177299D01*
X102792075Y-110064943D01*
X102792074Y-110064941D01*
X102740362Y-109940098D01*
X102714000Y-109807566D01*
X102714000Y-109672434D01*
X102740362Y-109539902D01*
X102792074Y-109415059D01*
X102867149Y-109302701D01*
X102962701Y-109207149D01*
X102969358Y-109202701D01*
X103075057Y-109132075D01*
X103075059Y-109132074D01*
X103199902Y-109080362D01*
X103332434Y-109054000D01*
X103467566Y-109054000D01*
X103600098Y-109080362D01*
G37*
G36*
X112600098Y-109080362D02*
G01*
X112724941Y-109132074D01*
X112724943Y-109132075D01*
X112830642Y-109202701D01*
X112837299Y-109207149D01*
X112932851Y-109302701D01*
X113007926Y-109415059D01*
X113059638Y-109539902D01*
X113086000Y-109672434D01*
X113086000Y-109807566D01*
X113059638Y-109940098D01*
X113007926Y-110064941D01*
X113007925Y-110064943D01*
X112932851Y-110177299D01*
X112837299Y-110272851D01*
X112724943Y-110347925D01*
X112724942Y-110347926D01*
X112724941Y-110347926D01*
X112600098Y-110399638D01*
X112467566Y-110426000D01*
X112332434Y-110426000D01*
X112199902Y-110399638D01*
X112075059Y-110347926D01*
X112075058Y-110347926D01*
X112075057Y-110347925D01*
X111962701Y-110272851D01*
X111867149Y-110177299D01*
X111792075Y-110064943D01*
X111792074Y-110064941D01*
X111740362Y-109940098D01*
X111714000Y-109807566D01*
X111714000Y-109672434D01*
X111740362Y-109539902D01*
X111792074Y-109415059D01*
X111867149Y-109302701D01*
X111962701Y-109207149D01*
X111969358Y-109202701D01*
X112075057Y-109132075D01*
X112075059Y-109132074D01*
X112199902Y-109080362D01*
X112332434Y-109054000D01*
X112467566Y-109054000D01*
X112600098Y-109080362D01*
G37*
G36*
X153300098Y-108980362D02*
G01*
X153424941Y-109032074D01*
X153424943Y-109032075D01*
X153457756Y-109054000D01*
X153537299Y-109107149D01*
X153632851Y-109202701D01*
X153707926Y-109315059D01*
X153759638Y-109439902D01*
X153786000Y-109572434D01*
X153786000Y-109707566D01*
X153759638Y-109840098D01*
X153718216Y-109940098D01*
X153707925Y-109964943D01*
X153632851Y-110077299D01*
X153537299Y-110172851D01*
X153424943Y-110247925D01*
X153424942Y-110247926D01*
X153424941Y-110247926D01*
X153300098Y-110299638D01*
X153167566Y-110326000D01*
X153032434Y-110326000D01*
X152899902Y-110299638D01*
X152775059Y-110247926D01*
X152775058Y-110247926D01*
X152775057Y-110247925D01*
X152662701Y-110172851D01*
X152567149Y-110077299D01*
X152492075Y-109964943D01*
X152481784Y-109940098D01*
X152440362Y-109840098D01*
X152414000Y-109707566D01*
X152414000Y-109572434D01*
X152440362Y-109439902D01*
X152492074Y-109315059D01*
X152567149Y-109202701D01*
X152662701Y-109107149D01*
X152742244Y-109054000D01*
X152775057Y-109032075D01*
X152775059Y-109032074D01*
X152899902Y-108980362D01*
X153032434Y-108954000D01*
X153167566Y-108954000D01*
X153300098Y-108980362D01*
G37*
G36*
X117900098Y-108980362D02*
G01*
X118024941Y-109032074D01*
X118024943Y-109032075D01*
X118057756Y-109054000D01*
X118137299Y-109107149D01*
X118232851Y-109202701D01*
X118307926Y-109315059D01*
X118359638Y-109439902D01*
X118386000Y-109572434D01*
X118386000Y-109707566D01*
X118359638Y-109840098D01*
X118318216Y-109940098D01*
X118307925Y-109964943D01*
X118232851Y-110077299D01*
X118137299Y-110172851D01*
X118024943Y-110247925D01*
X118024942Y-110247926D01*
X118024941Y-110247926D01*
X117900098Y-110299638D01*
X117767566Y-110326000D01*
X117632434Y-110326000D01*
X117499902Y-110299638D01*
X117375059Y-110247926D01*
X117375058Y-110247926D01*
X117375057Y-110247925D01*
X117262701Y-110172851D01*
X117167149Y-110077299D01*
X117092075Y-109964943D01*
X117081784Y-109940098D01*
X117040362Y-109840098D01*
X117014000Y-109707566D01*
X117014000Y-109572434D01*
X117040362Y-109439902D01*
X117092074Y-109315059D01*
X117167149Y-109202701D01*
X117262701Y-109107149D01*
X117342244Y-109054000D01*
X117375057Y-109032075D01*
X117375059Y-109032074D01*
X117499902Y-108980362D01*
X117632434Y-108954000D01*
X117767566Y-108954000D01*
X117900098Y-108980362D01*
G37*
G36*
X138300098Y-108980362D02*
G01*
X138424941Y-109032074D01*
X138424943Y-109032075D01*
X138457756Y-109054000D01*
X138537299Y-109107149D01*
X138632851Y-109202701D01*
X138707926Y-109315059D01*
X138759638Y-109439902D01*
X138786000Y-109572434D01*
X138786000Y-109707566D01*
X138759638Y-109840098D01*
X138718216Y-109940098D01*
X138707925Y-109964943D01*
X138632851Y-110077299D01*
X138537299Y-110172851D01*
X138424943Y-110247925D01*
X138424942Y-110247926D01*
X138424941Y-110247926D01*
X138300098Y-110299638D01*
X138167566Y-110326000D01*
X138032434Y-110326000D01*
X137899902Y-110299638D01*
X137775059Y-110247926D01*
X137775058Y-110247926D01*
X137775057Y-110247925D01*
X137662701Y-110172851D01*
X137567149Y-110077299D01*
X137492075Y-109964943D01*
X137481784Y-109940098D01*
X137440362Y-109840098D01*
X137414000Y-109707566D01*
X137414000Y-109572434D01*
X137440362Y-109439902D01*
X137492074Y-109315059D01*
X137567149Y-109202701D01*
X137662701Y-109107149D01*
X137742244Y-109054000D01*
X137775057Y-109032075D01*
X137775059Y-109032074D01*
X137899902Y-108980362D01*
X138032434Y-108954000D01*
X138167566Y-108954000D01*
X138300098Y-108980362D01*
G37*
G36*
X132900098Y-108980362D02*
G01*
X133024941Y-109032074D01*
X133024943Y-109032075D01*
X133057756Y-109054000D01*
X133137299Y-109107149D01*
X133232851Y-109202701D01*
X133307926Y-109315059D01*
X133359638Y-109439902D01*
X133386000Y-109572434D01*
X133386000Y-109707566D01*
X133359638Y-109840098D01*
X133318216Y-109940098D01*
X133307925Y-109964943D01*
X133232851Y-110077299D01*
X133137299Y-110172851D01*
X133024943Y-110247925D01*
X133024942Y-110247926D01*
X133024941Y-110247926D01*
X132900098Y-110299638D01*
X132767566Y-110326000D01*
X132632434Y-110326000D01*
X132499902Y-110299638D01*
X132375059Y-110247926D01*
X132375058Y-110247926D01*
X132375057Y-110247925D01*
X132262701Y-110172851D01*
X132167149Y-110077299D01*
X132092075Y-109964943D01*
X132081784Y-109940098D01*
X132040362Y-109840098D01*
X132014000Y-109707566D01*
X132014000Y-109572434D01*
X132040362Y-109439902D01*
X132092074Y-109315059D01*
X132167149Y-109202701D01*
X132262701Y-109107149D01*
X132342244Y-109054000D01*
X132375057Y-109032075D01*
X132375059Y-109032074D01*
X132499902Y-108980362D01*
X132632434Y-108954000D01*
X132767566Y-108954000D01*
X132900098Y-108980362D01*
G37*
G36*
X104623241Y-103504760D02*
G01*
X104887305Y-103614139D01*
X105124958Y-103772934D01*
X105327066Y-103975042D01*
X105485861Y-104212695D01*
X105595240Y-104476759D01*
X105651000Y-104757088D01*
X105651000Y-105042912D01*
X105595240Y-105323241D01*
X105485861Y-105587305D01*
X105327066Y-105824958D01*
X105124958Y-106027066D01*
X104887305Y-106185861D01*
X104623241Y-106295240D01*
X104342912Y-106351000D01*
X104057088Y-106351000D01*
X103776759Y-106295240D01*
X103512695Y-106185861D01*
X103275042Y-106027066D01*
X103072934Y-105824958D01*
X102914139Y-105587305D01*
X102804760Y-105323241D01*
X102749000Y-105042912D01*
X102749000Y-104757088D01*
X102804760Y-104476759D01*
X102914139Y-104212695D01*
X103072934Y-103975042D01*
X103275042Y-103772934D01*
X103512695Y-103614139D01*
X103776759Y-103504760D01*
X104057088Y-103449000D01*
X104342912Y-103449000D01*
X104623241Y-103504760D01*
G37*
G36*
X112023241Y-103504760D02*
G01*
X112287305Y-103614139D01*
X112524958Y-103772934D01*
X112727066Y-103975042D01*
X112885861Y-104212695D01*
X112995240Y-104476759D01*
X113051000Y-104757088D01*
X113051000Y-105042912D01*
X112995240Y-105323241D01*
X112885861Y-105587305D01*
X112727066Y-105824958D01*
X112524958Y-106027066D01*
X112287305Y-106185861D01*
X112023241Y-106295240D01*
X111742912Y-106351000D01*
X111457088Y-106351000D01*
X111176759Y-106295240D01*
X110912695Y-106185861D01*
X110675042Y-106027066D01*
X110472934Y-105824958D01*
X110314139Y-105587305D01*
X110204760Y-105323241D01*
X110149000Y-105042912D01*
X110149000Y-104757088D01*
X110204760Y-104476759D01*
X110314139Y-104212695D01*
X110472934Y-103975042D01*
X110675042Y-103772934D01*
X110912695Y-103614139D01*
X111176759Y-103504760D01*
X111457088Y-103449000D01*
X111742912Y-103449000D01*
X112023241Y-103504760D01*
G37*
G36*
X146523241Y-101004760D02*
G01*
X146787305Y-101114139D01*
X147024958Y-101272934D01*
X147227066Y-101475042D01*
X147385861Y-101712695D01*
X147495240Y-101976759D01*
X147551000Y-102257088D01*
X147551000Y-102542912D01*
X147495240Y-102823241D01*
X147385861Y-103087305D01*
X147227066Y-103324958D01*
X147024958Y-103527066D01*
X146787305Y-103685861D01*
X146523241Y-103795240D01*
X146242912Y-103851000D01*
X145957088Y-103851000D01*
X145676759Y-103795240D01*
X145412695Y-103685861D01*
X145175042Y-103527066D01*
X144972934Y-103324958D01*
X144814139Y-103087305D01*
X144704760Y-102823241D01*
X144649000Y-102542912D01*
X144649000Y-102257088D01*
X144704760Y-101976759D01*
X144814139Y-101712695D01*
X144972934Y-101475042D01*
X145175042Y-101272934D01*
X145412695Y-101114139D01*
X145676759Y-101004760D01*
X145957088Y-100949000D01*
X146242912Y-100949000D01*
X146523241Y-101004760D01*
G37*
G36*
X151623241Y-101004760D02*
G01*
X151887305Y-101114139D01*
X152124958Y-101272934D01*
X152327066Y-101475042D01*
X152485861Y-101712695D01*
X152595240Y-101976759D01*
X152651000Y-102257088D01*
X152651000Y-102542912D01*
X152595240Y-102823241D01*
X152485861Y-103087305D01*
X152327066Y-103324958D01*
X152124958Y-103527066D01*
X151887305Y-103685861D01*
X151623241Y-103795240D01*
X151342912Y-103851000D01*
X151057088Y-103851000D01*
X150776759Y-103795240D01*
X150512695Y-103685861D01*
X150275042Y-103527066D01*
X150072934Y-103324958D01*
X149914139Y-103087305D01*
X149804760Y-102823241D01*
X149749000Y-102542912D01*
X149749000Y-102257088D01*
X149804760Y-101976759D01*
X149914139Y-101712695D01*
X150072934Y-101475042D01*
X150275042Y-101272934D01*
X150512695Y-101114139D01*
X150776759Y-101004760D01*
X151057088Y-100949000D01*
X151342912Y-100949000D01*
X151623241Y-101004760D01*
G37*
G36*
X121623241Y-99204760D02*
G01*
X121887305Y-99314139D01*
X122124958Y-99472934D01*
X122327066Y-99675042D01*
X122485861Y-99912695D01*
X122595240Y-100176759D01*
X122651000Y-100457088D01*
X122651000Y-100742912D01*
X122595240Y-101023241D01*
X122485861Y-101287305D01*
X122327066Y-101524958D01*
X122124958Y-101727066D01*
X121887305Y-101885861D01*
X121623241Y-101995240D01*
X121342912Y-102051000D01*
X121057088Y-102051000D01*
X120776759Y-101995240D01*
X120512695Y-101885861D01*
X120275042Y-101727066D01*
X120072934Y-101524958D01*
X119914139Y-101287305D01*
X119804760Y-101023241D01*
X119749000Y-100742912D01*
X119749000Y-100457088D01*
X119804760Y-100176759D01*
X119914139Y-99912695D01*
X120072934Y-99675042D01*
X120275042Y-99472934D01*
X120512695Y-99314139D01*
X120776759Y-99204760D01*
X121057088Y-99149000D01*
X121342912Y-99149000D01*
X121623241Y-99204760D01*
G37*
G36*
X139784468Y-99973565D02*
G01*
X139823138Y-99985296D01*
X139858777Y-100004346D01*
X139890017Y-100029983D01*
X139915654Y-100061223D01*
X139934704Y-100096862D01*
X139946435Y-100135532D01*
X139951000Y-100181888D01*
X139951000Y-100833112D01*
X139946435Y-100879468D01*
X139934704Y-100918138D01*
X139915654Y-100953777D01*
X139890017Y-100985017D01*
X139858777Y-101010654D01*
X139823138Y-101029704D01*
X139784468Y-101041435D01*
X139738112Y-101046000D01*
X138661888Y-101046000D01*
X138615532Y-101041435D01*
X138576862Y-101029704D01*
X138541223Y-101010654D01*
X138509983Y-100985017D01*
X138484346Y-100953777D01*
X138465296Y-100918138D01*
X138453565Y-100879468D01*
X138449000Y-100833112D01*
X138449000Y-100181888D01*
X138453565Y-100135532D01*
X138465296Y-100096862D01*
X138484346Y-100061223D01*
X138509983Y-100029983D01*
X138541223Y-100004346D01*
X138576862Y-99985296D01*
X138615532Y-99973565D01*
X138661888Y-99969000D01*
X139738112Y-99969000D01*
X139784468Y-99973565D01*
G37*
G36*
X126956000Y-100556000D02*
G01*
X124904000Y-100556000D01*
X124904000Y-99854000D01*
X126956000Y-99854000D01*
X126956000Y-100556000D01*
G37*
G36*
X136356000Y-100556000D02*
G01*
X134304000Y-100556000D01*
X134304000Y-99854000D01*
X136356000Y-99854000D01*
X136356000Y-100556000D01*
G37*
G36*
X115508015Y-99266973D02*
G01*
X115611879Y-99298479D01*
X115639055Y-99313005D01*
X115707600Y-99349643D01*
X115791501Y-99418499D01*
X115860357Y-99502400D01*
X115896995Y-99570945D01*
X115911521Y-99598121D01*
X115943027Y-99701985D01*
X115953666Y-99810000D01*
X115943027Y-99918015D01*
X115911521Y-100021879D01*
X115911519Y-100021882D01*
X115860357Y-100117600D01*
X115791501Y-100201501D01*
X115707600Y-100270357D01*
X115639055Y-100306995D01*
X115611879Y-100321521D01*
X115508015Y-100353027D01*
X115427067Y-100361000D01*
X114572933Y-100361000D01*
X114491985Y-100353027D01*
X114388121Y-100321521D01*
X114360945Y-100306995D01*
X114292400Y-100270357D01*
X114208499Y-100201501D01*
X114139643Y-100117600D01*
X114088481Y-100021882D01*
X114088479Y-100021879D01*
X114056973Y-99918015D01*
X114046334Y-99810000D01*
X114056973Y-99701985D01*
X114088479Y-99598121D01*
X114103005Y-99570945D01*
X114139643Y-99502400D01*
X114208499Y-99418499D01*
X114292400Y-99349643D01*
X114360945Y-99313005D01*
X114388121Y-99298479D01*
X114491985Y-99266973D01*
X114572933Y-99259000D01*
X115427067Y-99259000D01*
X115508015Y-99266973D01*
G37*
G36*
X106208015Y-99266973D02*
G01*
X106311879Y-99298479D01*
X106339055Y-99313005D01*
X106407600Y-99349643D01*
X106491501Y-99418499D01*
X106560357Y-99502400D01*
X106596995Y-99570945D01*
X106611521Y-99598121D01*
X106643027Y-99701985D01*
X106653666Y-99810000D01*
X106643027Y-99918015D01*
X106611521Y-100021879D01*
X106611519Y-100021882D01*
X106560357Y-100117600D01*
X106491501Y-100201501D01*
X106407600Y-100270357D01*
X106339055Y-100306995D01*
X106311879Y-100321521D01*
X106208015Y-100353027D01*
X106127067Y-100361000D01*
X105272933Y-100361000D01*
X105191985Y-100353027D01*
X105088121Y-100321521D01*
X105060945Y-100306995D01*
X104992400Y-100270357D01*
X104908499Y-100201501D01*
X104839643Y-100117600D01*
X104788481Y-100021882D01*
X104788479Y-100021879D01*
X104756973Y-99918015D01*
X104746334Y-99810000D01*
X104756973Y-99701985D01*
X104788479Y-99598121D01*
X104803005Y-99570945D01*
X104839643Y-99502400D01*
X104908499Y-99418499D01*
X104992400Y-99349643D01*
X105060945Y-99313005D01*
X105088121Y-99298479D01*
X105191985Y-99266973D01*
X105272933Y-99259000D01*
X106127067Y-99259000D01*
X106208015Y-99266973D01*
G37*
G36*
X126956000Y-99286000D02*
G01*
X124904000Y-99286000D01*
X124904000Y-98584000D01*
X126956000Y-98584000D01*
X126956000Y-99286000D01*
G37*
G36*
X136356000Y-99286000D02*
G01*
X134304000Y-99286000D01*
X134304000Y-98584000D01*
X136356000Y-98584000D01*
X136356000Y-99286000D01*
G37*
G36*
X139784468Y-98098565D02*
G01*
X139823138Y-98110296D01*
X139858777Y-98129346D01*
X139890017Y-98154983D01*
X139915654Y-98186223D01*
X139934704Y-98221862D01*
X139946435Y-98260532D01*
X139951000Y-98306888D01*
X139951000Y-98958112D01*
X139946435Y-99004468D01*
X139934704Y-99043138D01*
X139915654Y-99078777D01*
X139890017Y-99110017D01*
X139858777Y-99135654D01*
X139823138Y-99154704D01*
X139784468Y-99166435D01*
X139738112Y-99171000D01*
X138661888Y-99171000D01*
X138615532Y-99166435D01*
X138576862Y-99154704D01*
X138541223Y-99135654D01*
X138509983Y-99110017D01*
X138484346Y-99078777D01*
X138465296Y-99043138D01*
X138453565Y-99004468D01*
X138449000Y-98958112D01*
X138449000Y-98306888D01*
X138453565Y-98260532D01*
X138465296Y-98221862D01*
X138484346Y-98186223D01*
X138509983Y-98154983D01*
X138541223Y-98129346D01*
X138576862Y-98110296D01*
X138615532Y-98098565D01*
X138661888Y-98094000D01*
X139738112Y-98094000D01*
X139784468Y-98098565D01*
G37*
G36*
X149784468Y-97433565D02*
G01*
X149823138Y-97445296D01*
X149858777Y-97464346D01*
X149890017Y-97489983D01*
X149915654Y-97521223D01*
X149934704Y-97556862D01*
X149946435Y-97595532D01*
X149951000Y-97641888D01*
X149951000Y-98293112D01*
X149946435Y-98339468D01*
X149934704Y-98378138D01*
X149915654Y-98413777D01*
X149890017Y-98445017D01*
X149858777Y-98470654D01*
X149823138Y-98489704D01*
X149784468Y-98501435D01*
X149738112Y-98506000D01*
X148661888Y-98506000D01*
X148615532Y-98501435D01*
X148576862Y-98489704D01*
X148541223Y-98470654D01*
X148509983Y-98445017D01*
X148484346Y-98413777D01*
X148465296Y-98378138D01*
X148453565Y-98339468D01*
X148449000Y-98293112D01*
X148449000Y-97641888D01*
X148453565Y-97595532D01*
X148465296Y-97556862D01*
X148484346Y-97521223D01*
X148509983Y-97489983D01*
X148541223Y-97464346D01*
X148576862Y-97445296D01*
X148615532Y-97433565D01*
X148661888Y-97429000D01*
X149738112Y-97429000D01*
X149784468Y-97433565D01*
G37*
G36*
X153251000Y-98381000D02*
G01*
X152149000Y-98381000D01*
X152149000Y-97579000D01*
X153251000Y-97579000D01*
X153251000Y-98381000D01*
G37*
G36*
X126956000Y-98016000D02*
G01*
X124904000Y-98016000D01*
X124904000Y-97314000D01*
X126956000Y-97314000D01*
X126956000Y-98016000D01*
G37*
G36*
X136356000Y-98016000D02*
G01*
X134304000Y-98016000D01*
X134304000Y-97314000D01*
X136356000Y-97314000D01*
X136356000Y-98016000D01*
G37*
G36*
X115508015Y-96726973D02*
G01*
X115611879Y-96758479D01*
X115639055Y-96773005D01*
X115707600Y-96809643D01*
X115791501Y-96878499D01*
X115860357Y-96962400D01*
X115896995Y-97030945D01*
X115911521Y-97058121D01*
X115943027Y-97161985D01*
X115953666Y-97270000D01*
X115943027Y-97378015D01*
X115911521Y-97481879D01*
X115911519Y-97481882D01*
X115860357Y-97577600D01*
X115791501Y-97661501D01*
X115707600Y-97730357D01*
X115639055Y-97766995D01*
X115611879Y-97781521D01*
X115508015Y-97813027D01*
X115427067Y-97821000D01*
X114572933Y-97821000D01*
X114491985Y-97813027D01*
X114388121Y-97781521D01*
X114360945Y-97766995D01*
X114292400Y-97730357D01*
X114208499Y-97661501D01*
X114139643Y-97577600D01*
X114088481Y-97481882D01*
X114088479Y-97481879D01*
X114056973Y-97378015D01*
X114046334Y-97270000D01*
X114056973Y-97161985D01*
X114088479Y-97058121D01*
X114103005Y-97030945D01*
X114139643Y-96962400D01*
X114208499Y-96878499D01*
X114292400Y-96809643D01*
X114360945Y-96773005D01*
X114388121Y-96758479D01*
X114491985Y-96726973D01*
X114572933Y-96719000D01*
X115427067Y-96719000D01*
X115508015Y-96726973D01*
G37*
G36*
X106208015Y-96726973D02*
G01*
X106311879Y-96758479D01*
X106339055Y-96773005D01*
X106407600Y-96809643D01*
X106491501Y-96878499D01*
X106560357Y-96962400D01*
X106596995Y-97030945D01*
X106611521Y-97058121D01*
X106643027Y-97161985D01*
X106653666Y-97270000D01*
X106643027Y-97378015D01*
X106611521Y-97481879D01*
X106611519Y-97481882D01*
X106560357Y-97577600D01*
X106491501Y-97661501D01*
X106407600Y-97730357D01*
X106339055Y-97766995D01*
X106311879Y-97781521D01*
X106208015Y-97813027D01*
X106127067Y-97821000D01*
X105272933Y-97821000D01*
X105191985Y-97813027D01*
X105088121Y-97781521D01*
X105060945Y-97766995D01*
X104992400Y-97730357D01*
X104908499Y-97661501D01*
X104839643Y-97577600D01*
X104788481Y-97481882D01*
X104788479Y-97481879D01*
X104756973Y-97378015D01*
X104746334Y-97270000D01*
X104756973Y-97161985D01*
X104788479Y-97058121D01*
X104803005Y-97030945D01*
X104839643Y-96962400D01*
X104908499Y-96878499D01*
X104992400Y-96809643D01*
X105060945Y-96773005D01*
X105088121Y-96758479D01*
X105191985Y-96726973D01*
X105272933Y-96719000D01*
X106127067Y-96719000D01*
X106208015Y-96726973D01*
G37*
G36*
X155651000Y-97431000D02*
G01*
X154549000Y-97431000D01*
X154549000Y-96629000D01*
X155651000Y-96629000D01*
X155651000Y-97431000D01*
G37*
G36*
X136356000Y-96746000D02*
G01*
X134304000Y-96746000D01*
X134304000Y-96044000D01*
X136356000Y-96044000D01*
X136356000Y-96746000D01*
G37*
G36*
X126956000Y-96746000D02*
G01*
X124904000Y-96746000D01*
X124904000Y-96044000D01*
X126956000Y-96044000D01*
X126956000Y-96746000D01*
G37*
G36*
X149784468Y-95558565D02*
G01*
X149823138Y-95570296D01*
X149858777Y-95589346D01*
X149890017Y-95614983D01*
X149915654Y-95646223D01*
X149934704Y-95681862D01*
X149946435Y-95720532D01*
X149951000Y-95766888D01*
X149951000Y-96418112D01*
X149946435Y-96464468D01*
X149934704Y-96503138D01*
X149915654Y-96538777D01*
X149890017Y-96570017D01*
X149858777Y-96595654D01*
X149823138Y-96614704D01*
X149784468Y-96626435D01*
X149738112Y-96631000D01*
X148661888Y-96631000D01*
X148615532Y-96626435D01*
X148576862Y-96614704D01*
X148541223Y-96595654D01*
X148509983Y-96570017D01*
X148484346Y-96538777D01*
X148465296Y-96503138D01*
X148453565Y-96464468D01*
X148449000Y-96418112D01*
X148449000Y-95766888D01*
X148453565Y-95720532D01*
X148465296Y-95681862D01*
X148484346Y-95646223D01*
X148509983Y-95614983D01*
X148541223Y-95589346D01*
X148576862Y-95570296D01*
X148615532Y-95558565D01*
X148661888Y-95554000D01*
X149738112Y-95554000D01*
X149784468Y-95558565D01*
G37*
G36*
X153251000Y-96481000D02*
G01*
X152149000Y-96481000D01*
X152149000Y-95679000D01*
X153251000Y-95679000D01*
X153251000Y-96481000D01*
G37*
G36*
X146059468Y-94893565D02*
G01*
X146098138Y-94905296D01*
X146133777Y-94924346D01*
X146165017Y-94949983D01*
X146190654Y-94981223D01*
X146209704Y-95016862D01*
X146221435Y-95055532D01*
X146226000Y-95101888D01*
X146226000Y-95753112D01*
X146221435Y-95799468D01*
X146209704Y-95838138D01*
X146190654Y-95873777D01*
X146165017Y-95905017D01*
X146133777Y-95930654D01*
X146098138Y-95949704D01*
X146059468Y-95961435D01*
X146013112Y-95966000D01*
X144936888Y-95966000D01*
X144890532Y-95961435D01*
X144851862Y-95949704D01*
X144816223Y-95930654D01*
X144784983Y-95905017D01*
X144759346Y-95873777D01*
X144740296Y-95838138D01*
X144728565Y-95799468D01*
X144724000Y-95753112D01*
X144724000Y-95101888D01*
X144728565Y-95055532D01*
X144740296Y-95016862D01*
X144759346Y-94981223D01*
X144784983Y-94949983D01*
X144816223Y-94924346D01*
X144851862Y-94905296D01*
X144890532Y-94893565D01*
X144936888Y-94889000D01*
X146013112Y-94889000D01*
X146059468Y-94893565D01*
G37*
G36*
X139784468Y-94893565D02*
G01*
X139823138Y-94905296D01*
X139858777Y-94924346D01*
X139890017Y-94949983D01*
X139915654Y-94981223D01*
X139934704Y-95016862D01*
X139946435Y-95055532D01*
X139951000Y-95101888D01*
X139951000Y-95753112D01*
X139946435Y-95799468D01*
X139934704Y-95838138D01*
X139915654Y-95873777D01*
X139890017Y-95905017D01*
X139858777Y-95930654D01*
X139823138Y-95949704D01*
X139784468Y-95961435D01*
X139738112Y-95966000D01*
X138661888Y-95966000D01*
X138615532Y-95961435D01*
X138576862Y-95949704D01*
X138541223Y-95930654D01*
X138509983Y-95905017D01*
X138484346Y-95873777D01*
X138465296Y-95838138D01*
X138453565Y-95799468D01*
X138449000Y-95753112D01*
X138449000Y-95101888D01*
X138453565Y-95055532D01*
X138465296Y-95016862D01*
X138484346Y-94981223D01*
X138509983Y-94949983D01*
X138541223Y-94924346D01*
X138576862Y-94905296D01*
X138615532Y-94893565D01*
X138661888Y-94889000D01*
X139738112Y-94889000D01*
X139784468Y-94893565D01*
G37*
G36*
X136356000Y-95476000D02*
G01*
X134304000Y-95476000D01*
X134304000Y-94774000D01*
X136356000Y-94774000D01*
X136356000Y-95476000D01*
G37*
G36*
X126956000Y-95476000D02*
G01*
X124904000Y-95476000D01*
X124904000Y-94774000D01*
X126956000Y-94774000D01*
X126956000Y-95476000D01*
G37*
G36*
X115508015Y-94186973D02*
G01*
X115611879Y-94218479D01*
X115639055Y-94233005D01*
X115707600Y-94269643D01*
X115791501Y-94338499D01*
X115860357Y-94422400D01*
X115896995Y-94490945D01*
X115911521Y-94518121D01*
X115943027Y-94621985D01*
X115953666Y-94730000D01*
X115943027Y-94838015D01*
X115911521Y-94941879D01*
X115911519Y-94941882D01*
X115860357Y-95037600D01*
X115791501Y-95121501D01*
X115707600Y-95190357D01*
X115639055Y-95226995D01*
X115611879Y-95241521D01*
X115508015Y-95273027D01*
X115427067Y-95281000D01*
X114572933Y-95281000D01*
X114491985Y-95273027D01*
X114388121Y-95241521D01*
X114360945Y-95226995D01*
X114292400Y-95190357D01*
X114208499Y-95121501D01*
X114139643Y-95037600D01*
X114088481Y-94941882D01*
X114088479Y-94941879D01*
X114056973Y-94838015D01*
X114046334Y-94730000D01*
X114056973Y-94621985D01*
X114088479Y-94518121D01*
X114103005Y-94490945D01*
X114139643Y-94422400D01*
X114208499Y-94338499D01*
X114292400Y-94269643D01*
X114360945Y-94233005D01*
X114388121Y-94218479D01*
X114491985Y-94186973D01*
X114572933Y-94179000D01*
X115427067Y-94179000D01*
X115508015Y-94186973D01*
G37*
G36*
X106208015Y-94186973D02*
G01*
X106311879Y-94218479D01*
X106339055Y-94233005D01*
X106407600Y-94269643D01*
X106491501Y-94338499D01*
X106560357Y-94422400D01*
X106596995Y-94490945D01*
X106611521Y-94518121D01*
X106643027Y-94621985D01*
X106653666Y-94730000D01*
X106643027Y-94838015D01*
X106611521Y-94941879D01*
X106611519Y-94941882D01*
X106560357Y-95037600D01*
X106491501Y-95121501D01*
X106407600Y-95190357D01*
X106339055Y-95226995D01*
X106311879Y-95241521D01*
X106208015Y-95273027D01*
X106127067Y-95281000D01*
X105272933Y-95281000D01*
X105191985Y-95273027D01*
X105088121Y-95241521D01*
X105060945Y-95226995D01*
X104992400Y-95190357D01*
X104908499Y-95121501D01*
X104839643Y-95037600D01*
X104788481Y-94941882D01*
X104788479Y-94941879D01*
X104756973Y-94838015D01*
X104746334Y-94730000D01*
X104756973Y-94621985D01*
X104788479Y-94518121D01*
X104803005Y-94490945D01*
X104839643Y-94422400D01*
X104908499Y-94338499D01*
X104992400Y-94269643D01*
X105060945Y-94233005D01*
X105088121Y-94218479D01*
X105191985Y-94186973D01*
X105272933Y-94179000D01*
X106127067Y-94179000D01*
X106208015Y-94186973D01*
G37*
G36*
X122684468Y-93926065D02*
G01*
X122723138Y-93937796D01*
X122758777Y-93956846D01*
X122790017Y-93982483D01*
X122815654Y-94013723D01*
X122834704Y-94049362D01*
X122846435Y-94088032D01*
X122851000Y-94134388D01*
X122851000Y-94785612D01*
X122846435Y-94831968D01*
X122834704Y-94870638D01*
X122815654Y-94906277D01*
X122790017Y-94937517D01*
X122758777Y-94963154D01*
X122723138Y-94982204D01*
X122684468Y-94993935D01*
X122638112Y-94998500D01*
X121561888Y-94998500D01*
X121515532Y-94993935D01*
X121476862Y-94982204D01*
X121441223Y-94963154D01*
X121409983Y-94937517D01*
X121384346Y-94906277D01*
X121365296Y-94870638D01*
X121353565Y-94831968D01*
X121349000Y-94785612D01*
X121349000Y-94134388D01*
X121353565Y-94088032D01*
X121365296Y-94049362D01*
X121384346Y-94013723D01*
X121409983Y-93982483D01*
X121441223Y-93956846D01*
X121476862Y-93937796D01*
X121515532Y-93926065D01*
X121561888Y-93921500D01*
X122638112Y-93921500D01*
X122684468Y-93926065D01*
G37*
G36*
X119184468Y-93926065D02*
G01*
X119223138Y-93937796D01*
X119258777Y-93956846D01*
X119290017Y-93982483D01*
X119315654Y-94013723D01*
X119334704Y-94049362D01*
X119346435Y-94088032D01*
X119351000Y-94134388D01*
X119351000Y-94785612D01*
X119346435Y-94831968D01*
X119334704Y-94870638D01*
X119315654Y-94906277D01*
X119290017Y-94937517D01*
X119258777Y-94963154D01*
X119223138Y-94982204D01*
X119184468Y-94993935D01*
X119138112Y-94998500D01*
X118061888Y-94998500D01*
X118015532Y-94993935D01*
X117976862Y-94982204D01*
X117941223Y-94963154D01*
X117909983Y-94937517D01*
X117884346Y-94906277D01*
X117865296Y-94870638D01*
X117853565Y-94831968D01*
X117849000Y-94785612D01*
X117849000Y-94134388D01*
X117853565Y-94088032D01*
X117865296Y-94049362D01*
X117884346Y-94013723D01*
X117909983Y-93982483D01*
X117941223Y-93956846D01*
X117976862Y-93937796D01*
X118015532Y-93926065D01*
X118061888Y-93921500D01*
X119138112Y-93921500D01*
X119184468Y-93926065D01*
G37*
G36*
X126956000Y-94206000D02*
G01*
X124904000Y-94206000D01*
X124904000Y-93504000D01*
X126956000Y-93504000D01*
X126956000Y-94206000D01*
G37*
G36*
X136356000Y-94206000D02*
G01*
X134304000Y-94206000D01*
X134304000Y-93504000D01*
X136356000Y-93504000D01*
X136356000Y-94206000D01*
G37*
G36*
X139784468Y-93018565D02*
G01*
X139823138Y-93030296D01*
X139858777Y-93049346D01*
X139890017Y-93074983D01*
X139915654Y-93106223D01*
X139934704Y-93141862D01*
X139946435Y-93180532D01*
X139951000Y-93226888D01*
X139951000Y-93878112D01*
X139946435Y-93924468D01*
X139934704Y-93963138D01*
X139915654Y-93998777D01*
X139890017Y-94030017D01*
X139858777Y-94055654D01*
X139823138Y-94074704D01*
X139784468Y-94086435D01*
X139738112Y-94091000D01*
X138661888Y-94091000D01*
X138615532Y-94086435D01*
X138576862Y-94074704D01*
X138541223Y-94055654D01*
X138509983Y-94030017D01*
X138484346Y-93998777D01*
X138465296Y-93963138D01*
X138453565Y-93924468D01*
X138449000Y-93878112D01*
X138449000Y-93226888D01*
X138453565Y-93180532D01*
X138465296Y-93141862D01*
X138484346Y-93106223D01*
X138509983Y-93074983D01*
X138541223Y-93049346D01*
X138576862Y-93030296D01*
X138615532Y-93018565D01*
X138661888Y-93014000D01*
X139738112Y-93014000D01*
X139784468Y-93018565D01*
G37*
G36*
X146059468Y-93018565D02*
G01*
X146098138Y-93030296D01*
X146133777Y-93049346D01*
X146165017Y-93074983D01*
X146190654Y-93106223D01*
X146209704Y-93141862D01*
X146221435Y-93180532D01*
X146226000Y-93226888D01*
X146226000Y-93878112D01*
X146221435Y-93924468D01*
X146209704Y-93963138D01*
X146190654Y-93998777D01*
X146165017Y-94030017D01*
X146133777Y-94055654D01*
X146098138Y-94074704D01*
X146059468Y-94086435D01*
X146013112Y-94091000D01*
X144936888Y-94091000D01*
X144890532Y-94086435D01*
X144851862Y-94074704D01*
X144816223Y-94055654D01*
X144784983Y-94030017D01*
X144759346Y-93998777D01*
X144740296Y-93963138D01*
X144728565Y-93924468D01*
X144724000Y-93878112D01*
X144724000Y-93226888D01*
X144728565Y-93180532D01*
X144740296Y-93141862D01*
X144759346Y-93106223D01*
X144784983Y-93074983D01*
X144816223Y-93049346D01*
X144851862Y-93030296D01*
X144890532Y-93018565D01*
X144936888Y-93014000D01*
X146013112Y-93014000D01*
X146059468Y-93018565D01*
G37*
G36*
X151623241Y-90804760D02*
G01*
X151887305Y-90914139D01*
X152124958Y-91072934D01*
X152327066Y-91275042D01*
X152485861Y-91512695D01*
X152595240Y-91776759D01*
X152651000Y-92057088D01*
X152651000Y-92342912D01*
X152595240Y-92623241D01*
X152485861Y-92887305D01*
X152327066Y-93124958D01*
X152124958Y-93327066D01*
X151887305Y-93485861D01*
X151623241Y-93595240D01*
X151342912Y-93651000D01*
X151057088Y-93651000D01*
X150776759Y-93595240D01*
X150512695Y-93485861D01*
X150275042Y-93327066D01*
X150072934Y-93124958D01*
X149914139Y-92887305D01*
X149804760Y-92623241D01*
X149749000Y-92342912D01*
X149749000Y-92057088D01*
X149804760Y-91776759D01*
X149914139Y-91512695D01*
X150072934Y-91275042D01*
X150275042Y-91072934D01*
X150512695Y-90914139D01*
X150776759Y-90804760D01*
X151057088Y-90749000D01*
X151342912Y-90749000D01*
X151623241Y-90804760D01*
G37*
G36*
X122684468Y-92051065D02*
G01*
X122723138Y-92062796D01*
X122758777Y-92081846D01*
X122790017Y-92107483D01*
X122815654Y-92138723D01*
X122834704Y-92174362D01*
X122846435Y-92213032D01*
X122851000Y-92259388D01*
X122851000Y-92910612D01*
X122846435Y-92956968D01*
X122834704Y-92995638D01*
X122815654Y-93031277D01*
X122790017Y-93062517D01*
X122758777Y-93088154D01*
X122723138Y-93107204D01*
X122684468Y-93118935D01*
X122638112Y-93123500D01*
X121561888Y-93123500D01*
X121515532Y-93118935D01*
X121476862Y-93107204D01*
X121441223Y-93088154D01*
X121409983Y-93062517D01*
X121384346Y-93031277D01*
X121365296Y-92995638D01*
X121353565Y-92956968D01*
X121349000Y-92910612D01*
X121349000Y-92259388D01*
X121353565Y-92213032D01*
X121365296Y-92174362D01*
X121384346Y-92138723D01*
X121409983Y-92107483D01*
X121441223Y-92081846D01*
X121476862Y-92062796D01*
X121515532Y-92051065D01*
X121561888Y-92046500D01*
X122638112Y-92046500D01*
X122684468Y-92051065D01*
G37*
G36*
X119184468Y-92051065D02*
G01*
X119223138Y-92062796D01*
X119258777Y-92081846D01*
X119290017Y-92107483D01*
X119315654Y-92138723D01*
X119334704Y-92174362D01*
X119346435Y-92213032D01*
X119351000Y-92259388D01*
X119351000Y-92910612D01*
X119346435Y-92956968D01*
X119334704Y-92995638D01*
X119315654Y-93031277D01*
X119290017Y-93062517D01*
X119258777Y-93088154D01*
X119223138Y-93107204D01*
X119184468Y-93118935D01*
X119138112Y-93123500D01*
X118061888Y-93123500D01*
X118015532Y-93118935D01*
X117976862Y-93107204D01*
X117941223Y-93088154D01*
X117909983Y-93062517D01*
X117884346Y-93031277D01*
X117865296Y-92995638D01*
X117853565Y-92956968D01*
X117849000Y-92910612D01*
X117849000Y-92259388D01*
X117853565Y-92213032D01*
X117865296Y-92174362D01*
X117884346Y-92138723D01*
X117909983Y-92107483D01*
X117941223Y-92081846D01*
X117976862Y-92062796D01*
X118015532Y-92051065D01*
X118061888Y-92046500D01*
X119138112Y-92046500D01*
X119184468Y-92051065D01*
G37*
G36*
X126956000Y-92936000D02*
G01*
X124904000Y-92936000D01*
X124904000Y-92234000D01*
X126956000Y-92234000D01*
X126956000Y-92936000D01*
G37*
G36*
X136356000Y-92936000D02*
G01*
X134304000Y-92936000D01*
X134304000Y-92234000D01*
X136356000Y-92234000D01*
X136356000Y-92936000D01*
G37*
G36*
X106208015Y-91646973D02*
G01*
X106311879Y-91678479D01*
X106339055Y-91693005D01*
X106407600Y-91729643D01*
X106491501Y-91798499D01*
X106560357Y-91882400D01*
X106590759Y-91939278D01*
X106611521Y-91978121D01*
X106643027Y-92081985D01*
X106653666Y-92190000D01*
X106643027Y-92298015D01*
X106611521Y-92401879D01*
X106611519Y-92401882D01*
X106560357Y-92497600D01*
X106491501Y-92581501D01*
X106407600Y-92650357D01*
X106339055Y-92686995D01*
X106311879Y-92701521D01*
X106208015Y-92733027D01*
X106127067Y-92741000D01*
X105272933Y-92741000D01*
X105191985Y-92733027D01*
X105088121Y-92701521D01*
X105060945Y-92686995D01*
X104992400Y-92650357D01*
X104908499Y-92581501D01*
X104839643Y-92497600D01*
X104788481Y-92401882D01*
X104788479Y-92401879D01*
X104756973Y-92298015D01*
X104746334Y-92190000D01*
X104756973Y-92081985D01*
X104788479Y-91978121D01*
X104809241Y-91939278D01*
X104839643Y-91882400D01*
X104908499Y-91798499D01*
X104992400Y-91729643D01*
X105060945Y-91693005D01*
X105088121Y-91678479D01*
X105191985Y-91646973D01*
X105272933Y-91639000D01*
X106127067Y-91639000D01*
X106208015Y-91646973D01*
G37*
G36*
X115508015Y-91646973D02*
G01*
X115611879Y-91678479D01*
X115639055Y-91693005D01*
X115707600Y-91729643D01*
X115791501Y-91798499D01*
X115860357Y-91882400D01*
X115890759Y-91939278D01*
X115911521Y-91978121D01*
X115943027Y-92081985D01*
X115953666Y-92190000D01*
X115943027Y-92298015D01*
X115911521Y-92401879D01*
X115911519Y-92401882D01*
X115860357Y-92497600D01*
X115791501Y-92581501D01*
X115707600Y-92650357D01*
X115639055Y-92686995D01*
X115611879Y-92701521D01*
X115508015Y-92733027D01*
X115427067Y-92741000D01*
X114572933Y-92741000D01*
X114491985Y-92733027D01*
X114388121Y-92701521D01*
X114360945Y-92686995D01*
X114292400Y-92650357D01*
X114208499Y-92581501D01*
X114139643Y-92497600D01*
X114088481Y-92401882D01*
X114088479Y-92401879D01*
X114056973Y-92298015D01*
X114046334Y-92190000D01*
X114056973Y-92081985D01*
X114088479Y-91978121D01*
X114109241Y-91939278D01*
X114139643Y-91882400D01*
X114208499Y-91798499D01*
X114292400Y-91729643D01*
X114360945Y-91693005D01*
X114388121Y-91678479D01*
X114491985Y-91646973D01*
X114572933Y-91639000D01*
X115427067Y-91639000D01*
X115508015Y-91646973D01*
G37*
G36*
X141834468Y-91053565D02*
G01*
X141873138Y-91065296D01*
X141908777Y-91084346D01*
X141940017Y-91109983D01*
X141965654Y-91141223D01*
X141984704Y-91176862D01*
X141996435Y-91215532D01*
X142001000Y-91261888D01*
X142001000Y-92338112D01*
X141996435Y-92384468D01*
X141984704Y-92423138D01*
X141965654Y-92458777D01*
X141940017Y-92490017D01*
X141908777Y-92515654D01*
X141873138Y-92534704D01*
X141834468Y-92546435D01*
X141788112Y-92551000D01*
X141136888Y-92551000D01*
X141090532Y-92546435D01*
X141051862Y-92534704D01*
X141016223Y-92515654D01*
X140984983Y-92490017D01*
X140959346Y-92458777D01*
X140940296Y-92423138D01*
X140928565Y-92384468D01*
X140924000Y-92338112D01*
X140924000Y-91261888D01*
X140928565Y-91215532D01*
X140940296Y-91176862D01*
X140959346Y-91141223D01*
X140984983Y-91109983D01*
X141016223Y-91084346D01*
X141051862Y-91065296D01*
X141090532Y-91053565D01*
X141136888Y-91049000D01*
X141788112Y-91049000D01*
X141834468Y-91053565D01*
G37*
G36*
X143709468Y-91053565D02*
G01*
X143748138Y-91065296D01*
X143783777Y-91084346D01*
X143815017Y-91109983D01*
X143840654Y-91141223D01*
X143859704Y-91176862D01*
X143871435Y-91215532D01*
X143876000Y-91261888D01*
X143876000Y-92338112D01*
X143871435Y-92384468D01*
X143859704Y-92423138D01*
X143840654Y-92458777D01*
X143815017Y-92490017D01*
X143783777Y-92515654D01*
X143748138Y-92534704D01*
X143709468Y-92546435D01*
X143663112Y-92551000D01*
X143011888Y-92551000D01*
X142965532Y-92546435D01*
X142926862Y-92534704D01*
X142891223Y-92515654D01*
X142859983Y-92490017D01*
X142834346Y-92458777D01*
X142815296Y-92423138D01*
X142803565Y-92384468D01*
X142799000Y-92338112D01*
X142799000Y-91261888D01*
X142803565Y-91215532D01*
X142815296Y-91176862D01*
X142834346Y-91141223D01*
X142859983Y-91109983D01*
X142891223Y-91084346D01*
X142926862Y-91065296D01*
X142965532Y-91053565D01*
X143011888Y-91049000D01*
X143663112Y-91049000D01*
X143709468Y-91053565D01*
G37*
G36*
X146059468Y-91083565D02*
G01*
X146098138Y-91095296D01*
X146133777Y-91114346D01*
X146165017Y-91139983D01*
X146190654Y-91171223D01*
X146209704Y-91206862D01*
X146221435Y-91245532D01*
X146226000Y-91291888D01*
X146226000Y-91943112D01*
X146221435Y-91989468D01*
X146209704Y-92028138D01*
X146190654Y-92063777D01*
X146165017Y-92095017D01*
X146133777Y-92120654D01*
X146098138Y-92139704D01*
X146059468Y-92151435D01*
X146013112Y-92156000D01*
X144936888Y-92156000D01*
X144890532Y-92151435D01*
X144851862Y-92139704D01*
X144816223Y-92120654D01*
X144784983Y-92095017D01*
X144759346Y-92063777D01*
X144740296Y-92028138D01*
X144728565Y-91989468D01*
X144724000Y-91943112D01*
X144724000Y-91291888D01*
X144728565Y-91245532D01*
X144740296Y-91206862D01*
X144759346Y-91171223D01*
X144784983Y-91139983D01*
X144816223Y-91114346D01*
X144851862Y-91095296D01*
X144890532Y-91083565D01*
X144936888Y-91079000D01*
X146013112Y-91079000D01*
X146059468Y-91083565D01*
G37*
G36*
X139784468Y-91083565D02*
G01*
X139823138Y-91095296D01*
X139858777Y-91114346D01*
X139890017Y-91139983D01*
X139915654Y-91171223D01*
X139934704Y-91206862D01*
X139946435Y-91245532D01*
X139951000Y-91291888D01*
X139951000Y-91943112D01*
X139946435Y-91989468D01*
X139934704Y-92028138D01*
X139915654Y-92063777D01*
X139890017Y-92095017D01*
X139858777Y-92120654D01*
X139823138Y-92139704D01*
X139784468Y-92151435D01*
X139738112Y-92156000D01*
X138661888Y-92156000D01*
X138615532Y-92151435D01*
X138576862Y-92139704D01*
X138541223Y-92120654D01*
X138509983Y-92095017D01*
X138484346Y-92063777D01*
X138465296Y-92028138D01*
X138453565Y-91989468D01*
X138449000Y-91943112D01*
X138449000Y-91291888D01*
X138453565Y-91245532D01*
X138465296Y-91206862D01*
X138484346Y-91171223D01*
X138509983Y-91139983D01*
X138541223Y-91114346D01*
X138576862Y-91095296D01*
X138615532Y-91083565D01*
X138661888Y-91079000D01*
X139738112Y-91079000D01*
X139784468Y-91083565D01*
G37*
G36*
X136356000Y-91666000D02*
G01*
X134304000Y-91666000D01*
X134304000Y-90964000D01*
X136356000Y-90964000D01*
X136356000Y-91666000D01*
G37*
G36*
X126956000Y-91666000D02*
G01*
X124904000Y-91666000D01*
X124904000Y-90964000D01*
X126956000Y-90964000D01*
X126956000Y-91666000D01*
G37*
G36*
X119184468Y-90103565D02*
G01*
X119223138Y-90115296D01*
X119258777Y-90134346D01*
X119290017Y-90159983D01*
X119315654Y-90191223D01*
X119334704Y-90226862D01*
X119346435Y-90265532D01*
X119351000Y-90311888D01*
X119351000Y-90963112D01*
X119346435Y-91009468D01*
X119334704Y-91048138D01*
X119315654Y-91083777D01*
X119290017Y-91115017D01*
X119258777Y-91140654D01*
X119223138Y-91159704D01*
X119184468Y-91171435D01*
X119138112Y-91176000D01*
X118061888Y-91176000D01*
X118015532Y-91171435D01*
X117976862Y-91159704D01*
X117941223Y-91140654D01*
X117909983Y-91115017D01*
X117884346Y-91083777D01*
X117865296Y-91048138D01*
X117853565Y-91009468D01*
X117849000Y-90963112D01*
X117849000Y-90311888D01*
X117853565Y-90265532D01*
X117865296Y-90226862D01*
X117884346Y-90191223D01*
X117909983Y-90159983D01*
X117941223Y-90134346D01*
X117976862Y-90115296D01*
X118015532Y-90103565D01*
X118061888Y-90099000D01*
X119138112Y-90099000D01*
X119184468Y-90103565D01*
G37*
G36*
X122684468Y-90103565D02*
G01*
X122723138Y-90115296D01*
X122758777Y-90134346D01*
X122790017Y-90159983D01*
X122815654Y-90191223D01*
X122834704Y-90226862D01*
X122846435Y-90265532D01*
X122851000Y-90311888D01*
X122851000Y-90963112D01*
X122846435Y-91009468D01*
X122834704Y-91048138D01*
X122815654Y-91083777D01*
X122790017Y-91115017D01*
X122758777Y-91140654D01*
X122723138Y-91159704D01*
X122684468Y-91171435D01*
X122638112Y-91176000D01*
X121561888Y-91176000D01*
X121515532Y-91171435D01*
X121476862Y-91159704D01*
X121441223Y-91140654D01*
X121409983Y-91115017D01*
X121384346Y-91083777D01*
X121365296Y-91048138D01*
X121353565Y-91009468D01*
X121349000Y-90963112D01*
X121349000Y-90311888D01*
X121353565Y-90265532D01*
X121365296Y-90226862D01*
X121384346Y-90191223D01*
X121409983Y-90159983D01*
X121441223Y-90134346D01*
X121476862Y-90115296D01*
X121515532Y-90103565D01*
X121561888Y-90099000D01*
X122638112Y-90099000D01*
X122684468Y-90103565D01*
G37*
G36*
X136356000Y-90396000D02*
G01*
X134304000Y-90396000D01*
X134304000Y-89694000D01*
X136356000Y-89694000D01*
X136356000Y-90396000D01*
G37*
G36*
X126956000Y-90396000D02*
G01*
X124904000Y-90396000D01*
X124904000Y-89694000D01*
X126956000Y-89694000D01*
X126956000Y-90396000D01*
G37*
G36*
X143709468Y-88853565D02*
G01*
X143748138Y-88865296D01*
X143783777Y-88884346D01*
X143815017Y-88909983D01*
X143840654Y-88941223D01*
X143859704Y-88976862D01*
X143871435Y-89015532D01*
X143876000Y-89061888D01*
X143876000Y-90138112D01*
X143871435Y-90184468D01*
X143859704Y-90223138D01*
X143840654Y-90258777D01*
X143815017Y-90290017D01*
X143783777Y-90315654D01*
X143748138Y-90334704D01*
X143709468Y-90346435D01*
X143663112Y-90351000D01*
X143011888Y-90351000D01*
X142965532Y-90346435D01*
X142926862Y-90334704D01*
X142891223Y-90315654D01*
X142859983Y-90290017D01*
X142834346Y-90258777D01*
X142815296Y-90223138D01*
X142803565Y-90184468D01*
X142799000Y-90138112D01*
X142799000Y-89061888D01*
X142803565Y-89015532D01*
X142815296Y-88976862D01*
X142834346Y-88941223D01*
X142859983Y-88909983D01*
X142891223Y-88884346D01*
X142926862Y-88865296D01*
X142965532Y-88853565D01*
X143011888Y-88849000D01*
X143663112Y-88849000D01*
X143709468Y-88853565D01*
G37*
G36*
X141834468Y-88853565D02*
G01*
X141873138Y-88865296D01*
X141908777Y-88884346D01*
X141940017Y-88909983D01*
X141965654Y-88941223D01*
X141984704Y-88976862D01*
X141996435Y-89015532D01*
X142001000Y-89061888D01*
X142001000Y-90138112D01*
X141996435Y-90184468D01*
X141984704Y-90223138D01*
X141965654Y-90258777D01*
X141940017Y-90290017D01*
X141908777Y-90315654D01*
X141873138Y-90334704D01*
X141834468Y-90346435D01*
X141788112Y-90351000D01*
X141136888Y-90351000D01*
X141090532Y-90346435D01*
X141051862Y-90334704D01*
X141016223Y-90315654D01*
X140984983Y-90290017D01*
X140959346Y-90258777D01*
X140940296Y-90223138D01*
X140928565Y-90184468D01*
X140924000Y-90138112D01*
X140924000Y-89061888D01*
X140928565Y-89015532D01*
X140940296Y-88976862D01*
X140959346Y-88941223D01*
X140984983Y-88909983D01*
X141016223Y-88884346D01*
X141051862Y-88865296D01*
X141090532Y-88853565D01*
X141136888Y-88849000D01*
X141788112Y-88849000D01*
X141834468Y-88853565D01*
G37*
G36*
X146059468Y-89208565D02*
G01*
X146098138Y-89220296D01*
X146133777Y-89239346D01*
X146165017Y-89264983D01*
X146190654Y-89296223D01*
X146209704Y-89331862D01*
X146221435Y-89370532D01*
X146226000Y-89416888D01*
X146226000Y-90068112D01*
X146221435Y-90114468D01*
X146209704Y-90153138D01*
X146190654Y-90188777D01*
X146165017Y-90220017D01*
X146133777Y-90245654D01*
X146098138Y-90264704D01*
X146059468Y-90276435D01*
X146013112Y-90281000D01*
X144936888Y-90281000D01*
X144890532Y-90276435D01*
X144851862Y-90264704D01*
X144816223Y-90245654D01*
X144784983Y-90220017D01*
X144759346Y-90188777D01*
X144740296Y-90153138D01*
X144728565Y-90114468D01*
X144724000Y-90068112D01*
X144724000Y-89416888D01*
X144728565Y-89370532D01*
X144740296Y-89331862D01*
X144759346Y-89296223D01*
X144784983Y-89264983D01*
X144816223Y-89239346D01*
X144851862Y-89220296D01*
X144890532Y-89208565D01*
X144936888Y-89204000D01*
X146013112Y-89204000D01*
X146059468Y-89208565D01*
G37*
G36*
X139784468Y-89208565D02*
G01*
X139823138Y-89220296D01*
X139858777Y-89239346D01*
X139890017Y-89264983D01*
X139915654Y-89296223D01*
X139934704Y-89331862D01*
X139946435Y-89370532D01*
X139951000Y-89416888D01*
X139951000Y-90068112D01*
X139946435Y-90114468D01*
X139934704Y-90153138D01*
X139915654Y-90188777D01*
X139890017Y-90220017D01*
X139858777Y-90245654D01*
X139823138Y-90264704D01*
X139784468Y-90276435D01*
X139738112Y-90281000D01*
X138661888Y-90281000D01*
X138615532Y-90276435D01*
X138576862Y-90264704D01*
X138541223Y-90245654D01*
X138509983Y-90220017D01*
X138484346Y-90188777D01*
X138465296Y-90153138D01*
X138453565Y-90114468D01*
X138449000Y-90068112D01*
X138449000Y-89416888D01*
X138453565Y-89370532D01*
X138465296Y-89331862D01*
X138484346Y-89296223D01*
X138509983Y-89264983D01*
X138541223Y-89239346D01*
X138576862Y-89220296D01*
X138615532Y-89208565D01*
X138661888Y-89204000D01*
X139738112Y-89204000D01*
X139784468Y-89208565D01*
G37*
G36*
X102209468Y-87853565D02*
G01*
X102248138Y-87865296D01*
X102283777Y-87884346D01*
X102315017Y-87909983D01*
X102340654Y-87941223D01*
X102359704Y-87976862D01*
X102371435Y-88015532D01*
X102376000Y-88061888D01*
X102376000Y-89138112D01*
X102371435Y-89184468D01*
X102359704Y-89223138D01*
X102340654Y-89258777D01*
X102315017Y-89290017D01*
X102283777Y-89315654D01*
X102248138Y-89334704D01*
X102209468Y-89346435D01*
X102163112Y-89351000D01*
X101511888Y-89351000D01*
X101465532Y-89346435D01*
X101426862Y-89334704D01*
X101391223Y-89315654D01*
X101359983Y-89290017D01*
X101334346Y-89258777D01*
X101315296Y-89223138D01*
X101303565Y-89184468D01*
X101299000Y-89138112D01*
X101299000Y-88061888D01*
X101303565Y-88015532D01*
X101315296Y-87976862D01*
X101334346Y-87941223D01*
X101359983Y-87909983D01*
X101391223Y-87884346D01*
X101426862Y-87865296D01*
X101465532Y-87853565D01*
X101511888Y-87849000D01*
X102163112Y-87849000D01*
X102209468Y-87853565D01*
G37*
G36*
X100334468Y-87853565D02*
G01*
X100373138Y-87865296D01*
X100408777Y-87884346D01*
X100440017Y-87909983D01*
X100465654Y-87941223D01*
X100484704Y-87976862D01*
X100496435Y-88015532D01*
X100501000Y-88061888D01*
X100501000Y-89138112D01*
X100496435Y-89184468D01*
X100484704Y-89223138D01*
X100465654Y-89258777D01*
X100440017Y-89290017D01*
X100408777Y-89315654D01*
X100373138Y-89334704D01*
X100334468Y-89346435D01*
X100288112Y-89351000D01*
X99636888Y-89351000D01*
X99590532Y-89346435D01*
X99551862Y-89334704D01*
X99516223Y-89315654D01*
X99484983Y-89290017D01*
X99459346Y-89258777D01*
X99440296Y-89223138D01*
X99428565Y-89184468D01*
X99424000Y-89138112D01*
X99424000Y-88061888D01*
X99428565Y-88015532D01*
X99440296Y-87976862D01*
X99459346Y-87941223D01*
X99484983Y-87909983D01*
X99516223Y-87884346D01*
X99551862Y-87865296D01*
X99590532Y-87853565D01*
X99636888Y-87849000D01*
X100288112Y-87849000D01*
X100334468Y-87853565D01*
G37*
G36*
X106859468Y-87853565D02*
G01*
X106898138Y-87865296D01*
X106933777Y-87884346D01*
X106965017Y-87909983D01*
X106990654Y-87941223D01*
X107009704Y-87976862D01*
X107021435Y-88015532D01*
X107026000Y-88061888D01*
X107026000Y-89138112D01*
X107021435Y-89184468D01*
X107009704Y-89223138D01*
X106990654Y-89258777D01*
X106965017Y-89290017D01*
X106933777Y-89315654D01*
X106898138Y-89334704D01*
X106859468Y-89346435D01*
X106813112Y-89351000D01*
X106161888Y-89351000D01*
X106115532Y-89346435D01*
X106076862Y-89334704D01*
X106041223Y-89315654D01*
X106009983Y-89290017D01*
X105984346Y-89258777D01*
X105965296Y-89223138D01*
X105953565Y-89184468D01*
X105949000Y-89138112D01*
X105949000Y-88061888D01*
X105953565Y-88015532D01*
X105965296Y-87976862D01*
X105984346Y-87941223D01*
X106009983Y-87909983D01*
X106041223Y-87884346D01*
X106076862Y-87865296D01*
X106115532Y-87853565D01*
X106161888Y-87849000D01*
X106813112Y-87849000D01*
X106859468Y-87853565D01*
G37*
G36*
X104984468Y-87853565D02*
G01*
X105023138Y-87865296D01*
X105058777Y-87884346D01*
X105090017Y-87909983D01*
X105115654Y-87941223D01*
X105134704Y-87976862D01*
X105146435Y-88015532D01*
X105151000Y-88061888D01*
X105151000Y-89138112D01*
X105146435Y-89184468D01*
X105134704Y-89223138D01*
X105115654Y-89258777D01*
X105090017Y-89290017D01*
X105058777Y-89315654D01*
X105023138Y-89334704D01*
X104984468Y-89346435D01*
X104938112Y-89351000D01*
X104286888Y-89351000D01*
X104240532Y-89346435D01*
X104201862Y-89334704D01*
X104166223Y-89315654D01*
X104134983Y-89290017D01*
X104109346Y-89258777D01*
X104090296Y-89223138D01*
X104078565Y-89184468D01*
X104074000Y-89138112D01*
X104074000Y-88061888D01*
X104078565Y-88015532D01*
X104090296Y-87976862D01*
X104109346Y-87941223D01*
X104134983Y-87909983D01*
X104166223Y-87884346D01*
X104201862Y-87865296D01*
X104240532Y-87853565D01*
X104286888Y-87849000D01*
X104938112Y-87849000D01*
X104984468Y-87853565D01*
G37*
G36*
X116159468Y-87853565D02*
G01*
X116198138Y-87865296D01*
X116233777Y-87884346D01*
X116265017Y-87909983D01*
X116290654Y-87941223D01*
X116309704Y-87976862D01*
X116321435Y-88015532D01*
X116326000Y-88061888D01*
X116326000Y-89138112D01*
X116321435Y-89184468D01*
X116309704Y-89223138D01*
X116290654Y-89258777D01*
X116265017Y-89290017D01*
X116233777Y-89315654D01*
X116198138Y-89334704D01*
X116159468Y-89346435D01*
X116113112Y-89351000D01*
X115461888Y-89351000D01*
X115415532Y-89346435D01*
X115376862Y-89334704D01*
X115341223Y-89315654D01*
X115309983Y-89290017D01*
X115284346Y-89258777D01*
X115265296Y-89223138D01*
X115253565Y-89184468D01*
X115249000Y-89138112D01*
X115249000Y-88061888D01*
X115253565Y-88015532D01*
X115265296Y-87976862D01*
X115284346Y-87941223D01*
X115309983Y-87909983D01*
X115341223Y-87884346D01*
X115376862Y-87865296D01*
X115415532Y-87853565D01*
X115461888Y-87849000D01*
X116113112Y-87849000D01*
X116159468Y-87853565D01*
G37*
G36*
X114284468Y-87853565D02*
G01*
X114323138Y-87865296D01*
X114358777Y-87884346D01*
X114390017Y-87909983D01*
X114415654Y-87941223D01*
X114434704Y-87976862D01*
X114446435Y-88015532D01*
X114451000Y-88061888D01*
X114451000Y-89138112D01*
X114446435Y-89184468D01*
X114434704Y-89223138D01*
X114415654Y-89258777D01*
X114390017Y-89290017D01*
X114358777Y-89315654D01*
X114323138Y-89334704D01*
X114284468Y-89346435D01*
X114238112Y-89351000D01*
X113586888Y-89351000D01*
X113540532Y-89346435D01*
X113501862Y-89334704D01*
X113466223Y-89315654D01*
X113434983Y-89290017D01*
X113409346Y-89258777D01*
X113390296Y-89223138D01*
X113378565Y-89184468D01*
X113374000Y-89138112D01*
X113374000Y-88061888D01*
X113378565Y-88015532D01*
X113390296Y-87976862D01*
X113409346Y-87941223D01*
X113434983Y-87909983D01*
X113466223Y-87884346D01*
X113501862Y-87865296D01*
X113540532Y-87853565D01*
X113586888Y-87849000D01*
X114238112Y-87849000D01*
X114284468Y-87853565D01*
G37*
G36*
X109634468Y-87853565D02*
G01*
X109673138Y-87865296D01*
X109708777Y-87884346D01*
X109740017Y-87909983D01*
X109765654Y-87941223D01*
X109784704Y-87976862D01*
X109796435Y-88015532D01*
X109801000Y-88061888D01*
X109801000Y-89138112D01*
X109796435Y-89184468D01*
X109784704Y-89223138D01*
X109765654Y-89258777D01*
X109740017Y-89290017D01*
X109708777Y-89315654D01*
X109673138Y-89334704D01*
X109634468Y-89346435D01*
X109588112Y-89351000D01*
X108936888Y-89351000D01*
X108890532Y-89346435D01*
X108851862Y-89334704D01*
X108816223Y-89315654D01*
X108784983Y-89290017D01*
X108759346Y-89258777D01*
X108740296Y-89223138D01*
X108728565Y-89184468D01*
X108724000Y-89138112D01*
X108724000Y-88061888D01*
X108728565Y-88015532D01*
X108740296Y-87976862D01*
X108759346Y-87941223D01*
X108784983Y-87909983D01*
X108816223Y-87884346D01*
X108851862Y-87865296D01*
X108890532Y-87853565D01*
X108936888Y-87849000D01*
X109588112Y-87849000D01*
X109634468Y-87853565D01*
G37*
G36*
X111509468Y-87853565D02*
G01*
X111548138Y-87865296D01*
X111583777Y-87884346D01*
X111615017Y-87909983D01*
X111640654Y-87941223D01*
X111659704Y-87976862D01*
X111671435Y-88015532D01*
X111676000Y-88061888D01*
X111676000Y-89138112D01*
X111671435Y-89184468D01*
X111659704Y-89223138D01*
X111640654Y-89258777D01*
X111615017Y-89290017D01*
X111583777Y-89315654D01*
X111548138Y-89334704D01*
X111509468Y-89346435D01*
X111463112Y-89351000D01*
X110811888Y-89351000D01*
X110765532Y-89346435D01*
X110726862Y-89334704D01*
X110691223Y-89315654D01*
X110659983Y-89290017D01*
X110634346Y-89258777D01*
X110615296Y-89223138D01*
X110603565Y-89184468D01*
X110599000Y-89138112D01*
X110599000Y-88061888D01*
X110603565Y-88015532D01*
X110615296Y-87976862D01*
X110634346Y-87941223D01*
X110659983Y-87909983D01*
X110691223Y-87884346D01*
X110726862Y-87865296D01*
X110765532Y-87853565D01*
X110811888Y-87849000D01*
X111463112Y-87849000D01*
X111509468Y-87853565D01*
G37*
G36*
X119184468Y-88228565D02*
G01*
X119223138Y-88240296D01*
X119258777Y-88259346D01*
X119290017Y-88284983D01*
X119315654Y-88316223D01*
X119334704Y-88351862D01*
X119346435Y-88390532D01*
X119351000Y-88436888D01*
X119351000Y-89088112D01*
X119346435Y-89134468D01*
X119334704Y-89173138D01*
X119315654Y-89208777D01*
X119290017Y-89240017D01*
X119258777Y-89265654D01*
X119223138Y-89284704D01*
X119184468Y-89296435D01*
X119138112Y-89301000D01*
X118061888Y-89301000D01*
X118015532Y-89296435D01*
X117976862Y-89284704D01*
X117941223Y-89265654D01*
X117909983Y-89240017D01*
X117884346Y-89208777D01*
X117865296Y-89173138D01*
X117853565Y-89134468D01*
X117849000Y-89088112D01*
X117849000Y-88436888D01*
X117853565Y-88390532D01*
X117865296Y-88351862D01*
X117884346Y-88316223D01*
X117909983Y-88284983D01*
X117941223Y-88259346D01*
X117976862Y-88240296D01*
X118015532Y-88228565D01*
X118061888Y-88224000D01*
X119138112Y-88224000D01*
X119184468Y-88228565D01*
G37*
G36*
X122684468Y-88228565D02*
G01*
X122723138Y-88240296D01*
X122758777Y-88259346D01*
X122790017Y-88284983D01*
X122815654Y-88316223D01*
X122834704Y-88351862D01*
X122846435Y-88390532D01*
X122851000Y-88436888D01*
X122851000Y-89088112D01*
X122846435Y-89134468D01*
X122834704Y-89173138D01*
X122815654Y-89208777D01*
X122790017Y-89240017D01*
X122758777Y-89265654D01*
X122723138Y-89284704D01*
X122684468Y-89296435D01*
X122638112Y-89301000D01*
X121561888Y-89301000D01*
X121515532Y-89296435D01*
X121476862Y-89284704D01*
X121441223Y-89265654D01*
X121409983Y-89240017D01*
X121384346Y-89208777D01*
X121365296Y-89173138D01*
X121353565Y-89134468D01*
X121349000Y-89088112D01*
X121349000Y-88436888D01*
X121353565Y-88390532D01*
X121365296Y-88351862D01*
X121384346Y-88316223D01*
X121409983Y-88284983D01*
X121441223Y-88259346D01*
X121476862Y-88240296D01*
X121515532Y-88228565D01*
X121561888Y-88224000D01*
X122638112Y-88224000D01*
X122684468Y-88228565D01*
G37*
G36*
X126956000Y-89126000D02*
G01*
X124904000Y-89126000D01*
X124904000Y-88424000D01*
X126956000Y-88424000D01*
X126956000Y-89126000D01*
G37*
G36*
X136356000Y-89126000D02*
G01*
X134304000Y-89126000D01*
X134304000Y-88424000D01*
X136356000Y-88424000D01*
X136356000Y-89126000D01*
G37*
G36*
X157215098Y-86240362D02*
G01*
X157339941Y-86292074D01*
X157339943Y-86292075D01*
X157452299Y-86367149D01*
X157547851Y-86462701D01*
X157622926Y-86575059D01*
X157674638Y-86699902D01*
X157701000Y-86832434D01*
X157701000Y-86967566D01*
X157674638Y-87100098D01*
X157622926Y-87224941D01*
X157622925Y-87224943D01*
X157547851Y-87337299D01*
X157452299Y-87432851D01*
X157339943Y-87507925D01*
X157339942Y-87507926D01*
X157339941Y-87507926D01*
X157215098Y-87559638D01*
X157082566Y-87586000D01*
X156947434Y-87586000D01*
X156814902Y-87559638D01*
X156690059Y-87507926D01*
X156690058Y-87507926D01*
X156690057Y-87507925D01*
X156577701Y-87432851D01*
X156482149Y-87337299D01*
X156407075Y-87224943D01*
X156407074Y-87224941D01*
X156355362Y-87100098D01*
X156329000Y-86967566D01*
X156329000Y-86832434D01*
X156355362Y-86699902D01*
X156407074Y-86575059D01*
X156482149Y-86462701D01*
X156577701Y-86367149D01*
X156690057Y-86292075D01*
X156690059Y-86292074D01*
X156814902Y-86240362D01*
X156947434Y-86214000D01*
X157082566Y-86214000D01*
X157215098Y-86240362D01*
G37*
G36*
X101701000Y-85901000D02*
G01*
X100099000Y-85901000D01*
X100099000Y-83799000D01*
X101701000Y-83799000D01*
X101701000Y-85901000D01*
G37*
G36*
X106301000Y-85901000D02*
G01*
X104699000Y-85901000D01*
X104699000Y-83799000D01*
X106301000Y-83799000D01*
X106301000Y-85901000D01*
G37*
G36*
X104001000Y-85901000D02*
G01*
X102399000Y-85901000D01*
X102399000Y-83799000D01*
X104001000Y-83799000D01*
X104001000Y-85901000D01*
G37*
G36*
X152501000Y-85751000D02*
G01*
X149649000Y-85751000D01*
X149649000Y-84649000D01*
X152501000Y-84649000D01*
X152501000Y-85751000D01*
G37*
G36*
X146751000Y-85751000D02*
G01*
X143899000Y-85751000D01*
X143899000Y-84649000D01*
X146751000Y-84649000D01*
X146751000Y-85751000D01*
G37*
G36*
X142109468Y-83553565D02*
G01*
X142148138Y-83565296D01*
X142183777Y-83584346D01*
X142215017Y-83609983D01*
X142240654Y-83641223D01*
X142259704Y-83676862D01*
X142271435Y-83715532D01*
X142276000Y-83761888D01*
X142276000Y-84838112D01*
X142271435Y-84884468D01*
X142259704Y-84923138D01*
X142240654Y-84958777D01*
X142215017Y-84990017D01*
X142183777Y-85015654D01*
X142148138Y-85034704D01*
X142109468Y-85046435D01*
X142063112Y-85051000D01*
X141411888Y-85051000D01*
X141365532Y-85046435D01*
X141326862Y-85034704D01*
X141291223Y-85015654D01*
X141259983Y-84990017D01*
X141234346Y-84958777D01*
X141215296Y-84923138D01*
X141203565Y-84884468D01*
X141199000Y-84838112D01*
X141199000Y-83761888D01*
X141203565Y-83715532D01*
X141215296Y-83676862D01*
X141234346Y-83641223D01*
X141259983Y-83609983D01*
X141291223Y-83584346D01*
X141326862Y-83565296D01*
X141365532Y-83553565D01*
X141411888Y-83549000D01*
X142063112Y-83549000D01*
X142109468Y-83553565D01*
G37*
G36*
X140234468Y-83553565D02*
G01*
X140273138Y-83565296D01*
X140308777Y-83584346D01*
X140340017Y-83609983D01*
X140365654Y-83641223D01*
X140384704Y-83676862D01*
X140396435Y-83715532D01*
X140401000Y-83761888D01*
X140401000Y-84838112D01*
X140396435Y-84884468D01*
X140384704Y-84923138D01*
X140365654Y-84958777D01*
X140340017Y-84990017D01*
X140308777Y-85015654D01*
X140273138Y-85034704D01*
X140234468Y-85046435D01*
X140188112Y-85051000D01*
X139536888Y-85051000D01*
X139490532Y-85046435D01*
X139451862Y-85034704D01*
X139416223Y-85015654D01*
X139384983Y-84990017D01*
X139359346Y-84958777D01*
X139340296Y-84923138D01*
X139328565Y-84884468D01*
X139324000Y-84838112D01*
X139324000Y-83761888D01*
X139328565Y-83715532D01*
X139340296Y-83676862D01*
X139359346Y-83641223D01*
X139384983Y-83609983D01*
X139416223Y-83584346D01*
X139451862Y-83565296D01*
X139490532Y-83553565D01*
X139536888Y-83549000D01*
X140188112Y-83549000D01*
X140234468Y-83553565D01*
G37*
G36*
X110623241Y-82104760D02*
G01*
X110887305Y-82214139D01*
X111124958Y-82372934D01*
X111327066Y-82575042D01*
X111485861Y-82812695D01*
X111595240Y-83076759D01*
X111651000Y-83357088D01*
X111651000Y-83642912D01*
X111595240Y-83923241D01*
X111485861Y-84187305D01*
X111327066Y-84424958D01*
X111124958Y-84627066D01*
X110887305Y-84785861D01*
X110623241Y-84895240D01*
X110342912Y-84951000D01*
X110057088Y-84951000D01*
X109776759Y-84895240D01*
X109512695Y-84785861D01*
X109275042Y-84627066D01*
X109072934Y-84424958D01*
X108914139Y-84187305D01*
X108804760Y-83923241D01*
X108749000Y-83642912D01*
X108749000Y-83357088D01*
X108804760Y-83076759D01*
X108914139Y-82812695D01*
X109072934Y-82575042D01*
X109275042Y-82372934D01*
X109512695Y-82214139D01*
X109776759Y-82104760D01*
X110057088Y-82049000D01*
X110342912Y-82049000D01*
X110623241Y-82104760D01*
G37*
G36*
X115323241Y-82104760D02*
G01*
X115587305Y-82214139D01*
X115824958Y-82372934D01*
X116027066Y-82575042D01*
X116185861Y-82812695D01*
X116295240Y-83076759D01*
X116351000Y-83357088D01*
X116351000Y-83642912D01*
X116295240Y-83923241D01*
X116185861Y-84187305D01*
X116027066Y-84424958D01*
X115824958Y-84627066D01*
X115587305Y-84785861D01*
X115323241Y-84895240D01*
X115042912Y-84951000D01*
X114757088Y-84951000D01*
X114476759Y-84895240D01*
X114212695Y-84785861D01*
X113975042Y-84627066D01*
X113772934Y-84424958D01*
X113614139Y-84187305D01*
X113504760Y-83923241D01*
X113449000Y-83642912D01*
X113449000Y-83357088D01*
X113504760Y-83076759D01*
X113614139Y-82812695D01*
X113772934Y-82575042D01*
X113975042Y-82372934D01*
X114212695Y-82214139D01*
X114476759Y-82104760D01*
X114757088Y-82049000D01*
X115042912Y-82049000D01*
X115323241Y-82104760D01*
G37*
G36*
X127050295Y-83150323D02*
G01*
X127057309Y-83152451D01*
X127071077Y-83159810D01*
X127093716Y-83169187D01*
X127117749Y-83173967D01*
X127142253Y-83173967D01*
X127166286Y-83169186D01*
X127188923Y-83159810D01*
X127202691Y-83152451D01*
X127209705Y-83150323D01*
X127223140Y-83149000D01*
X127536860Y-83149000D01*
X127550295Y-83150323D01*
X127557309Y-83152451D01*
X127571077Y-83159810D01*
X127593716Y-83169187D01*
X127617749Y-83173967D01*
X127642253Y-83173967D01*
X127666286Y-83169186D01*
X127688923Y-83159810D01*
X127702691Y-83152451D01*
X127709705Y-83150323D01*
X127723140Y-83149000D01*
X128036860Y-83149000D01*
X128050295Y-83150323D01*
X128057309Y-83152451D01*
X128071077Y-83159810D01*
X128093716Y-83169187D01*
X128117749Y-83173967D01*
X128142253Y-83173967D01*
X128166286Y-83169186D01*
X128188923Y-83159810D01*
X128202691Y-83152451D01*
X128209705Y-83150323D01*
X128223140Y-83149000D01*
X128536860Y-83149000D01*
X128550295Y-83150323D01*
X128557309Y-83152451D01*
X128571077Y-83159810D01*
X128593716Y-83169187D01*
X128617749Y-83173967D01*
X128642253Y-83173967D01*
X128666286Y-83169186D01*
X128688923Y-83159810D01*
X128702691Y-83152451D01*
X128709705Y-83150323D01*
X128723140Y-83149000D01*
X129036860Y-83149000D01*
X129050295Y-83150323D01*
X129057309Y-83152451D01*
X129071077Y-83159810D01*
X129093716Y-83169187D01*
X129117749Y-83173967D01*
X129142253Y-83173967D01*
X129166286Y-83169186D01*
X129188923Y-83159810D01*
X129202691Y-83152451D01*
X129209705Y-83150323D01*
X129223140Y-83149000D01*
X129536860Y-83149000D01*
X129550295Y-83150323D01*
X129557309Y-83152451D01*
X129571077Y-83159810D01*
X129593716Y-83169187D01*
X129617749Y-83173967D01*
X129642253Y-83173967D01*
X129666286Y-83169186D01*
X129688923Y-83159810D01*
X129702691Y-83152451D01*
X129709705Y-83150323D01*
X129723140Y-83149000D01*
X130036860Y-83149000D01*
X130050295Y-83150323D01*
X130057309Y-83152451D01*
X130071077Y-83159810D01*
X130093716Y-83169187D01*
X130117749Y-83173967D01*
X130142253Y-83173967D01*
X130166286Y-83169186D01*
X130188923Y-83159810D01*
X130202691Y-83152451D01*
X130209705Y-83150323D01*
X130223140Y-83149000D01*
X130536860Y-83149000D01*
X130550295Y-83150323D01*
X130557309Y-83152451D01*
X130571077Y-83159810D01*
X130593716Y-83169187D01*
X130617749Y-83173967D01*
X130642253Y-83173967D01*
X130666286Y-83169186D01*
X130688923Y-83159810D01*
X130702691Y-83152451D01*
X130709705Y-83150323D01*
X130723140Y-83149000D01*
X131036860Y-83149000D01*
X131050295Y-83150323D01*
X131057309Y-83152451D01*
X131071077Y-83159810D01*
X131093716Y-83169187D01*
X131117749Y-83173967D01*
X131142253Y-83173967D01*
X131166286Y-83169186D01*
X131188923Y-83159810D01*
X131202691Y-83152451D01*
X131209705Y-83150323D01*
X131223140Y-83149000D01*
X131536860Y-83149000D01*
X131550295Y-83150323D01*
X131557309Y-83152451D01*
X131571077Y-83159810D01*
X131593716Y-83169187D01*
X131617749Y-83173967D01*
X131642253Y-83173967D01*
X131666286Y-83169186D01*
X131688923Y-83159810D01*
X131702691Y-83152451D01*
X131709705Y-83150323D01*
X131723140Y-83149000D01*
X132036860Y-83149000D01*
X132050295Y-83150323D01*
X132057309Y-83152451D01*
X132071077Y-83159810D01*
X132093716Y-83169187D01*
X132117749Y-83173967D01*
X132142253Y-83173967D01*
X132166286Y-83169186D01*
X132188923Y-83159810D01*
X132202691Y-83152451D01*
X132209705Y-83150323D01*
X132223140Y-83149000D01*
X132536860Y-83149000D01*
X132550295Y-83150323D01*
X132557309Y-83152451D01*
X132571077Y-83159810D01*
X132593716Y-83169187D01*
X132617749Y-83173967D01*
X132642253Y-83173967D01*
X132666286Y-83169186D01*
X132688923Y-83159810D01*
X132702691Y-83152451D01*
X132709705Y-83150323D01*
X132723140Y-83149000D01*
X133036860Y-83149000D01*
X133050295Y-83150323D01*
X133057309Y-83152451D01*
X133071077Y-83159810D01*
X133093716Y-83169187D01*
X133117749Y-83173967D01*
X133142253Y-83173967D01*
X133166286Y-83169186D01*
X133188923Y-83159810D01*
X133202691Y-83152451D01*
X133209705Y-83150323D01*
X133223140Y-83149000D01*
X133536860Y-83149000D01*
X133550295Y-83150323D01*
X133557309Y-83152451D01*
X133571077Y-83159810D01*
X133593716Y-83169187D01*
X133617749Y-83173967D01*
X133642253Y-83173967D01*
X133666286Y-83169186D01*
X133688923Y-83159810D01*
X133702691Y-83152451D01*
X133709705Y-83150323D01*
X133723140Y-83149000D01*
X134036860Y-83149000D01*
X134050295Y-83150323D01*
X134057309Y-83152451D01*
X134071077Y-83159810D01*
X134093716Y-83169187D01*
X134117749Y-83173967D01*
X134142253Y-83173967D01*
X134166286Y-83169186D01*
X134188923Y-83159810D01*
X134202691Y-83152451D01*
X134209705Y-83150323D01*
X134223140Y-83149000D01*
X134536860Y-83149000D01*
X134550295Y-83150323D01*
X134557310Y-83152451D01*
X134563776Y-83155908D01*
X134569442Y-83160558D01*
X134574092Y-83166224D01*
X134577549Y-83172690D01*
X134579677Y-83179705D01*
X134581000Y-83193140D01*
X134581000Y-84756860D01*
X134579677Y-84770295D01*
X134577549Y-84777310D01*
X134574092Y-84783776D01*
X134569442Y-84789442D01*
X134563776Y-84794092D01*
X134557310Y-84797549D01*
X134550295Y-84799677D01*
X134536860Y-84801000D01*
X134223140Y-84801000D01*
X134209705Y-84799677D01*
X134202691Y-84797549D01*
X134188923Y-84790190D01*
X134166284Y-84780813D01*
X134142251Y-84776033D01*
X134117747Y-84776033D01*
X134093714Y-84780814D01*
X134071077Y-84790190D01*
X134057309Y-84797549D01*
X134050295Y-84799677D01*
X134036860Y-84801000D01*
X133723140Y-84801000D01*
X133709705Y-84799677D01*
X133702691Y-84797549D01*
X133688923Y-84790190D01*
X133666284Y-84780813D01*
X133642251Y-84776033D01*
X133617747Y-84776033D01*
X133593714Y-84780814D01*
X133571077Y-84790190D01*
X133557309Y-84797549D01*
X133550295Y-84799677D01*
X133536860Y-84801000D01*
X133223140Y-84801000D01*
X133209705Y-84799677D01*
X133202691Y-84797549D01*
X133188923Y-84790190D01*
X133166284Y-84780813D01*
X133142251Y-84776033D01*
X133117747Y-84776033D01*
X133093714Y-84780814D01*
X133071077Y-84790190D01*
X133057309Y-84797549D01*
X133050295Y-84799677D01*
X133036860Y-84801000D01*
X132723140Y-84801000D01*
X132709705Y-84799677D01*
X132702691Y-84797549D01*
X132688923Y-84790190D01*
X132666284Y-84780813D01*
X132642251Y-84776033D01*
X132617747Y-84776033D01*
X132593714Y-84780814D01*
X132571077Y-84790190D01*
X132557309Y-84797549D01*
X132550295Y-84799677D01*
X132536860Y-84801000D01*
X132223140Y-84801000D01*
X132209705Y-84799677D01*
X132202691Y-84797549D01*
X132188923Y-84790190D01*
X132166284Y-84780813D01*
X132142251Y-84776033D01*
X132117747Y-84776033D01*
X132093714Y-84780814D01*
X132071077Y-84790190D01*
X132057309Y-84797549D01*
X132050295Y-84799677D01*
X132036860Y-84801000D01*
X131723140Y-84801000D01*
X131709705Y-84799677D01*
X131702691Y-84797549D01*
X131688923Y-84790190D01*
X131666284Y-84780813D01*
X131642251Y-84776033D01*
X131617747Y-84776033D01*
X131593714Y-84780814D01*
X131571077Y-84790190D01*
X131557309Y-84797549D01*
X131550295Y-84799677D01*
X131536860Y-84801000D01*
X131223140Y-84801000D01*
X131209705Y-84799677D01*
X131202691Y-84797549D01*
X131188923Y-84790190D01*
X131166284Y-84780813D01*
X131142251Y-84776033D01*
X131117747Y-84776033D01*
X131093714Y-84780814D01*
X131071077Y-84790190D01*
X131057309Y-84797549D01*
X131050295Y-84799677D01*
X131036860Y-84801000D01*
X130723140Y-84801000D01*
X130709705Y-84799677D01*
X130702691Y-84797549D01*
X130688923Y-84790190D01*
X130666284Y-84780813D01*
X130642251Y-84776033D01*
X130617747Y-84776033D01*
X130593714Y-84780814D01*
X130571077Y-84790190D01*
X130557309Y-84797549D01*
X130550295Y-84799677D01*
X130536860Y-84801000D01*
X130223140Y-84801000D01*
X130209705Y-84799677D01*
X130202691Y-84797549D01*
X130188923Y-84790190D01*
X130166284Y-84780813D01*
X130142251Y-84776033D01*
X130117747Y-84776033D01*
X130093714Y-84780814D01*
X130071077Y-84790190D01*
X130057309Y-84797549D01*
X130050295Y-84799677D01*
X130036860Y-84801000D01*
X129723140Y-84801000D01*
X129709705Y-84799677D01*
X129702691Y-84797549D01*
X129688923Y-84790190D01*
X129666284Y-84780813D01*
X129642251Y-84776033D01*
X129617747Y-84776033D01*
X129593714Y-84780814D01*
X129571077Y-84790190D01*
X129557309Y-84797549D01*
X129550295Y-84799677D01*
X129536860Y-84801000D01*
X129223140Y-84801000D01*
X129209705Y-84799677D01*
X129202691Y-84797549D01*
X129188923Y-84790190D01*
X129166284Y-84780813D01*
X129142251Y-84776033D01*
X129117747Y-84776033D01*
X129093714Y-84780814D01*
X129071077Y-84790190D01*
X129057309Y-84797549D01*
X129050295Y-84799677D01*
X129036860Y-84801000D01*
X128723140Y-84801000D01*
X128709705Y-84799677D01*
X128702691Y-84797549D01*
X128688923Y-84790190D01*
X128666284Y-84780813D01*
X128642251Y-84776033D01*
X128617747Y-84776033D01*
X128593714Y-84780814D01*
X128571077Y-84790190D01*
X128557309Y-84797549D01*
X128550295Y-84799677D01*
X128536860Y-84801000D01*
X128223140Y-84801000D01*
X128209705Y-84799677D01*
X128202691Y-84797549D01*
X128188923Y-84790190D01*
X128166284Y-84780813D01*
X128142251Y-84776033D01*
X128117747Y-84776033D01*
X128093714Y-84780814D01*
X128071077Y-84790190D01*
X128057309Y-84797549D01*
X128050295Y-84799677D01*
X128036860Y-84801000D01*
X127723140Y-84801000D01*
X127709705Y-84799677D01*
X127702691Y-84797549D01*
X127688923Y-84790190D01*
X127666284Y-84780813D01*
X127642251Y-84776033D01*
X127617747Y-84776033D01*
X127593714Y-84780814D01*
X127571077Y-84790190D01*
X127557309Y-84797549D01*
X127550295Y-84799677D01*
X127536860Y-84801000D01*
X127223140Y-84801000D01*
X127209705Y-84799677D01*
X127202691Y-84797549D01*
X127188923Y-84790190D01*
X127166284Y-84780813D01*
X127142251Y-84776033D01*
X127117747Y-84776033D01*
X127093714Y-84780814D01*
X127071077Y-84790190D01*
X127057309Y-84797549D01*
X127050295Y-84799677D01*
X127036860Y-84801000D01*
X126723140Y-84801000D01*
X126709705Y-84799677D01*
X126702690Y-84797549D01*
X126696224Y-84794092D01*
X126690558Y-84789442D01*
X126685908Y-84783776D01*
X126682451Y-84777310D01*
X126680323Y-84770295D01*
X126679000Y-84756860D01*
X126679000Y-83193140D01*
X126680323Y-83179705D01*
X126682451Y-83172690D01*
X126685908Y-83166224D01*
X126690558Y-83160558D01*
X126696224Y-83155908D01*
X126702690Y-83152451D01*
X126709705Y-83150323D01*
X126723140Y-83149000D01*
X127036860Y-83149000D01*
X127050295Y-83150323D01*
G37*
G36*
X159088512Y-83003927D02*
G01*
X159237812Y-83033624D01*
X159401784Y-83101544D01*
X159549354Y-83200147D01*
X159674853Y-83325646D01*
X159773456Y-83473216D01*
X159841376Y-83637188D01*
X159876000Y-83811259D01*
X159876000Y-83988741D01*
X159841376Y-84162812D01*
X159773456Y-84326784D01*
X159674853Y-84474354D01*
X159549354Y-84599853D01*
X159401784Y-84698456D01*
X159237812Y-84766376D01*
X159088512Y-84796073D01*
X159063742Y-84801000D01*
X158886258Y-84801000D01*
X158861488Y-84796073D01*
X158712188Y-84766376D01*
X158548216Y-84698456D01*
X158400646Y-84599853D01*
X158275147Y-84474354D01*
X158176544Y-84326784D01*
X158108624Y-84162812D01*
X158074000Y-83988741D01*
X158074000Y-83811259D01*
X158108624Y-83637188D01*
X158176544Y-83473216D01*
X158275147Y-83325646D01*
X158400646Y-83200147D01*
X158548216Y-83101544D01*
X158712188Y-83033624D01*
X158861488Y-83003927D01*
X158886258Y-82999000D01*
X159063742Y-82999000D01*
X159088512Y-83003927D01*
G37*
G36*
X142051000Y-82551000D02*
G01*
X139549000Y-82551000D01*
X139549000Y-80749000D01*
X142051000Y-80749000D01*
X142051000Y-82551000D01*
G37*
G36*
X125750295Y-74350323D02*
G01*
X125757310Y-74352451D01*
X125763776Y-74355908D01*
X125769442Y-74360558D01*
X125774092Y-74366224D01*
X125777549Y-74372690D01*
X125779677Y-74379705D01*
X125781000Y-74393140D01*
X125781000Y-74706860D01*
X125779677Y-74720295D01*
X125777549Y-74727309D01*
X125770190Y-74741077D01*
X125760813Y-74763716D01*
X125756033Y-74787749D01*
X125756033Y-74812253D01*
X125760814Y-74836286D01*
X125770190Y-74858923D01*
X125777549Y-74872691D01*
X125779677Y-74879705D01*
X125781000Y-74893140D01*
X125781000Y-75206860D01*
X125779677Y-75220295D01*
X125777549Y-75227309D01*
X125770190Y-75241077D01*
X125760813Y-75263716D01*
X125756033Y-75287749D01*
X125756033Y-75312253D01*
X125760814Y-75336286D01*
X125770190Y-75358923D01*
X125777549Y-75372691D01*
X125779677Y-75379705D01*
X125781000Y-75393140D01*
X125781000Y-75706860D01*
X125779677Y-75720295D01*
X125777549Y-75727309D01*
X125770190Y-75741077D01*
X125760813Y-75763716D01*
X125756033Y-75787749D01*
X125756033Y-75812253D01*
X125760814Y-75836286D01*
X125770190Y-75858923D01*
X125777549Y-75872691D01*
X125779677Y-75879705D01*
X125781000Y-75893140D01*
X125781000Y-76206860D01*
X125779677Y-76220295D01*
X125777549Y-76227309D01*
X125770190Y-76241077D01*
X125760813Y-76263716D01*
X125756033Y-76287749D01*
X125756033Y-76312253D01*
X125760814Y-76336286D01*
X125770190Y-76358923D01*
X125777549Y-76372691D01*
X125779677Y-76379705D01*
X125781000Y-76393140D01*
X125781000Y-76706860D01*
X125779677Y-76720295D01*
X125777549Y-76727309D01*
X125770190Y-76741077D01*
X125760813Y-76763716D01*
X125756033Y-76787749D01*
X125756033Y-76812253D01*
X125760814Y-76836286D01*
X125770190Y-76858923D01*
X125777549Y-76872691D01*
X125779677Y-76879705D01*
X125781000Y-76893140D01*
X125781000Y-77206860D01*
X125779677Y-77220295D01*
X125777549Y-77227309D01*
X125770190Y-77241077D01*
X125760813Y-77263716D01*
X125756033Y-77287749D01*
X125756033Y-77312253D01*
X125760814Y-77336286D01*
X125770190Y-77358923D01*
X125777549Y-77372691D01*
X125779677Y-77379705D01*
X125781000Y-77393140D01*
X125781000Y-77706860D01*
X125779677Y-77720295D01*
X125777549Y-77727309D01*
X125770190Y-77741077D01*
X125760813Y-77763716D01*
X125756033Y-77787749D01*
X125756033Y-77812253D01*
X125760814Y-77836286D01*
X125770190Y-77858923D01*
X125777549Y-77872691D01*
X125779677Y-77879705D01*
X125781000Y-77893140D01*
X125781000Y-78206860D01*
X125779677Y-78220295D01*
X125777549Y-78227309D01*
X125770190Y-78241077D01*
X125760813Y-78263716D01*
X125756033Y-78287749D01*
X125756033Y-78312253D01*
X125760814Y-78336286D01*
X125770190Y-78358923D01*
X125777549Y-78372691D01*
X125779677Y-78379705D01*
X125781000Y-78393140D01*
X125781000Y-78706860D01*
X125779677Y-78720295D01*
X125777549Y-78727309D01*
X125770190Y-78741077D01*
X125760813Y-78763716D01*
X125756033Y-78787749D01*
X125756033Y-78812253D01*
X125760814Y-78836286D01*
X125770190Y-78858923D01*
X125777549Y-78872691D01*
X125779677Y-78879705D01*
X125781000Y-78893140D01*
X125781000Y-79206860D01*
X125779677Y-79220295D01*
X125777549Y-79227309D01*
X125770190Y-79241077D01*
X125760813Y-79263716D01*
X125756033Y-79287749D01*
X125756033Y-79312253D01*
X125760814Y-79336286D01*
X125770190Y-79358923D01*
X125777549Y-79372691D01*
X125779677Y-79379705D01*
X125781000Y-79393140D01*
X125781000Y-79706860D01*
X125779677Y-79720295D01*
X125777549Y-79727309D01*
X125770190Y-79741077D01*
X125760813Y-79763716D01*
X125756033Y-79787749D01*
X125756033Y-79812253D01*
X125760814Y-79836286D01*
X125770190Y-79858923D01*
X125777549Y-79872691D01*
X125779677Y-79879705D01*
X125781000Y-79893140D01*
X125781000Y-80206860D01*
X125779677Y-80220295D01*
X125777549Y-80227309D01*
X125770190Y-80241077D01*
X125760813Y-80263716D01*
X125756033Y-80287749D01*
X125756033Y-80312253D01*
X125760814Y-80336286D01*
X125770190Y-80358923D01*
X125777549Y-80372691D01*
X125779677Y-80379705D01*
X125781000Y-80393140D01*
X125781000Y-80706860D01*
X125779677Y-80720295D01*
X125777549Y-80727309D01*
X125770190Y-80741077D01*
X125760813Y-80763716D01*
X125756033Y-80787749D01*
X125756033Y-80812253D01*
X125760814Y-80836286D01*
X125770190Y-80858923D01*
X125777549Y-80872691D01*
X125779677Y-80879705D01*
X125781000Y-80893140D01*
X125781000Y-81206860D01*
X125779677Y-81220295D01*
X125777549Y-81227309D01*
X125770190Y-81241077D01*
X125760813Y-81263716D01*
X125756033Y-81287749D01*
X125756033Y-81312253D01*
X125760814Y-81336286D01*
X125770190Y-81358923D01*
X125777549Y-81372691D01*
X125779677Y-81379705D01*
X125781000Y-81393140D01*
X125781000Y-81706860D01*
X125779677Y-81720295D01*
X125777549Y-81727309D01*
X125770190Y-81741077D01*
X125760813Y-81763716D01*
X125756033Y-81787749D01*
X125756033Y-81812253D01*
X125760814Y-81836286D01*
X125770190Y-81858923D01*
X125777549Y-81872691D01*
X125779677Y-81879705D01*
X125781000Y-81893140D01*
X125781000Y-82206860D01*
X125779677Y-82220295D01*
X125777549Y-82227310D01*
X125774092Y-82233776D01*
X125769442Y-82239442D01*
X125763776Y-82244092D01*
X125757310Y-82247549D01*
X125750295Y-82249677D01*
X125736860Y-82251000D01*
X124173140Y-82251000D01*
X124159705Y-82249677D01*
X124152690Y-82247549D01*
X124146224Y-82244092D01*
X124140558Y-82239442D01*
X124135908Y-82233776D01*
X124132451Y-82227310D01*
X124130323Y-82220295D01*
X124129000Y-82206860D01*
X124129000Y-81893140D01*
X124130323Y-81879705D01*
X124132451Y-81872691D01*
X124139810Y-81858923D01*
X124149187Y-81836284D01*
X124153967Y-81812251D01*
X124153967Y-81787747D01*
X124149186Y-81763714D01*
X124139810Y-81741077D01*
X124132451Y-81727309D01*
X124130323Y-81720295D01*
X124129000Y-81706860D01*
X124129000Y-81393140D01*
X124130323Y-81379705D01*
X124132451Y-81372691D01*
X124139810Y-81358923D01*
X124149187Y-81336284D01*
X124153967Y-81312251D01*
X124153967Y-81287747D01*
X124149186Y-81263714D01*
X124139810Y-81241077D01*
X124132451Y-81227309D01*
X124130323Y-81220295D01*
X124129000Y-81206860D01*
X124129000Y-80893140D01*
X124130323Y-80879705D01*
X124132451Y-80872691D01*
X124139810Y-80858923D01*
X124149187Y-80836284D01*
X124153967Y-80812251D01*
X124153967Y-80787747D01*
X124149186Y-80763714D01*
X124139810Y-80741077D01*
X124132451Y-80727309D01*
X124130323Y-80720295D01*
X124129000Y-80706860D01*
X124129000Y-80393140D01*
X124130323Y-80379705D01*
X124132451Y-80372691D01*
X124139810Y-80358923D01*
X124149187Y-80336284D01*
X124153967Y-80312251D01*
X124153967Y-80287747D01*
X124149186Y-80263714D01*
X124139810Y-80241077D01*
X124132451Y-80227309D01*
X124130323Y-80220295D01*
X124129000Y-80206860D01*
X124129000Y-79893140D01*
X124130323Y-79879705D01*
X124132451Y-79872691D01*
X124139810Y-79858923D01*
X124149187Y-79836284D01*
X124153967Y-79812251D01*
X124153967Y-79787747D01*
X124149186Y-79763714D01*
X124139810Y-79741077D01*
X124132451Y-79727309D01*
X124130323Y-79720295D01*
X124129000Y-79706860D01*
X124129000Y-79393140D01*
X124130323Y-79379705D01*
X124132451Y-79372691D01*
X124139810Y-79358923D01*
X124149187Y-79336284D01*
X124153967Y-79312251D01*
X124153967Y-79287747D01*
X124149186Y-79263714D01*
X124139810Y-79241077D01*
X124132451Y-79227309D01*
X124130323Y-79220295D01*
X124129000Y-79206860D01*
X124129000Y-78893140D01*
X124130323Y-78879705D01*
X124132451Y-78872691D01*
X124139810Y-78858923D01*
X124149187Y-78836284D01*
X124153967Y-78812251D01*
X124153967Y-78787747D01*
X124149186Y-78763714D01*
X124139810Y-78741077D01*
X124132451Y-78727309D01*
X124130323Y-78720295D01*
X124129000Y-78706860D01*
X124129000Y-78393140D01*
X124130323Y-78379705D01*
X124132451Y-78372691D01*
X124139810Y-78358923D01*
X124149187Y-78336284D01*
X124153967Y-78312251D01*
X124153967Y-78287747D01*
X124149186Y-78263714D01*
X124139810Y-78241077D01*
X124132451Y-78227309D01*
X124130323Y-78220295D01*
X124129000Y-78206860D01*
X124129000Y-77893140D01*
X124130323Y-77879705D01*
X124132451Y-77872691D01*
X124139810Y-77858923D01*
X124149187Y-77836284D01*
X124153967Y-77812251D01*
X124153967Y-77787747D01*
X124149186Y-77763714D01*
X124139810Y-77741077D01*
X124132451Y-77727309D01*
X124130323Y-77720295D01*
X124129000Y-77706860D01*
X124129000Y-77393140D01*
X124130323Y-77379705D01*
X124132451Y-77372691D01*
X124139810Y-77358923D01*
X124149187Y-77336284D01*
X124153967Y-77312251D01*
X124153967Y-77287747D01*
X124149186Y-77263714D01*
X124139810Y-77241077D01*
X124132451Y-77227309D01*
X124130323Y-77220295D01*
X124129000Y-77206860D01*
X124129000Y-76893140D01*
X124130323Y-76879705D01*
X124132451Y-76872691D01*
X124139810Y-76858923D01*
X124149187Y-76836284D01*
X124153967Y-76812251D01*
X124153967Y-76787747D01*
X124149186Y-76763714D01*
X124139810Y-76741077D01*
X124132451Y-76727309D01*
X124130323Y-76720295D01*
X124129000Y-76706860D01*
X124129000Y-76393140D01*
X124130323Y-76379705D01*
X124132451Y-76372691D01*
X124139810Y-76358923D01*
X124149187Y-76336284D01*
X124153967Y-76312251D01*
X124153967Y-76287747D01*
X124149186Y-76263714D01*
X124139810Y-76241077D01*
X124132451Y-76227309D01*
X124130323Y-76220295D01*
X124129000Y-76206860D01*
X124129000Y-75893140D01*
X124130323Y-75879705D01*
X124132451Y-75872691D01*
X124139810Y-75858923D01*
X124149187Y-75836284D01*
X124153967Y-75812251D01*
X124153967Y-75787747D01*
X124149186Y-75763714D01*
X124139810Y-75741077D01*
X124132451Y-75727309D01*
X124130323Y-75720295D01*
X124129000Y-75706860D01*
X124129000Y-75393140D01*
X124130323Y-75379705D01*
X124132451Y-75372691D01*
X124139810Y-75358923D01*
X124149187Y-75336284D01*
X124153967Y-75312251D01*
X124153967Y-75287747D01*
X124149186Y-75263714D01*
X124139810Y-75241077D01*
X124132451Y-75227309D01*
X124130323Y-75220295D01*
X124129000Y-75206860D01*
X124129000Y-74893140D01*
X124130323Y-74879705D01*
X124132451Y-74872691D01*
X124139810Y-74858923D01*
X124149187Y-74836284D01*
X124153967Y-74812251D01*
X124153967Y-74787747D01*
X124149186Y-74763714D01*
X124139810Y-74741077D01*
X124132451Y-74727309D01*
X124130323Y-74720295D01*
X124129000Y-74706860D01*
X124129000Y-74393140D01*
X124130323Y-74379705D01*
X124132451Y-74372690D01*
X124135908Y-74366224D01*
X124140558Y-74360558D01*
X124146224Y-74355908D01*
X124152690Y-74352451D01*
X124159705Y-74350323D01*
X124173140Y-74349000D01*
X125736860Y-74349000D01*
X125750295Y-74350323D01*
G37*
G36*
X137100295Y-74350323D02*
G01*
X137107310Y-74352451D01*
X137113776Y-74355908D01*
X137119442Y-74360558D01*
X137124092Y-74366224D01*
X137127549Y-74372690D01*
X137129677Y-74379705D01*
X137131000Y-74393140D01*
X137131000Y-74706860D01*
X137129677Y-74720295D01*
X137127549Y-74727309D01*
X137120190Y-74741077D01*
X137110813Y-74763716D01*
X137106033Y-74787749D01*
X137106033Y-74812253D01*
X137110814Y-74836286D01*
X137120190Y-74858923D01*
X137127549Y-74872691D01*
X137129677Y-74879705D01*
X137131000Y-74893140D01*
X137131000Y-75206860D01*
X137129677Y-75220295D01*
X137127549Y-75227309D01*
X137120190Y-75241077D01*
X137110813Y-75263716D01*
X137106033Y-75287749D01*
X137106033Y-75312253D01*
X137110814Y-75336286D01*
X137120190Y-75358923D01*
X137127549Y-75372691D01*
X137129677Y-75379705D01*
X137131000Y-75393140D01*
X137131000Y-75706860D01*
X137129677Y-75720295D01*
X137127549Y-75727309D01*
X137120190Y-75741077D01*
X137110813Y-75763716D01*
X137106033Y-75787749D01*
X137106033Y-75812253D01*
X137110814Y-75836286D01*
X137120190Y-75858923D01*
X137127549Y-75872691D01*
X137129677Y-75879705D01*
X137131000Y-75893140D01*
X137131000Y-76206860D01*
X137129677Y-76220295D01*
X137127549Y-76227309D01*
X137120190Y-76241077D01*
X137110813Y-76263716D01*
X137106033Y-76287749D01*
X137106033Y-76312253D01*
X137110814Y-76336286D01*
X137120190Y-76358923D01*
X137127549Y-76372691D01*
X137129677Y-76379705D01*
X137131000Y-76393140D01*
X137131000Y-76706860D01*
X137129677Y-76720295D01*
X137127549Y-76727309D01*
X137120190Y-76741077D01*
X137110813Y-76763716D01*
X137106033Y-76787749D01*
X137106033Y-76812253D01*
X137110814Y-76836286D01*
X137120190Y-76858923D01*
X137127549Y-76872691D01*
X137129677Y-76879705D01*
X137131000Y-76893140D01*
X137131000Y-77206860D01*
X137129677Y-77220295D01*
X137127549Y-77227309D01*
X137120190Y-77241077D01*
X137110813Y-77263716D01*
X137106033Y-77287749D01*
X137106033Y-77312253D01*
X137110814Y-77336286D01*
X137120190Y-77358923D01*
X137127549Y-77372691D01*
X137129677Y-77379705D01*
X137131000Y-77393140D01*
X137131000Y-77706860D01*
X137129677Y-77720295D01*
X137127549Y-77727309D01*
X137120190Y-77741077D01*
X137110813Y-77763716D01*
X137106033Y-77787749D01*
X137106033Y-77812253D01*
X137110814Y-77836286D01*
X137120190Y-77858923D01*
X137127549Y-77872691D01*
X137129677Y-77879705D01*
X137131000Y-77893140D01*
X137131000Y-78206860D01*
X137129677Y-78220295D01*
X137127549Y-78227309D01*
X137120190Y-78241077D01*
X137110813Y-78263716D01*
X137106033Y-78287749D01*
X137106033Y-78312253D01*
X137110814Y-78336286D01*
X137120190Y-78358923D01*
X137127549Y-78372691D01*
X137129677Y-78379705D01*
X137131000Y-78393140D01*
X137131000Y-78706860D01*
X137129677Y-78720295D01*
X137127549Y-78727309D01*
X137120190Y-78741077D01*
X137110813Y-78763716D01*
X137106033Y-78787749D01*
X137106033Y-78812253D01*
X137110814Y-78836286D01*
X137120190Y-78858923D01*
X137127549Y-78872691D01*
X137129677Y-78879705D01*
X137131000Y-78893140D01*
X137131000Y-79206860D01*
X137129677Y-79220295D01*
X137127549Y-79227309D01*
X137120190Y-79241077D01*
X137110813Y-79263716D01*
X137106033Y-79287749D01*
X137106033Y-79312253D01*
X137110814Y-79336286D01*
X137120190Y-79358923D01*
X137127549Y-79372691D01*
X137129677Y-79379705D01*
X137131000Y-79393140D01*
X137131000Y-79706860D01*
X137129677Y-79720295D01*
X137127549Y-79727309D01*
X137120190Y-79741077D01*
X137110813Y-79763716D01*
X137106033Y-79787749D01*
X137106033Y-79812253D01*
X137110814Y-79836286D01*
X137120190Y-79858923D01*
X137127549Y-79872691D01*
X137129677Y-79879705D01*
X137131000Y-79893140D01*
X137131000Y-80206860D01*
X137129677Y-80220295D01*
X137127549Y-80227309D01*
X137120190Y-80241077D01*
X137110813Y-80263716D01*
X137106033Y-80287749D01*
X137106033Y-80312253D01*
X137110814Y-80336286D01*
X137120190Y-80358923D01*
X137127549Y-80372691D01*
X137129677Y-80379705D01*
X137131000Y-80393140D01*
X137131000Y-80706860D01*
X137129677Y-80720295D01*
X137127549Y-80727309D01*
X137120190Y-80741077D01*
X137110813Y-80763716D01*
X137106033Y-80787749D01*
X137106033Y-80812253D01*
X137110814Y-80836286D01*
X137120190Y-80858923D01*
X137127549Y-80872691D01*
X137129677Y-80879705D01*
X137131000Y-80893140D01*
X137131000Y-81206860D01*
X137129677Y-81220295D01*
X137127549Y-81227309D01*
X137120190Y-81241077D01*
X137110813Y-81263716D01*
X137106033Y-81287749D01*
X137106033Y-81312253D01*
X137110814Y-81336286D01*
X137120190Y-81358923D01*
X137127549Y-81372691D01*
X137129677Y-81379705D01*
X137131000Y-81393140D01*
X137131000Y-81706860D01*
X137129677Y-81720295D01*
X137127549Y-81727309D01*
X137120190Y-81741077D01*
X137110813Y-81763716D01*
X137106033Y-81787749D01*
X137106033Y-81812253D01*
X137110814Y-81836286D01*
X137120190Y-81858923D01*
X137127549Y-81872691D01*
X137129677Y-81879705D01*
X137131000Y-81893140D01*
X137131000Y-82206860D01*
X137129677Y-82220295D01*
X137127549Y-82227310D01*
X137124092Y-82233776D01*
X137119442Y-82239442D01*
X137113776Y-82244092D01*
X137107310Y-82247549D01*
X137100295Y-82249677D01*
X137086860Y-82251000D01*
X135523140Y-82251000D01*
X135509705Y-82249677D01*
X135502690Y-82247549D01*
X135496224Y-82244092D01*
X135490558Y-82239442D01*
X135485908Y-82233776D01*
X135482451Y-82227310D01*
X135480323Y-82220295D01*
X135479000Y-82206860D01*
X135479000Y-81893140D01*
X135480323Y-81879705D01*
X135482451Y-81872691D01*
X135489810Y-81858923D01*
X135499187Y-81836284D01*
X135503967Y-81812251D01*
X135503967Y-81787747D01*
X135499186Y-81763714D01*
X135489810Y-81741077D01*
X135482451Y-81727309D01*
X135480323Y-81720295D01*
X135479000Y-81706860D01*
X135479000Y-81393140D01*
X135480323Y-81379705D01*
X135482451Y-81372691D01*
X135489810Y-81358923D01*
X135499187Y-81336284D01*
X135503967Y-81312251D01*
X135503967Y-81287747D01*
X135499186Y-81263714D01*
X135489810Y-81241077D01*
X135482451Y-81227309D01*
X135480323Y-81220295D01*
X135479000Y-81206860D01*
X135479000Y-80893140D01*
X135480323Y-80879705D01*
X135482451Y-80872691D01*
X135489810Y-80858923D01*
X135499187Y-80836284D01*
X135503967Y-80812251D01*
X135503967Y-80787747D01*
X135499186Y-80763714D01*
X135489810Y-80741077D01*
X135482451Y-80727309D01*
X135480323Y-80720295D01*
X135479000Y-80706860D01*
X135479000Y-80393140D01*
X135480323Y-80379705D01*
X135482451Y-80372691D01*
X135489810Y-80358923D01*
X135499187Y-80336284D01*
X135503967Y-80312251D01*
X135503967Y-80287747D01*
X135499186Y-80263714D01*
X135489810Y-80241077D01*
X135482451Y-80227309D01*
X135480323Y-80220295D01*
X135479000Y-80206860D01*
X135479000Y-79893140D01*
X135480323Y-79879705D01*
X135482451Y-79872691D01*
X135489810Y-79858923D01*
X135499187Y-79836284D01*
X135503967Y-79812251D01*
X135503967Y-79787747D01*
X135499186Y-79763714D01*
X135489810Y-79741077D01*
X135482451Y-79727309D01*
X135480323Y-79720295D01*
X135479000Y-79706860D01*
X135479000Y-79393140D01*
X135480323Y-79379705D01*
X135482451Y-79372691D01*
X135489810Y-79358923D01*
X135499187Y-79336284D01*
X135503967Y-79312251D01*
X135503967Y-79287747D01*
X135499186Y-79263714D01*
X135489810Y-79241077D01*
X135482451Y-79227309D01*
X135480323Y-79220295D01*
X135479000Y-79206860D01*
X135479000Y-78893140D01*
X135480323Y-78879705D01*
X135482451Y-78872691D01*
X135489810Y-78858923D01*
X135499187Y-78836284D01*
X135503967Y-78812251D01*
X135503967Y-78787747D01*
X135499186Y-78763714D01*
X135489810Y-78741077D01*
X135482451Y-78727309D01*
X135480323Y-78720295D01*
X135479000Y-78706860D01*
X135479000Y-78393140D01*
X135480323Y-78379705D01*
X135482451Y-78372691D01*
X135489810Y-78358923D01*
X135499187Y-78336284D01*
X135503967Y-78312251D01*
X135503967Y-78287747D01*
X135499186Y-78263714D01*
X135489810Y-78241077D01*
X135482451Y-78227309D01*
X135480323Y-78220295D01*
X135479000Y-78206860D01*
X135479000Y-77893140D01*
X135480323Y-77879705D01*
X135482451Y-77872691D01*
X135489810Y-77858923D01*
X135499187Y-77836284D01*
X135503967Y-77812251D01*
X135503967Y-77787747D01*
X135499186Y-77763714D01*
X135489810Y-77741077D01*
X135482451Y-77727309D01*
X135480323Y-77720295D01*
X135479000Y-77706860D01*
X135479000Y-77393140D01*
X135480323Y-77379705D01*
X135482451Y-77372691D01*
X135489810Y-77358923D01*
X135499187Y-77336284D01*
X135503967Y-77312251D01*
X135503967Y-77287747D01*
X135499186Y-77263714D01*
X135489810Y-77241077D01*
X135482451Y-77227309D01*
X135480323Y-77220295D01*
X135479000Y-77206860D01*
X135479000Y-76893140D01*
X135480323Y-76879705D01*
X135482451Y-76872691D01*
X135489810Y-76858923D01*
X135499187Y-76836284D01*
X135503967Y-76812251D01*
X135503967Y-76787747D01*
X135499186Y-76763714D01*
X135489810Y-76741077D01*
X135482451Y-76727309D01*
X135480323Y-76720295D01*
X135479000Y-76706860D01*
X135479000Y-76393140D01*
X135480323Y-76379705D01*
X135482451Y-76372691D01*
X135489810Y-76358923D01*
X135499187Y-76336284D01*
X135503967Y-76312251D01*
X135503967Y-76287747D01*
X135499186Y-76263714D01*
X135489810Y-76241077D01*
X135482451Y-76227309D01*
X135480323Y-76220295D01*
X135479000Y-76206860D01*
X135479000Y-75893140D01*
X135480323Y-75879705D01*
X135482451Y-75872691D01*
X135489810Y-75858923D01*
X135499187Y-75836284D01*
X135503967Y-75812251D01*
X135503967Y-75787747D01*
X135499186Y-75763714D01*
X135489810Y-75741077D01*
X135482451Y-75727309D01*
X135480323Y-75720295D01*
X135479000Y-75706860D01*
X135479000Y-75393140D01*
X135480323Y-75379705D01*
X135482451Y-75372691D01*
X135489810Y-75358923D01*
X135499187Y-75336284D01*
X135503967Y-75312251D01*
X135503967Y-75287747D01*
X135499186Y-75263714D01*
X135489810Y-75241077D01*
X135482451Y-75227309D01*
X135480323Y-75220295D01*
X135479000Y-75206860D01*
X135479000Y-74893140D01*
X135480323Y-74879705D01*
X135482451Y-74872691D01*
X135489810Y-74858923D01*
X135499187Y-74836284D01*
X135503967Y-74812251D01*
X135503967Y-74787747D01*
X135499186Y-74763714D01*
X135489810Y-74741077D01*
X135482451Y-74727309D01*
X135480323Y-74720295D01*
X135479000Y-74706860D01*
X135479000Y-74393140D01*
X135480323Y-74379705D01*
X135482451Y-74372690D01*
X135485908Y-74366224D01*
X135490558Y-74360558D01*
X135496224Y-74355908D01*
X135502690Y-74352451D01*
X135509705Y-74350323D01*
X135523140Y-74349000D01*
X137086860Y-74349000D01*
X137100295Y-74350323D01*
G37*
G36*
X159088512Y-80003927D02*
G01*
X159237812Y-80033624D01*
X159401784Y-80101544D01*
X159549354Y-80200147D01*
X159674853Y-80325646D01*
X159773456Y-80473216D01*
X159841376Y-80637188D01*
X159876000Y-80811259D01*
X159876000Y-80988741D01*
X159841376Y-81162812D01*
X159773456Y-81326784D01*
X159674853Y-81474354D01*
X159549354Y-81599853D01*
X159401784Y-81698456D01*
X159237812Y-81766376D01*
X159088512Y-81796073D01*
X159063742Y-81801000D01*
X158886258Y-81801000D01*
X158861488Y-81796073D01*
X158712188Y-81766376D01*
X158548216Y-81698456D01*
X158400646Y-81599853D01*
X158275147Y-81474354D01*
X158176544Y-81326784D01*
X158108624Y-81162812D01*
X158074000Y-80988741D01*
X158074000Y-80811259D01*
X158108624Y-80637188D01*
X158176544Y-80473216D01*
X158275147Y-80325646D01*
X158400646Y-80200147D01*
X158548216Y-80101544D01*
X158712188Y-80033624D01*
X158861488Y-80003927D01*
X158886258Y-79999000D01*
X159063742Y-79999000D01*
X159088512Y-80003927D01*
G37*
G36*
X146751000Y-81751000D02*
G01*
X143899000Y-81751000D01*
X143899000Y-80649000D01*
X146751000Y-80649000D01*
X146751000Y-81751000D01*
G37*
G36*
X152501000Y-81751000D02*
G01*
X149649000Y-81751000D01*
X149649000Y-80649000D01*
X152501000Y-80649000D01*
X152501000Y-81751000D01*
G37*
G36*
X105151000Y-79601000D02*
G01*
X101249000Y-79601000D01*
X101249000Y-77499000D01*
X105151000Y-77499000D01*
X105151000Y-79601000D01*
G37*
G36*
X142051000Y-78851000D02*
G01*
X139549000Y-78851000D01*
X139549000Y-77049000D01*
X142051000Y-77049000D01*
X142051000Y-78851000D01*
G37*
G36*
X111353512Y-76903927D02*
G01*
X111502812Y-76933624D01*
X111666784Y-77001544D01*
X111814354Y-77100147D01*
X111939853Y-77225646D01*
X112038456Y-77373216D01*
X112106376Y-77537188D01*
X112141000Y-77711259D01*
X112141000Y-77888741D01*
X112106376Y-78062812D01*
X112038456Y-78226784D01*
X111939853Y-78374354D01*
X111814354Y-78499853D01*
X111666784Y-78598456D01*
X111502812Y-78666376D01*
X111353512Y-78696073D01*
X111328742Y-78701000D01*
X111151258Y-78701000D01*
X111126488Y-78696073D01*
X110977188Y-78666376D01*
X110813216Y-78598456D01*
X110665646Y-78499853D01*
X110540147Y-78374354D01*
X110441544Y-78226784D01*
X110373624Y-78062812D01*
X110339000Y-77888741D01*
X110339000Y-77711259D01*
X110373624Y-77537188D01*
X110441544Y-77373216D01*
X110540147Y-77225646D01*
X110665646Y-77100147D01*
X110813216Y-77001544D01*
X110977188Y-76933624D01*
X111126488Y-76903927D01*
X111151258Y-76899000D01*
X111328742Y-76899000D01*
X111353512Y-76903927D01*
G37*
G36*
X116433512Y-76903927D02*
G01*
X116582812Y-76933624D01*
X116746784Y-77001544D01*
X116894354Y-77100147D01*
X117019853Y-77225646D01*
X117118456Y-77373216D01*
X117186376Y-77537188D01*
X117221000Y-77711259D01*
X117221000Y-77888741D01*
X117186376Y-78062812D01*
X117118456Y-78226784D01*
X117019853Y-78374354D01*
X116894354Y-78499853D01*
X116746784Y-78598456D01*
X116582812Y-78666376D01*
X116433512Y-78696073D01*
X116408742Y-78701000D01*
X116231258Y-78701000D01*
X116206488Y-78696073D01*
X116057188Y-78666376D01*
X115893216Y-78598456D01*
X115745646Y-78499853D01*
X115620147Y-78374354D01*
X115521544Y-78226784D01*
X115453624Y-78062812D01*
X115419000Y-77888741D01*
X115419000Y-77711259D01*
X115453624Y-77537188D01*
X115521544Y-77373216D01*
X115620147Y-77225646D01*
X115745646Y-77100147D01*
X115893216Y-77001544D01*
X116057188Y-76933624D01*
X116206488Y-76903927D01*
X116231258Y-76899000D01*
X116408742Y-76899000D01*
X116433512Y-76903927D01*
G37*
G36*
X113893512Y-76903927D02*
G01*
X114042812Y-76933624D01*
X114206784Y-77001544D01*
X114354354Y-77100147D01*
X114479853Y-77225646D01*
X114578456Y-77373216D01*
X114646376Y-77537188D01*
X114681000Y-77711259D01*
X114681000Y-77888741D01*
X114646376Y-78062812D01*
X114578456Y-78226784D01*
X114479853Y-78374354D01*
X114354354Y-78499853D01*
X114206784Y-78598456D01*
X114042812Y-78666376D01*
X113893512Y-78696073D01*
X113868742Y-78701000D01*
X113691258Y-78701000D01*
X113666488Y-78696073D01*
X113517188Y-78666376D01*
X113353216Y-78598456D01*
X113205646Y-78499853D01*
X113080147Y-78374354D01*
X112981544Y-78226784D01*
X112913624Y-78062812D01*
X112879000Y-77888741D01*
X112879000Y-77711259D01*
X112913624Y-77537188D01*
X112981544Y-77373216D01*
X113080147Y-77225646D01*
X113205646Y-77100147D01*
X113353216Y-77001544D01*
X113517188Y-76933624D01*
X113666488Y-76903927D01*
X113691258Y-76899000D01*
X113868742Y-76899000D01*
X113893512Y-76903927D01*
G37*
G36*
X109601000Y-78701000D02*
G01*
X107799000Y-78701000D01*
X107799000Y-76899000D01*
X109601000Y-76899000D01*
X109601000Y-78701000D01*
G37*
G36*
X157215098Y-77240362D02*
G01*
X157339941Y-77292074D01*
X157339943Y-77292075D01*
X157452299Y-77367149D01*
X157547851Y-77462701D01*
X157597622Y-77537188D01*
X157622926Y-77575059D01*
X157674638Y-77699902D01*
X157701000Y-77832434D01*
X157701000Y-77967566D01*
X157674638Y-78100098D01*
X157645639Y-78170107D01*
X157622925Y-78224943D01*
X157547851Y-78337299D01*
X157452299Y-78432851D01*
X157339943Y-78507925D01*
X157339942Y-78507926D01*
X157339941Y-78507926D01*
X157215098Y-78559638D01*
X157082566Y-78586000D01*
X156947434Y-78586000D01*
X156814902Y-78559638D01*
X156690059Y-78507926D01*
X156690058Y-78507926D01*
X156690057Y-78507925D01*
X156577701Y-78432851D01*
X156482149Y-78337299D01*
X156407075Y-78224943D01*
X156384361Y-78170107D01*
X156355362Y-78100098D01*
X156329000Y-77967566D01*
X156329000Y-77832434D01*
X156355362Y-77699902D01*
X156407074Y-77575059D01*
X156432379Y-77537188D01*
X156482149Y-77462701D01*
X156577701Y-77367149D01*
X156690057Y-77292075D01*
X156690059Y-77292074D01*
X156814902Y-77240362D01*
X156947434Y-77214000D01*
X157082566Y-77214000D01*
X157215098Y-77240362D01*
G37*
G36*
X153476000Y-76751000D02*
G01*
X151924000Y-76751000D01*
X151924000Y-74249000D01*
X153476000Y-74249000D01*
X153476000Y-76751000D01*
G37*
G36*
X149076000Y-76751000D02*
G01*
X147524000Y-76751000D01*
X147524000Y-74249000D01*
X149076000Y-74249000D01*
X149076000Y-76751000D01*
G37*
G36*
X142109468Y-74553565D02*
G01*
X142148138Y-74565296D01*
X142183777Y-74584346D01*
X142215017Y-74609983D01*
X142240654Y-74641223D01*
X142259704Y-74676862D01*
X142271435Y-74715532D01*
X142276000Y-74761888D01*
X142276000Y-75838112D01*
X142271435Y-75884468D01*
X142259704Y-75923138D01*
X142240654Y-75958777D01*
X142215017Y-75990017D01*
X142183777Y-76015654D01*
X142148138Y-76034704D01*
X142109468Y-76046435D01*
X142063112Y-76051000D01*
X141411888Y-76051000D01*
X141365532Y-76046435D01*
X141326862Y-76034704D01*
X141291223Y-76015654D01*
X141259983Y-75990017D01*
X141234346Y-75958777D01*
X141215296Y-75923138D01*
X141203565Y-75884468D01*
X141199000Y-75838112D01*
X141199000Y-74761888D01*
X141203565Y-74715532D01*
X141215296Y-74676862D01*
X141234346Y-74641223D01*
X141259983Y-74609983D01*
X141291223Y-74584346D01*
X141326862Y-74565296D01*
X141365532Y-74553565D01*
X141411888Y-74549000D01*
X142063112Y-74549000D01*
X142109468Y-74553565D01*
G37*
G36*
X140234468Y-74553565D02*
G01*
X140273138Y-74565296D01*
X140308777Y-74584346D01*
X140340017Y-74609983D01*
X140365654Y-74641223D01*
X140384704Y-74676862D01*
X140396435Y-74715532D01*
X140401000Y-74761888D01*
X140401000Y-75838112D01*
X140396435Y-75884468D01*
X140384704Y-75923138D01*
X140365654Y-75958777D01*
X140340017Y-75990017D01*
X140308777Y-76015654D01*
X140273138Y-76034704D01*
X140234468Y-76046435D01*
X140188112Y-76051000D01*
X139536888Y-76051000D01*
X139490532Y-76046435D01*
X139451862Y-76034704D01*
X139416223Y-76015654D01*
X139384983Y-75990017D01*
X139359346Y-75958777D01*
X139340296Y-75923138D01*
X139328565Y-75884468D01*
X139324000Y-75838112D01*
X139324000Y-74761888D01*
X139328565Y-74715532D01*
X139340296Y-74676862D01*
X139359346Y-74641223D01*
X139384983Y-74609983D01*
X139416223Y-74584346D01*
X139451862Y-74565296D01*
X139490532Y-74553565D01*
X139536888Y-74549000D01*
X140188112Y-74549000D01*
X140234468Y-74553565D01*
G37*
G36*
X158651613Y-70968663D02*
G01*
X158852410Y-71008604D01*
X159134674Y-71125521D01*
X159388705Y-71295259D01*
X159604741Y-71511295D01*
X159774479Y-71765326D01*
X159830055Y-71899500D01*
X159891396Y-72047591D01*
X159948507Y-72334704D01*
X159951000Y-72347240D01*
X159951000Y-72652760D01*
X159891396Y-72952410D01*
X159774479Y-73234674D01*
X159604741Y-73488705D01*
X159388705Y-73704741D01*
X159134674Y-73874479D01*
X158852410Y-73991396D01*
X158702585Y-74021198D01*
X158552761Y-74051000D01*
X158247239Y-74051000D01*
X158097415Y-74021198D01*
X157947590Y-73991396D01*
X157665326Y-73874479D01*
X157411295Y-73704741D01*
X157195259Y-73488705D01*
X157025521Y-73234674D01*
X156908604Y-72952410D01*
X156849000Y-72652760D01*
X156849000Y-72347240D01*
X156851494Y-72334704D01*
X156908604Y-72047591D01*
X156969945Y-71899500D01*
X157025521Y-71765326D01*
X157195259Y-71511295D01*
X157411295Y-71295259D01*
X157665326Y-71125521D01*
X157947590Y-71008604D01*
X158148387Y-70968663D01*
X158247239Y-70949000D01*
X158552761Y-70949000D01*
X158651613Y-70968663D01*
G37*
G36*
X97251613Y-70968663D02*
G01*
X97452410Y-71008604D01*
X97734674Y-71125521D01*
X97988705Y-71295259D01*
X98204741Y-71511295D01*
X98374479Y-71765326D01*
X98430055Y-71899500D01*
X98491396Y-72047591D01*
X98548507Y-72334704D01*
X98551000Y-72347240D01*
X98551000Y-72652760D01*
X98491396Y-72952410D01*
X98374479Y-73234674D01*
X98204741Y-73488705D01*
X97988705Y-73704741D01*
X97734674Y-73874479D01*
X97452410Y-73991396D01*
X97302585Y-74021198D01*
X97152761Y-74051000D01*
X96847239Y-74051000D01*
X96697415Y-74021198D01*
X96547590Y-73991396D01*
X96265326Y-73874479D01*
X96011295Y-73704741D01*
X95795259Y-73488705D01*
X95625521Y-73234674D01*
X95508604Y-72952410D01*
X95449000Y-72652760D01*
X95449000Y-72347240D01*
X95451494Y-72334704D01*
X95508604Y-72047591D01*
X95569945Y-71899500D01*
X95625521Y-71765326D01*
X95795259Y-71511295D01*
X96011295Y-71295259D01*
X96265326Y-71125521D01*
X96547590Y-71008604D01*
X96748387Y-70968663D01*
X96847239Y-70949000D01*
X97152761Y-70949000D01*
X97251613Y-70968663D01*
G37*
G36*
X127050295Y-71800323D02*
G01*
X127057309Y-71802451D01*
X127071077Y-71809810D01*
X127093716Y-71819187D01*
X127117749Y-71823967D01*
X127142253Y-71823967D01*
X127166286Y-71819186D01*
X127188923Y-71809810D01*
X127202691Y-71802451D01*
X127209705Y-71800323D01*
X127223140Y-71799000D01*
X127536860Y-71799000D01*
X127550295Y-71800323D01*
X127557309Y-71802451D01*
X127571077Y-71809810D01*
X127593716Y-71819187D01*
X127617749Y-71823967D01*
X127642253Y-71823967D01*
X127666286Y-71819186D01*
X127688923Y-71809810D01*
X127702691Y-71802451D01*
X127709705Y-71800323D01*
X127723140Y-71799000D01*
X128036860Y-71799000D01*
X128050295Y-71800323D01*
X128057309Y-71802451D01*
X128071077Y-71809810D01*
X128093716Y-71819187D01*
X128117749Y-71823967D01*
X128142253Y-71823967D01*
X128166286Y-71819186D01*
X128188923Y-71809810D01*
X128202691Y-71802451D01*
X128209705Y-71800323D01*
X128223140Y-71799000D01*
X128536860Y-71799000D01*
X128550295Y-71800323D01*
X128557309Y-71802451D01*
X128571077Y-71809810D01*
X128593716Y-71819187D01*
X128617749Y-71823967D01*
X128642253Y-71823967D01*
X128666286Y-71819186D01*
X128688923Y-71809810D01*
X128702691Y-71802451D01*
X128709705Y-71800323D01*
X128723140Y-71799000D01*
X129036860Y-71799000D01*
X129050295Y-71800323D01*
X129057309Y-71802451D01*
X129071077Y-71809810D01*
X129093716Y-71819187D01*
X129117749Y-71823967D01*
X129142253Y-71823967D01*
X129166286Y-71819186D01*
X129188923Y-71809810D01*
X129202691Y-71802451D01*
X129209705Y-71800323D01*
X129223140Y-71799000D01*
X129536860Y-71799000D01*
X129550295Y-71800323D01*
X129557309Y-71802451D01*
X129571077Y-71809810D01*
X129593716Y-71819187D01*
X129617749Y-71823967D01*
X129642253Y-71823967D01*
X129666286Y-71819186D01*
X129688923Y-71809810D01*
X129702691Y-71802451D01*
X129709705Y-71800323D01*
X129723140Y-71799000D01*
X130036860Y-71799000D01*
X130050295Y-71800323D01*
X130057309Y-71802451D01*
X130071077Y-71809810D01*
X130093716Y-71819187D01*
X130117749Y-71823967D01*
X130142253Y-71823967D01*
X130166286Y-71819186D01*
X130188923Y-71809810D01*
X130202691Y-71802451D01*
X130209705Y-71800323D01*
X130223140Y-71799000D01*
X130536860Y-71799000D01*
X130550295Y-71800323D01*
X130557309Y-71802451D01*
X130571077Y-71809810D01*
X130593716Y-71819187D01*
X130617749Y-71823967D01*
X130642253Y-71823967D01*
X130666286Y-71819186D01*
X130688923Y-71809810D01*
X130702691Y-71802451D01*
X130709705Y-71800323D01*
X130723140Y-71799000D01*
X131036860Y-71799000D01*
X131050295Y-71800323D01*
X131057309Y-71802451D01*
X131071077Y-71809810D01*
X131093716Y-71819187D01*
X131117749Y-71823967D01*
X131142253Y-71823967D01*
X131166286Y-71819186D01*
X131188923Y-71809810D01*
X131202691Y-71802451D01*
X131209705Y-71800323D01*
X131223140Y-71799000D01*
X131536860Y-71799000D01*
X131550295Y-71800323D01*
X131557309Y-71802451D01*
X131571077Y-71809810D01*
X131593716Y-71819187D01*
X131617749Y-71823967D01*
X131642253Y-71823967D01*
X131666286Y-71819186D01*
X131688923Y-71809810D01*
X131702691Y-71802451D01*
X131709705Y-71800323D01*
X131723140Y-71799000D01*
X132036860Y-71799000D01*
X132050295Y-71800323D01*
X132057309Y-71802451D01*
X132071077Y-71809810D01*
X132093716Y-71819187D01*
X132117749Y-71823967D01*
X132142253Y-71823967D01*
X132166286Y-71819186D01*
X132188923Y-71809810D01*
X132202691Y-71802451D01*
X132209705Y-71800323D01*
X132223140Y-71799000D01*
X132536860Y-71799000D01*
X132550295Y-71800323D01*
X132557309Y-71802451D01*
X132571077Y-71809810D01*
X132593716Y-71819187D01*
X132617749Y-71823967D01*
X132642253Y-71823967D01*
X132666286Y-71819186D01*
X132688923Y-71809810D01*
X132702691Y-71802451D01*
X132709705Y-71800323D01*
X132723140Y-71799000D01*
X133036860Y-71799000D01*
X133050295Y-71800323D01*
X133057309Y-71802451D01*
X133071077Y-71809810D01*
X133093716Y-71819187D01*
X133117749Y-71823967D01*
X133142253Y-71823967D01*
X133166286Y-71819186D01*
X133188923Y-71809810D01*
X133202691Y-71802451D01*
X133209705Y-71800323D01*
X133223140Y-71799000D01*
X133536860Y-71799000D01*
X133550295Y-71800323D01*
X133557309Y-71802451D01*
X133571077Y-71809810D01*
X133593716Y-71819187D01*
X133617749Y-71823967D01*
X133642253Y-71823967D01*
X133666286Y-71819186D01*
X133688923Y-71809810D01*
X133702691Y-71802451D01*
X133709705Y-71800323D01*
X133723140Y-71799000D01*
X134036860Y-71799000D01*
X134050295Y-71800323D01*
X134057309Y-71802451D01*
X134071077Y-71809810D01*
X134093716Y-71819187D01*
X134117749Y-71823967D01*
X134142253Y-71823967D01*
X134166286Y-71819186D01*
X134188923Y-71809810D01*
X134202691Y-71802451D01*
X134209705Y-71800323D01*
X134223140Y-71799000D01*
X134536860Y-71799000D01*
X134550295Y-71800323D01*
X134557310Y-71802451D01*
X134563776Y-71805908D01*
X134569442Y-71810558D01*
X134574092Y-71816224D01*
X134577549Y-71822690D01*
X134579677Y-71829705D01*
X134581000Y-71843140D01*
X134581000Y-73406860D01*
X134579677Y-73420295D01*
X134577549Y-73427310D01*
X134574092Y-73433776D01*
X134569442Y-73439442D01*
X134563776Y-73444092D01*
X134557310Y-73447549D01*
X134550295Y-73449677D01*
X134536860Y-73451000D01*
X134223140Y-73451000D01*
X134209705Y-73449677D01*
X134202691Y-73447549D01*
X134188923Y-73440190D01*
X134166284Y-73430813D01*
X134142251Y-73426033D01*
X134117747Y-73426033D01*
X134093714Y-73430814D01*
X134071077Y-73440190D01*
X134057309Y-73447549D01*
X134050295Y-73449677D01*
X134036860Y-73451000D01*
X133723140Y-73451000D01*
X133709705Y-73449677D01*
X133702691Y-73447549D01*
X133688923Y-73440190D01*
X133666284Y-73430813D01*
X133642251Y-73426033D01*
X133617747Y-73426033D01*
X133593714Y-73430814D01*
X133571077Y-73440190D01*
X133557309Y-73447549D01*
X133550295Y-73449677D01*
X133536860Y-73451000D01*
X133223140Y-73451000D01*
X133209705Y-73449677D01*
X133202691Y-73447549D01*
X133188923Y-73440190D01*
X133166284Y-73430813D01*
X133142251Y-73426033D01*
X133117747Y-73426033D01*
X133093714Y-73430814D01*
X133071077Y-73440190D01*
X133057309Y-73447549D01*
X133050295Y-73449677D01*
X133036860Y-73451000D01*
X132723140Y-73451000D01*
X132709705Y-73449677D01*
X132702691Y-73447549D01*
X132688923Y-73440190D01*
X132666284Y-73430813D01*
X132642251Y-73426033D01*
X132617747Y-73426033D01*
X132593714Y-73430814D01*
X132571077Y-73440190D01*
X132557309Y-73447549D01*
X132550295Y-73449677D01*
X132536860Y-73451000D01*
X132223140Y-73451000D01*
X132209705Y-73449677D01*
X132202691Y-73447549D01*
X132188923Y-73440190D01*
X132166284Y-73430813D01*
X132142251Y-73426033D01*
X132117747Y-73426033D01*
X132093714Y-73430814D01*
X132071077Y-73440190D01*
X132057309Y-73447549D01*
X132050295Y-73449677D01*
X132036860Y-73451000D01*
X131723140Y-73451000D01*
X131709705Y-73449677D01*
X131702691Y-73447549D01*
X131688923Y-73440190D01*
X131666284Y-73430813D01*
X131642251Y-73426033D01*
X131617747Y-73426033D01*
X131593714Y-73430814D01*
X131571077Y-73440190D01*
X131557309Y-73447549D01*
X131550295Y-73449677D01*
X131536860Y-73451000D01*
X131223140Y-73451000D01*
X131209705Y-73449677D01*
X131202691Y-73447549D01*
X131188923Y-73440190D01*
X131166284Y-73430813D01*
X131142251Y-73426033D01*
X131117747Y-73426033D01*
X131093714Y-73430814D01*
X131071077Y-73440190D01*
X131057309Y-73447549D01*
X131050295Y-73449677D01*
X131036860Y-73451000D01*
X130723140Y-73451000D01*
X130709705Y-73449677D01*
X130702691Y-73447549D01*
X130688923Y-73440190D01*
X130666284Y-73430813D01*
X130642251Y-73426033D01*
X130617747Y-73426033D01*
X130593714Y-73430814D01*
X130571077Y-73440190D01*
X130557309Y-73447549D01*
X130550295Y-73449677D01*
X130536860Y-73451000D01*
X130223140Y-73451000D01*
X130209705Y-73449677D01*
X130202691Y-73447549D01*
X130188923Y-73440190D01*
X130166284Y-73430813D01*
X130142251Y-73426033D01*
X130117747Y-73426033D01*
X130093714Y-73430814D01*
X130071077Y-73440190D01*
X130057309Y-73447549D01*
X130050295Y-73449677D01*
X130036860Y-73451000D01*
X129723140Y-73451000D01*
X129709705Y-73449677D01*
X129702691Y-73447549D01*
X129688923Y-73440190D01*
X129666284Y-73430813D01*
X129642251Y-73426033D01*
X129617747Y-73426033D01*
X129593714Y-73430814D01*
X129571077Y-73440190D01*
X129557309Y-73447549D01*
X129550295Y-73449677D01*
X129536860Y-73451000D01*
X129223140Y-73451000D01*
X129209705Y-73449677D01*
X129202691Y-73447549D01*
X129188923Y-73440190D01*
X129166284Y-73430813D01*
X129142251Y-73426033D01*
X129117747Y-73426033D01*
X129093714Y-73430814D01*
X129071077Y-73440190D01*
X129057309Y-73447549D01*
X129050295Y-73449677D01*
X129036860Y-73451000D01*
X128723140Y-73451000D01*
X128709705Y-73449677D01*
X128702691Y-73447549D01*
X128688923Y-73440190D01*
X128666284Y-73430813D01*
X128642251Y-73426033D01*
X128617747Y-73426033D01*
X128593714Y-73430814D01*
X128571077Y-73440190D01*
X128557309Y-73447549D01*
X128550295Y-73449677D01*
X128536860Y-73451000D01*
X128223140Y-73451000D01*
X128209705Y-73449677D01*
X128202691Y-73447549D01*
X128188923Y-73440190D01*
X128166284Y-73430813D01*
X128142251Y-73426033D01*
X128117747Y-73426033D01*
X128093714Y-73430814D01*
X128071077Y-73440190D01*
X128057309Y-73447549D01*
X128050295Y-73449677D01*
X128036860Y-73451000D01*
X127723140Y-73451000D01*
X127709705Y-73449677D01*
X127702691Y-73447549D01*
X127688923Y-73440190D01*
X127666284Y-73430813D01*
X127642251Y-73426033D01*
X127617747Y-73426033D01*
X127593714Y-73430814D01*
X127571077Y-73440190D01*
X127557309Y-73447549D01*
X127550295Y-73449677D01*
X127536860Y-73451000D01*
X127223140Y-73451000D01*
X127209705Y-73449677D01*
X127202691Y-73447549D01*
X127188923Y-73440190D01*
X127166284Y-73430813D01*
X127142251Y-73426033D01*
X127117747Y-73426033D01*
X127093714Y-73430814D01*
X127071077Y-73440190D01*
X127057309Y-73447549D01*
X127050295Y-73449677D01*
X127036860Y-73451000D01*
X126723140Y-73451000D01*
X126709705Y-73449677D01*
X126702690Y-73447549D01*
X126696224Y-73444092D01*
X126690558Y-73439442D01*
X126685908Y-73433776D01*
X126682451Y-73427310D01*
X126680323Y-73420295D01*
X126679000Y-73406860D01*
X126679000Y-71843140D01*
X126680323Y-71829705D01*
X126682451Y-71822690D01*
X126685908Y-71816224D01*
X126690558Y-71810558D01*
X126696224Y-71805908D01*
X126702690Y-71802451D01*
X126709705Y-71800323D01*
X126723140Y-71799000D01*
X127036860Y-71799000D01*
X127050295Y-71800323D01*
G37*
G36*
X146009468Y-70853565D02*
G01*
X146048138Y-70865296D01*
X146083777Y-70884346D01*
X146115017Y-70909983D01*
X146140654Y-70941223D01*
X146159704Y-70976862D01*
X146171435Y-71015532D01*
X146176000Y-71061888D01*
X146176000Y-72138112D01*
X146171435Y-72184468D01*
X146159704Y-72223138D01*
X146140654Y-72258777D01*
X146115017Y-72290017D01*
X146083777Y-72315654D01*
X146048138Y-72334704D01*
X146009468Y-72346435D01*
X145963112Y-72351000D01*
X145311888Y-72351000D01*
X145265532Y-72346435D01*
X145226862Y-72334704D01*
X145191223Y-72315654D01*
X145159983Y-72290017D01*
X145134346Y-72258777D01*
X145115296Y-72223138D01*
X145103565Y-72184468D01*
X145099000Y-72138112D01*
X145099000Y-71061888D01*
X145103565Y-71015532D01*
X145115296Y-70976862D01*
X145134346Y-70941223D01*
X145159983Y-70909983D01*
X145191223Y-70884346D01*
X145226862Y-70865296D01*
X145265532Y-70853565D01*
X145311888Y-70849000D01*
X145963112Y-70849000D01*
X146009468Y-70853565D01*
G37*
G36*
X144134468Y-70853565D02*
G01*
X144173138Y-70865296D01*
X144208777Y-70884346D01*
X144240017Y-70909983D01*
X144265654Y-70941223D01*
X144284704Y-70976862D01*
X144296435Y-71015532D01*
X144301000Y-71061888D01*
X144301000Y-72138112D01*
X144296435Y-72184468D01*
X144284704Y-72223138D01*
X144265654Y-72258777D01*
X144240017Y-72290017D01*
X144208777Y-72315654D01*
X144173138Y-72334704D01*
X144134468Y-72346435D01*
X144088112Y-72351000D01*
X143436888Y-72351000D01*
X143390532Y-72346435D01*
X143351862Y-72334704D01*
X143316223Y-72315654D01*
X143284983Y-72290017D01*
X143259346Y-72258777D01*
X143240296Y-72223138D01*
X143228565Y-72184468D01*
X143224000Y-72138112D01*
X143224000Y-71061888D01*
X143228565Y-71015532D01*
X143240296Y-70976862D01*
X143259346Y-70941223D01*
X143284983Y-70909983D01*
X143316223Y-70884346D01*
X143351862Y-70865296D01*
X143390532Y-70853565D01*
X143436888Y-70849000D01*
X144088112Y-70849000D01*
X144134468Y-70853565D01*
G37*
M02*
